%TF.GenerationSoftware,KiCad,Pcbnew,8.0.8*%
%TF.CreationDate,2025-03-09T18:25:25-04:00*%
%TF.ProjectId,Power_Elec_Project,506f7765-725f-4456-9c65-635f50726f6a,1*%
%TF.SameCoordinates,Original*%
%TF.FileFunction,Drillmap*%
%TF.FilePolarity,Positive*%
%FSLAX45Y45*%
G04 Gerber Fmt 4.5, Leading zero omitted, Abs format (unit mm)*
G04 Created by KiCad (PCBNEW 8.0.8) date 2025-03-09 18:25:25*
%MOMM*%
%LPD*%
G01*
G04 APERTURE LIST*
%ADD10C,0.050000*%
%ADD11C,0.200000*%
%ADD12C,0.220000*%
G04 APERTURE END LIST*
D10*
X8800000Y-3250000D02*
X21350000Y-3250000D01*
X21650000Y-13950000D02*
G75*
G02*
X21250000Y-14350000I-400000J0D01*
G01*
X8900000Y-14350000D02*
G75*
G02*
X8500000Y-13950000I0J400000D01*
G01*
X21250000Y-14350000D02*
X16350000Y-14350000D01*
X8500003Y-13950000D02*
X8500000Y-3550000D01*
X8500000Y-3550000D02*
G75*
G02*
X8800000Y-3250000I300000J0D01*
G01*
X21350000Y-3250000D02*
G75*
G02*
X21650000Y-3550000I0J-300000D01*
G01*
X16350000Y-14350000D02*
G75*
G02*
X10650000Y-14350000I-2850000J1500000D01*
G01*
X8900000Y-14350000D02*
X10650000Y-14350000D01*
X21650000Y-3550000D02*
X21650000Y-13950000D01*
X13850000Y-12850000D02*
G75*
G02*
X13150000Y-12850000I-350000J0D01*
G01*
X13150000Y-12850000D02*
G75*
G02*
X13850000Y-12850000I350000J0D01*
G01*
D11*
D12*
X8690000Y-3440000D02*
X8910000Y-3660000D01*
X8910000Y-3440000D02*
X8690000Y-3660000D01*
X10090000Y-13840000D02*
X10310000Y-14060000D01*
X10310000Y-13840000D02*
X10090000Y-14060000D01*
X19790000Y-13890000D02*
X20010000Y-14110000D01*
X20010000Y-13890000D02*
X19790000Y-14110000D01*
X21240000Y-3440000D02*
X21460000Y-3660000D01*
X21460000Y-3440000D02*
X21240000Y-3660000D01*
D11*
X8758277Y-16384620D02*
X8758277Y-16184620D01*
X8758277Y-16184620D02*
X8805896Y-16184620D01*
X8805896Y-16184620D02*
X8834467Y-16194144D01*
X8834467Y-16194144D02*
X8853515Y-16213192D01*
X8853515Y-16213192D02*
X8863039Y-16232239D01*
X8863039Y-16232239D02*
X8872563Y-16270334D01*
X8872563Y-16270334D02*
X8872563Y-16298906D01*
X8872563Y-16298906D02*
X8863039Y-16337001D01*
X8863039Y-16337001D02*
X8853515Y-16356049D01*
X8853515Y-16356049D02*
X8834467Y-16375096D01*
X8834467Y-16375096D02*
X8805896Y-16384620D01*
X8805896Y-16384620D02*
X8758277Y-16384620D01*
X8958277Y-16384620D02*
X8958277Y-16251287D01*
X8958277Y-16289382D02*
X8967801Y-16270334D01*
X8967801Y-16270334D02*
X8977324Y-16260811D01*
X8977324Y-16260811D02*
X8996372Y-16251287D01*
X8996372Y-16251287D02*
X9015420Y-16251287D01*
X9082086Y-16384620D02*
X9082086Y-16251287D01*
X9082086Y-16184620D02*
X9072563Y-16194144D01*
X9072563Y-16194144D02*
X9082086Y-16203668D01*
X9082086Y-16203668D02*
X9091610Y-16194144D01*
X9091610Y-16194144D02*
X9082086Y-16184620D01*
X9082086Y-16184620D02*
X9082086Y-16203668D01*
X9205896Y-16384620D02*
X9186848Y-16375096D01*
X9186848Y-16375096D02*
X9177324Y-16356049D01*
X9177324Y-16356049D02*
X9177324Y-16184620D01*
X9310658Y-16384620D02*
X9291610Y-16375096D01*
X9291610Y-16375096D02*
X9282086Y-16356049D01*
X9282086Y-16356049D02*
X9282086Y-16184620D01*
X9539229Y-16384620D02*
X9539229Y-16184620D01*
X9539229Y-16184620D02*
X9605896Y-16327477D01*
X9605896Y-16327477D02*
X9672563Y-16184620D01*
X9672563Y-16184620D02*
X9672563Y-16384620D01*
X9853515Y-16384620D02*
X9853515Y-16279858D01*
X9853515Y-16279858D02*
X9843991Y-16260811D01*
X9843991Y-16260811D02*
X9824944Y-16251287D01*
X9824944Y-16251287D02*
X9786848Y-16251287D01*
X9786848Y-16251287D02*
X9767801Y-16260811D01*
X9853515Y-16375096D02*
X9834467Y-16384620D01*
X9834467Y-16384620D02*
X9786848Y-16384620D01*
X9786848Y-16384620D02*
X9767801Y-16375096D01*
X9767801Y-16375096D02*
X9758277Y-16356049D01*
X9758277Y-16356049D02*
X9758277Y-16337001D01*
X9758277Y-16337001D02*
X9767801Y-16317954D01*
X9767801Y-16317954D02*
X9786848Y-16308430D01*
X9786848Y-16308430D02*
X9834467Y-16308430D01*
X9834467Y-16308430D02*
X9853515Y-16298906D01*
X9948753Y-16251287D02*
X9948753Y-16451287D01*
X9948753Y-16260811D02*
X9967801Y-16251287D01*
X9967801Y-16251287D02*
X10005896Y-16251287D01*
X10005896Y-16251287D02*
X10024944Y-16260811D01*
X10024944Y-16260811D02*
X10034467Y-16270334D01*
X10034467Y-16270334D02*
X10043991Y-16289382D01*
X10043991Y-16289382D02*
X10043991Y-16346525D01*
X10043991Y-16346525D02*
X10034467Y-16365573D01*
X10034467Y-16365573D02*
X10024944Y-16375096D01*
X10024944Y-16375096D02*
X10005896Y-16384620D01*
X10005896Y-16384620D02*
X9967801Y-16384620D01*
X9967801Y-16384620D02*
X9948753Y-16375096D01*
X10129705Y-16365573D02*
X10139229Y-16375096D01*
X10139229Y-16375096D02*
X10129705Y-16384620D01*
X10129705Y-16384620D02*
X10120182Y-16375096D01*
X10120182Y-16375096D02*
X10129705Y-16365573D01*
X10129705Y-16365573D02*
X10129705Y-16384620D01*
X10129705Y-16260811D02*
X10139229Y-16270334D01*
X10139229Y-16270334D02*
X10129705Y-16279858D01*
X10129705Y-16279858D02*
X10120182Y-16270334D01*
X10120182Y-16270334D02*
X10129705Y-16260811D01*
X10129705Y-16260811D02*
X10129705Y-16279858D01*
X8297500Y-16613136D02*
X8497500Y-16813137D01*
X8497500Y-16613136D02*
X8297500Y-16813137D01*
X8748753Y-16623668D02*
X8758277Y-16614144D01*
X8758277Y-16614144D02*
X8777324Y-16604620D01*
X8777324Y-16604620D02*
X8824944Y-16604620D01*
X8824944Y-16604620D02*
X8843991Y-16614144D01*
X8843991Y-16614144D02*
X8853515Y-16623668D01*
X8853515Y-16623668D02*
X8863039Y-16642715D01*
X8863039Y-16642715D02*
X8863039Y-16661763D01*
X8863039Y-16661763D02*
X8853515Y-16690334D01*
X8853515Y-16690334D02*
X8739229Y-16804620D01*
X8739229Y-16804620D02*
X8863039Y-16804620D01*
X8948753Y-16785573D02*
X8958277Y-16795097D01*
X8958277Y-16795097D02*
X8948753Y-16804620D01*
X8948753Y-16804620D02*
X8939229Y-16795097D01*
X8939229Y-16795097D02*
X8948753Y-16785573D01*
X8948753Y-16785573D02*
X8948753Y-16804620D01*
X9034467Y-16623668D02*
X9043991Y-16614144D01*
X9043991Y-16614144D02*
X9063039Y-16604620D01*
X9063039Y-16604620D02*
X9110658Y-16604620D01*
X9110658Y-16604620D02*
X9129705Y-16614144D01*
X9129705Y-16614144D02*
X9139229Y-16623668D01*
X9139229Y-16623668D02*
X9148753Y-16642715D01*
X9148753Y-16642715D02*
X9148753Y-16661763D01*
X9148753Y-16661763D02*
X9139229Y-16690334D01*
X9139229Y-16690334D02*
X9024944Y-16804620D01*
X9024944Y-16804620D02*
X9148753Y-16804620D01*
X9272563Y-16604620D02*
X9291610Y-16604620D01*
X9291610Y-16604620D02*
X9310658Y-16614144D01*
X9310658Y-16614144D02*
X9320182Y-16623668D01*
X9320182Y-16623668D02*
X9329705Y-16642715D01*
X9329705Y-16642715D02*
X9339229Y-16680811D01*
X9339229Y-16680811D02*
X9339229Y-16728430D01*
X9339229Y-16728430D02*
X9329705Y-16766525D01*
X9329705Y-16766525D02*
X9320182Y-16785573D01*
X9320182Y-16785573D02*
X9310658Y-16795097D01*
X9310658Y-16795097D02*
X9291610Y-16804620D01*
X9291610Y-16804620D02*
X9272563Y-16804620D01*
X9272563Y-16804620D02*
X9253515Y-16795097D01*
X9253515Y-16795097D02*
X9243991Y-16785573D01*
X9243991Y-16785573D02*
X9234467Y-16766525D01*
X9234467Y-16766525D02*
X9224944Y-16728430D01*
X9224944Y-16728430D02*
X9224944Y-16680811D01*
X9224944Y-16680811D02*
X9234467Y-16642715D01*
X9234467Y-16642715D02*
X9243991Y-16623668D01*
X9243991Y-16623668D02*
X9253515Y-16614144D01*
X9253515Y-16614144D02*
X9272563Y-16604620D01*
X9463039Y-16604620D02*
X9482086Y-16604620D01*
X9482086Y-16604620D02*
X9501134Y-16614144D01*
X9501134Y-16614144D02*
X9510658Y-16623668D01*
X9510658Y-16623668D02*
X9520182Y-16642715D01*
X9520182Y-16642715D02*
X9529705Y-16680811D01*
X9529705Y-16680811D02*
X9529705Y-16728430D01*
X9529705Y-16728430D02*
X9520182Y-16766525D01*
X9520182Y-16766525D02*
X9510658Y-16785573D01*
X9510658Y-16785573D02*
X9501134Y-16795097D01*
X9501134Y-16795097D02*
X9482086Y-16804620D01*
X9482086Y-16804620D02*
X9463039Y-16804620D01*
X9463039Y-16804620D02*
X9443991Y-16795097D01*
X9443991Y-16795097D02*
X9434467Y-16785573D01*
X9434467Y-16785573D02*
X9424944Y-16766525D01*
X9424944Y-16766525D02*
X9415420Y-16728430D01*
X9415420Y-16728430D02*
X9415420Y-16680811D01*
X9415420Y-16680811D02*
X9424944Y-16642715D01*
X9424944Y-16642715D02*
X9434467Y-16623668D01*
X9434467Y-16623668D02*
X9443991Y-16614144D01*
X9443991Y-16614144D02*
X9463039Y-16604620D01*
X9615420Y-16804620D02*
X9615420Y-16671287D01*
X9615420Y-16690334D02*
X9624944Y-16680811D01*
X9624944Y-16680811D02*
X9643991Y-16671287D01*
X9643991Y-16671287D02*
X9672563Y-16671287D01*
X9672563Y-16671287D02*
X9691610Y-16680811D01*
X9691610Y-16680811D02*
X9701134Y-16699858D01*
X9701134Y-16699858D02*
X9701134Y-16804620D01*
X9701134Y-16699858D02*
X9710658Y-16680811D01*
X9710658Y-16680811D02*
X9729705Y-16671287D01*
X9729705Y-16671287D02*
X9758277Y-16671287D01*
X9758277Y-16671287D02*
X9777325Y-16680811D01*
X9777325Y-16680811D02*
X9786848Y-16699858D01*
X9786848Y-16699858D02*
X9786848Y-16804620D01*
X9882086Y-16804620D02*
X9882086Y-16671287D01*
X9882086Y-16690334D02*
X9891610Y-16680811D01*
X9891610Y-16680811D02*
X9910658Y-16671287D01*
X9910658Y-16671287D02*
X9939229Y-16671287D01*
X9939229Y-16671287D02*
X9958277Y-16680811D01*
X9958277Y-16680811D02*
X9967801Y-16699858D01*
X9967801Y-16699858D02*
X9967801Y-16804620D01*
X9967801Y-16699858D02*
X9977325Y-16680811D01*
X9977325Y-16680811D02*
X9996372Y-16671287D01*
X9996372Y-16671287D02*
X10024944Y-16671287D01*
X10024944Y-16671287D02*
X10043991Y-16680811D01*
X10043991Y-16680811D02*
X10053515Y-16699858D01*
X10053515Y-16699858D02*
X10053515Y-16804620D01*
X10443991Y-16595096D02*
X10272563Y-16852239D01*
X10701134Y-16604620D02*
X10720182Y-16604620D01*
X10720182Y-16604620D02*
X10739229Y-16614144D01*
X10739229Y-16614144D02*
X10748753Y-16623668D01*
X10748753Y-16623668D02*
X10758277Y-16642715D01*
X10758277Y-16642715D02*
X10767801Y-16680811D01*
X10767801Y-16680811D02*
X10767801Y-16728430D01*
X10767801Y-16728430D02*
X10758277Y-16766525D01*
X10758277Y-16766525D02*
X10748753Y-16785573D01*
X10748753Y-16785573D02*
X10739229Y-16795097D01*
X10739229Y-16795097D02*
X10720182Y-16804620D01*
X10720182Y-16804620D02*
X10701134Y-16804620D01*
X10701134Y-16804620D02*
X10682087Y-16795097D01*
X10682087Y-16795097D02*
X10672563Y-16785573D01*
X10672563Y-16785573D02*
X10663039Y-16766525D01*
X10663039Y-16766525D02*
X10653515Y-16728430D01*
X10653515Y-16728430D02*
X10653515Y-16680811D01*
X10653515Y-16680811D02*
X10663039Y-16642715D01*
X10663039Y-16642715D02*
X10672563Y-16623668D01*
X10672563Y-16623668D02*
X10682087Y-16614144D01*
X10682087Y-16614144D02*
X10701134Y-16604620D01*
X10853515Y-16785573D02*
X10863039Y-16795097D01*
X10863039Y-16795097D02*
X10853515Y-16804620D01*
X10853515Y-16804620D02*
X10843991Y-16795097D01*
X10843991Y-16795097D02*
X10853515Y-16785573D01*
X10853515Y-16785573D02*
X10853515Y-16804620D01*
X10986848Y-16604620D02*
X11005896Y-16604620D01*
X11005896Y-16604620D02*
X11024944Y-16614144D01*
X11024944Y-16614144D02*
X11034468Y-16623668D01*
X11034468Y-16623668D02*
X11043991Y-16642715D01*
X11043991Y-16642715D02*
X11053515Y-16680811D01*
X11053515Y-16680811D02*
X11053515Y-16728430D01*
X11053515Y-16728430D02*
X11043991Y-16766525D01*
X11043991Y-16766525D02*
X11034468Y-16785573D01*
X11034468Y-16785573D02*
X11024944Y-16795097D01*
X11024944Y-16795097D02*
X11005896Y-16804620D01*
X11005896Y-16804620D02*
X10986848Y-16804620D01*
X10986848Y-16804620D02*
X10967801Y-16795097D01*
X10967801Y-16795097D02*
X10958277Y-16785573D01*
X10958277Y-16785573D02*
X10948753Y-16766525D01*
X10948753Y-16766525D02*
X10939229Y-16728430D01*
X10939229Y-16728430D02*
X10939229Y-16680811D01*
X10939229Y-16680811D02*
X10948753Y-16642715D01*
X10948753Y-16642715D02*
X10958277Y-16623668D01*
X10958277Y-16623668D02*
X10967801Y-16614144D01*
X10967801Y-16614144D02*
X10986848Y-16604620D01*
X11167801Y-16690334D02*
X11148753Y-16680811D01*
X11148753Y-16680811D02*
X11139229Y-16671287D01*
X11139229Y-16671287D02*
X11129706Y-16652239D01*
X11129706Y-16652239D02*
X11129706Y-16642715D01*
X11129706Y-16642715D02*
X11139229Y-16623668D01*
X11139229Y-16623668D02*
X11148753Y-16614144D01*
X11148753Y-16614144D02*
X11167801Y-16604620D01*
X11167801Y-16604620D02*
X11205896Y-16604620D01*
X11205896Y-16604620D02*
X11224944Y-16614144D01*
X11224944Y-16614144D02*
X11234467Y-16623668D01*
X11234467Y-16623668D02*
X11243991Y-16642715D01*
X11243991Y-16642715D02*
X11243991Y-16652239D01*
X11243991Y-16652239D02*
X11234467Y-16671287D01*
X11234467Y-16671287D02*
X11224944Y-16680811D01*
X11224944Y-16680811D02*
X11205896Y-16690334D01*
X11205896Y-16690334D02*
X11167801Y-16690334D01*
X11167801Y-16690334D02*
X11148753Y-16699858D01*
X11148753Y-16699858D02*
X11139229Y-16709382D01*
X11139229Y-16709382D02*
X11129706Y-16728430D01*
X11129706Y-16728430D02*
X11129706Y-16766525D01*
X11129706Y-16766525D02*
X11139229Y-16785573D01*
X11139229Y-16785573D02*
X11148753Y-16795097D01*
X11148753Y-16795097D02*
X11167801Y-16804620D01*
X11167801Y-16804620D02*
X11205896Y-16804620D01*
X11205896Y-16804620D02*
X11224944Y-16795097D01*
X11224944Y-16795097D02*
X11234467Y-16785573D01*
X11234467Y-16785573D02*
X11243991Y-16766525D01*
X11243991Y-16766525D02*
X11243991Y-16728430D01*
X11243991Y-16728430D02*
X11234467Y-16709382D01*
X11234467Y-16709382D02*
X11224944Y-16699858D01*
X11224944Y-16699858D02*
X11205896Y-16690334D01*
X11415420Y-16604620D02*
X11377325Y-16604620D01*
X11377325Y-16604620D02*
X11358277Y-16614144D01*
X11358277Y-16614144D02*
X11348753Y-16623668D01*
X11348753Y-16623668D02*
X11329706Y-16652239D01*
X11329706Y-16652239D02*
X11320182Y-16690334D01*
X11320182Y-16690334D02*
X11320182Y-16766525D01*
X11320182Y-16766525D02*
X11329706Y-16785573D01*
X11329706Y-16785573D02*
X11339229Y-16795097D01*
X11339229Y-16795097D02*
X11358277Y-16804620D01*
X11358277Y-16804620D02*
X11396372Y-16804620D01*
X11396372Y-16804620D02*
X11415420Y-16795097D01*
X11415420Y-16795097D02*
X11424944Y-16785573D01*
X11424944Y-16785573D02*
X11434467Y-16766525D01*
X11434467Y-16766525D02*
X11434467Y-16718906D01*
X11434467Y-16718906D02*
X11424944Y-16699858D01*
X11424944Y-16699858D02*
X11415420Y-16690334D01*
X11415420Y-16690334D02*
X11396372Y-16680811D01*
X11396372Y-16680811D02*
X11358277Y-16680811D01*
X11358277Y-16680811D02*
X11339229Y-16690334D01*
X11339229Y-16690334D02*
X11329706Y-16699858D01*
X11329706Y-16699858D02*
X11320182Y-16718906D01*
X11605896Y-16604620D02*
X11567801Y-16604620D01*
X11567801Y-16604620D02*
X11548753Y-16614144D01*
X11548753Y-16614144D02*
X11539229Y-16623668D01*
X11539229Y-16623668D02*
X11520182Y-16652239D01*
X11520182Y-16652239D02*
X11510658Y-16690334D01*
X11510658Y-16690334D02*
X11510658Y-16766525D01*
X11510658Y-16766525D02*
X11520182Y-16785573D01*
X11520182Y-16785573D02*
X11529706Y-16795097D01*
X11529706Y-16795097D02*
X11548753Y-16804620D01*
X11548753Y-16804620D02*
X11586848Y-16804620D01*
X11586848Y-16804620D02*
X11605896Y-16795097D01*
X11605896Y-16795097D02*
X11615420Y-16785573D01*
X11615420Y-16785573D02*
X11624944Y-16766525D01*
X11624944Y-16766525D02*
X11624944Y-16718906D01*
X11624944Y-16718906D02*
X11615420Y-16699858D01*
X11615420Y-16699858D02*
X11605896Y-16690334D01*
X11605896Y-16690334D02*
X11586848Y-16680811D01*
X11586848Y-16680811D02*
X11548753Y-16680811D01*
X11548753Y-16680811D02*
X11529706Y-16690334D01*
X11529706Y-16690334D02*
X11520182Y-16699858D01*
X11520182Y-16699858D02*
X11510658Y-16718906D01*
X11701134Y-16604620D02*
X11701134Y-16642715D01*
X11777325Y-16604620D02*
X11777325Y-16642715D01*
X12072563Y-16880811D02*
X12063039Y-16871287D01*
X12063039Y-16871287D02*
X12043991Y-16842716D01*
X12043991Y-16842716D02*
X12034468Y-16823668D01*
X12034468Y-16823668D02*
X12024944Y-16795097D01*
X12024944Y-16795097D02*
X12015420Y-16747477D01*
X12015420Y-16747477D02*
X12015420Y-16709382D01*
X12015420Y-16709382D02*
X12024944Y-16661763D01*
X12024944Y-16661763D02*
X12034468Y-16633192D01*
X12034468Y-16633192D02*
X12043991Y-16614144D01*
X12043991Y-16614144D02*
X12063039Y-16585573D01*
X12063039Y-16585573D02*
X12072563Y-16576049D01*
X12234468Y-16671287D02*
X12234468Y-16804620D01*
X12186848Y-16595096D02*
X12139229Y-16737954D01*
X12139229Y-16737954D02*
X12263039Y-16737954D01*
X12491610Y-16804620D02*
X12491610Y-16604620D01*
X12577325Y-16804620D02*
X12577325Y-16699858D01*
X12577325Y-16699858D02*
X12567801Y-16680811D01*
X12567801Y-16680811D02*
X12548753Y-16671287D01*
X12548753Y-16671287D02*
X12520182Y-16671287D01*
X12520182Y-16671287D02*
X12501134Y-16680811D01*
X12501134Y-16680811D02*
X12491610Y-16690334D01*
X12701134Y-16804620D02*
X12682087Y-16795097D01*
X12682087Y-16795097D02*
X12672563Y-16785573D01*
X12672563Y-16785573D02*
X12663039Y-16766525D01*
X12663039Y-16766525D02*
X12663039Y-16709382D01*
X12663039Y-16709382D02*
X12672563Y-16690334D01*
X12672563Y-16690334D02*
X12682087Y-16680811D01*
X12682087Y-16680811D02*
X12701134Y-16671287D01*
X12701134Y-16671287D02*
X12729706Y-16671287D01*
X12729706Y-16671287D02*
X12748753Y-16680811D01*
X12748753Y-16680811D02*
X12758277Y-16690334D01*
X12758277Y-16690334D02*
X12767801Y-16709382D01*
X12767801Y-16709382D02*
X12767801Y-16766525D01*
X12767801Y-16766525D02*
X12758277Y-16785573D01*
X12758277Y-16785573D02*
X12748753Y-16795097D01*
X12748753Y-16795097D02*
X12729706Y-16804620D01*
X12729706Y-16804620D02*
X12701134Y-16804620D01*
X12882087Y-16804620D02*
X12863039Y-16795097D01*
X12863039Y-16795097D02*
X12853515Y-16776049D01*
X12853515Y-16776049D02*
X12853515Y-16604620D01*
X13034468Y-16795097D02*
X13015420Y-16804620D01*
X13015420Y-16804620D02*
X12977325Y-16804620D01*
X12977325Y-16804620D02*
X12958277Y-16795097D01*
X12958277Y-16795097D02*
X12948753Y-16776049D01*
X12948753Y-16776049D02*
X12948753Y-16699858D01*
X12948753Y-16699858D02*
X12958277Y-16680811D01*
X12958277Y-16680811D02*
X12977325Y-16671287D01*
X12977325Y-16671287D02*
X13015420Y-16671287D01*
X13015420Y-16671287D02*
X13034468Y-16680811D01*
X13034468Y-16680811D02*
X13043991Y-16699858D01*
X13043991Y-16699858D02*
X13043991Y-16718906D01*
X13043991Y-16718906D02*
X12948753Y-16737954D01*
X13120182Y-16795097D02*
X13139230Y-16804620D01*
X13139230Y-16804620D02*
X13177325Y-16804620D01*
X13177325Y-16804620D02*
X13196372Y-16795097D01*
X13196372Y-16795097D02*
X13205896Y-16776049D01*
X13205896Y-16776049D02*
X13205896Y-16766525D01*
X13205896Y-16766525D02*
X13196372Y-16747477D01*
X13196372Y-16747477D02*
X13177325Y-16737954D01*
X13177325Y-16737954D02*
X13148753Y-16737954D01*
X13148753Y-16737954D02*
X13129706Y-16728430D01*
X13129706Y-16728430D02*
X13120182Y-16709382D01*
X13120182Y-16709382D02*
X13120182Y-16699858D01*
X13120182Y-16699858D02*
X13129706Y-16680811D01*
X13129706Y-16680811D02*
X13148753Y-16671287D01*
X13148753Y-16671287D02*
X13177325Y-16671287D01*
X13177325Y-16671287D02*
X13196372Y-16680811D01*
X13272563Y-16880811D02*
X13282087Y-16871287D01*
X13282087Y-16871287D02*
X13301134Y-16842716D01*
X13301134Y-16842716D02*
X13310658Y-16823668D01*
X13310658Y-16823668D02*
X13320182Y-16795097D01*
X13320182Y-16795097D02*
X13329706Y-16747477D01*
X13329706Y-16747477D02*
X13329706Y-16709382D01*
X13329706Y-16709382D02*
X13320182Y-16661763D01*
X13320182Y-16661763D02*
X13310658Y-16633192D01*
X13310658Y-16633192D02*
X13301134Y-16614144D01*
X13301134Y-16614144D02*
X13282087Y-16585573D01*
X13282087Y-16585573D02*
X13272563Y-16576049D01*
X13634468Y-16880811D02*
X13624944Y-16871287D01*
X13624944Y-16871287D02*
X13605896Y-16842716D01*
X13605896Y-16842716D02*
X13596372Y-16823668D01*
X13596372Y-16823668D02*
X13586849Y-16795097D01*
X13586849Y-16795097D02*
X13577325Y-16747477D01*
X13577325Y-16747477D02*
X13577325Y-16709382D01*
X13577325Y-16709382D02*
X13586849Y-16661763D01*
X13586849Y-16661763D02*
X13596372Y-16633192D01*
X13596372Y-16633192D02*
X13605896Y-16614144D01*
X13605896Y-16614144D02*
X13624944Y-16585573D01*
X13624944Y-16585573D02*
X13634468Y-16576049D01*
X13710658Y-16671287D02*
X13710658Y-16804620D01*
X13710658Y-16690334D02*
X13720182Y-16680811D01*
X13720182Y-16680811D02*
X13739230Y-16671287D01*
X13739230Y-16671287D02*
X13767801Y-16671287D01*
X13767801Y-16671287D02*
X13786849Y-16680811D01*
X13786849Y-16680811D02*
X13796372Y-16699858D01*
X13796372Y-16699858D02*
X13796372Y-16804620D01*
X13920182Y-16804620D02*
X13901134Y-16795097D01*
X13901134Y-16795097D02*
X13891611Y-16785573D01*
X13891611Y-16785573D02*
X13882087Y-16766525D01*
X13882087Y-16766525D02*
X13882087Y-16709382D01*
X13882087Y-16709382D02*
X13891611Y-16690334D01*
X13891611Y-16690334D02*
X13901134Y-16680811D01*
X13901134Y-16680811D02*
X13920182Y-16671287D01*
X13920182Y-16671287D02*
X13948753Y-16671287D01*
X13948753Y-16671287D02*
X13967801Y-16680811D01*
X13967801Y-16680811D02*
X13977325Y-16690334D01*
X13977325Y-16690334D02*
X13986849Y-16709382D01*
X13986849Y-16709382D02*
X13986849Y-16766525D01*
X13986849Y-16766525D02*
X13977325Y-16785573D01*
X13977325Y-16785573D02*
X13967801Y-16795097D01*
X13967801Y-16795097D02*
X13948753Y-16804620D01*
X13948753Y-16804620D02*
X13920182Y-16804620D01*
X14043992Y-16671287D02*
X14120182Y-16671287D01*
X14072563Y-16604620D02*
X14072563Y-16776049D01*
X14072563Y-16776049D02*
X14082087Y-16795097D01*
X14082087Y-16795097D02*
X14101134Y-16804620D01*
X14101134Y-16804620D02*
X14120182Y-16804620D01*
X14339230Y-16671287D02*
X14339230Y-16871287D01*
X14339230Y-16680811D02*
X14358277Y-16671287D01*
X14358277Y-16671287D02*
X14396373Y-16671287D01*
X14396373Y-16671287D02*
X14415420Y-16680811D01*
X14415420Y-16680811D02*
X14424944Y-16690334D01*
X14424944Y-16690334D02*
X14434468Y-16709382D01*
X14434468Y-16709382D02*
X14434468Y-16766525D01*
X14434468Y-16766525D02*
X14424944Y-16785573D01*
X14424944Y-16785573D02*
X14415420Y-16795097D01*
X14415420Y-16795097D02*
X14396373Y-16804620D01*
X14396373Y-16804620D02*
X14358277Y-16804620D01*
X14358277Y-16804620D02*
X14339230Y-16795097D01*
X14548753Y-16804620D02*
X14529706Y-16795097D01*
X14529706Y-16795097D02*
X14520182Y-16776049D01*
X14520182Y-16776049D02*
X14520182Y-16604620D01*
X14710658Y-16804620D02*
X14710658Y-16699858D01*
X14710658Y-16699858D02*
X14701134Y-16680811D01*
X14701134Y-16680811D02*
X14682087Y-16671287D01*
X14682087Y-16671287D02*
X14643992Y-16671287D01*
X14643992Y-16671287D02*
X14624944Y-16680811D01*
X14710658Y-16795097D02*
X14691611Y-16804620D01*
X14691611Y-16804620D02*
X14643992Y-16804620D01*
X14643992Y-16804620D02*
X14624944Y-16795097D01*
X14624944Y-16795097D02*
X14615420Y-16776049D01*
X14615420Y-16776049D02*
X14615420Y-16757001D01*
X14615420Y-16757001D02*
X14624944Y-16737954D01*
X14624944Y-16737954D02*
X14643992Y-16728430D01*
X14643992Y-16728430D02*
X14691611Y-16728430D01*
X14691611Y-16728430D02*
X14710658Y-16718906D01*
X14777325Y-16671287D02*
X14853515Y-16671287D01*
X14805896Y-16604620D02*
X14805896Y-16776049D01*
X14805896Y-16776049D02*
X14815420Y-16795097D01*
X14815420Y-16795097D02*
X14834468Y-16804620D01*
X14834468Y-16804620D02*
X14853515Y-16804620D01*
X14996373Y-16795097D02*
X14977325Y-16804620D01*
X14977325Y-16804620D02*
X14939230Y-16804620D01*
X14939230Y-16804620D02*
X14920182Y-16795097D01*
X14920182Y-16795097D02*
X14910658Y-16776049D01*
X14910658Y-16776049D02*
X14910658Y-16699858D01*
X14910658Y-16699858D02*
X14920182Y-16680811D01*
X14920182Y-16680811D02*
X14939230Y-16671287D01*
X14939230Y-16671287D02*
X14977325Y-16671287D01*
X14977325Y-16671287D02*
X14996373Y-16680811D01*
X14996373Y-16680811D02*
X15005896Y-16699858D01*
X15005896Y-16699858D02*
X15005896Y-16718906D01*
X15005896Y-16718906D02*
X14910658Y-16737954D01*
X15177325Y-16804620D02*
X15177325Y-16604620D01*
X15177325Y-16795097D02*
X15158277Y-16804620D01*
X15158277Y-16804620D02*
X15120182Y-16804620D01*
X15120182Y-16804620D02*
X15101134Y-16795097D01*
X15101134Y-16795097D02*
X15091611Y-16785573D01*
X15091611Y-16785573D02*
X15082087Y-16766525D01*
X15082087Y-16766525D02*
X15082087Y-16709382D01*
X15082087Y-16709382D02*
X15091611Y-16690334D01*
X15091611Y-16690334D02*
X15101134Y-16680811D01*
X15101134Y-16680811D02*
X15120182Y-16671287D01*
X15120182Y-16671287D02*
X15158277Y-16671287D01*
X15158277Y-16671287D02*
X15177325Y-16680811D01*
X15253515Y-16880811D02*
X15263039Y-16871287D01*
X15263039Y-16871287D02*
X15282087Y-16842716D01*
X15282087Y-16842716D02*
X15291611Y-16823668D01*
X15291611Y-16823668D02*
X15301134Y-16795097D01*
X15301134Y-16795097D02*
X15310658Y-16747477D01*
X15310658Y-16747477D02*
X15310658Y-16709382D01*
X15310658Y-16709382D02*
X15301134Y-16661763D01*
X15301134Y-16661763D02*
X15291611Y-16633192D01*
X15291611Y-16633192D02*
X15282087Y-16614144D01*
X15282087Y-16614144D02*
X15263039Y-16585573D01*
X15263039Y-16585573D02*
X15253515Y-16576049D01*
M02*
