G04 #@! TF.GenerationSoftware,KiCad,Pcbnew,8.0.8*
G04 #@! TF.CreationDate,2025-03-09T18:28:08-04:00*
G04 #@! TF.ProjectId,Power_Elec_Project,506f7765-725f-4456-9c65-635f50726f6a,1*
G04 #@! TF.SameCoordinates,Original*
G04 #@! TF.FileFunction,Soldermask,Bot*
G04 #@! TF.FilePolarity,Negative*
%FSLAX46Y46*%
G04 Gerber Fmt 4.6, Leading zero omitted, Abs format (unit mm)*
G04 Created by KiCad (PCBNEW 8.0.8) date 2025-03-09 18:28:08*
%MOMM*%
%LPD*%
G01*
G04 APERTURE LIST*
G04 Aperture macros list*
%AMRoundRect*
0 Rectangle with rounded corners*
0 $1 Rounding radius*
0 $2 $3 $4 $5 $6 $7 $8 $9 X,Y pos of 4 corners*
0 Add a 4 corners polygon primitive as box body*
4,1,4,$2,$3,$4,$5,$6,$7,$8,$9,$2,$3,0*
0 Add four circle primitives for the rounded corners*
1,1,$1+$1,$2,$3*
1,1,$1+$1,$4,$5*
1,1,$1+$1,$6,$7*
1,1,$1+$1,$8,$9*
0 Add four rect primitives between the rounded corners*
20,1,$1+$1,$2,$3,$4,$5,0*
20,1,$1+$1,$4,$5,$6,$7,0*
20,1,$1+$1,$6,$7,$8,$9,0*
20,1,$1+$1,$8,$9,$2,$3,0*%
G04 Aperture macros list end*
%ADD10C,2.200000*%
%ADD11C,1.700000*%
%ADD12C,3.000000*%
%ADD13RoundRect,0.102000X-0.939800X-0.939800X0.939800X-0.939800X0.939800X0.939800X-0.939800X0.939800X0*%
%ADD14C,2.083600*%
%ADD15RoundRect,0.102000X-0.762000X-0.762000X0.762000X-0.762000X0.762000X0.762000X-0.762000X0.762000X0*%
%ADD16C,1.728000*%
%ADD17RoundRect,0.102000X-0.750000X-0.750000X0.750000X-0.750000X0.750000X0.750000X-0.750000X0.750000X0*%
%ADD18C,1.704000*%
%ADD19C,10.160000*%
%ADD20R,2.000000X1.905000*%
%ADD21O,2.000000X1.905000*%
%ADD22R,2.000000X2.000000*%
%ADD23C,2.000000*%
%ADD24C,3.200000*%
%ADD25R,1.270000X1.270000*%
%ADD26C,1.270000*%
%ADD27RoundRect,0.250000X-0.250000X-0.475000X0.250000X-0.475000X0.250000X0.475000X-0.250000X0.475000X0*%
%ADD28RoundRect,0.250000X0.350000X0.450000X-0.350000X0.450000X-0.350000X-0.450000X0.350000X-0.450000X0*%
%ADD29RoundRect,0.200000X-0.200000X-0.275000X0.200000X-0.275000X0.200000X0.275000X-0.200000X0.275000X0*%
%ADD30RoundRect,0.250000X-0.475000X0.250000X-0.475000X-0.250000X0.475000X-0.250000X0.475000X0.250000X0*%
%ADD31RoundRect,0.250000X-0.650000X0.412500X-0.650000X-0.412500X0.650000X-0.412500X0.650000X0.412500X0*%
%ADD32RoundRect,0.200000X-0.275000X0.200000X-0.275000X-0.200000X0.275000X-0.200000X0.275000X0.200000X0*%
%ADD33RoundRect,0.250000X0.475000X-0.250000X0.475000X0.250000X-0.475000X0.250000X-0.475000X-0.250000X0*%
%ADD34RoundRect,0.200000X0.200000X0.275000X-0.200000X0.275000X-0.200000X-0.275000X0.200000X-0.275000X0*%
G04 APERTURE END LIST*
D10*
X213500000Y-35500000D03*
D11*
X158500000Y-128500000D03*
X111500000Y-128500000D03*
D10*
X102000000Y-139500000D03*
D12*
X88540000Y-41160000D03*
X88540000Y-94500000D03*
X213000000Y-41160000D03*
X213000000Y-94500000D03*
D13*
X117750000Y-90690000D03*
D14*
X120290000Y-90690000D03*
X122830000Y-90690000D03*
X125370000Y-90690000D03*
X127910000Y-90690000D03*
X130450000Y-90690000D03*
X132990000Y-90690000D03*
X135530000Y-90690000D03*
X138070000Y-90690000D03*
X140610000Y-90690000D03*
D13*
X140610000Y-44970000D03*
D14*
X138070000Y-44970000D03*
X135530000Y-44970000D03*
X132990000Y-44970000D03*
X130450000Y-44970000D03*
X127910000Y-44970000D03*
X125370000Y-44970000D03*
X122830000Y-44970000D03*
X120290000Y-44970000D03*
X117750000Y-44970000D03*
D13*
X117750000Y-88150000D03*
D14*
X120290000Y-88150000D03*
X122830000Y-88150000D03*
X125370000Y-88150000D03*
X127910000Y-88150000D03*
X130450000Y-88150000D03*
X132990000Y-88150000D03*
X135530000Y-88150000D03*
X138070000Y-88150000D03*
X140610000Y-88150000D03*
D13*
X140610000Y-47510000D03*
D14*
X138070000Y-47510000D03*
X135530000Y-47510000D03*
X132990000Y-47510000D03*
X130450000Y-47510000D03*
X127910000Y-47510000D03*
X125370000Y-47510000D03*
X122830000Y-47510000D03*
X120290000Y-47510000D03*
X117750000Y-47510000D03*
D13*
X181250000Y-90690000D03*
D14*
X183790000Y-90690000D03*
X186330000Y-90690000D03*
X188870000Y-90690000D03*
X191410000Y-90690000D03*
X193950000Y-90690000D03*
X196490000Y-90690000D03*
X199030000Y-90690000D03*
X201570000Y-90690000D03*
X204110000Y-90690000D03*
D13*
X204110000Y-44970000D03*
D14*
X201570000Y-44970000D03*
X199030000Y-44970000D03*
X196490000Y-44970000D03*
X193950000Y-44970000D03*
X191410000Y-44970000D03*
X188870000Y-44970000D03*
X186330000Y-44970000D03*
X183790000Y-44970000D03*
X181250000Y-44970000D03*
D13*
X181250000Y-88150000D03*
D14*
X183790000Y-88150000D03*
X186330000Y-88150000D03*
X188870000Y-88150000D03*
X191410000Y-88150000D03*
X193950000Y-88150000D03*
X196490000Y-88150000D03*
X199030000Y-88150000D03*
X201570000Y-88150000D03*
X204110000Y-88150000D03*
D13*
X204110000Y-47510000D03*
D14*
X201570000Y-47510000D03*
X199030000Y-47510000D03*
X196490000Y-47510000D03*
X193950000Y-47510000D03*
X191410000Y-47510000D03*
X188870000Y-47510000D03*
X186330000Y-47510000D03*
X183790000Y-47510000D03*
X181250000Y-47510000D03*
D15*
X214270000Y-44970000D03*
D16*
X211730000Y-44970000D03*
X209190000Y-44970000D03*
D15*
X214270000Y-80530000D03*
D16*
X214270000Y-83070000D03*
X214270000Y-85610000D03*
D15*
X214270000Y-50050000D03*
D16*
X214270000Y-52590000D03*
X214270000Y-55130000D03*
X214270000Y-57670000D03*
X214270000Y-60210000D03*
D15*
X214270000Y-65290000D03*
D16*
X214270000Y-67830000D03*
X214270000Y-70370000D03*
X214270000Y-72910000D03*
X214270000Y-75450000D03*
D15*
X214270000Y-90690000D03*
D16*
X211730000Y-90690000D03*
X209190000Y-90690000D03*
D17*
X144094000Y-87916000D03*
D18*
X144094000Y-90456000D03*
X146634000Y-87916000D03*
X146634000Y-90456000D03*
X149174000Y-87916000D03*
X149174000Y-90456000D03*
X151714000Y-87916000D03*
X151714000Y-90456000D03*
D19*
X173500000Y-137000000D03*
X93000000Y-136000000D03*
X207500000Y-121000000D03*
X209500000Y-137000000D03*
X93000000Y-105000000D03*
D20*
X101555000Y-111960000D03*
D21*
X101555000Y-114500000D03*
X101555000Y-117040000D03*
D10*
X199000000Y-140000000D03*
D22*
X91000000Y-114632323D03*
D23*
X91000000Y-119632323D03*
D24*
X191000000Y-127000000D03*
X191000000Y-121000000D03*
D25*
X183575000Y-103350000D03*
D26*
X183575000Y-105890000D03*
X183575000Y-113510000D03*
X183575000Y-118590000D03*
D10*
X88000000Y-35500000D03*
D27*
X193550000Y-123500000D03*
X195450000Y-123500000D03*
D28*
X205500000Y-111000000D03*
X203500000Y-111000000D03*
D29*
X161175000Y-108500000D03*
X162825000Y-108500000D03*
X160887500Y-103500000D03*
X162537500Y-103500000D03*
D30*
X181075000Y-103440000D03*
X181075000Y-105340000D03*
D29*
X207175000Y-111000000D03*
X208825000Y-111000000D03*
X207175000Y-104000000D03*
X208825000Y-104000000D03*
D31*
X96500000Y-114437500D03*
X96500000Y-117562500D03*
D32*
X193500000Y-125675000D03*
X193500000Y-127325000D03*
D33*
X181075000Y-117340000D03*
X181075000Y-115440000D03*
D34*
X208325000Y-113000000D03*
X206675000Y-113000000D03*
D28*
X205500000Y-104000000D03*
X203500000Y-104000000D03*
D29*
X160887500Y-101500000D03*
X162537500Y-101500000D03*
D34*
X208825000Y-102000000D03*
X207175000Y-102000000D03*
M02*
