%TF.GenerationSoftware,KiCad,Pcbnew,8.0.8*%
%TF.CreationDate,2025-03-09T18:41:19-04:00*%
%TF.ProjectId,Power_Elec_Project,506f7765-725f-4456-9c65-635f50726f6a,1*%
%TF.SameCoordinates,Original*%
%TF.FileFunction,Legend,Bot*%
%TF.FilePolarity,Positive*%
%FSLAX46Y46*%
G04 Gerber Fmt 4.6, Leading zero omitted, Abs format (unit mm)*
G04 Created by KiCad (PCBNEW 8.0.8) date 2025-03-09 18:41:19*
%MOMM*%
%LPD*%
G01*
G04 APERTURE LIST*
%ADD10C,0.150000*%
%ADD11C,0.120000*%
G04 APERTURE END LIST*
D10*
X194859580Y-121333333D02*
X194907200Y-121285714D01*
X194907200Y-121285714D02*
X194954819Y-121142857D01*
X194954819Y-121142857D02*
X194954819Y-121047619D01*
X194954819Y-121047619D02*
X194907200Y-120904762D01*
X194907200Y-120904762D02*
X194811961Y-120809524D01*
X194811961Y-120809524D02*
X194716723Y-120761905D01*
X194716723Y-120761905D02*
X194526247Y-120714286D01*
X194526247Y-120714286D02*
X194383390Y-120714286D01*
X194383390Y-120714286D02*
X194192914Y-120761905D01*
X194192914Y-120761905D02*
X194097676Y-120809524D01*
X194097676Y-120809524D02*
X194002438Y-120904762D01*
X194002438Y-120904762D02*
X193954819Y-121047619D01*
X193954819Y-121047619D02*
X193954819Y-121142857D01*
X193954819Y-121142857D02*
X194002438Y-121285714D01*
X194002438Y-121285714D02*
X194050057Y-121333333D01*
X194050057Y-121714286D02*
X194002438Y-121761905D01*
X194002438Y-121761905D02*
X193954819Y-121857143D01*
X193954819Y-121857143D02*
X193954819Y-122095238D01*
X193954819Y-122095238D02*
X194002438Y-122190476D01*
X194002438Y-122190476D02*
X194050057Y-122238095D01*
X194050057Y-122238095D02*
X194145295Y-122285714D01*
X194145295Y-122285714D02*
X194240533Y-122285714D01*
X194240533Y-122285714D02*
X194383390Y-122238095D01*
X194383390Y-122238095D02*
X194954819Y-121666667D01*
X194954819Y-121666667D02*
X194954819Y-122285714D01*
X104954819Y-113261905D02*
X103954819Y-113261905D01*
X104431009Y-113261905D02*
X104431009Y-113833333D01*
X104954819Y-113833333D02*
X103954819Y-113833333D01*
X104907200Y-114261905D02*
X104954819Y-114404762D01*
X104954819Y-114404762D02*
X104954819Y-114642857D01*
X104954819Y-114642857D02*
X104907200Y-114738095D01*
X104907200Y-114738095D02*
X104859580Y-114785714D01*
X104859580Y-114785714D02*
X104764342Y-114833333D01*
X104764342Y-114833333D02*
X104669104Y-114833333D01*
X104669104Y-114833333D02*
X104573866Y-114785714D01*
X104573866Y-114785714D02*
X104526247Y-114738095D01*
X104526247Y-114738095D02*
X104478628Y-114642857D01*
X104478628Y-114642857D02*
X104431009Y-114452381D01*
X104431009Y-114452381D02*
X104383390Y-114357143D01*
X104383390Y-114357143D02*
X104335771Y-114309524D01*
X104335771Y-114309524D02*
X104240533Y-114261905D01*
X104240533Y-114261905D02*
X104145295Y-114261905D01*
X104145295Y-114261905D02*
X104050057Y-114309524D01*
X104050057Y-114309524D02*
X104002438Y-114357143D01*
X104002438Y-114357143D02*
X103954819Y-114452381D01*
X103954819Y-114452381D02*
X103954819Y-114690476D01*
X103954819Y-114690476D02*
X104002438Y-114833333D01*
X104954819Y-115785714D02*
X104954819Y-115214286D01*
X104954819Y-115500000D02*
X103954819Y-115500000D01*
X103954819Y-115500000D02*
X104097676Y-115404762D01*
X104097676Y-115404762D02*
X104192914Y-115309524D01*
X104192914Y-115309524D02*
X104240533Y-115214286D01*
X204642857Y-109454819D02*
X204976190Y-108978628D01*
X205214285Y-109454819D02*
X205214285Y-108454819D01*
X205214285Y-108454819D02*
X204833333Y-108454819D01*
X204833333Y-108454819D02*
X204738095Y-108502438D01*
X204738095Y-108502438D02*
X204690476Y-108550057D01*
X204690476Y-108550057D02*
X204642857Y-108645295D01*
X204642857Y-108645295D02*
X204642857Y-108788152D01*
X204642857Y-108788152D02*
X204690476Y-108883390D01*
X204690476Y-108883390D02*
X204738095Y-108931009D01*
X204738095Y-108931009D02*
X204833333Y-108978628D01*
X204833333Y-108978628D02*
X205214285Y-108978628D01*
X203690476Y-109454819D02*
X204261904Y-109454819D01*
X203976190Y-109454819D02*
X203976190Y-108454819D01*
X203976190Y-108454819D02*
X204071428Y-108597676D01*
X204071428Y-108597676D02*
X204166666Y-108692914D01*
X204166666Y-108692914D02*
X204261904Y-108740533D01*
X203309523Y-108550057D02*
X203261904Y-108502438D01*
X203261904Y-108502438D02*
X203166666Y-108454819D01*
X203166666Y-108454819D02*
X202928571Y-108454819D01*
X202928571Y-108454819D02*
X202833333Y-108502438D01*
X202833333Y-108502438D02*
X202785714Y-108550057D01*
X202785714Y-108550057D02*
X202738095Y-108645295D01*
X202738095Y-108645295D02*
X202738095Y-108740533D01*
X202738095Y-108740533D02*
X202785714Y-108883390D01*
X202785714Y-108883390D02*
X203357142Y-109454819D01*
X203357142Y-109454819D02*
X202738095Y-109454819D01*
X162166666Y-107454819D02*
X162499999Y-106978628D01*
X162738094Y-107454819D02*
X162738094Y-106454819D01*
X162738094Y-106454819D02*
X162357142Y-106454819D01*
X162357142Y-106454819D02*
X162261904Y-106502438D01*
X162261904Y-106502438D02*
X162214285Y-106550057D01*
X162214285Y-106550057D02*
X162166666Y-106645295D01*
X162166666Y-106645295D02*
X162166666Y-106788152D01*
X162166666Y-106788152D02*
X162214285Y-106883390D01*
X162214285Y-106883390D02*
X162261904Y-106931009D01*
X162261904Y-106931009D02*
X162357142Y-106978628D01*
X162357142Y-106978628D02*
X162738094Y-106978628D01*
X161833332Y-106454819D02*
X161166666Y-106454819D01*
X161166666Y-106454819D02*
X161595237Y-107454819D01*
X161879166Y-105384819D02*
X162212499Y-104908628D01*
X162450594Y-105384819D02*
X162450594Y-104384819D01*
X162450594Y-104384819D02*
X162069642Y-104384819D01*
X162069642Y-104384819D02*
X161974404Y-104432438D01*
X161974404Y-104432438D02*
X161926785Y-104480057D01*
X161926785Y-104480057D02*
X161879166Y-104575295D01*
X161879166Y-104575295D02*
X161879166Y-104718152D01*
X161879166Y-104718152D02*
X161926785Y-104813390D01*
X161926785Y-104813390D02*
X161974404Y-104861009D01*
X161974404Y-104861009D02*
X162069642Y-104908628D01*
X162069642Y-104908628D02*
X162450594Y-104908628D01*
X161402975Y-105384819D02*
X161212499Y-105384819D01*
X161212499Y-105384819D02*
X161117261Y-105337200D01*
X161117261Y-105337200D02*
X161069642Y-105289580D01*
X161069642Y-105289580D02*
X160974404Y-105146723D01*
X160974404Y-105146723D02*
X160926785Y-104956247D01*
X160926785Y-104956247D02*
X160926785Y-104575295D01*
X160926785Y-104575295D02*
X160974404Y-104480057D01*
X160974404Y-104480057D02*
X161022023Y-104432438D01*
X161022023Y-104432438D02*
X161117261Y-104384819D01*
X161117261Y-104384819D02*
X161307737Y-104384819D01*
X161307737Y-104384819D02*
X161402975Y-104432438D01*
X161402975Y-104432438D02*
X161450594Y-104480057D01*
X161450594Y-104480057D02*
X161498213Y-104575295D01*
X161498213Y-104575295D02*
X161498213Y-104813390D01*
X161498213Y-104813390D02*
X161450594Y-104908628D01*
X161450594Y-104908628D02*
X161402975Y-104956247D01*
X161402975Y-104956247D02*
X161307737Y-105003866D01*
X161307737Y-105003866D02*
X161117261Y-105003866D01*
X161117261Y-105003866D02*
X161022023Y-104956247D01*
X161022023Y-104956247D02*
X160974404Y-104908628D01*
X160974404Y-104908628D02*
X160926785Y-104813390D01*
X179434580Y-104223333D02*
X179482200Y-104175714D01*
X179482200Y-104175714D02*
X179529819Y-104032857D01*
X179529819Y-104032857D02*
X179529819Y-103937619D01*
X179529819Y-103937619D02*
X179482200Y-103794762D01*
X179482200Y-103794762D02*
X179386961Y-103699524D01*
X179386961Y-103699524D02*
X179291723Y-103651905D01*
X179291723Y-103651905D02*
X179101247Y-103604286D01*
X179101247Y-103604286D02*
X178958390Y-103604286D01*
X178958390Y-103604286D02*
X178767914Y-103651905D01*
X178767914Y-103651905D02*
X178672676Y-103699524D01*
X178672676Y-103699524D02*
X178577438Y-103794762D01*
X178577438Y-103794762D02*
X178529819Y-103937619D01*
X178529819Y-103937619D02*
X178529819Y-104032857D01*
X178529819Y-104032857D02*
X178577438Y-104175714D01*
X178577438Y-104175714D02*
X178625057Y-104223333D01*
X178529819Y-105128095D02*
X178529819Y-104651905D01*
X178529819Y-104651905D02*
X179006009Y-104604286D01*
X179006009Y-104604286D02*
X178958390Y-104651905D01*
X178958390Y-104651905D02*
X178910771Y-104747143D01*
X178910771Y-104747143D02*
X178910771Y-104985238D01*
X178910771Y-104985238D02*
X178958390Y-105080476D01*
X178958390Y-105080476D02*
X179006009Y-105128095D01*
X179006009Y-105128095D02*
X179101247Y-105175714D01*
X179101247Y-105175714D02*
X179339342Y-105175714D01*
X179339342Y-105175714D02*
X179434580Y-105128095D01*
X179434580Y-105128095D02*
X179482200Y-105080476D01*
X179482200Y-105080476D02*
X179529819Y-104985238D01*
X179529819Y-104985238D02*
X179529819Y-104747143D01*
X179529819Y-104747143D02*
X179482200Y-104651905D01*
X179482200Y-104651905D02*
X179434580Y-104604286D01*
X208642857Y-109954819D02*
X208976190Y-109478628D01*
X209214285Y-109954819D02*
X209214285Y-108954819D01*
X209214285Y-108954819D02*
X208833333Y-108954819D01*
X208833333Y-108954819D02*
X208738095Y-109002438D01*
X208738095Y-109002438D02*
X208690476Y-109050057D01*
X208690476Y-109050057D02*
X208642857Y-109145295D01*
X208642857Y-109145295D02*
X208642857Y-109288152D01*
X208642857Y-109288152D02*
X208690476Y-109383390D01*
X208690476Y-109383390D02*
X208738095Y-109431009D01*
X208738095Y-109431009D02*
X208833333Y-109478628D01*
X208833333Y-109478628D02*
X209214285Y-109478628D01*
X207690476Y-109954819D02*
X208261904Y-109954819D01*
X207976190Y-109954819D02*
X207976190Y-108954819D01*
X207976190Y-108954819D02*
X208071428Y-109097676D01*
X208071428Y-109097676D02*
X208166666Y-109192914D01*
X208166666Y-109192914D02*
X208261904Y-109240533D01*
X207071428Y-108954819D02*
X206976190Y-108954819D01*
X206976190Y-108954819D02*
X206880952Y-109002438D01*
X206880952Y-109002438D02*
X206833333Y-109050057D01*
X206833333Y-109050057D02*
X206785714Y-109145295D01*
X206785714Y-109145295D02*
X206738095Y-109335771D01*
X206738095Y-109335771D02*
X206738095Y-109573866D01*
X206738095Y-109573866D02*
X206785714Y-109764342D01*
X206785714Y-109764342D02*
X206833333Y-109859580D01*
X206833333Y-109859580D02*
X206880952Y-109907200D01*
X206880952Y-109907200D02*
X206976190Y-109954819D01*
X206976190Y-109954819D02*
X207071428Y-109954819D01*
X207071428Y-109954819D02*
X207166666Y-109907200D01*
X207166666Y-109907200D02*
X207214285Y-109859580D01*
X207214285Y-109859580D02*
X207261904Y-109764342D01*
X207261904Y-109764342D02*
X207309523Y-109573866D01*
X207309523Y-109573866D02*
X207309523Y-109335771D01*
X207309523Y-109335771D02*
X207261904Y-109145295D01*
X207261904Y-109145295D02*
X207214285Y-109050057D01*
X207214285Y-109050057D02*
X207166666Y-109002438D01*
X207166666Y-109002438D02*
X207071428Y-108954819D01*
X208642857Y-105884819D02*
X208976190Y-105408628D01*
X209214285Y-105884819D02*
X209214285Y-104884819D01*
X209214285Y-104884819D02*
X208833333Y-104884819D01*
X208833333Y-104884819D02*
X208738095Y-104932438D01*
X208738095Y-104932438D02*
X208690476Y-104980057D01*
X208690476Y-104980057D02*
X208642857Y-105075295D01*
X208642857Y-105075295D02*
X208642857Y-105218152D01*
X208642857Y-105218152D02*
X208690476Y-105313390D01*
X208690476Y-105313390D02*
X208738095Y-105361009D01*
X208738095Y-105361009D02*
X208833333Y-105408628D01*
X208833333Y-105408628D02*
X209214285Y-105408628D01*
X207690476Y-105884819D02*
X208261904Y-105884819D01*
X207976190Y-105884819D02*
X207976190Y-104884819D01*
X207976190Y-104884819D02*
X208071428Y-105027676D01*
X208071428Y-105027676D02*
X208166666Y-105122914D01*
X208166666Y-105122914D02*
X208261904Y-105170533D01*
X206833333Y-105218152D02*
X206833333Y-105884819D01*
X207071428Y-104837200D02*
X207309523Y-105551485D01*
X207309523Y-105551485D02*
X206690476Y-105551485D01*
X94859580Y-115357142D02*
X94907200Y-115309523D01*
X94907200Y-115309523D02*
X94954819Y-115166666D01*
X94954819Y-115166666D02*
X94954819Y-115071428D01*
X94954819Y-115071428D02*
X94907200Y-114928571D01*
X94907200Y-114928571D02*
X94811961Y-114833333D01*
X94811961Y-114833333D02*
X94716723Y-114785714D01*
X94716723Y-114785714D02*
X94526247Y-114738095D01*
X94526247Y-114738095D02*
X94383390Y-114738095D01*
X94383390Y-114738095D02*
X94192914Y-114785714D01*
X94192914Y-114785714D02*
X94097676Y-114833333D01*
X94097676Y-114833333D02*
X94002438Y-114928571D01*
X94002438Y-114928571D02*
X93954819Y-115071428D01*
X93954819Y-115071428D02*
X93954819Y-115166666D01*
X93954819Y-115166666D02*
X94002438Y-115309523D01*
X94002438Y-115309523D02*
X94050057Y-115357142D01*
X94954819Y-116309523D02*
X94954819Y-115738095D01*
X94954819Y-116023809D02*
X93954819Y-116023809D01*
X93954819Y-116023809D02*
X94097676Y-115928571D01*
X94097676Y-115928571D02*
X94192914Y-115833333D01*
X94192914Y-115833333D02*
X94240533Y-115738095D01*
X93954819Y-117166666D02*
X93954819Y-116976190D01*
X93954819Y-116976190D02*
X94002438Y-116880952D01*
X94002438Y-116880952D02*
X94050057Y-116833333D01*
X94050057Y-116833333D02*
X94192914Y-116738095D01*
X94192914Y-116738095D02*
X94383390Y-116690476D01*
X94383390Y-116690476D02*
X94764342Y-116690476D01*
X94764342Y-116690476D02*
X94859580Y-116738095D01*
X94859580Y-116738095D02*
X94907200Y-116785714D01*
X94907200Y-116785714D02*
X94954819Y-116880952D01*
X94954819Y-116880952D02*
X94954819Y-117071428D01*
X94954819Y-117071428D02*
X94907200Y-117166666D01*
X94907200Y-117166666D02*
X94859580Y-117214285D01*
X94859580Y-117214285D02*
X94764342Y-117261904D01*
X94764342Y-117261904D02*
X94526247Y-117261904D01*
X94526247Y-117261904D02*
X94431009Y-117214285D01*
X94431009Y-117214285D02*
X94383390Y-117166666D01*
X94383390Y-117166666D02*
X94335771Y-117071428D01*
X94335771Y-117071428D02*
X94335771Y-116880952D01*
X94335771Y-116880952D02*
X94383390Y-116785714D01*
X94383390Y-116785714D02*
X94431009Y-116738095D01*
X94431009Y-116738095D02*
X94526247Y-116690476D01*
X195454819Y-125333333D02*
X194978628Y-125000000D01*
X195454819Y-124761905D02*
X194454819Y-124761905D01*
X194454819Y-124761905D02*
X194454819Y-125142857D01*
X194454819Y-125142857D02*
X194502438Y-125238095D01*
X194502438Y-125238095D02*
X194550057Y-125285714D01*
X194550057Y-125285714D02*
X194645295Y-125333333D01*
X194645295Y-125333333D02*
X194788152Y-125333333D01*
X194788152Y-125333333D02*
X194883390Y-125285714D01*
X194883390Y-125285714D02*
X194931009Y-125238095D01*
X194931009Y-125238095D02*
X194978628Y-125142857D01*
X194978628Y-125142857D02*
X194978628Y-124761905D01*
X194550057Y-125714286D02*
X194502438Y-125761905D01*
X194502438Y-125761905D02*
X194454819Y-125857143D01*
X194454819Y-125857143D02*
X194454819Y-126095238D01*
X194454819Y-126095238D02*
X194502438Y-126190476D01*
X194502438Y-126190476D02*
X194550057Y-126238095D01*
X194550057Y-126238095D02*
X194645295Y-126285714D01*
X194645295Y-126285714D02*
X194740533Y-126285714D01*
X194740533Y-126285714D02*
X194883390Y-126238095D01*
X194883390Y-126238095D02*
X195454819Y-125666667D01*
X195454819Y-125666667D02*
X195454819Y-126285714D01*
X179434580Y-115747142D02*
X179482200Y-115699523D01*
X179482200Y-115699523D02*
X179529819Y-115556666D01*
X179529819Y-115556666D02*
X179529819Y-115461428D01*
X179529819Y-115461428D02*
X179482200Y-115318571D01*
X179482200Y-115318571D02*
X179386961Y-115223333D01*
X179386961Y-115223333D02*
X179291723Y-115175714D01*
X179291723Y-115175714D02*
X179101247Y-115128095D01*
X179101247Y-115128095D02*
X178958390Y-115128095D01*
X178958390Y-115128095D02*
X178767914Y-115175714D01*
X178767914Y-115175714D02*
X178672676Y-115223333D01*
X178672676Y-115223333D02*
X178577438Y-115318571D01*
X178577438Y-115318571D02*
X178529819Y-115461428D01*
X178529819Y-115461428D02*
X178529819Y-115556666D01*
X178529819Y-115556666D02*
X178577438Y-115699523D01*
X178577438Y-115699523D02*
X178625057Y-115747142D01*
X179529819Y-116699523D02*
X179529819Y-116128095D01*
X179529819Y-116413809D02*
X178529819Y-116413809D01*
X178529819Y-116413809D02*
X178672676Y-116318571D01*
X178672676Y-116318571D02*
X178767914Y-116223333D01*
X178767914Y-116223333D02*
X178815533Y-116128095D01*
X178529819Y-117318571D02*
X178529819Y-117413809D01*
X178529819Y-117413809D02*
X178577438Y-117509047D01*
X178577438Y-117509047D02*
X178625057Y-117556666D01*
X178625057Y-117556666D02*
X178720295Y-117604285D01*
X178720295Y-117604285D02*
X178910771Y-117651904D01*
X178910771Y-117651904D02*
X179148866Y-117651904D01*
X179148866Y-117651904D02*
X179339342Y-117604285D01*
X179339342Y-117604285D02*
X179434580Y-117556666D01*
X179434580Y-117556666D02*
X179482200Y-117509047D01*
X179482200Y-117509047D02*
X179529819Y-117413809D01*
X179529819Y-117413809D02*
X179529819Y-117318571D01*
X179529819Y-117318571D02*
X179482200Y-117223333D01*
X179482200Y-117223333D02*
X179434580Y-117175714D01*
X179434580Y-117175714D02*
X179339342Y-117128095D01*
X179339342Y-117128095D02*
X179148866Y-117080476D01*
X179148866Y-117080476D02*
X178910771Y-117080476D01*
X178910771Y-117080476D02*
X178720295Y-117128095D01*
X178720295Y-117128095D02*
X178625057Y-117175714D01*
X178625057Y-117175714D02*
X178577438Y-117223333D01*
X178577438Y-117223333D02*
X178529819Y-117318571D01*
X208142857Y-114954819D02*
X208476190Y-114478628D01*
X208714285Y-114954819D02*
X208714285Y-113954819D01*
X208714285Y-113954819D02*
X208333333Y-113954819D01*
X208333333Y-113954819D02*
X208238095Y-114002438D01*
X208238095Y-114002438D02*
X208190476Y-114050057D01*
X208190476Y-114050057D02*
X208142857Y-114145295D01*
X208142857Y-114145295D02*
X208142857Y-114288152D01*
X208142857Y-114288152D02*
X208190476Y-114383390D01*
X208190476Y-114383390D02*
X208238095Y-114431009D01*
X208238095Y-114431009D02*
X208333333Y-114478628D01*
X208333333Y-114478628D02*
X208714285Y-114478628D01*
X207190476Y-114954819D02*
X207761904Y-114954819D01*
X207476190Y-114954819D02*
X207476190Y-113954819D01*
X207476190Y-113954819D02*
X207571428Y-114097676D01*
X207571428Y-114097676D02*
X207666666Y-114192914D01*
X207666666Y-114192914D02*
X207761904Y-114240533D01*
X206238095Y-114954819D02*
X206809523Y-114954819D01*
X206523809Y-114954819D02*
X206523809Y-113954819D01*
X206523809Y-113954819D02*
X206619047Y-114097676D01*
X206619047Y-114097676D02*
X206714285Y-114192914D01*
X206714285Y-114192914D02*
X206809523Y-114240533D01*
X205142857Y-106454819D02*
X205476190Y-105978628D01*
X205714285Y-106454819D02*
X205714285Y-105454819D01*
X205714285Y-105454819D02*
X205333333Y-105454819D01*
X205333333Y-105454819D02*
X205238095Y-105502438D01*
X205238095Y-105502438D02*
X205190476Y-105550057D01*
X205190476Y-105550057D02*
X205142857Y-105645295D01*
X205142857Y-105645295D02*
X205142857Y-105788152D01*
X205142857Y-105788152D02*
X205190476Y-105883390D01*
X205190476Y-105883390D02*
X205238095Y-105931009D01*
X205238095Y-105931009D02*
X205333333Y-105978628D01*
X205333333Y-105978628D02*
X205714285Y-105978628D01*
X204190476Y-106454819D02*
X204761904Y-106454819D01*
X204476190Y-106454819D02*
X204476190Y-105454819D01*
X204476190Y-105454819D02*
X204571428Y-105597676D01*
X204571428Y-105597676D02*
X204666666Y-105692914D01*
X204666666Y-105692914D02*
X204761904Y-105740533D01*
X203857142Y-105454819D02*
X203238095Y-105454819D01*
X203238095Y-105454819D02*
X203571428Y-105835771D01*
X203571428Y-105835771D02*
X203428571Y-105835771D01*
X203428571Y-105835771D02*
X203333333Y-105883390D01*
X203333333Y-105883390D02*
X203285714Y-105931009D01*
X203285714Y-105931009D02*
X203238095Y-106026247D01*
X203238095Y-106026247D02*
X203238095Y-106264342D01*
X203238095Y-106264342D02*
X203285714Y-106359580D01*
X203285714Y-106359580D02*
X203333333Y-106407200D01*
X203333333Y-106407200D02*
X203428571Y-106454819D01*
X203428571Y-106454819D02*
X203714285Y-106454819D01*
X203714285Y-106454819D02*
X203809523Y-106407200D01*
X203809523Y-106407200D02*
X203857142Y-106359580D01*
X161879166Y-100454819D02*
X162212499Y-99978628D01*
X162450594Y-100454819D02*
X162450594Y-99454819D01*
X162450594Y-99454819D02*
X162069642Y-99454819D01*
X162069642Y-99454819D02*
X161974404Y-99502438D01*
X161974404Y-99502438D02*
X161926785Y-99550057D01*
X161926785Y-99550057D02*
X161879166Y-99645295D01*
X161879166Y-99645295D02*
X161879166Y-99788152D01*
X161879166Y-99788152D02*
X161926785Y-99883390D01*
X161926785Y-99883390D02*
X161974404Y-99931009D01*
X161974404Y-99931009D02*
X162069642Y-99978628D01*
X162069642Y-99978628D02*
X162450594Y-99978628D01*
X161307737Y-99883390D02*
X161402975Y-99835771D01*
X161402975Y-99835771D02*
X161450594Y-99788152D01*
X161450594Y-99788152D02*
X161498213Y-99692914D01*
X161498213Y-99692914D02*
X161498213Y-99645295D01*
X161498213Y-99645295D02*
X161450594Y-99550057D01*
X161450594Y-99550057D02*
X161402975Y-99502438D01*
X161402975Y-99502438D02*
X161307737Y-99454819D01*
X161307737Y-99454819D02*
X161117261Y-99454819D01*
X161117261Y-99454819D02*
X161022023Y-99502438D01*
X161022023Y-99502438D02*
X160974404Y-99550057D01*
X160974404Y-99550057D02*
X160926785Y-99645295D01*
X160926785Y-99645295D02*
X160926785Y-99692914D01*
X160926785Y-99692914D02*
X160974404Y-99788152D01*
X160974404Y-99788152D02*
X161022023Y-99835771D01*
X161022023Y-99835771D02*
X161117261Y-99883390D01*
X161117261Y-99883390D02*
X161307737Y-99883390D01*
X161307737Y-99883390D02*
X161402975Y-99931009D01*
X161402975Y-99931009D02*
X161450594Y-99978628D01*
X161450594Y-99978628D02*
X161498213Y-100073866D01*
X161498213Y-100073866D02*
X161498213Y-100264342D01*
X161498213Y-100264342D02*
X161450594Y-100359580D01*
X161450594Y-100359580D02*
X161402975Y-100407200D01*
X161402975Y-100407200D02*
X161307737Y-100454819D01*
X161307737Y-100454819D02*
X161117261Y-100454819D01*
X161117261Y-100454819D02*
X161022023Y-100407200D01*
X161022023Y-100407200D02*
X160974404Y-100359580D01*
X160974404Y-100359580D02*
X160926785Y-100264342D01*
X160926785Y-100264342D02*
X160926785Y-100073866D01*
X160926785Y-100073866D02*
X160974404Y-99978628D01*
X160974404Y-99978628D02*
X161022023Y-99931009D01*
X161022023Y-99931009D02*
X161117261Y-99883390D01*
X208642857Y-100954819D02*
X208976190Y-100478628D01*
X209214285Y-100954819D02*
X209214285Y-99954819D01*
X209214285Y-99954819D02*
X208833333Y-99954819D01*
X208833333Y-99954819D02*
X208738095Y-100002438D01*
X208738095Y-100002438D02*
X208690476Y-100050057D01*
X208690476Y-100050057D02*
X208642857Y-100145295D01*
X208642857Y-100145295D02*
X208642857Y-100288152D01*
X208642857Y-100288152D02*
X208690476Y-100383390D01*
X208690476Y-100383390D02*
X208738095Y-100431009D01*
X208738095Y-100431009D02*
X208833333Y-100478628D01*
X208833333Y-100478628D02*
X209214285Y-100478628D01*
X207690476Y-100954819D02*
X208261904Y-100954819D01*
X207976190Y-100954819D02*
X207976190Y-99954819D01*
X207976190Y-99954819D02*
X208071428Y-100097676D01*
X208071428Y-100097676D02*
X208166666Y-100192914D01*
X208166666Y-100192914D02*
X208261904Y-100240533D01*
X206785714Y-99954819D02*
X207261904Y-99954819D01*
X207261904Y-99954819D02*
X207309523Y-100431009D01*
X207309523Y-100431009D02*
X207261904Y-100383390D01*
X207261904Y-100383390D02*
X207166666Y-100335771D01*
X207166666Y-100335771D02*
X206928571Y-100335771D01*
X206928571Y-100335771D02*
X206833333Y-100383390D01*
X206833333Y-100383390D02*
X206785714Y-100431009D01*
X206785714Y-100431009D02*
X206738095Y-100526247D01*
X206738095Y-100526247D02*
X206738095Y-100764342D01*
X206738095Y-100764342D02*
X206785714Y-100859580D01*
X206785714Y-100859580D02*
X206833333Y-100907200D01*
X206833333Y-100907200D02*
X206928571Y-100954819D01*
X206928571Y-100954819D02*
X207166666Y-100954819D01*
X207166666Y-100954819D02*
X207261904Y-100907200D01*
X207261904Y-100907200D02*
X207309523Y-100859580D01*
D11*
%TO.C,C2*%
X194761252Y-122765000D02*
X194238748Y-122765000D01*
X194761252Y-124235000D02*
X194238748Y-124235000D01*
%TO.C,HS1*%
X98390000Y-121220000D02*
X98390000Y-107780000D01*
X98690000Y-112600000D02*
X98390000Y-112600000D01*
X98690000Y-116400000D02*
X98390000Y-116400000D01*
X99250000Y-112600000D02*
X98950000Y-112600000D01*
X99250000Y-116400000D02*
X98950000Y-116400000D01*
X99810000Y-109210000D02*
X111310000Y-109210000D01*
X99810000Y-112600000D02*
X99510000Y-112600000D01*
X99810000Y-116400000D02*
X99510000Y-116400000D01*
X99810000Y-119790000D02*
X99810000Y-109210000D01*
X111310000Y-107780000D02*
X98390000Y-107780000D01*
X111310000Y-109210000D02*
X111310000Y-107780000D01*
X111310000Y-119790000D02*
X99810000Y-119790000D01*
X111310000Y-121220000D02*
X98390000Y-121220000D01*
X111310000Y-121220000D02*
X111310000Y-119790000D01*
%TO.C,R12*%
X204272936Y-110265000D02*
X204727064Y-110265000D01*
X204272936Y-111735000D02*
X204727064Y-111735000D01*
%TO.C,R7*%
X162237258Y-107977500D02*
X161762742Y-107977500D01*
X162237258Y-109022500D02*
X161762742Y-109022500D01*
%TO.C,R9*%
X161949758Y-102977500D02*
X161475242Y-102977500D01*
X161949758Y-104022500D02*
X161475242Y-104022500D01*
%TO.C,C5*%
X180340000Y-104651252D02*
X180340000Y-104128748D01*
X181810000Y-104651252D02*
X181810000Y-104128748D01*
%TO.C,R10*%
X208237258Y-110477500D02*
X207762742Y-110477500D01*
X208237258Y-111522500D02*
X207762742Y-111522500D01*
%TO.C,R14*%
X208237258Y-103477500D02*
X207762742Y-103477500D01*
X208237258Y-104522500D02*
X207762742Y-104522500D01*
%TO.C,C16*%
X95590000Y-116711252D02*
X95590000Y-115288748D01*
X97410000Y-116711252D02*
X97410000Y-115288748D01*
%TO.C,R2*%
X192977500Y-126737258D02*
X192977500Y-126262742D01*
X194022500Y-126737258D02*
X194022500Y-126262742D01*
%TO.C,C10*%
X180340000Y-116128748D02*
X180340000Y-116651252D01*
X181810000Y-116128748D02*
X181810000Y-116651252D01*
%TO.C,R11*%
X207262742Y-112477500D02*
X207737258Y-112477500D01*
X207262742Y-113522500D02*
X207737258Y-113522500D01*
%TO.C,R13*%
X204272936Y-103265000D02*
X204727064Y-103265000D01*
X204272936Y-104735000D02*
X204727064Y-104735000D01*
%TO.C,R8*%
X161949758Y-100977500D02*
X161475242Y-100977500D01*
X161949758Y-102022500D02*
X161475242Y-102022500D01*
%TO.C,R15*%
X207762742Y-101477500D02*
X208237258Y-101477500D01*
X207762742Y-102522500D02*
X208237258Y-102522500D01*
%TD*%
M02*
