%TF.GenerationSoftware,KiCad,Pcbnew,8.0.9*%
%TF.CreationDate,2025-03-21T10:18:04-04:00*%
%TF.ProjectId,Power_Elec_Project,506f7765-725f-4456-9c65-635f50726f6a,1*%
%TF.SameCoordinates,Original*%
%TF.FileFunction,Legend,Top*%
%TF.FilePolarity,Positive*%
%FSLAX46Y46*%
G04 Gerber Fmt 4.6, Leading zero omitted, Abs format (unit mm)*
G04 Created by KiCad (PCBNEW 8.0.9) date 2025-03-21 10:18:04*
%MOMM*%
%LPD*%
G01*
G04 APERTURE LIST*
%ADD10C,0.150000*%
%ADD11C,0.100000*%
%ADD12C,0.400000*%
%ADD13C,0.000000*%
%ADD14C,0.120000*%
%ADD15C,0.127000*%
%ADD16C,0.152400*%
%ADD17C,0.200000*%
G04 APERTURE END LIST*
D10*
X99904762Y-56516177D02*
X100238095Y-56516177D01*
X100380952Y-57039987D02*
X99904762Y-57039987D01*
X99904762Y-57039987D02*
X99904762Y-56039987D01*
X99904762Y-56039987D02*
X100380952Y-56039987D01*
X101285714Y-57039987D02*
X100809524Y-57039987D01*
X100809524Y-57039987D02*
X100809524Y-56039987D01*
X101619048Y-56516177D02*
X101952381Y-56516177D01*
X102095238Y-57039987D02*
X101619048Y-57039987D01*
X101619048Y-57039987D02*
X101619048Y-56039987D01*
X101619048Y-56039987D02*
X102095238Y-56039987D01*
X103095238Y-56944748D02*
X103047619Y-56992368D01*
X103047619Y-56992368D02*
X102904762Y-57039987D01*
X102904762Y-57039987D02*
X102809524Y-57039987D01*
X102809524Y-57039987D02*
X102666667Y-56992368D01*
X102666667Y-56992368D02*
X102571429Y-56897129D01*
X102571429Y-56897129D02*
X102523810Y-56801891D01*
X102523810Y-56801891D02*
X102476191Y-56611415D01*
X102476191Y-56611415D02*
X102476191Y-56468558D01*
X102476191Y-56468558D02*
X102523810Y-56278082D01*
X102523810Y-56278082D02*
X102571429Y-56182844D01*
X102571429Y-56182844D02*
X102666667Y-56087606D01*
X102666667Y-56087606D02*
X102809524Y-56039987D01*
X102809524Y-56039987D02*
X102904762Y-56039987D01*
X102904762Y-56039987D02*
X103047619Y-56087606D01*
X103047619Y-56087606D02*
X103095238Y-56135225D01*
X103523810Y-56659034D02*
X104285715Y-56659034D01*
X105190476Y-56373320D02*
X105190476Y-57039987D01*
X104952381Y-55992368D02*
X104714286Y-56706653D01*
X104714286Y-56706653D02*
X105333333Y-56706653D01*
X106142857Y-56373320D02*
X106142857Y-57039987D01*
X105904762Y-55992368D02*
X105666667Y-56706653D01*
X105666667Y-56706653D02*
X106285714Y-56706653D01*
X107142857Y-56039987D02*
X106666667Y-56039987D01*
X106666667Y-56039987D02*
X106619048Y-56516177D01*
X106619048Y-56516177D02*
X106666667Y-56468558D01*
X106666667Y-56468558D02*
X106761905Y-56420939D01*
X106761905Y-56420939D02*
X107000000Y-56420939D01*
X107000000Y-56420939D02*
X107095238Y-56468558D01*
X107095238Y-56468558D02*
X107142857Y-56516177D01*
X107142857Y-56516177D02*
X107190476Y-56611415D01*
X107190476Y-56611415D02*
X107190476Y-56849510D01*
X107190476Y-56849510D02*
X107142857Y-56944748D01*
X107142857Y-56944748D02*
X107095238Y-56992368D01*
X107095238Y-56992368D02*
X107000000Y-57039987D01*
X107000000Y-57039987D02*
X106761905Y-57039987D01*
X106761905Y-57039987D02*
X106666667Y-56992368D01*
X106666667Y-56992368D02*
X106619048Y-56944748D01*
X107809524Y-56039987D02*
X107904762Y-56039987D01*
X107904762Y-56039987D02*
X108000000Y-56087606D01*
X108000000Y-56087606D02*
X108047619Y-56135225D01*
X108047619Y-56135225D02*
X108095238Y-56230463D01*
X108095238Y-56230463D02*
X108142857Y-56420939D01*
X108142857Y-56420939D02*
X108142857Y-56659034D01*
X108142857Y-56659034D02*
X108095238Y-56849510D01*
X108095238Y-56849510D02*
X108047619Y-56944748D01*
X108047619Y-56944748D02*
X108000000Y-56992368D01*
X108000000Y-56992368D02*
X107904762Y-57039987D01*
X107904762Y-57039987D02*
X107809524Y-57039987D01*
X107809524Y-57039987D02*
X107714286Y-56992368D01*
X107714286Y-56992368D02*
X107666667Y-56944748D01*
X107666667Y-56944748D02*
X107619048Y-56849510D01*
X107619048Y-56849510D02*
X107571429Y-56659034D01*
X107571429Y-56659034D02*
X107571429Y-56420939D01*
X107571429Y-56420939D02*
X107619048Y-56230463D01*
X107619048Y-56230463D02*
X107666667Y-56135225D01*
X107666667Y-56135225D02*
X107714286Y-56087606D01*
X107714286Y-56087606D02*
X107809524Y-56039987D01*
X100738095Y-58649931D02*
X100738095Y-57649931D01*
X100738095Y-57649931D02*
X101071428Y-58364216D01*
X101071428Y-58364216D02*
X101404761Y-57649931D01*
X101404761Y-57649931D02*
X101404761Y-58649931D01*
X101880952Y-58554692D02*
X101928571Y-58602312D01*
X101928571Y-58602312D02*
X101880952Y-58649931D01*
X101880952Y-58649931D02*
X101833333Y-58602312D01*
X101833333Y-58602312D02*
X101880952Y-58554692D01*
X101880952Y-58554692D02*
X101880952Y-58649931D01*
X102357142Y-58649931D02*
X102357142Y-57649931D01*
X102357142Y-57649931D02*
X102928570Y-58649931D01*
X102928570Y-58649931D02*
X102928570Y-57649931D01*
X103833332Y-57983264D02*
X103833332Y-58792788D01*
X103833332Y-58792788D02*
X103785713Y-58888026D01*
X103785713Y-58888026D02*
X103738094Y-58935645D01*
X103738094Y-58935645D02*
X103642856Y-58983264D01*
X103642856Y-58983264D02*
X103499999Y-58983264D01*
X103499999Y-58983264D02*
X103404761Y-58935645D01*
X103833332Y-58602312D02*
X103738094Y-58649931D01*
X103738094Y-58649931D02*
X103547618Y-58649931D01*
X103547618Y-58649931D02*
X103452380Y-58602312D01*
X103452380Y-58602312D02*
X103404761Y-58554692D01*
X103404761Y-58554692D02*
X103357142Y-58459454D01*
X103357142Y-58459454D02*
X103357142Y-58173740D01*
X103357142Y-58173740D02*
X103404761Y-58078502D01*
X103404761Y-58078502D02*
X103452380Y-58030883D01*
X103452380Y-58030883D02*
X103547618Y-57983264D01*
X103547618Y-57983264D02*
X103738094Y-57983264D01*
X103738094Y-57983264D02*
X103833332Y-58030883D01*
X104738094Y-57983264D02*
X104738094Y-58649931D01*
X104309523Y-57983264D02*
X104309523Y-58507073D01*
X104309523Y-58507073D02*
X104357142Y-58602312D01*
X104357142Y-58602312D02*
X104452380Y-58649931D01*
X104452380Y-58649931D02*
X104595237Y-58649931D01*
X104595237Y-58649931D02*
X104690475Y-58602312D01*
X104690475Y-58602312D02*
X104738094Y-58554692D01*
X105119047Y-57983264D02*
X105357142Y-58649931D01*
X105595237Y-57983264D02*
X105357142Y-58649931D01*
X105357142Y-58649931D02*
X105261904Y-58888026D01*
X105261904Y-58888026D02*
X105214285Y-58935645D01*
X105214285Y-58935645D02*
X105119047Y-58983264D01*
X106357142Y-58602312D02*
X106261904Y-58649931D01*
X106261904Y-58649931D02*
X106071428Y-58649931D01*
X106071428Y-58649931D02*
X105976190Y-58602312D01*
X105976190Y-58602312D02*
X105928571Y-58507073D01*
X105928571Y-58507073D02*
X105928571Y-58126121D01*
X105928571Y-58126121D02*
X105976190Y-58030883D01*
X105976190Y-58030883D02*
X106071428Y-57983264D01*
X106071428Y-57983264D02*
X106261904Y-57983264D01*
X106261904Y-57983264D02*
X106357142Y-58030883D01*
X106357142Y-58030883D02*
X106404761Y-58126121D01*
X106404761Y-58126121D02*
X106404761Y-58221359D01*
X106404761Y-58221359D02*
X105928571Y-58316597D01*
X106833333Y-57983264D02*
X106833333Y-58649931D01*
X106833333Y-58078502D02*
X106880952Y-58030883D01*
X106880952Y-58030883D02*
X106976190Y-57983264D01*
X106976190Y-57983264D02*
X107119047Y-57983264D01*
X107119047Y-57983264D02*
X107214285Y-58030883D01*
X107214285Y-58030883D02*
X107261904Y-58126121D01*
X107261904Y-58126121D02*
X107261904Y-58649931D01*
X101904761Y-59736065D02*
X102047618Y-59783684D01*
X102047618Y-59783684D02*
X102095237Y-59831303D01*
X102095237Y-59831303D02*
X102142856Y-59926541D01*
X102142856Y-59926541D02*
X102142856Y-60069398D01*
X102142856Y-60069398D02*
X102095237Y-60164636D01*
X102095237Y-60164636D02*
X102047618Y-60212256D01*
X102047618Y-60212256D02*
X101952380Y-60259875D01*
X101952380Y-60259875D02*
X101571428Y-60259875D01*
X101571428Y-60259875D02*
X101571428Y-59259875D01*
X101571428Y-59259875D02*
X101904761Y-59259875D01*
X101904761Y-59259875D02*
X101999999Y-59307494D01*
X101999999Y-59307494D02*
X102047618Y-59355113D01*
X102047618Y-59355113D02*
X102095237Y-59450351D01*
X102095237Y-59450351D02*
X102095237Y-59545589D01*
X102095237Y-59545589D02*
X102047618Y-59640827D01*
X102047618Y-59640827D02*
X101999999Y-59688446D01*
X101999999Y-59688446D02*
X101904761Y-59736065D01*
X101904761Y-59736065D02*
X101571428Y-59736065D01*
X102571428Y-60164636D02*
X102619047Y-60212256D01*
X102619047Y-60212256D02*
X102571428Y-60259875D01*
X102571428Y-60259875D02*
X102523809Y-60212256D01*
X102523809Y-60212256D02*
X102571428Y-60164636D01*
X102571428Y-60164636D02*
X102571428Y-60259875D01*
X103047618Y-60259875D02*
X103047618Y-59259875D01*
X103047618Y-59259875D02*
X103428570Y-59259875D01*
X103428570Y-59259875D02*
X103523808Y-59307494D01*
X103523808Y-59307494D02*
X103571427Y-59355113D01*
X103571427Y-59355113D02*
X103619046Y-59450351D01*
X103619046Y-59450351D02*
X103619046Y-59593208D01*
X103619046Y-59593208D02*
X103571427Y-59688446D01*
X103571427Y-59688446D02*
X103523808Y-59736065D01*
X103523808Y-59736065D02*
X103428570Y-59783684D01*
X103428570Y-59783684D02*
X103047618Y-59783684D01*
X104476189Y-60259875D02*
X104476189Y-59736065D01*
X104476189Y-59736065D02*
X104428570Y-59640827D01*
X104428570Y-59640827D02*
X104333332Y-59593208D01*
X104333332Y-59593208D02*
X104142856Y-59593208D01*
X104142856Y-59593208D02*
X104047618Y-59640827D01*
X104476189Y-60212256D02*
X104380951Y-60259875D01*
X104380951Y-60259875D02*
X104142856Y-60259875D01*
X104142856Y-60259875D02*
X104047618Y-60212256D01*
X104047618Y-60212256D02*
X103999999Y-60117017D01*
X103999999Y-60117017D02*
X103999999Y-60021779D01*
X103999999Y-60021779D02*
X104047618Y-59926541D01*
X104047618Y-59926541D02*
X104142856Y-59878922D01*
X104142856Y-59878922D02*
X104380951Y-59878922D01*
X104380951Y-59878922D02*
X104476189Y-59831303D01*
X104809523Y-59593208D02*
X105190475Y-59593208D01*
X104952380Y-59259875D02*
X104952380Y-60117017D01*
X104952380Y-60117017D02*
X104999999Y-60212256D01*
X104999999Y-60212256D02*
X105095237Y-60259875D01*
X105095237Y-60259875D02*
X105190475Y-60259875D01*
X105904761Y-60212256D02*
X105809523Y-60259875D01*
X105809523Y-60259875D02*
X105619047Y-60259875D01*
X105619047Y-60259875D02*
X105523809Y-60212256D01*
X105523809Y-60212256D02*
X105476190Y-60117017D01*
X105476190Y-60117017D02*
X105476190Y-59736065D01*
X105476190Y-59736065D02*
X105523809Y-59640827D01*
X105523809Y-59640827D02*
X105619047Y-59593208D01*
X105619047Y-59593208D02*
X105809523Y-59593208D01*
X105809523Y-59593208D02*
X105904761Y-59640827D01*
X105904761Y-59640827D02*
X105952380Y-59736065D01*
X105952380Y-59736065D02*
X105952380Y-59831303D01*
X105952380Y-59831303D02*
X105476190Y-59926541D01*
X106523809Y-60259875D02*
X106428571Y-60212256D01*
X106428571Y-60212256D02*
X106380952Y-60117017D01*
X106380952Y-60117017D02*
X106380952Y-59259875D01*
X100976191Y-61822200D02*
X101119048Y-61869819D01*
X101119048Y-61869819D02*
X101357143Y-61869819D01*
X101357143Y-61869819D02*
X101452381Y-61822200D01*
X101452381Y-61822200D02*
X101500000Y-61774580D01*
X101500000Y-61774580D02*
X101547619Y-61679342D01*
X101547619Y-61679342D02*
X101547619Y-61584104D01*
X101547619Y-61584104D02*
X101500000Y-61488866D01*
X101500000Y-61488866D02*
X101452381Y-61441247D01*
X101452381Y-61441247D02*
X101357143Y-61393628D01*
X101357143Y-61393628D02*
X101166667Y-61346009D01*
X101166667Y-61346009D02*
X101071429Y-61298390D01*
X101071429Y-61298390D02*
X101023810Y-61250771D01*
X101023810Y-61250771D02*
X100976191Y-61155533D01*
X100976191Y-61155533D02*
X100976191Y-61060295D01*
X100976191Y-61060295D02*
X101023810Y-60965057D01*
X101023810Y-60965057D02*
X101071429Y-60917438D01*
X101071429Y-60917438D02*
X101166667Y-60869819D01*
X101166667Y-60869819D02*
X101404762Y-60869819D01*
X101404762Y-60869819D02*
X101547619Y-60917438D01*
X101976191Y-61774580D02*
X102023810Y-61822200D01*
X102023810Y-61822200D02*
X101976191Y-61869819D01*
X101976191Y-61869819D02*
X101928572Y-61822200D01*
X101928572Y-61822200D02*
X101976191Y-61774580D01*
X101976191Y-61774580D02*
X101976191Y-61869819D01*
X102452381Y-61869819D02*
X102452381Y-60869819D01*
X102452381Y-60869819D02*
X102690476Y-60869819D01*
X102690476Y-60869819D02*
X102833333Y-60917438D01*
X102833333Y-60917438D02*
X102928571Y-61012676D01*
X102928571Y-61012676D02*
X102976190Y-61107914D01*
X102976190Y-61107914D02*
X103023809Y-61298390D01*
X103023809Y-61298390D02*
X103023809Y-61441247D01*
X103023809Y-61441247D02*
X102976190Y-61631723D01*
X102976190Y-61631723D02*
X102928571Y-61726961D01*
X102928571Y-61726961D02*
X102833333Y-61822200D01*
X102833333Y-61822200D02*
X102690476Y-61869819D01*
X102690476Y-61869819D02*
X102452381Y-61869819D01*
X103880952Y-61203152D02*
X103880952Y-61869819D01*
X103452381Y-61203152D02*
X103452381Y-61726961D01*
X103452381Y-61726961D02*
X103500000Y-61822200D01*
X103500000Y-61822200D02*
X103595238Y-61869819D01*
X103595238Y-61869819D02*
X103738095Y-61869819D01*
X103738095Y-61869819D02*
X103833333Y-61822200D01*
X103833333Y-61822200D02*
X103880952Y-61774580D01*
X104357143Y-61203152D02*
X104357143Y-62203152D01*
X104357143Y-61250771D02*
X104452381Y-61203152D01*
X104452381Y-61203152D02*
X104642857Y-61203152D01*
X104642857Y-61203152D02*
X104738095Y-61250771D01*
X104738095Y-61250771D02*
X104785714Y-61298390D01*
X104785714Y-61298390D02*
X104833333Y-61393628D01*
X104833333Y-61393628D02*
X104833333Y-61679342D01*
X104833333Y-61679342D02*
X104785714Y-61774580D01*
X104785714Y-61774580D02*
X104738095Y-61822200D01*
X104738095Y-61822200D02*
X104642857Y-61869819D01*
X104642857Y-61869819D02*
X104452381Y-61869819D01*
X104452381Y-61869819D02*
X104357143Y-61822200D01*
X105690476Y-61203152D02*
X105690476Y-61869819D01*
X105261905Y-61203152D02*
X105261905Y-61726961D01*
X105261905Y-61726961D02*
X105309524Y-61822200D01*
X105309524Y-61822200D02*
X105404762Y-61869819D01*
X105404762Y-61869819D02*
X105547619Y-61869819D01*
X105547619Y-61869819D02*
X105642857Y-61822200D01*
X105642857Y-61822200D02*
X105690476Y-61774580D01*
X106166667Y-61869819D02*
X106166667Y-61203152D01*
X106166667Y-60869819D02*
X106119048Y-60917438D01*
X106119048Y-60917438D02*
X106166667Y-60965057D01*
X106166667Y-60965057D02*
X106214286Y-60917438D01*
X106214286Y-60917438D02*
X106166667Y-60869819D01*
X106166667Y-60869819D02*
X106166667Y-60965057D01*
X106595238Y-61822200D02*
X106690476Y-61869819D01*
X106690476Y-61869819D02*
X106880952Y-61869819D01*
X106880952Y-61869819D02*
X106976190Y-61822200D01*
X106976190Y-61822200D02*
X107023809Y-61726961D01*
X107023809Y-61726961D02*
X107023809Y-61679342D01*
X107023809Y-61679342D02*
X106976190Y-61584104D01*
X106976190Y-61584104D02*
X106880952Y-61536485D01*
X106880952Y-61536485D02*
X106738095Y-61536485D01*
X106738095Y-61536485D02*
X106642857Y-61488866D01*
X106642857Y-61488866D02*
X106595238Y-61393628D01*
X106595238Y-61393628D02*
X106595238Y-61346009D01*
X106595238Y-61346009D02*
X106642857Y-61250771D01*
X106642857Y-61250771D02*
X106738095Y-61203152D01*
X106738095Y-61203152D02*
X106880952Y-61203152D01*
X106880952Y-61203152D02*
X106976190Y-61250771D01*
X167833333Y-101859580D02*
X167785714Y-101907200D01*
X167785714Y-101907200D02*
X167642857Y-101954819D01*
X167642857Y-101954819D02*
X167547619Y-101954819D01*
X167547619Y-101954819D02*
X167404762Y-101907200D01*
X167404762Y-101907200D02*
X167309524Y-101811961D01*
X167309524Y-101811961D02*
X167261905Y-101716723D01*
X167261905Y-101716723D02*
X167214286Y-101526247D01*
X167214286Y-101526247D02*
X167214286Y-101383390D01*
X167214286Y-101383390D02*
X167261905Y-101192914D01*
X167261905Y-101192914D02*
X167309524Y-101097676D01*
X167309524Y-101097676D02*
X167404762Y-101002438D01*
X167404762Y-101002438D02*
X167547619Y-100954819D01*
X167547619Y-100954819D02*
X167642857Y-100954819D01*
X167642857Y-100954819D02*
X167785714Y-101002438D01*
X167785714Y-101002438D02*
X167833333Y-101050057D01*
X168690476Y-101288152D02*
X168690476Y-101954819D01*
X168452381Y-100907200D02*
X168214286Y-101621485D01*
X168214286Y-101621485D02*
X168833333Y-101621485D01*
X172333333Y-99359580D02*
X172285714Y-99407200D01*
X172285714Y-99407200D02*
X172142857Y-99454819D01*
X172142857Y-99454819D02*
X172047619Y-99454819D01*
X172047619Y-99454819D02*
X171904762Y-99407200D01*
X171904762Y-99407200D02*
X171809524Y-99311961D01*
X171809524Y-99311961D02*
X171761905Y-99216723D01*
X171761905Y-99216723D02*
X171714286Y-99026247D01*
X171714286Y-99026247D02*
X171714286Y-98883390D01*
X171714286Y-98883390D02*
X171761905Y-98692914D01*
X171761905Y-98692914D02*
X171809524Y-98597676D01*
X171809524Y-98597676D02*
X171904762Y-98502438D01*
X171904762Y-98502438D02*
X172047619Y-98454819D01*
X172047619Y-98454819D02*
X172142857Y-98454819D01*
X172142857Y-98454819D02*
X172285714Y-98502438D01*
X172285714Y-98502438D02*
X172333333Y-98550057D01*
X172666667Y-98454819D02*
X173285714Y-98454819D01*
X173285714Y-98454819D02*
X172952381Y-98835771D01*
X172952381Y-98835771D02*
X173095238Y-98835771D01*
X173095238Y-98835771D02*
X173190476Y-98883390D01*
X173190476Y-98883390D02*
X173238095Y-98931009D01*
X173238095Y-98931009D02*
X173285714Y-99026247D01*
X173285714Y-99026247D02*
X173285714Y-99264342D01*
X173285714Y-99264342D02*
X173238095Y-99359580D01*
X173238095Y-99359580D02*
X173190476Y-99407200D01*
X173190476Y-99407200D02*
X173095238Y-99454819D01*
X173095238Y-99454819D02*
X172809524Y-99454819D01*
X172809524Y-99454819D02*
X172714286Y-99407200D01*
X172714286Y-99407200D02*
X172666667Y-99359580D01*
X209238095Y-33954819D02*
X209238095Y-32954819D01*
X209238095Y-33431009D02*
X209809523Y-33431009D01*
X209809523Y-33954819D02*
X209809523Y-32954819D01*
X210190476Y-32954819D02*
X210857142Y-32954819D01*
X210857142Y-32954819D02*
X210428571Y-33954819D01*
D11*
X139333333Y-131457419D02*
X138857143Y-131457419D01*
X138857143Y-131457419D02*
X138857143Y-130457419D01*
X139619048Y-130552657D02*
X139666667Y-130505038D01*
X139666667Y-130505038D02*
X139761905Y-130457419D01*
X139761905Y-130457419D02*
X140000000Y-130457419D01*
X140000000Y-130457419D02*
X140095238Y-130505038D01*
X140095238Y-130505038D02*
X140142857Y-130552657D01*
X140142857Y-130552657D02*
X140190476Y-130647895D01*
X140190476Y-130647895D02*
X140190476Y-130743133D01*
X140190476Y-130743133D02*
X140142857Y-130885990D01*
X140142857Y-130885990D02*
X139571429Y-131457419D01*
X139571429Y-131457419D02*
X140190476Y-131457419D01*
D10*
X101238095Y-136754819D02*
X101238095Y-135754819D01*
X101238095Y-136231009D02*
X101809523Y-136231009D01*
X101809523Y-136754819D02*
X101809523Y-135754819D01*
X102809523Y-136754819D02*
X102238095Y-136754819D01*
X102523809Y-136754819D02*
X102523809Y-135754819D01*
X102523809Y-135754819D02*
X102428571Y-135897676D01*
X102428571Y-135897676D02*
X102333333Y-135992914D01*
X102333333Y-135992914D02*
X102238095Y-136040533D01*
X150738095Y-67454819D02*
X150738095Y-68264342D01*
X150738095Y-68264342D02*
X150785714Y-68359580D01*
X150785714Y-68359580D02*
X150833333Y-68407200D01*
X150833333Y-68407200D02*
X150928571Y-68454819D01*
X150928571Y-68454819D02*
X151119047Y-68454819D01*
X151119047Y-68454819D02*
X151214285Y-68407200D01*
X151214285Y-68407200D02*
X151261904Y-68359580D01*
X151261904Y-68359580D02*
X151309523Y-68264342D01*
X151309523Y-68264342D02*
X151309523Y-67454819D01*
X151738095Y-67550057D02*
X151785714Y-67502438D01*
X151785714Y-67502438D02*
X151880952Y-67454819D01*
X151880952Y-67454819D02*
X152119047Y-67454819D01*
X152119047Y-67454819D02*
X152214285Y-67502438D01*
X152214285Y-67502438D02*
X152261904Y-67550057D01*
X152261904Y-67550057D02*
X152309523Y-67645295D01*
X152309523Y-67645295D02*
X152309523Y-67740533D01*
X152309523Y-67740533D02*
X152261904Y-67883390D01*
X152261904Y-67883390D02*
X151690476Y-68454819D01*
X151690476Y-68454819D02*
X152309523Y-68454819D01*
X114876666Y-47599819D02*
X114876666Y-48314104D01*
X114876666Y-48314104D02*
X114829047Y-48456961D01*
X114829047Y-48456961D02*
X114733809Y-48552200D01*
X114733809Y-48552200D02*
X114590952Y-48599819D01*
X114590952Y-48599819D02*
X114495714Y-48599819D01*
X115781428Y-47933152D02*
X115781428Y-48599819D01*
X115543333Y-47552200D02*
X115305238Y-48266485D01*
X115305238Y-48266485D02*
X115924285Y-48266485D01*
X211665476Y-47979819D02*
X211665476Y-48694104D01*
X211665476Y-48694104D02*
X211617857Y-48836961D01*
X211617857Y-48836961D02*
X211522619Y-48932200D01*
X211522619Y-48932200D02*
X211379762Y-48979819D01*
X211379762Y-48979819D02*
X211284524Y-48979819D01*
X212665476Y-48979819D02*
X212094048Y-48979819D01*
X212379762Y-48979819D02*
X212379762Y-47979819D01*
X212379762Y-47979819D02*
X212284524Y-48122676D01*
X212284524Y-48122676D02*
X212189286Y-48217914D01*
X212189286Y-48217914D02*
X212094048Y-48265533D01*
X213522619Y-48313152D02*
X213522619Y-48979819D01*
X213284524Y-47932200D02*
X213046429Y-48646485D01*
X213046429Y-48646485D02*
X213665476Y-48646485D01*
X179011666Y-47599819D02*
X179011666Y-48314104D01*
X179011666Y-48314104D02*
X178964047Y-48456961D01*
X178964047Y-48456961D02*
X178868809Y-48552200D01*
X178868809Y-48552200D02*
X178725952Y-48599819D01*
X178725952Y-48599819D02*
X178630714Y-48599819D01*
X179630714Y-48028390D02*
X179535476Y-47980771D01*
X179535476Y-47980771D02*
X179487857Y-47933152D01*
X179487857Y-47933152D02*
X179440238Y-47837914D01*
X179440238Y-47837914D02*
X179440238Y-47790295D01*
X179440238Y-47790295D02*
X179487857Y-47695057D01*
X179487857Y-47695057D02*
X179535476Y-47647438D01*
X179535476Y-47647438D02*
X179630714Y-47599819D01*
X179630714Y-47599819D02*
X179821190Y-47599819D01*
X179821190Y-47599819D02*
X179916428Y-47647438D01*
X179916428Y-47647438D02*
X179964047Y-47695057D01*
X179964047Y-47695057D02*
X180011666Y-47790295D01*
X180011666Y-47790295D02*
X180011666Y-47837914D01*
X180011666Y-47837914D02*
X179964047Y-47933152D01*
X179964047Y-47933152D02*
X179916428Y-47980771D01*
X179916428Y-47980771D02*
X179821190Y-48028390D01*
X179821190Y-48028390D02*
X179630714Y-48028390D01*
X179630714Y-48028390D02*
X179535476Y-48076009D01*
X179535476Y-48076009D02*
X179487857Y-48123628D01*
X179487857Y-48123628D02*
X179440238Y-48218866D01*
X179440238Y-48218866D02*
X179440238Y-48409342D01*
X179440238Y-48409342D02*
X179487857Y-48504580D01*
X179487857Y-48504580D02*
X179535476Y-48552200D01*
X179535476Y-48552200D02*
X179630714Y-48599819D01*
X179630714Y-48599819D02*
X179821190Y-48599819D01*
X179821190Y-48599819D02*
X179916428Y-48552200D01*
X179916428Y-48552200D02*
X179964047Y-48504580D01*
X179964047Y-48504580D02*
X180011666Y-48409342D01*
X180011666Y-48409342D02*
X180011666Y-48218866D01*
X180011666Y-48218866D02*
X179964047Y-48123628D01*
X179964047Y-48123628D02*
X179916428Y-48076009D01*
X179916428Y-48076009D02*
X179821190Y-48028390D01*
X207190476Y-93454819D02*
X207190476Y-94169104D01*
X207190476Y-94169104D02*
X207142857Y-94311961D01*
X207142857Y-94311961D02*
X207047619Y-94407200D01*
X207047619Y-94407200D02*
X206904762Y-94454819D01*
X206904762Y-94454819D02*
X206809524Y-94454819D01*
X208190476Y-94454819D02*
X207619048Y-94454819D01*
X207904762Y-94454819D02*
X207904762Y-93454819D01*
X207904762Y-93454819D02*
X207809524Y-93597676D01*
X207809524Y-93597676D02*
X207714286Y-93692914D01*
X207714286Y-93692914D02*
X207619048Y-93740533D01*
X209047619Y-93454819D02*
X208857143Y-93454819D01*
X208857143Y-93454819D02*
X208761905Y-93502438D01*
X208761905Y-93502438D02*
X208714286Y-93550057D01*
X208714286Y-93550057D02*
X208619048Y-93692914D01*
X208619048Y-93692914D02*
X208571429Y-93883390D01*
X208571429Y-93883390D02*
X208571429Y-94264342D01*
X208571429Y-94264342D02*
X208619048Y-94359580D01*
X208619048Y-94359580D02*
X208666667Y-94407200D01*
X208666667Y-94407200D02*
X208761905Y-94454819D01*
X208761905Y-94454819D02*
X208952381Y-94454819D01*
X208952381Y-94454819D02*
X209047619Y-94407200D01*
X209047619Y-94407200D02*
X209095238Y-94359580D01*
X209095238Y-94359580D02*
X209142857Y-94264342D01*
X209142857Y-94264342D02*
X209142857Y-94026247D01*
X209142857Y-94026247D02*
X209095238Y-93931009D01*
X209095238Y-93931009D02*
X209047619Y-93883390D01*
X209047619Y-93883390D02*
X208952381Y-93835771D01*
X208952381Y-93835771D02*
X208761905Y-93835771D01*
X208761905Y-93835771D02*
X208666667Y-93883390D01*
X208666667Y-93883390D02*
X208619048Y-93931009D01*
X208619048Y-93931009D02*
X208571429Y-94026247D01*
X142340476Y-85064819D02*
X142340476Y-85779104D01*
X142340476Y-85779104D02*
X142292857Y-85921961D01*
X142292857Y-85921961D02*
X142197619Y-86017200D01*
X142197619Y-86017200D02*
X142054762Y-86064819D01*
X142054762Y-86064819D02*
X141959524Y-86064819D01*
X142769048Y-85160057D02*
X142816667Y-85112438D01*
X142816667Y-85112438D02*
X142911905Y-85064819D01*
X142911905Y-85064819D02*
X143150000Y-85064819D01*
X143150000Y-85064819D02*
X143245238Y-85112438D01*
X143245238Y-85112438D02*
X143292857Y-85160057D01*
X143292857Y-85160057D02*
X143340476Y-85255295D01*
X143340476Y-85255295D02*
X143340476Y-85350533D01*
X143340476Y-85350533D02*
X143292857Y-85493390D01*
X143292857Y-85493390D02*
X142721429Y-86064819D01*
X142721429Y-86064819D02*
X143340476Y-86064819D01*
X144292857Y-86064819D02*
X143721429Y-86064819D01*
X144007143Y-86064819D02*
X144007143Y-85064819D01*
X144007143Y-85064819D02*
X143911905Y-85207676D01*
X143911905Y-85207676D02*
X143816667Y-85302914D01*
X143816667Y-85302914D02*
X143721429Y-85350533D01*
X179011666Y-45059819D02*
X179011666Y-45774104D01*
X179011666Y-45774104D02*
X178964047Y-45916961D01*
X178964047Y-45916961D02*
X178868809Y-46012200D01*
X178868809Y-46012200D02*
X178725952Y-46059819D01*
X178725952Y-46059819D02*
X178630714Y-46059819D01*
X179916428Y-45059819D02*
X179725952Y-45059819D01*
X179725952Y-45059819D02*
X179630714Y-45107438D01*
X179630714Y-45107438D02*
X179583095Y-45155057D01*
X179583095Y-45155057D02*
X179487857Y-45297914D01*
X179487857Y-45297914D02*
X179440238Y-45488390D01*
X179440238Y-45488390D02*
X179440238Y-45869342D01*
X179440238Y-45869342D02*
X179487857Y-45964580D01*
X179487857Y-45964580D02*
X179535476Y-46012200D01*
X179535476Y-46012200D02*
X179630714Y-46059819D01*
X179630714Y-46059819D02*
X179821190Y-46059819D01*
X179821190Y-46059819D02*
X179916428Y-46012200D01*
X179916428Y-46012200D02*
X179964047Y-45964580D01*
X179964047Y-45964580D02*
X180011666Y-45869342D01*
X180011666Y-45869342D02*
X180011666Y-45631247D01*
X180011666Y-45631247D02*
X179964047Y-45536009D01*
X179964047Y-45536009D02*
X179916428Y-45488390D01*
X179916428Y-45488390D02*
X179821190Y-45440771D01*
X179821190Y-45440771D02*
X179630714Y-45440771D01*
X179630714Y-45440771D02*
X179535476Y-45488390D01*
X179535476Y-45488390D02*
X179487857Y-45536009D01*
X179487857Y-45536009D02*
X179440238Y-45631247D01*
X207265476Y-42979819D02*
X207265476Y-43694104D01*
X207265476Y-43694104D02*
X207217857Y-43836961D01*
X207217857Y-43836961D02*
X207122619Y-43932200D01*
X207122619Y-43932200D02*
X206979762Y-43979819D01*
X206979762Y-43979819D02*
X206884524Y-43979819D01*
X208265476Y-43979819D02*
X207694048Y-43979819D01*
X207979762Y-43979819D02*
X207979762Y-42979819D01*
X207979762Y-42979819D02*
X207884524Y-43122676D01*
X207884524Y-43122676D02*
X207789286Y-43217914D01*
X207789286Y-43217914D02*
X207694048Y-43265533D01*
X208884524Y-42979819D02*
X208979762Y-42979819D01*
X208979762Y-42979819D02*
X209075000Y-43027438D01*
X209075000Y-43027438D02*
X209122619Y-43075057D01*
X209122619Y-43075057D02*
X209170238Y-43170295D01*
X209170238Y-43170295D02*
X209217857Y-43360771D01*
X209217857Y-43360771D02*
X209217857Y-43598866D01*
X209217857Y-43598866D02*
X209170238Y-43789342D01*
X209170238Y-43789342D02*
X209122619Y-43884580D01*
X209122619Y-43884580D02*
X209075000Y-43932200D01*
X209075000Y-43932200D02*
X208979762Y-43979819D01*
X208979762Y-43979819D02*
X208884524Y-43979819D01*
X208884524Y-43979819D02*
X208789286Y-43932200D01*
X208789286Y-43932200D02*
X208741667Y-43884580D01*
X208741667Y-43884580D02*
X208694048Y-43789342D01*
X208694048Y-43789342D02*
X208646429Y-43598866D01*
X208646429Y-43598866D02*
X208646429Y-43360771D01*
X208646429Y-43360771D02*
X208694048Y-43170295D01*
X208694048Y-43170295D02*
X208741667Y-43075057D01*
X208741667Y-43075057D02*
X208789286Y-43027438D01*
X208789286Y-43027438D02*
X208884524Y-42979819D01*
X114876666Y-88239819D02*
X114876666Y-88954104D01*
X114876666Y-88954104D02*
X114829047Y-89096961D01*
X114829047Y-89096961D02*
X114733809Y-89192200D01*
X114733809Y-89192200D02*
X114590952Y-89239819D01*
X114590952Y-89239819D02*
X114495714Y-89239819D01*
X115257619Y-88239819D02*
X115876666Y-88239819D01*
X115876666Y-88239819D02*
X115543333Y-88620771D01*
X115543333Y-88620771D02*
X115686190Y-88620771D01*
X115686190Y-88620771D02*
X115781428Y-88668390D01*
X115781428Y-88668390D02*
X115829047Y-88716009D01*
X115829047Y-88716009D02*
X115876666Y-88811247D01*
X115876666Y-88811247D02*
X115876666Y-89049342D01*
X115876666Y-89049342D02*
X115829047Y-89144580D01*
X115829047Y-89144580D02*
X115781428Y-89192200D01*
X115781428Y-89192200D02*
X115686190Y-89239819D01*
X115686190Y-89239819D02*
X115400476Y-89239819D01*
X115400476Y-89239819D02*
X115305238Y-89192200D01*
X115305238Y-89192200D02*
X115257619Y-89144580D01*
X211715476Y-77954819D02*
X211715476Y-78669104D01*
X211715476Y-78669104D02*
X211667857Y-78811961D01*
X211667857Y-78811961D02*
X211572619Y-78907200D01*
X211572619Y-78907200D02*
X211429762Y-78954819D01*
X211429762Y-78954819D02*
X211334524Y-78954819D01*
X212715476Y-78954819D02*
X212144048Y-78954819D01*
X212429762Y-78954819D02*
X212429762Y-77954819D01*
X212429762Y-77954819D02*
X212334524Y-78097676D01*
X212334524Y-78097676D02*
X212239286Y-78192914D01*
X212239286Y-78192914D02*
X212144048Y-78240533D01*
X213096429Y-78050057D02*
X213144048Y-78002438D01*
X213144048Y-78002438D02*
X213239286Y-77954819D01*
X213239286Y-77954819D02*
X213477381Y-77954819D01*
X213477381Y-77954819D02*
X213572619Y-78002438D01*
X213572619Y-78002438D02*
X213620238Y-78050057D01*
X213620238Y-78050057D02*
X213667857Y-78145295D01*
X213667857Y-78145295D02*
X213667857Y-78240533D01*
X213667857Y-78240533D02*
X213620238Y-78383390D01*
X213620238Y-78383390D02*
X213048810Y-78954819D01*
X213048810Y-78954819D02*
X213667857Y-78954819D01*
X210690476Y-63379819D02*
X210690476Y-64094104D01*
X210690476Y-64094104D02*
X210642857Y-64236961D01*
X210642857Y-64236961D02*
X210547619Y-64332200D01*
X210547619Y-64332200D02*
X210404762Y-64379819D01*
X210404762Y-64379819D02*
X210309524Y-64379819D01*
X211690476Y-64379819D02*
X211119048Y-64379819D01*
X211404762Y-64379819D02*
X211404762Y-63379819D01*
X211404762Y-63379819D02*
X211309524Y-63522676D01*
X211309524Y-63522676D02*
X211214286Y-63617914D01*
X211214286Y-63617914D02*
X211119048Y-63665533D01*
X212595238Y-63379819D02*
X212119048Y-63379819D01*
X212119048Y-63379819D02*
X212071429Y-63856009D01*
X212071429Y-63856009D02*
X212119048Y-63808390D01*
X212119048Y-63808390D02*
X212214286Y-63760771D01*
X212214286Y-63760771D02*
X212452381Y-63760771D01*
X212452381Y-63760771D02*
X212547619Y-63808390D01*
X212547619Y-63808390D02*
X212595238Y-63856009D01*
X212595238Y-63856009D02*
X212642857Y-63951247D01*
X212642857Y-63951247D02*
X212642857Y-64189342D01*
X212642857Y-64189342D02*
X212595238Y-64284580D01*
X212595238Y-64284580D02*
X212547619Y-64332200D01*
X212547619Y-64332200D02*
X212452381Y-64379819D01*
X212452381Y-64379819D02*
X212214286Y-64379819D01*
X212214286Y-64379819D02*
X212119048Y-64332200D01*
X212119048Y-64332200D02*
X212071429Y-64284580D01*
X114876666Y-90779819D02*
X114876666Y-91494104D01*
X114876666Y-91494104D02*
X114829047Y-91636961D01*
X114829047Y-91636961D02*
X114733809Y-91732200D01*
X114733809Y-91732200D02*
X114590952Y-91779819D01*
X114590952Y-91779819D02*
X114495714Y-91779819D01*
X115876666Y-91779819D02*
X115305238Y-91779819D01*
X115590952Y-91779819D02*
X115590952Y-90779819D01*
X115590952Y-90779819D02*
X115495714Y-90922676D01*
X115495714Y-90922676D02*
X115400476Y-91017914D01*
X115400476Y-91017914D02*
X115305238Y-91065533D01*
X114876666Y-45059819D02*
X114876666Y-45774104D01*
X114876666Y-45774104D02*
X114829047Y-45916961D01*
X114829047Y-45916961D02*
X114733809Y-46012200D01*
X114733809Y-46012200D02*
X114590952Y-46059819D01*
X114590952Y-46059819D02*
X114495714Y-46059819D01*
X115305238Y-45155057D02*
X115352857Y-45107438D01*
X115352857Y-45107438D02*
X115448095Y-45059819D01*
X115448095Y-45059819D02*
X115686190Y-45059819D01*
X115686190Y-45059819D02*
X115781428Y-45107438D01*
X115781428Y-45107438D02*
X115829047Y-45155057D01*
X115829047Y-45155057D02*
X115876666Y-45250295D01*
X115876666Y-45250295D02*
X115876666Y-45345533D01*
X115876666Y-45345533D02*
X115829047Y-45488390D01*
X115829047Y-45488390D02*
X115257619Y-46059819D01*
X115257619Y-46059819D02*
X115876666Y-46059819D01*
X179011666Y-88239819D02*
X179011666Y-88954104D01*
X179011666Y-88954104D02*
X178964047Y-89096961D01*
X178964047Y-89096961D02*
X178868809Y-89192200D01*
X178868809Y-89192200D02*
X178725952Y-89239819D01*
X178725952Y-89239819D02*
X178630714Y-89239819D01*
X179392619Y-88239819D02*
X180059285Y-88239819D01*
X180059285Y-88239819D02*
X179630714Y-89239819D01*
X179011666Y-90779819D02*
X179011666Y-91494104D01*
X179011666Y-91494104D02*
X178964047Y-91636961D01*
X178964047Y-91636961D02*
X178868809Y-91732200D01*
X178868809Y-91732200D02*
X178725952Y-91779819D01*
X178725952Y-91779819D02*
X178630714Y-91779819D01*
X179964047Y-90779819D02*
X179487857Y-90779819D01*
X179487857Y-90779819D02*
X179440238Y-91256009D01*
X179440238Y-91256009D02*
X179487857Y-91208390D01*
X179487857Y-91208390D02*
X179583095Y-91160771D01*
X179583095Y-91160771D02*
X179821190Y-91160771D01*
X179821190Y-91160771D02*
X179916428Y-91208390D01*
X179916428Y-91208390D02*
X179964047Y-91256009D01*
X179964047Y-91256009D02*
X180011666Y-91351247D01*
X180011666Y-91351247D02*
X180011666Y-91589342D01*
X180011666Y-91589342D02*
X179964047Y-91684580D01*
X179964047Y-91684580D02*
X179916428Y-91732200D01*
X179916428Y-91732200D02*
X179821190Y-91779819D01*
X179821190Y-91779819D02*
X179583095Y-91779819D01*
X179583095Y-91779819D02*
X179487857Y-91732200D01*
X179487857Y-91732200D02*
X179440238Y-91684580D01*
X201549405Y-102454819D02*
X201549405Y-101454819D01*
X201549405Y-101454819D02*
X201787500Y-101454819D01*
X201787500Y-101454819D02*
X201930357Y-101502438D01*
X201930357Y-101502438D02*
X202025595Y-101597676D01*
X202025595Y-101597676D02*
X202073214Y-101692914D01*
X202073214Y-101692914D02*
X202120833Y-101883390D01*
X202120833Y-101883390D02*
X202120833Y-102026247D01*
X202120833Y-102026247D02*
X202073214Y-102216723D01*
X202073214Y-102216723D02*
X202025595Y-102311961D01*
X202025595Y-102311961D02*
X201930357Y-102407200D01*
X201930357Y-102407200D02*
X201787500Y-102454819D01*
X201787500Y-102454819D02*
X201549405Y-102454819D01*
X203025595Y-101454819D02*
X202549405Y-101454819D01*
X202549405Y-101454819D02*
X202501786Y-101931009D01*
X202501786Y-101931009D02*
X202549405Y-101883390D01*
X202549405Y-101883390D02*
X202644643Y-101835771D01*
X202644643Y-101835771D02*
X202882738Y-101835771D01*
X202882738Y-101835771D02*
X202977976Y-101883390D01*
X202977976Y-101883390D02*
X203025595Y-101931009D01*
X203025595Y-101931009D02*
X203073214Y-102026247D01*
X203073214Y-102026247D02*
X203073214Y-102264342D01*
X203073214Y-102264342D02*
X203025595Y-102359580D01*
X203025595Y-102359580D02*
X202977976Y-102407200D01*
X202977976Y-102407200D02*
X202882738Y-102454819D01*
X202882738Y-102454819D02*
X202644643Y-102454819D01*
X202644643Y-102454819D02*
X202549405Y-102407200D01*
X202549405Y-102407200D02*
X202501786Y-102359580D01*
D12*
X201873809Y-100265653D02*
X201873809Y-98565653D01*
X201873809Y-98565653D02*
X202440476Y-99779939D01*
X202440476Y-99779939D02*
X203007143Y-98565653D01*
X203007143Y-98565653D02*
X203007143Y-100265653D01*
X204788095Y-100103748D02*
X204707143Y-100184701D01*
X204707143Y-100184701D02*
X204464285Y-100265653D01*
X204464285Y-100265653D02*
X204302381Y-100265653D01*
X204302381Y-100265653D02*
X204059524Y-100184701D01*
X204059524Y-100184701D02*
X203897619Y-100022796D01*
X203897619Y-100022796D02*
X203816666Y-99860891D01*
X203816666Y-99860891D02*
X203735714Y-99537081D01*
X203735714Y-99537081D02*
X203735714Y-99294224D01*
X203735714Y-99294224D02*
X203816666Y-98970415D01*
X203816666Y-98970415D02*
X203897619Y-98808510D01*
X203897619Y-98808510D02*
X204059524Y-98646605D01*
X204059524Y-98646605D02*
X204302381Y-98565653D01*
X204302381Y-98565653D02*
X204464285Y-98565653D01*
X204464285Y-98565653D02*
X204707143Y-98646605D01*
X204707143Y-98646605D02*
X204788095Y-98727558D01*
X205516666Y-98565653D02*
X205516666Y-99941843D01*
X205516666Y-99941843D02*
X205597619Y-100103748D01*
X205597619Y-100103748D02*
X205678571Y-100184701D01*
X205678571Y-100184701D02*
X205840476Y-100265653D01*
X205840476Y-100265653D02*
X206164285Y-100265653D01*
X206164285Y-100265653D02*
X206326190Y-100184701D01*
X206326190Y-100184701D02*
X206407143Y-100103748D01*
X206407143Y-100103748D02*
X206488095Y-99941843D01*
X206488095Y-99941843D02*
X206488095Y-98565653D01*
X208430952Y-98565653D02*
X209483333Y-98565653D01*
X209483333Y-98565653D02*
X208916666Y-99213272D01*
X208916666Y-99213272D02*
X209159523Y-99213272D01*
X209159523Y-99213272D02*
X209321428Y-99294224D01*
X209321428Y-99294224D02*
X209402380Y-99375177D01*
X209402380Y-99375177D02*
X209483333Y-99537081D01*
X209483333Y-99537081D02*
X209483333Y-99941843D01*
X209483333Y-99941843D02*
X209402380Y-100103748D01*
X209402380Y-100103748D02*
X209321428Y-100184701D01*
X209321428Y-100184701D02*
X209159523Y-100265653D01*
X209159523Y-100265653D02*
X208673809Y-100265653D01*
X208673809Y-100265653D02*
X208511904Y-100184701D01*
X208511904Y-100184701D02*
X208430952Y-100103748D01*
X210211904Y-100103748D02*
X210292857Y-100184701D01*
X210292857Y-100184701D02*
X210211904Y-100265653D01*
X210211904Y-100265653D02*
X210130952Y-100184701D01*
X210130952Y-100184701D02*
X210211904Y-100103748D01*
X210211904Y-100103748D02*
X210211904Y-100265653D01*
X210859524Y-98565653D02*
X211911905Y-98565653D01*
X211911905Y-98565653D02*
X211345238Y-99213272D01*
X211345238Y-99213272D02*
X211588095Y-99213272D01*
X211588095Y-99213272D02*
X211750000Y-99294224D01*
X211750000Y-99294224D02*
X211830952Y-99375177D01*
X211830952Y-99375177D02*
X211911905Y-99537081D01*
X211911905Y-99537081D02*
X211911905Y-99941843D01*
X211911905Y-99941843D02*
X211830952Y-100103748D01*
X211830952Y-100103748D02*
X211750000Y-100184701D01*
X211750000Y-100184701D02*
X211588095Y-100265653D01*
X211588095Y-100265653D02*
X211102381Y-100265653D01*
X211102381Y-100265653D02*
X210940476Y-100184701D01*
X210940476Y-100184701D02*
X210859524Y-100103748D01*
X212478572Y-99132320D02*
X212883334Y-100265653D01*
X212883334Y-100265653D02*
X213288095Y-99132320D01*
D10*
X173166666Y-129954819D02*
X173166666Y-130669104D01*
X173166666Y-130669104D02*
X173119047Y-130811961D01*
X173119047Y-130811961D02*
X173023809Y-130907200D01*
X173023809Y-130907200D02*
X172880952Y-130954819D01*
X172880952Y-130954819D02*
X172785714Y-130954819D01*
X173595238Y-130050057D02*
X173642857Y-130002438D01*
X173642857Y-130002438D02*
X173738095Y-129954819D01*
X173738095Y-129954819D02*
X173976190Y-129954819D01*
X173976190Y-129954819D02*
X174071428Y-130002438D01*
X174071428Y-130002438D02*
X174119047Y-130050057D01*
X174119047Y-130050057D02*
X174166666Y-130145295D01*
X174166666Y-130145295D02*
X174166666Y-130240533D01*
X174166666Y-130240533D02*
X174119047Y-130383390D01*
X174119047Y-130383390D02*
X173547619Y-130954819D01*
X173547619Y-130954819D02*
X174166666Y-130954819D01*
X190954819Y-109261904D02*
X191764342Y-109261904D01*
X191764342Y-109261904D02*
X191859580Y-109214285D01*
X191859580Y-109214285D02*
X191907200Y-109166666D01*
X191907200Y-109166666D02*
X191954819Y-109071428D01*
X191954819Y-109071428D02*
X191954819Y-108880952D01*
X191954819Y-108880952D02*
X191907200Y-108785714D01*
X191907200Y-108785714D02*
X191859580Y-108738095D01*
X191859580Y-108738095D02*
X191764342Y-108690476D01*
X191764342Y-108690476D02*
X190954819Y-108690476D01*
X190954819Y-107738095D02*
X190954819Y-108214285D01*
X190954819Y-108214285D02*
X191431009Y-108261904D01*
X191431009Y-108261904D02*
X191383390Y-108214285D01*
X191383390Y-108214285D02*
X191335771Y-108119047D01*
X191335771Y-108119047D02*
X191335771Y-107880952D01*
X191335771Y-107880952D02*
X191383390Y-107785714D01*
X191383390Y-107785714D02*
X191431009Y-107738095D01*
X191431009Y-107738095D02*
X191526247Y-107690476D01*
X191526247Y-107690476D02*
X191764342Y-107690476D01*
X191764342Y-107690476D02*
X191859580Y-107738095D01*
X191859580Y-107738095D02*
X191907200Y-107785714D01*
X191907200Y-107785714D02*
X191954819Y-107880952D01*
X191954819Y-107880952D02*
X191954819Y-108119047D01*
X191954819Y-108119047D02*
X191907200Y-108214285D01*
X191907200Y-108214285D02*
X191859580Y-108261904D01*
X187348019Y-114138799D02*
X187586114Y-114138799D01*
X187490876Y-114376894D02*
X187586114Y-114138799D01*
X187586114Y-114138799D02*
X187490876Y-113900704D01*
X187776590Y-114281656D02*
X187586114Y-114138799D01*
X187586114Y-114138799D02*
X187776590Y-113995942D01*
X187348019Y-114138799D02*
X187586114Y-114138799D01*
X187490876Y-114376894D02*
X187586114Y-114138799D01*
X187586114Y-114138799D02*
X187490876Y-113900704D01*
X187776590Y-114281656D02*
X187586114Y-114138799D01*
X187586114Y-114138799D02*
X187776590Y-113995942D01*
X168283333Y-116859580D02*
X168235714Y-116907200D01*
X168235714Y-116907200D02*
X168092857Y-116954819D01*
X168092857Y-116954819D02*
X167997619Y-116954819D01*
X167997619Y-116954819D02*
X167854762Y-116907200D01*
X167854762Y-116907200D02*
X167759524Y-116811961D01*
X167759524Y-116811961D02*
X167711905Y-116716723D01*
X167711905Y-116716723D02*
X167664286Y-116526247D01*
X167664286Y-116526247D02*
X167664286Y-116383390D01*
X167664286Y-116383390D02*
X167711905Y-116192914D01*
X167711905Y-116192914D02*
X167759524Y-116097676D01*
X167759524Y-116097676D02*
X167854762Y-116002438D01*
X167854762Y-116002438D02*
X167997619Y-115954819D01*
X167997619Y-115954819D02*
X168092857Y-115954819D01*
X168092857Y-115954819D02*
X168235714Y-116002438D01*
X168235714Y-116002438D02*
X168283333Y-116050057D01*
X169140476Y-115954819D02*
X168950000Y-115954819D01*
X168950000Y-115954819D02*
X168854762Y-116002438D01*
X168854762Y-116002438D02*
X168807143Y-116050057D01*
X168807143Y-116050057D02*
X168711905Y-116192914D01*
X168711905Y-116192914D02*
X168664286Y-116383390D01*
X168664286Y-116383390D02*
X168664286Y-116764342D01*
X168664286Y-116764342D02*
X168711905Y-116859580D01*
X168711905Y-116859580D02*
X168759524Y-116907200D01*
X168759524Y-116907200D02*
X168854762Y-116954819D01*
X168854762Y-116954819D02*
X169045238Y-116954819D01*
X169045238Y-116954819D02*
X169140476Y-116907200D01*
X169140476Y-116907200D02*
X169188095Y-116859580D01*
X169188095Y-116859580D02*
X169235714Y-116764342D01*
X169235714Y-116764342D02*
X169235714Y-116526247D01*
X169235714Y-116526247D02*
X169188095Y-116431009D01*
X169188095Y-116431009D02*
X169140476Y-116383390D01*
X169140476Y-116383390D02*
X169045238Y-116335771D01*
X169045238Y-116335771D02*
X168854762Y-116335771D01*
X168854762Y-116335771D02*
X168759524Y-116383390D01*
X168759524Y-116383390D02*
X168711905Y-116431009D01*
X168711905Y-116431009D02*
X168664286Y-116526247D01*
X199359580Y-102142857D02*
X199407200Y-102190476D01*
X199407200Y-102190476D02*
X199454819Y-102333333D01*
X199454819Y-102333333D02*
X199454819Y-102428571D01*
X199454819Y-102428571D02*
X199407200Y-102571428D01*
X199407200Y-102571428D02*
X199311961Y-102666666D01*
X199311961Y-102666666D02*
X199216723Y-102714285D01*
X199216723Y-102714285D02*
X199026247Y-102761904D01*
X199026247Y-102761904D02*
X198883390Y-102761904D01*
X198883390Y-102761904D02*
X198692914Y-102714285D01*
X198692914Y-102714285D02*
X198597676Y-102666666D01*
X198597676Y-102666666D02*
X198502438Y-102571428D01*
X198502438Y-102571428D02*
X198454819Y-102428571D01*
X198454819Y-102428571D02*
X198454819Y-102333333D01*
X198454819Y-102333333D02*
X198502438Y-102190476D01*
X198502438Y-102190476D02*
X198550057Y-102142857D01*
X199454819Y-101190476D02*
X199454819Y-101761904D01*
X199454819Y-101476190D02*
X198454819Y-101476190D01*
X198454819Y-101476190D02*
X198597676Y-101571428D01*
X198597676Y-101571428D02*
X198692914Y-101666666D01*
X198692914Y-101666666D02*
X198740533Y-101761904D01*
X199454819Y-100238095D02*
X199454819Y-100809523D01*
X199454819Y-100523809D02*
X198454819Y-100523809D01*
X198454819Y-100523809D02*
X198597676Y-100619047D01*
X198597676Y-100619047D02*
X198692914Y-100714285D01*
X198692914Y-100714285D02*
X198740533Y-100809523D01*
X168954819Y-123341666D02*
X168478628Y-123674999D01*
X168954819Y-123913094D02*
X167954819Y-123913094D01*
X167954819Y-123913094D02*
X167954819Y-123532142D01*
X167954819Y-123532142D02*
X168002438Y-123436904D01*
X168002438Y-123436904D02*
X168050057Y-123389285D01*
X168050057Y-123389285D02*
X168145295Y-123341666D01*
X168145295Y-123341666D02*
X168288152Y-123341666D01*
X168288152Y-123341666D02*
X168383390Y-123389285D01*
X168383390Y-123389285D02*
X168431009Y-123436904D01*
X168431009Y-123436904D02*
X168478628Y-123532142D01*
X168478628Y-123532142D02*
X168478628Y-123913094D01*
X167954819Y-122484523D02*
X167954819Y-122674999D01*
X167954819Y-122674999D02*
X168002438Y-122770237D01*
X168002438Y-122770237D02*
X168050057Y-122817856D01*
X168050057Y-122817856D02*
X168192914Y-122913094D01*
X168192914Y-122913094D02*
X168383390Y-122960713D01*
X168383390Y-122960713D02*
X168764342Y-122960713D01*
X168764342Y-122960713D02*
X168859580Y-122913094D01*
X168859580Y-122913094D02*
X168907200Y-122865475D01*
X168907200Y-122865475D02*
X168954819Y-122770237D01*
X168954819Y-122770237D02*
X168954819Y-122579761D01*
X168954819Y-122579761D02*
X168907200Y-122484523D01*
X168907200Y-122484523D02*
X168859580Y-122436904D01*
X168859580Y-122436904D02*
X168764342Y-122389285D01*
X168764342Y-122389285D02*
X168526247Y-122389285D01*
X168526247Y-122389285D02*
X168431009Y-122436904D01*
X168431009Y-122436904D02*
X168383390Y-122484523D01*
X168383390Y-122484523D02*
X168335771Y-122579761D01*
X168335771Y-122579761D02*
X168335771Y-122770237D01*
X168335771Y-122770237D02*
X168383390Y-122865475D01*
X168383390Y-122865475D02*
X168431009Y-122913094D01*
X168431009Y-122913094D02*
X168526247Y-122960713D01*
X194333333Y-116954819D02*
X194000000Y-116478628D01*
X193761905Y-116954819D02*
X193761905Y-115954819D01*
X193761905Y-115954819D02*
X194142857Y-115954819D01*
X194142857Y-115954819D02*
X194238095Y-116002438D01*
X194238095Y-116002438D02*
X194285714Y-116050057D01*
X194285714Y-116050057D02*
X194333333Y-116145295D01*
X194333333Y-116145295D02*
X194333333Y-116288152D01*
X194333333Y-116288152D02*
X194285714Y-116383390D01*
X194285714Y-116383390D02*
X194238095Y-116431009D01*
X194238095Y-116431009D02*
X194142857Y-116478628D01*
X194142857Y-116478628D02*
X193761905Y-116478628D01*
X195285714Y-116954819D02*
X194714286Y-116954819D01*
X195000000Y-116954819D02*
X195000000Y-115954819D01*
X195000000Y-115954819D02*
X194904762Y-116097676D01*
X194904762Y-116097676D02*
X194809524Y-116192914D01*
X194809524Y-116192914D02*
X194714286Y-116240533D01*
X92666666Y-128954819D02*
X92666666Y-129669104D01*
X92666666Y-129669104D02*
X92619047Y-129811961D01*
X92619047Y-129811961D02*
X92523809Y-129907200D01*
X92523809Y-129907200D02*
X92380952Y-129954819D01*
X92380952Y-129954819D02*
X92285714Y-129954819D01*
X93571428Y-129288152D02*
X93571428Y-129954819D01*
X93333333Y-128907200D02*
X93095238Y-129621485D01*
X93095238Y-129621485D02*
X93714285Y-129621485D01*
X173545180Y-108238095D02*
X172735657Y-108238095D01*
X172735657Y-108238095D02*
X172640419Y-108285714D01*
X172640419Y-108285714D02*
X172592800Y-108333333D01*
X172592800Y-108333333D02*
X172545180Y-108428571D01*
X172545180Y-108428571D02*
X172545180Y-108619047D01*
X172545180Y-108619047D02*
X172592800Y-108714285D01*
X172592800Y-108714285D02*
X172640419Y-108761904D01*
X172640419Y-108761904D02*
X172735657Y-108809523D01*
X172735657Y-108809523D02*
X173545180Y-108809523D01*
X173545180Y-109190476D02*
X173545180Y-109809523D01*
X173545180Y-109809523D02*
X173164228Y-109476190D01*
X173164228Y-109476190D02*
X173164228Y-109619047D01*
X173164228Y-109619047D02*
X173116609Y-109714285D01*
X173116609Y-109714285D02*
X173068990Y-109761904D01*
X173068990Y-109761904D02*
X172973752Y-109809523D01*
X172973752Y-109809523D02*
X172735657Y-109809523D01*
X172735657Y-109809523D02*
X172640419Y-109761904D01*
X172640419Y-109761904D02*
X172592800Y-109714285D01*
X172592800Y-109714285D02*
X172545180Y-109619047D01*
X172545180Y-109619047D02*
X172545180Y-109333333D01*
X172545180Y-109333333D02*
X172592800Y-109238095D01*
X172592800Y-109238095D02*
X172640419Y-109190476D01*
X176061619Y-103361199D02*
X176299714Y-103361199D01*
X176204476Y-103599294D02*
X176299714Y-103361199D01*
X176299714Y-103361199D02*
X176204476Y-103123104D01*
X176490190Y-103504056D02*
X176299714Y-103361199D01*
X176299714Y-103361199D02*
X176490190Y-103218342D01*
X177151980Y-103361200D02*
X176913885Y-103361200D01*
X177009123Y-103123105D02*
X176913885Y-103361200D01*
X176913885Y-103361200D02*
X177009123Y-103599295D01*
X176723409Y-103218343D02*
X176913885Y-103361200D01*
X176913885Y-103361200D02*
X176723409Y-103504057D01*
X207166666Y-113954819D02*
X207166666Y-114669104D01*
X207166666Y-114669104D02*
X207119047Y-114811961D01*
X207119047Y-114811961D02*
X207023809Y-114907200D01*
X207023809Y-114907200D02*
X206880952Y-114954819D01*
X206880952Y-114954819D02*
X206785714Y-114954819D01*
X207547619Y-113954819D02*
X208166666Y-113954819D01*
X208166666Y-113954819D02*
X207833333Y-114335771D01*
X207833333Y-114335771D02*
X207976190Y-114335771D01*
X207976190Y-114335771D02*
X208071428Y-114383390D01*
X208071428Y-114383390D02*
X208119047Y-114431009D01*
X208119047Y-114431009D02*
X208166666Y-114526247D01*
X208166666Y-114526247D02*
X208166666Y-114764342D01*
X208166666Y-114764342D02*
X208119047Y-114859580D01*
X208119047Y-114859580D02*
X208071428Y-114907200D01*
X208071428Y-114907200D02*
X207976190Y-114954819D01*
X207976190Y-114954819D02*
X207690476Y-114954819D01*
X207690476Y-114954819D02*
X207595238Y-114907200D01*
X207595238Y-114907200D02*
X207547619Y-114859580D01*
X209166666Y-129954819D02*
X209166666Y-130669104D01*
X209166666Y-130669104D02*
X209119047Y-130811961D01*
X209119047Y-130811961D02*
X209023809Y-130907200D01*
X209023809Y-130907200D02*
X208880952Y-130954819D01*
X208880952Y-130954819D02*
X208785714Y-130954819D01*
X210119047Y-129954819D02*
X209642857Y-129954819D01*
X209642857Y-129954819D02*
X209595238Y-130431009D01*
X209595238Y-130431009D02*
X209642857Y-130383390D01*
X209642857Y-130383390D02*
X209738095Y-130335771D01*
X209738095Y-130335771D02*
X209976190Y-130335771D01*
X209976190Y-130335771D02*
X210071428Y-130383390D01*
X210071428Y-130383390D02*
X210119047Y-130431009D01*
X210119047Y-130431009D02*
X210166666Y-130526247D01*
X210166666Y-130526247D02*
X210166666Y-130764342D01*
X210166666Y-130764342D02*
X210119047Y-130859580D01*
X210119047Y-130859580D02*
X210071428Y-130907200D01*
X210071428Y-130907200D02*
X209976190Y-130954819D01*
X209976190Y-130954819D02*
X209738095Y-130954819D01*
X209738095Y-130954819D02*
X209642857Y-130907200D01*
X209642857Y-130907200D02*
X209595238Y-130859580D01*
X168283333Y-118359580D02*
X168235714Y-118407200D01*
X168235714Y-118407200D02*
X168092857Y-118454819D01*
X168092857Y-118454819D02*
X167997619Y-118454819D01*
X167997619Y-118454819D02*
X167854762Y-118407200D01*
X167854762Y-118407200D02*
X167759524Y-118311961D01*
X167759524Y-118311961D02*
X167711905Y-118216723D01*
X167711905Y-118216723D02*
X167664286Y-118026247D01*
X167664286Y-118026247D02*
X167664286Y-117883390D01*
X167664286Y-117883390D02*
X167711905Y-117692914D01*
X167711905Y-117692914D02*
X167759524Y-117597676D01*
X167759524Y-117597676D02*
X167854762Y-117502438D01*
X167854762Y-117502438D02*
X167997619Y-117454819D01*
X167997619Y-117454819D02*
X168092857Y-117454819D01*
X168092857Y-117454819D02*
X168235714Y-117502438D01*
X168235714Y-117502438D02*
X168283333Y-117550057D01*
X168854762Y-117883390D02*
X168759524Y-117835771D01*
X168759524Y-117835771D02*
X168711905Y-117788152D01*
X168711905Y-117788152D02*
X168664286Y-117692914D01*
X168664286Y-117692914D02*
X168664286Y-117645295D01*
X168664286Y-117645295D02*
X168711905Y-117550057D01*
X168711905Y-117550057D02*
X168759524Y-117502438D01*
X168759524Y-117502438D02*
X168854762Y-117454819D01*
X168854762Y-117454819D02*
X169045238Y-117454819D01*
X169045238Y-117454819D02*
X169140476Y-117502438D01*
X169140476Y-117502438D02*
X169188095Y-117550057D01*
X169188095Y-117550057D02*
X169235714Y-117645295D01*
X169235714Y-117645295D02*
X169235714Y-117692914D01*
X169235714Y-117692914D02*
X169188095Y-117788152D01*
X169188095Y-117788152D02*
X169140476Y-117835771D01*
X169140476Y-117835771D02*
X169045238Y-117883390D01*
X169045238Y-117883390D02*
X168854762Y-117883390D01*
X168854762Y-117883390D02*
X168759524Y-117931009D01*
X168759524Y-117931009D02*
X168711905Y-117978628D01*
X168711905Y-117978628D02*
X168664286Y-118073866D01*
X168664286Y-118073866D02*
X168664286Y-118264342D01*
X168664286Y-118264342D02*
X168711905Y-118359580D01*
X168711905Y-118359580D02*
X168759524Y-118407200D01*
X168759524Y-118407200D02*
X168854762Y-118454819D01*
X168854762Y-118454819D02*
X169045238Y-118454819D01*
X169045238Y-118454819D02*
X169140476Y-118407200D01*
X169140476Y-118407200D02*
X169188095Y-118359580D01*
X169188095Y-118359580D02*
X169235714Y-118264342D01*
X169235714Y-118264342D02*
X169235714Y-118073866D01*
X169235714Y-118073866D02*
X169188095Y-117978628D01*
X169188095Y-117978628D02*
X169140476Y-117931009D01*
X169140476Y-117931009D02*
X169045238Y-117883390D01*
X92666666Y-97954819D02*
X92666666Y-98669104D01*
X92666666Y-98669104D02*
X92619047Y-98811961D01*
X92619047Y-98811961D02*
X92523809Y-98907200D01*
X92523809Y-98907200D02*
X92380952Y-98954819D01*
X92380952Y-98954819D02*
X92285714Y-98954819D01*
X93666666Y-98954819D02*
X93095238Y-98954819D01*
X93380952Y-98954819D02*
X93380952Y-97954819D01*
X93380952Y-97954819D02*
X93285714Y-98097676D01*
X93285714Y-98097676D02*
X93190476Y-98192914D01*
X93190476Y-98192914D02*
X93095238Y-98240533D01*
X163474405Y-102954819D02*
X163474405Y-101954819D01*
X163474405Y-101954819D02*
X163712500Y-101954819D01*
X163712500Y-101954819D02*
X163855357Y-102002438D01*
X163855357Y-102002438D02*
X163950595Y-102097676D01*
X163950595Y-102097676D02*
X163998214Y-102192914D01*
X163998214Y-102192914D02*
X164045833Y-102383390D01*
X164045833Y-102383390D02*
X164045833Y-102526247D01*
X164045833Y-102526247D02*
X163998214Y-102716723D01*
X163998214Y-102716723D02*
X163950595Y-102811961D01*
X163950595Y-102811961D02*
X163855357Y-102907200D01*
X163855357Y-102907200D02*
X163712500Y-102954819D01*
X163712500Y-102954819D02*
X163474405Y-102954819D01*
X164379167Y-101954819D02*
X164998214Y-101954819D01*
X164998214Y-101954819D02*
X164664881Y-102335771D01*
X164664881Y-102335771D02*
X164807738Y-102335771D01*
X164807738Y-102335771D02*
X164902976Y-102383390D01*
X164902976Y-102383390D02*
X164950595Y-102431009D01*
X164950595Y-102431009D02*
X164998214Y-102526247D01*
X164998214Y-102526247D02*
X164998214Y-102764342D01*
X164998214Y-102764342D02*
X164950595Y-102859580D01*
X164950595Y-102859580D02*
X164902976Y-102907200D01*
X164902976Y-102907200D02*
X164807738Y-102954819D01*
X164807738Y-102954819D02*
X164522024Y-102954819D01*
X164522024Y-102954819D02*
X164426786Y-102907200D01*
X164426786Y-102907200D02*
X164379167Y-102859580D01*
D12*
X159167918Y-100265653D02*
X159167918Y-98565653D01*
X159167918Y-98565653D02*
X159734585Y-99779939D01*
X159734585Y-99779939D02*
X160301252Y-98565653D01*
X160301252Y-98565653D02*
X160301252Y-100265653D01*
X162082204Y-100103748D02*
X162001252Y-100184701D01*
X162001252Y-100184701D02*
X161758394Y-100265653D01*
X161758394Y-100265653D02*
X161596490Y-100265653D01*
X161596490Y-100265653D02*
X161353633Y-100184701D01*
X161353633Y-100184701D02*
X161191728Y-100022796D01*
X161191728Y-100022796D02*
X161110775Y-99860891D01*
X161110775Y-99860891D02*
X161029823Y-99537081D01*
X161029823Y-99537081D02*
X161029823Y-99294224D01*
X161029823Y-99294224D02*
X161110775Y-98970415D01*
X161110775Y-98970415D02*
X161191728Y-98808510D01*
X161191728Y-98808510D02*
X161353633Y-98646605D01*
X161353633Y-98646605D02*
X161596490Y-98565653D01*
X161596490Y-98565653D02*
X161758394Y-98565653D01*
X161758394Y-98565653D02*
X162001252Y-98646605D01*
X162001252Y-98646605D02*
X162082204Y-98727558D01*
X162810775Y-98565653D02*
X162810775Y-99941843D01*
X162810775Y-99941843D02*
X162891728Y-100103748D01*
X162891728Y-100103748D02*
X162972680Y-100184701D01*
X162972680Y-100184701D02*
X163134585Y-100265653D01*
X163134585Y-100265653D02*
X163458394Y-100265653D01*
X163458394Y-100265653D02*
X163620299Y-100184701D01*
X163620299Y-100184701D02*
X163701252Y-100103748D01*
X163701252Y-100103748D02*
X163782204Y-99941843D01*
X163782204Y-99941843D02*
X163782204Y-98565653D01*
X166696489Y-98565653D02*
X165886965Y-98565653D01*
X165886965Y-98565653D02*
X165806013Y-99375177D01*
X165806013Y-99375177D02*
X165886965Y-99294224D01*
X165886965Y-99294224D02*
X166048870Y-99213272D01*
X166048870Y-99213272D02*
X166453632Y-99213272D01*
X166453632Y-99213272D02*
X166615537Y-99294224D01*
X166615537Y-99294224D02*
X166696489Y-99375177D01*
X166696489Y-99375177D02*
X166777442Y-99537081D01*
X166777442Y-99537081D02*
X166777442Y-99941843D01*
X166777442Y-99941843D02*
X166696489Y-100103748D01*
X166696489Y-100103748D02*
X166615537Y-100184701D01*
X166615537Y-100184701D02*
X166453632Y-100265653D01*
X166453632Y-100265653D02*
X166048870Y-100265653D01*
X166048870Y-100265653D02*
X165886965Y-100184701D01*
X165886965Y-100184701D02*
X165806013Y-100103748D01*
X167263156Y-98565653D02*
X167829823Y-100265653D01*
X167829823Y-100265653D02*
X168396490Y-98565653D01*
D10*
X203761905Y-109454819D02*
X203761905Y-108454819D01*
X203761905Y-108454819D02*
X204000000Y-108454819D01*
X204000000Y-108454819D02*
X204142857Y-108502438D01*
X204142857Y-108502438D02*
X204238095Y-108597676D01*
X204238095Y-108597676D02*
X204285714Y-108692914D01*
X204285714Y-108692914D02*
X204333333Y-108883390D01*
X204333333Y-108883390D02*
X204333333Y-109026247D01*
X204333333Y-109026247D02*
X204285714Y-109216723D01*
X204285714Y-109216723D02*
X204238095Y-109311961D01*
X204238095Y-109311961D02*
X204142857Y-109407200D01*
X204142857Y-109407200D02*
X204000000Y-109454819D01*
X204000000Y-109454819D02*
X203761905Y-109454819D01*
X205190476Y-108788152D02*
X205190476Y-109454819D01*
X204952381Y-108407200D02*
X204714286Y-109121485D01*
X204714286Y-109121485D02*
X205333333Y-109121485D01*
D12*
X202095237Y-112404438D02*
X202095237Y-110404438D01*
X202952380Y-112309200D02*
X203238094Y-112404438D01*
X203238094Y-112404438D02*
X203714285Y-112404438D01*
X203714285Y-112404438D02*
X203904761Y-112309200D01*
X203904761Y-112309200D02*
X203999999Y-112213961D01*
X203999999Y-112213961D02*
X204095237Y-112023485D01*
X204095237Y-112023485D02*
X204095237Y-111833009D01*
X204095237Y-111833009D02*
X203999999Y-111642533D01*
X203999999Y-111642533D02*
X203904761Y-111547295D01*
X203904761Y-111547295D02*
X203714285Y-111452057D01*
X203714285Y-111452057D02*
X203333332Y-111356819D01*
X203333332Y-111356819D02*
X203142856Y-111261580D01*
X203142856Y-111261580D02*
X203047618Y-111166342D01*
X203047618Y-111166342D02*
X202952380Y-110975866D01*
X202952380Y-110975866D02*
X202952380Y-110785390D01*
X202952380Y-110785390D02*
X203047618Y-110594914D01*
X203047618Y-110594914D02*
X203142856Y-110499676D01*
X203142856Y-110499676D02*
X203333332Y-110404438D01*
X203333332Y-110404438D02*
X203809523Y-110404438D01*
X203809523Y-110404438D02*
X204095237Y-110499676D01*
X205333332Y-110404438D02*
X205714285Y-110404438D01*
X205714285Y-110404438D02*
X205904761Y-110499676D01*
X205904761Y-110499676D02*
X206095237Y-110690152D01*
X206095237Y-110690152D02*
X206190475Y-111071104D01*
X206190475Y-111071104D02*
X206190475Y-111737771D01*
X206190475Y-111737771D02*
X206095237Y-112118723D01*
X206095237Y-112118723D02*
X205904761Y-112309200D01*
X205904761Y-112309200D02*
X205714285Y-112404438D01*
X205714285Y-112404438D02*
X205333332Y-112404438D01*
X205333332Y-112404438D02*
X205142856Y-112309200D01*
X205142856Y-112309200D02*
X204952380Y-112118723D01*
X204952380Y-112118723D02*
X204857142Y-111737771D01*
X204857142Y-111737771D02*
X204857142Y-111071104D01*
X204857142Y-111071104D02*
X204952380Y-110690152D01*
X204952380Y-110690152D02*
X205142856Y-110499676D01*
X205142856Y-110499676D02*
X205333332Y-110404438D01*
X208380952Y-110404438D02*
X209619047Y-110404438D01*
X209619047Y-110404438D02*
X208952380Y-111166342D01*
X208952380Y-111166342D02*
X209238095Y-111166342D01*
X209238095Y-111166342D02*
X209428571Y-111261580D01*
X209428571Y-111261580D02*
X209523809Y-111356819D01*
X209523809Y-111356819D02*
X209619047Y-111547295D01*
X209619047Y-111547295D02*
X209619047Y-112023485D01*
X209619047Y-112023485D02*
X209523809Y-112213961D01*
X209523809Y-112213961D02*
X209428571Y-112309200D01*
X209428571Y-112309200D02*
X209238095Y-112404438D01*
X209238095Y-112404438D02*
X208666666Y-112404438D01*
X208666666Y-112404438D02*
X208476190Y-112309200D01*
X208476190Y-112309200D02*
X208380952Y-112213961D01*
X210476190Y-112213961D02*
X210571428Y-112309200D01*
X210571428Y-112309200D02*
X210476190Y-112404438D01*
X210476190Y-112404438D02*
X210380952Y-112309200D01*
X210380952Y-112309200D02*
X210476190Y-112213961D01*
X210476190Y-112213961D02*
X210476190Y-112404438D01*
X211238095Y-110404438D02*
X212476190Y-110404438D01*
X212476190Y-110404438D02*
X211809523Y-111166342D01*
X211809523Y-111166342D02*
X212095238Y-111166342D01*
X212095238Y-111166342D02*
X212285714Y-111261580D01*
X212285714Y-111261580D02*
X212380952Y-111356819D01*
X212380952Y-111356819D02*
X212476190Y-111547295D01*
X212476190Y-111547295D02*
X212476190Y-112023485D01*
X212476190Y-112023485D02*
X212380952Y-112213961D01*
X212380952Y-112213961D02*
X212285714Y-112309200D01*
X212285714Y-112309200D02*
X212095238Y-112404438D01*
X212095238Y-112404438D02*
X211523809Y-112404438D01*
X211523809Y-112404438D02*
X211333333Y-112309200D01*
X211333333Y-112309200D02*
X211238095Y-112213961D01*
X213142857Y-111071104D02*
X213619047Y-112404438D01*
X213619047Y-112404438D02*
X214095238Y-111071104D01*
D10*
X163761905Y-109454819D02*
X163761905Y-108454819D01*
X163761905Y-108454819D02*
X164000000Y-108454819D01*
X164000000Y-108454819D02*
X164142857Y-108502438D01*
X164142857Y-108502438D02*
X164238095Y-108597676D01*
X164238095Y-108597676D02*
X164285714Y-108692914D01*
X164285714Y-108692914D02*
X164333333Y-108883390D01*
X164333333Y-108883390D02*
X164333333Y-109026247D01*
X164333333Y-109026247D02*
X164285714Y-109216723D01*
X164285714Y-109216723D02*
X164238095Y-109311961D01*
X164238095Y-109311961D02*
X164142857Y-109407200D01*
X164142857Y-109407200D02*
X164000000Y-109454819D01*
X164000000Y-109454819D02*
X163761905Y-109454819D01*
X164714286Y-108550057D02*
X164761905Y-108502438D01*
X164761905Y-108502438D02*
X164857143Y-108454819D01*
X164857143Y-108454819D02*
X165095238Y-108454819D01*
X165095238Y-108454819D02*
X165190476Y-108502438D01*
X165190476Y-108502438D02*
X165238095Y-108550057D01*
X165238095Y-108550057D02*
X165285714Y-108645295D01*
X165285714Y-108645295D02*
X165285714Y-108740533D01*
X165285714Y-108740533D02*
X165238095Y-108883390D01*
X165238095Y-108883390D02*
X164666667Y-109454819D01*
X164666667Y-109454819D02*
X165285714Y-109454819D01*
D12*
X159804761Y-111765653D02*
X159804761Y-110065653D01*
X160533333Y-111684701D02*
X160776190Y-111765653D01*
X160776190Y-111765653D02*
X161180952Y-111765653D01*
X161180952Y-111765653D02*
X161342857Y-111684701D01*
X161342857Y-111684701D02*
X161423809Y-111603748D01*
X161423809Y-111603748D02*
X161504762Y-111441843D01*
X161504762Y-111441843D02*
X161504762Y-111279939D01*
X161504762Y-111279939D02*
X161423809Y-111118034D01*
X161423809Y-111118034D02*
X161342857Y-111037081D01*
X161342857Y-111037081D02*
X161180952Y-110956129D01*
X161180952Y-110956129D02*
X160857143Y-110875177D01*
X160857143Y-110875177D02*
X160695238Y-110794224D01*
X160695238Y-110794224D02*
X160614285Y-110713272D01*
X160614285Y-110713272D02*
X160533333Y-110551367D01*
X160533333Y-110551367D02*
X160533333Y-110389462D01*
X160533333Y-110389462D02*
X160614285Y-110227558D01*
X160614285Y-110227558D02*
X160695238Y-110146605D01*
X160695238Y-110146605D02*
X160857143Y-110065653D01*
X160857143Y-110065653D02*
X161261904Y-110065653D01*
X161261904Y-110065653D02*
X161504762Y-110146605D01*
X162557143Y-110065653D02*
X162880952Y-110065653D01*
X162880952Y-110065653D02*
X163042857Y-110146605D01*
X163042857Y-110146605D02*
X163204762Y-110308510D01*
X163204762Y-110308510D02*
X163285714Y-110632320D01*
X163285714Y-110632320D02*
X163285714Y-111198986D01*
X163285714Y-111198986D02*
X163204762Y-111522796D01*
X163204762Y-111522796D02*
X163042857Y-111684701D01*
X163042857Y-111684701D02*
X162880952Y-111765653D01*
X162880952Y-111765653D02*
X162557143Y-111765653D01*
X162557143Y-111765653D02*
X162395238Y-111684701D01*
X162395238Y-111684701D02*
X162233333Y-111522796D01*
X162233333Y-111522796D02*
X162152381Y-111198986D01*
X162152381Y-111198986D02*
X162152381Y-110632320D01*
X162152381Y-110632320D02*
X162233333Y-110308510D01*
X162233333Y-110308510D02*
X162395238Y-110146605D01*
X162395238Y-110146605D02*
X162557143Y-110065653D01*
X166200000Y-111765653D02*
X165228571Y-111765653D01*
X165714285Y-111765653D02*
X165714285Y-110065653D01*
X165714285Y-110065653D02*
X165552381Y-110308510D01*
X165552381Y-110308510D02*
X165390476Y-110470415D01*
X165390476Y-110470415D02*
X165228571Y-110551367D01*
X166847619Y-110227558D02*
X166928571Y-110146605D01*
X166928571Y-110146605D02*
X167090476Y-110065653D01*
X167090476Y-110065653D02*
X167495238Y-110065653D01*
X167495238Y-110065653D02*
X167657143Y-110146605D01*
X167657143Y-110146605D02*
X167738095Y-110227558D01*
X167738095Y-110227558D02*
X167819048Y-110389462D01*
X167819048Y-110389462D02*
X167819048Y-110551367D01*
X167819048Y-110551367D02*
X167738095Y-110794224D01*
X167738095Y-110794224D02*
X166766667Y-111765653D01*
X166766667Y-111765653D02*
X167819048Y-111765653D01*
X168304762Y-110065653D02*
X168871429Y-111765653D01*
X168871429Y-111765653D02*
X169438096Y-110065653D01*
D10*
X104954819Y-124238094D02*
X103954819Y-124238094D01*
X103954819Y-124238094D02*
X103954819Y-123999999D01*
X103954819Y-123999999D02*
X104002438Y-123857142D01*
X104002438Y-123857142D02*
X104097676Y-123761904D01*
X104097676Y-123761904D02*
X104192914Y-123714285D01*
X104192914Y-123714285D02*
X104383390Y-123666666D01*
X104383390Y-123666666D02*
X104526247Y-123666666D01*
X104526247Y-123666666D02*
X104716723Y-123714285D01*
X104716723Y-123714285D02*
X104811961Y-123761904D01*
X104811961Y-123761904D02*
X104907200Y-123857142D01*
X104907200Y-123857142D02*
X104954819Y-123999999D01*
X104954819Y-123999999D02*
X104954819Y-124238094D01*
X103954819Y-122809523D02*
X103954819Y-122999999D01*
X103954819Y-122999999D02*
X104002438Y-123095237D01*
X104002438Y-123095237D02*
X104050057Y-123142856D01*
X104050057Y-123142856D02*
X104192914Y-123238094D01*
X104192914Y-123238094D02*
X104383390Y-123285713D01*
X104383390Y-123285713D02*
X104764342Y-123285713D01*
X104764342Y-123285713D02*
X104859580Y-123238094D01*
X104859580Y-123238094D02*
X104907200Y-123190475D01*
X104907200Y-123190475D02*
X104954819Y-123095237D01*
X104954819Y-123095237D02*
X104954819Y-122904761D01*
X104954819Y-122904761D02*
X104907200Y-122809523D01*
X104907200Y-122809523D02*
X104859580Y-122761904D01*
X104859580Y-122761904D02*
X104764342Y-122714285D01*
X104764342Y-122714285D02*
X104526247Y-122714285D01*
X104526247Y-122714285D02*
X104431009Y-122761904D01*
X104431009Y-122761904D02*
X104383390Y-122809523D01*
X104383390Y-122809523D02*
X104335771Y-122904761D01*
X104335771Y-122904761D02*
X104335771Y-123095237D01*
X104335771Y-123095237D02*
X104383390Y-123190475D01*
X104383390Y-123190475D02*
X104431009Y-123238094D01*
X104431009Y-123238094D02*
X104526247Y-123285713D01*
X176333333Y-98954819D02*
X176000000Y-98478628D01*
X175761905Y-98954819D02*
X175761905Y-97954819D01*
X175761905Y-97954819D02*
X176142857Y-97954819D01*
X176142857Y-97954819D02*
X176238095Y-98002438D01*
X176238095Y-98002438D02*
X176285714Y-98050057D01*
X176285714Y-98050057D02*
X176333333Y-98145295D01*
X176333333Y-98145295D02*
X176333333Y-98288152D01*
X176333333Y-98288152D02*
X176285714Y-98383390D01*
X176285714Y-98383390D02*
X176238095Y-98431009D01*
X176238095Y-98431009D02*
X176142857Y-98478628D01*
X176142857Y-98478628D02*
X175761905Y-98478628D01*
X176666667Y-97954819D02*
X177285714Y-97954819D01*
X177285714Y-97954819D02*
X176952381Y-98335771D01*
X176952381Y-98335771D02*
X177095238Y-98335771D01*
X177095238Y-98335771D02*
X177190476Y-98383390D01*
X177190476Y-98383390D02*
X177238095Y-98431009D01*
X177238095Y-98431009D02*
X177285714Y-98526247D01*
X177285714Y-98526247D02*
X177285714Y-98764342D01*
X177285714Y-98764342D02*
X177238095Y-98859580D01*
X177238095Y-98859580D02*
X177190476Y-98907200D01*
X177190476Y-98907200D02*
X177095238Y-98954819D01*
X177095238Y-98954819D02*
X176809524Y-98954819D01*
X176809524Y-98954819D02*
X176714286Y-98907200D01*
X176714286Y-98907200D02*
X176666667Y-98859580D01*
X106375057Y-114595238D02*
X106327438Y-114690476D01*
X106327438Y-114690476D02*
X106232200Y-114785714D01*
X106232200Y-114785714D02*
X106089342Y-114928571D01*
X106089342Y-114928571D02*
X106041723Y-115023809D01*
X106041723Y-115023809D02*
X106041723Y-115119047D01*
X106279819Y-115071428D02*
X106232200Y-115166666D01*
X106232200Y-115166666D02*
X106136961Y-115261904D01*
X106136961Y-115261904D02*
X105946485Y-115309523D01*
X105946485Y-115309523D02*
X105613152Y-115309523D01*
X105613152Y-115309523D02*
X105422676Y-115261904D01*
X105422676Y-115261904D02*
X105327438Y-115166666D01*
X105327438Y-115166666D02*
X105279819Y-115071428D01*
X105279819Y-115071428D02*
X105279819Y-114880952D01*
X105279819Y-114880952D02*
X105327438Y-114785714D01*
X105327438Y-114785714D02*
X105422676Y-114690476D01*
X105422676Y-114690476D02*
X105613152Y-114642857D01*
X105613152Y-114642857D02*
X105946485Y-114642857D01*
X105946485Y-114642857D02*
X106136961Y-114690476D01*
X106136961Y-114690476D02*
X106232200Y-114785714D01*
X106232200Y-114785714D02*
X106279819Y-114880952D01*
X106279819Y-114880952D02*
X106279819Y-115071428D01*
X106279819Y-113690476D02*
X106279819Y-114261904D01*
X106279819Y-113976190D02*
X105279819Y-113976190D01*
X105279819Y-113976190D02*
X105422676Y-114071428D01*
X105422676Y-114071428D02*
X105517914Y-114166666D01*
X105517914Y-114166666D02*
X105565533Y-114261904D01*
X186859580Y-117642857D02*
X186907200Y-117690476D01*
X186907200Y-117690476D02*
X186954819Y-117833333D01*
X186954819Y-117833333D02*
X186954819Y-117928571D01*
X186954819Y-117928571D02*
X186907200Y-118071428D01*
X186907200Y-118071428D02*
X186811961Y-118166666D01*
X186811961Y-118166666D02*
X186716723Y-118214285D01*
X186716723Y-118214285D02*
X186526247Y-118261904D01*
X186526247Y-118261904D02*
X186383390Y-118261904D01*
X186383390Y-118261904D02*
X186192914Y-118214285D01*
X186192914Y-118214285D02*
X186097676Y-118166666D01*
X186097676Y-118166666D02*
X186002438Y-118071428D01*
X186002438Y-118071428D02*
X185954819Y-117928571D01*
X185954819Y-117928571D02*
X185954819Y-117833333D01*
X185954819Y-117833333D02*
X186002438Y-117690476D01*
X186002438Y-117690476D02*
X186050057Y-117642857D01*
X186954819Y-116690476D02*
X186954819Y-117261904D01*
X186954819Y-116976190D02*
X185954819Y-116976190D01*
X185954819Y-116976190D02*
X186097676Y-117071428D01*
X186097676Y-117071428D02*
X186192914Y-117166666D01*
X186192914Y-117166666D02*
X186240533Y-117261904D01*
X186288152Y-115833333D02*
X186954819Y-115833333D01*
X185907200Y-116071428D02*
X186621485Y-116309523D01*
X186621485Y-116309523D02*
X186621485Y-115690476D01*
X198238095Y-137254819D02*
X198238095Y-136254819D01*
X198238095Y-136731009D02*
X198809523Y-136731009D01*
X198809523Y-137254819D02*
X198809523Y-136254819D01*
X199190476Y-136254819D02*
X199809523Y-136254819D01*
X199809523Y-136254819D02*
X199476190Y-136635771D01*
X199476190Y-136635771D02*
X199619047Y-136635771D01*
X199619047Y-136635771D02*
X199714285Y-136683390D01*
X199714285Y-136683390D02*
X199761904Y-136731009D01*
X199761904Y-136731009D02*
X199809523Y-136826247D01*
X199809523Y-136826247D02*
X199809523Y-137064342D01*
X199809523Y-137064342D02*
X199761904Y-137159580D01*
X199761904Y-137159580D02*
X199714285Y-137207200D01*
X199714285Y-137207200D02*
X199619047Y-137254819D01*
X199619047Y-137254819D02*
X199333333Y-137254819D01*
X199333333Y-137254819D02*
X199238095Y-137207200D01*
X199238095Y-137207200D02*
X199190476Y-137159580D01*
X199359580Y-104666666D02*
X199407200Y-104714285D01*
X199407200Y-104714285D02*
X199454819Y-104857142D01*
X199454819Y-104857142D02*
X199454819Y-104952380D01*
X199454819Y-104952380D02*
X199407200Y-105095237D01*
X199407200Y-105095237D02*
X199311961Y-105190475D01*
X199311961Y-105190475D02*
X199216723Y-105238094D01*
X199216723Y-105238094D02*
X199026247Y-105285713D01*
X199026247Y-105285713D02*
X198883390Y-105285713D01*
X198883390Y-105285713D02*
X198692914Y-105238094D01*
X198692914Y-105238094D02*
X198597676Y-105190475D01*
X198597676Y-105190475D02*
X198502438Y-105095237D01*
X198502438Y-105095237D02*
X198454819Y-104952380D01*
X198454819Y-104952380D02*
X198454819Y-104857142D01*
X198454819Y-104857142D02*
X198502438Y-104714285D01*
X198502438Y-104714285D02*
X198550057Y-104666666D01*
X199454819Y-104190475D02*
X199454819Y-103999999D01*
X199454819Y-103999999D02*
X199407200Y-103904761D01*
X199407200Y-103904761D02*
X199359580Y-103857142D01*
X199359580Y-103857142D02*
X199216723Y-103761904D01*
X199216723Y-103761904D02*
X199026247Y-103714285D01*
X199026247Y-103714285D02*
X198645295Y-103714285D01*
X198645295Y-103714285D02*
X198550057Y-103761904D01*
X198550057Y-103761904D02*
X198502438Y-103809523D01*
X198502438Y-103809523D02*
X198454819Y-103904761D01*
X198454819Y-103904761D02*
X198454819Y-104095237D01*
X198454819Y-104095237D02*
X198502438Y-104190475D01*
X198502438Y-104190475D02*
X198550057Y-104238094D01*
X198550057Y-104238094D02*
X198645295Y-104285713D01*
X198645295Y-104285713D02*
X198883390Y-104285713D01*
X198883390Y-104285713D02*
X198978628Y-104238094D01*
X198978628Y-104238094D02*
X199026247Y-104190475D01*
X199026247Y-104190475D02*
X199073866Y-104095237D01*
X199073866Y-104095237D02*
X199073866Y-103904761D01*
X199073866Y-103904761D02*
X199026247Y-103809523D01*
X199026247Y-103809523D02*
X198978628Y-103761904D01*
X198978628Y-103761904D02*
X198883390Y-103714285D01*
X184709580Y-131142857D02*
X184757200Y-131190476D01*
X184757200Y-131190476D02*
X184804819Y-131333333D01*
X184804819Y-131333333D02*
X184804819Y-131428571D01*
X184804819Y-131428571D02*
X184757200Y-131571428D01*
X184757200Y-131571428D02*
X184661961Y-131666666D01*
X184661961Y-131666666D02*
X184566723Y-131714285D01*
X184566723Y-131714285D02*
X184376247Y-131761904D01*
X184376247Y-131761904D02*
X184233390Y-131761904D01*
X184233390Y-131761904D02*
X184042914Y-131714285D01*
X184042914Y-131714285D02*
X183947676Y-131666666D01*
X183947676Y-131666666D02*
X183852438Y-131571428D01*
X183852438Y-131571428D02*
X183804819Y-131428571D01*
X183804819Y-131428571D02*
X183804819Y-131333333D01*
X183804819Y-131333333D02*
X183852438Y-131190476D01*
X183852438Y-131190476D02*
X183900057Y-131142857D01*
X184804819Y-130190476D02*
X184804819Y-130761904D01*
X184804819Y-130476190D02*
X183804819Y-130476190D01*
X183804819Y-130476190D02*
X183947676Y-130571428D01*
X183947676Y-130571428D02*
X184042914Y-130666666D01*
X184042914Y-130666666D02*
X184090533Y-130761904D01*
X183804819Y-129857142D02*
X183804819Y-129190476D01*
X183804819Y-129190476D02*
X184804819Y-129619047D01*
X180261905Y-126454819D02*
X180261905Y-125454819D01*
X180261905Y-125454819D02*
X180500000Y-125454819D01*
X180500000Y-125454819D02*
X180642857Y-125502438D01*
X180642857Y-125502438D02*
X180738095Y-125597676D01*
X180738095Y-125597676D02*
X180785714Y-125692914D01*
X180785714Y-125692914D02*
X180833333Y-125883390D01*
X180833333Y-125883390D02*
X180833333Y-126026247D01*
X180833333Y-126026247D02*
X180785714Y-126216723D01*
X180785714Y-126216723D02*
X180738095Y-126311961D01*
X180738095Y-126311961D02*
X180642857Y-126407200D01*
X180642857Y-126407200D02*
X180500000Y-126454819D01*
X180500000Y-126454819D02*
X180261905Y-126454819D01*
X181785714Y-126454819D02*
X181214286Y-126454819D01*
X181500000Y-126454819D02*
X181500000Y-125454819D01*
X181500000Y-125454819D02*
X181404762Y-125597676D01*
X181404762Y-125597676D02*
X181309524Y-125692914D01*
X181309524Y-125692914D02*
X181214286Y-125740533D01*
X97609580Y-117775180D02*
X97657200Y-117822799D01*
X97657200Y-117822799D02*
X97704819Y-117965656D01*
X97704819Y-117965656D02*
X97704819Y-118060894D01*
X97704819Y-118060894D02*
X97657200Y-118203751D01*
X97657200Y-118203751D02*
X97561961Y-118298989D01*
X97561961Y-118298989D02*
X97466723Y-118346608D01*
X97466723Y-118346608D02*
X97276247Y-118394227D01*
X97276247Y-118394227D02*
X97133390Y-118394227D01*
X97133390Y-118394227D02*
X96942914Y-118346608D01*
X96942914Y-118346608D02*
X96847676Y-118298989D01*
X96847676Y-118298989D02*
X96752438Y-118203751D01*
X96752438Y-118203751D02*
X96704819Y-118060894D01*
X96704819Y-118060894D02*
X96704819Y-117965656D01*
X96704819Y-117965656D02*
X96752438Y-117822799D01*
X96752438Y-117822799D02*
X96800057Y-117775180D01*
X97704819Y-116822799D02*
X97704819Y-117394227D01*
X97704819Y-117108513D02*
X96704819Y-117108513D01*
X96704819Y-117108513D02*
X96847676Y-117203751D01*
X96847676Y-117203751D02*
X96942914Y-117298989D01*
X96942914Y-117298989D02*
X96990533Y-117394227D01*
X96704819Y-115918037D02*
X96704819Y-116394227D01*
X96704819Y-116394227D02*
X97181009Y-116441846D01*
X97181009Y-116441846D02*
X97133390Y-116394227D01*
X97133390Y-116394227D02*
X97085771Y-116298989D01*
X97085771Y-116298989D02*
X97085771Y-116060894D01*
X97085771Y-116060894D02*
X97133390Y-115965656D01*
X97133390Y-115965656D02*
X97181009Y-115918037D01*
X97181009Y-115918037D02*
X97276247Y-115870418D01*
X97276247Y-115870418D02*
X97514342Y-115870418D01*
X97514342Y-115870418D02*
X97609580Y-115918037D01*
X97609580Y-115918037D02*
X97657200Y-115965656D01*
X97657200Y-115965656D02*
X97704819Y-116060894D01*
X97704819Y-116060894D02*
X97704819Y-116298989D01*
X97704819Y-116298989D02*
X97657200Y-116394227D01*
X97657200Y-116394227D02*
X97609580Y-116441846D01*
X198857142Y-112859580D02*
X198809523Y-112907200D01*
X198809523Y-112907200D02*
X198666666Y-112954819D01*
X198666666Y-112954819D02*
X198571428Y-112954819D01*
X198571428Y-112954819D02*
X198428571Y-112907200D01*
X198428571Y-112907200D02*
X198333333Y-112811961D01*
X198333333Y-112811961D02*
X198285714Y-112716723D01*
X198285714Y-112716723D02*
X198238095Y-112526247D01*
X198238095Y-112526247D02*
X198238095Y-112383390D01*
X198238095Y-112383390D02*
X198285714Y-112192914D01*
X198285714Y-112192914D02*
X198333333Y-112097676D01*
X198333333Y-112097676D02*
X198428571Y-112002438D01*
X198428571Y-112002438D02*
X198571428Y-111954819D01*
X198571428Y-111954819D02*
X198666666Y-111954819D01*
X198666666Y-111954819D02*
X198809523Y-112002438D01*
X198809523Y-112002438D02*
X198857142Y-112050057D01*
X199809523Y-112954819D02*
X199238095Y-112954819D01*
X199523809Y-112954819D02*
X199523809Y-111954819D01*
X199523809Y-111954819D02*
X199428571Y-112097676D01*
X199428571Y-112097676D02*
X199333333Y-112192914D01*
X199333333Y-112192914D02*
X199238095Y-112240533D01*
X200190476Y-112050057D02*
X200238095Y-112002438D01*
X200238095Y-112002438D02*
X200333333Y-111954819D01*
X200333333Y-111954819D02*
X200571428Y-111954819D01*
X200571428Y-111954819D02*
X200666666Y-112002438D01*
X200666666Y-112002438D02*
X200714285Y-112050057D01*
X200714285Y-112050057D02*
X200761904Y-112145295D01*
X200761904Y-112145295D02*
X200761904Y-112240533D01*
X200761904Y-112240533D02*
X200714285Y-112383390D01*
X200714285Y-112383390D02*
X200142857Y-112954819D01*
X200142857Y-112954819D02*
X200761904Y-112954819D01*
X198857142Y-114859580D02*
X198809523Y-114907200D01*
X198809523Y-114907200D02*
X198666666Y-114954819D01*
X198666666Y-114954819D02*
X198571428Y-114954819D01*
X198571428Y-114954819D02*
X198428571Y-114907200D01*
X198428571Y-114907200D02*
X198333333Y-114811961D01*
X198333333Y-114811961D02*
X198285714Y-114716723D01*
X198285714Y-114716723D02*
X198238095Y-114526247D01*
X198238095Y-114526247D02*
X198238095Y-114383390D01*
X198238095Y-114383390D02*
X198285714Y-114192914D01*
X198285714Y-114192914D02*
X198333333Y-114097676D01*
X198333333Y-114097676D02*
X198428571Y-114002438D01*
X198428571Y-114002438D02*
X198571428Y-113954819D01*
X198571428Y-113954819D02*
X198666666Y-113954819D01*
X198666666Y-113954819D02*
X198809523Y-114002438D01*
X198809523Y-114002438D02*
X198857142Y-114050057D01*
X199809523Y-114954819D02*
X199238095Y-114954819D01*
X199523809Y-114954819D02*
X199523809Y-113954819D01*
X199523809Y-113954819D02*
X199428571Y-114097676D01*
X199428571Y-114097676D02*
X199333333Y-114192914D01*
X199333333Y-114192914D02*
X199238095Y-114240533D01*
X200142857Y-113954819D02*
X200761904Y-113954819D01*
X200761904Y-113954819D02*
X200428571Y-114335771D01*
X200428571Y-114335771D02*
X200571428Y-114335771D01*
X200571428Y-114335771D02*
X200666666Y-114383390D01*
X200666666Y-114383390D02*
X200714285Y-114431009D01*
X200714285Y-114431009D02*
X200761904Y-114526247D01*
X200761904Y-114526247D02*
X200761904Y-114764342D01*
X200761904Y-114764342D02*
X200714285Y-114859580D01*
X200714285Y-114859580D02*
X200666666Y-114907200D01*
X200666666Y-114907200D02*
X200571428Y-114954819D01*
X200571428Y-114954819D02*
X200285714Y-114954819D01*
X200285714Y-114954819D02*
X200190476Y-114907200D01*
X200190476Y-114907200D02*
X200142857Y-114859580D01*
X168283333Y-119859580D02*
X168235714Y-119907200D01*
X168235714Y-119907200D02*
X168092857Y-119954819D01*
X168092857Y-119954819D02*
X167997619Y-119954819D01*
X167997619Y-119954819D02*
X167854762Y-119907200D01*
X167854762Y-119907200D02*
X167759524Y-119811961D01*
X167759524Y-119811961D02*
X167711905Y-119716723D01*
X167711905Y-119716723D02*
X167664286Y-119526247D01*
X167664286Y-119526247D02*
X167664286Y-119383390D01*
X167664286Y-119383390D02*
X167711905Y-119192914D01*
X167711905Y-119192914D02*
X167759524Y-119097676D01*
X167759524Y-119097676D02*
X167854762Y-119002438D01*
X167854762Y-119002438D02*
X167997619Y-118954819D01*
X167997619Y-118954819D02*
X168092857Y-118954819D01*
X168092857Y-118954819D02*
X168235714Y-119002438D01*
X168235714Y-119002438D02*
X168283333Y-119050057D01*
X168616667Y-118954819D02*
X169283333Y-118954819D01*
X169283333Y-118954819D02*
X168854762Y-119954819D01*
X191454819Y-124166666D02*
X191454819Y-124642856D01*
X191454819Y-124642856D02*
X190454819Y-124642856D01*
X191454819Y-123309523D02*
X191454819Y-123880951D01*
X191454819Y-123595237D02*
X190454819Y-123595237D01*
X190454819Y-123595237D02*
X190597676Y-123690475D01*
X190597676Y-123690475D02*
X190692914Y-123785713D01*
X190692914Y-123785713D02*
X190740533Y-123880951D01*
X182045180Y-110238095D02*
X181235657Y-110238095D01*
X181235657Y-110238095D02*
X181140419Y-110285714D01*
X181140419Y-110285714D02*
X181092800Y-110333333D01*
X181092800Y-110333333D02*
X181045180Y-110428571D01*
X181045180Y-110428571D02*
X181045180Y-110619047D01*
X181045180Y-110619047D02*
X181092800Y-110714285D01*
X181092800Y-110714285D02*
X181140419Y-110761904D01*
X181140419Y-110761904D02*
X181235657Y-110809523D01*
X181235657Y-110809523D02*
X182045180Y-110809523D01*
X181711847Y-111714285D02*
X181045180Y-111714285D01*
X182092800Y-111476190D02*
X181378514Y-111238095D01*
X181378514Y-111238095D02*
X181378514Y-111857142D01*
X183029819Y-100230399D02*
X183267914Y-100230399D01*
X183172676Y-100468494D02*
X183267914Y-100230399D01*
X183267914Y-100230399D02*
X183172676Y-99992304D01*
X183458390Y-100373256D02*
X183267914Y-100230399D01*
X183267914Y-100230399D02*
X183458390Y-100087542D01*
X184120180Y-100230400D02*
X183882085Y-100230400D01*
X183977323Y-99992305D02*
X183882085Y-100230400D01*
X183882085Y-100230400D02*
X183977323Y-100468495D01*
X183691609Y-100087543D02*
X183882085Y-100230400D01*
X183882085Y-100230400D02*
X183691609Y-100373257D01*
X196285714Y-108454819D02*
X196285714Y-107454819D01*
X196285714Y-107454819D02*
X196666666Y-107454819D01*
X196666666Y-107454819D02*
X196761904Y-107502438D01*
X196761904Y-107502438D02*
X196809523Y-107550057D01*
X196809523Y-107550057D02*
X196857142Y-107645295D01*
X196857142Y-107645295D02*
X196857142Y-107788152D01*
X196857142Y-107788152D02*
X196809523Y-107883390D01*
X196809523Y-107883390D02*
X196761904Y-107931009D01*
X196761904Y-107931009D02*
X196666666Y-107978628D01*
X196666666Y-107978628D02*
X196285714Y-107978628D01*
X197238095Y-108407200D02*
X197380952Y-108454819D01*
X197380952Y-108454819D02*
X197619047Y-108454819D01*
X197619047Y-108454819D02*
X197714285Y-108407200D01*
X197714285Y-108407200D02*
X197761904Y-108359580D01*
X197761904Y-108359580D02*
X197809523Y-108264342D01*
X197809523Y-108264342D02*
X197809523Y-108169104D01*
X197809523Y-108169104D02*
X197761904Y-108073866D01*
X197761904Y-108073866D02*
X197714285Y-108026247D01*
X197714285Y-108026247D02*
X197619047Y-107978628D01*
X197619047Y-107978628D02*
X197428571Y-107931009D01*
X197428571Y-107931009D02*
X197333333Y-107883390D01*
X197333333Y-107883390D02*
X197285714Y-107835771D01*
X197285714Y-107835771D02*
X197238095Y-107740533D01*
X197238095Y-107740533D02*
X197238095Y-107645295D01*
X197238095Y-107645295D02*
X197285714Y-107550057D01*
X197285714Y-107550057D02*
X197333333Y-107502438D01*
X197333333Y-107502438D02*
X197428571Y-107454819D01*
X197428571Y-107454819D02*
X197666666Y-107454819D01*
X197666666Y-107454819D02*
X197809523Y-107502438D01*
X198761904Y-108454819D02*
X198190476Y-108454819D01*
X198476190Y-108454819D02*
X198476190Y-107454819D01*
X198476190Y-107454819D02*
X198380952Y-107597676D01*
X198380952Y-107597676D02*
X198285714Y-107692914D01*
X198285714Y-107692914D02*
X198190476Y-107740533D01*
X90738095Y-33954819D02*
X90738095Y-32954819D01*
X90738095Y-33431009D02*
X91309523Y-33431009D01*
X91309523Y-33954819D02*
X91309523Y-32954819D01*
X92261904Y-32954819D02*
X91785714Y-32954819D01*
X91785714Y-32954819D02*
X91738095Y-33431009D01*
X91738095Y-33431009D02*
X91785714Y-33383390D01*
X91785714Y-33383390D02*
X91880952Y-33335771D01*
X91880952Y-33335771D02*
X92119047Y-33335771D01*
X92119047Y-33335771D02*
X92214285Y-33383390D01*
X92214285Y-33383390D02*
X92261904Y-33431009D01*
X92261904Y-33431009D02*
X92309523Y-33526247D01*
X92309523Y-33526247D02*
X92309523Y-33764342D01*
X92309523Y-33764342D02*
X92261904Y-33859580D01*
X92261904Y-33859580D02*
X92214285Y-33907200D01*
X92214285Y-33907200D02*
X92119047Y-33954819D01*
X92119047Y-33954819D02*
X91880952Y-33954819D01*
X91880952Y-33954819D02*
X91785714Y-33907200D01*
X91785714Y-33907200D02*
X91738095Y-33859580D01*
X186859580Y-102941666D02*
X186907200Y-102989285D01*
X186907200Y-102989285D02*
X186954819Y-103132142D01*
X186954819Y-103132142D02*
X186954819Y-103227380D01*
X186954819Y-103227380D02*
X186907200Y-103370237D01*
X186907200Y-103370237D02*
X186811961Y-103465475D01*
X186811961Y-103465475D02*
X186716723Y-103513094D01*
X186716723Y-103513094D02*
X186526247Y-103560713D01*
X186526247Y-103560713D02*
X186383390Y-103560713D01*
X186383390Y-103560713D02*
X186192914Y-103513094D01*
X186192914Y-103513094D02*
X186097676Y-103465475D01*
X186097676Y-103465475D02*
X186002438Y-103370237D01*
X186002438Y-103370237D02*
X185954819Y-103227380D01*
X185954819Y-103227380D02*
X185954819Y-103132142D01*
X185954819Y-103132142D02*
X186002438Y-102989285D01*
X186002438Y-102989285D02*
X186050057Y-102941666D01*
X186954819Y-101989285D02*
X186954819Y-102560713D01*
X186954819Y-102274999D02*
X185954819Y-102274999D01*
X185954819Y-102274999D02*
X186097676Y-102370237D01*
X186097676Y-102370237D02*
X186192914Y-102465475D01*
X186192914Y-102465475D02*
X186240533Y-102560713D01*
X167454819Y-123341666D02*
X166978628Y-123674999D01*
X167454819Y-123913094D02*
X166454819Y-123913094D01*
X166454819Y-123913094D02*
X166454819Y-123532142D01*
X166454819Y-123532142D02*
X166502438Y-123436904D01*
X166502438Y-123436904D02*
X166550057Y-123389285D01*
X166550057Y-123389285D02*
X166645295Y-123341666D01*
X166645295Y-123341666D02*
X166788152Y-123341666D01*
X166788152Y-123341666D02*
X166883390Y-123389285D01*
X166883390Y-123389285D02*
X166931009Y-123436904D01*
X166931009Y-123436904D02*
X166978628Y-123532142D01*
X166978628Y-123532142D02*
X166978628Y-123913094D01*
X166454819Y-122436904D02*
X166454819Y-122913094D01*
X166454819Y-122913094D02*
X166931009Y-122960713D01*
X166931009Y-122960713D02*
X166883390Y-122913094D01*
X166883390Y-122913094D02*
X166835771Y-122817856D01*
X166835771Y-122817856D02*
X166835771Y-122579761D01*
X166835771Y-122579761D02*
X166883390Y-122484523D01*
X166883390Y-122484523D02*
X166931009Y-122436904D01*
X166931009Y-122436904D02*
X167026247Y-122389285D01*
X167026247Y-122389285D02*
X167264342Y-122389285D01*
X167264342Y-122389285D02*
X167359580Y-122436904D01*
X167359580Y-122436904D02*
X167407200Y-122484523D01*
X167407200Y-122484523D02*
X167454819Y-122579761D01*
X167454819Y-122579761D02*
X167454819Y-122817856D01*
X167454819Y-122817856D02*
X167407200Y-122913094D01*
X167407200Y-122913094D02*
X167359580Y-122960713D01*
X174833333Y-120779819D02*
X174500000Y-120303628D01*
X174261905Y-120779819D02*
X174261905Y-119779819D01*
X174261905Y-119779819D02*
X174642857Y-119779819D01*
X174642857Y-119779819D02*
X174738095Y-119827438D01*
X174738095Y-119827438D02*
X174785714Y-119875057D01*
X174785714Y-119875057D02*
X174833333Y-119970295D01*
X174833333Y-119970295D02*
X174833333Y-120113152D01*
X174833333Y-120113152D02*
X174785714Y-120208390D01*
X174785714Y-120208390D02*
X174738095Y-120256009D01*
X174738095Y-120256009D02*
X174642857Y-120303628D01*
X174642857Y-120303628D02*
X174261905Y-120303628D01*
X175690476Y-120113152D02*
X175690476Y-120779819D01*
X175452381Y-119732200D02*
X175214286Y-120446485D01*
X175214286Y-120446485D02*
X175833333Y-120446485D01*
D13*
%TO.C,G\u002A\u002A\u002A*%
G36*
X93598315Y-47602884D02*
G01*
X94035325Y-47651690D01*
X94462790Y-47724915D01*
X94880085Y-47822476D01*
X95149069Y-47899986D01*
X95239724Y-47928921D01*
X95332735Y-47960018D01*
X95424472Y-47991921D01*
X95511303Y-48023275D01*
X95589595Y-48052725D01*
X95655718Y-48078915D01*
X95706038Y-48100489D01*
X95736925Y-48116093D01*
X95744817Y-48122321D01*
X95756941Y-48151489D01*
X95772268Y-48203307D01*
X95790029Y-48274056D01*
X95809456Y-48360017D01*
X95829782Y-48457470D01*
X95850238Y-48562695D01*
X95870055Y-48671973D01*
X95888467Y-48781585D01*
X95904704Y-48887812D01*
X95908640Y-48915603D01*
X95924932Y-49035463D01*
X95938439Y-49142197D01*
X95949411Y-49240116D01*
X95958100Y-49333533D01*
X95964754Y-49426760D01*
X95969626Y-49524109D01*
X95972965Y-49629894D01*
X95975022Y-49748426D01*
X95976046Y-49884017D01*
X95976290Y-50040980D01*
X95976262Y-50080000D01*
X95974955Y-50293599D01*
X95971195Y-50485423D01*
X95964535Y-50660287D01*
X95954529Y-50823005D01*
X95940730Y-50978395D01*
X95922693Y-51131271D01*
X95899969Y-51286448D01*
X95872113Y-51448742D01*
X95838678Y-51622969D01*
X95828504Y-51673333D01*
X95775517Y-51916487D01*
X95719602Y-52138384D01*
X95659000Y-52344405D01*
X95591949Y-52539934D01*
X95516689Y-52730353D01*
X95431458Y-52921046D01*
X95396759Y-52993333D01*
X95236506Y-53291477D01*
X95054973Y-53573805D01*
X94852884Y-53839579D01*
X94630965Y-54088061D01*
X94389941Y-54318513D01*
X94130537Y-54530197D01*
X93853480Y-54722375D01*
X93559493Y-54894308D01*
X93495535Y-54927844D01*
X93345214Y-55001634D01*
X93200736Y-55065747D01*
X93067691Y-55117807D01*
X92979193Y-55147386D01*
X92903082Y-55170528D01*
X92765748Y-55124989D01*
X92710010Y-55104421D01*
X92636986Y-55074399D01*
X92553086Y-55037730D01*
X92464719Y-54997216D01*
X92378294Y-54955662D01*
X92374947Y-54954008D01*
X92075710Y-54791230D01*
X91792293Y-54607084D01*
X91525355Y-54402144D01*
X91275556Y-54176986D01*
X91043555Y-53932186D01*
X90830014Y-53668318D01*
X90714468Y-53506163D01*
X90540392Y-53226697D01*
X90384822Y-52928026D01*
X90247760Y-52610152D01*
X90129208Y-52273079D01*
X90029165Y-51916810D01*
X89947634Y-51541348D01*
X89884614Y-51146697D01*
X89840107Y-50732860D01*
X89814114Y-50299840D01*
X89813146Y-50273333D01*
X89810333Y-50069362D01*
X89987077Y-50069362D01*
X89988240Y-50221994D01*
X89990900Y-50370832D01*
X89995031Y-50510806D01*
X90000607Y-50636847D01*
X90007603Y-50743888D01*
X90011422Y-50786666D01*
X90060187Y-51185557D01*
X90124905Y-51563379D01*
X90205716Y-51920545D01*
X90302762Y-52257464D01*
X90416183Y-52574548D01*
X90546120Y-52872208D01*
X90692713Y-53150854D01*
X90856102Y-53410897D01*
X90958030Y-53552580D01*
X91171644Y-53813794D01*
X91403413Y-54056273D01*
X91652112Y-54279007D01*
X91916517Y-54480989D01*
X92195407Y-54661209D01*
X92487557Y-54818660D01*
X92503404Y-54826358D01*
X92576694Y-54860730D01*
X92652400Y-54894437D01*
X92725757Y-54925541D01*
X92792000Y-54952107D01*
X92846363Y-54972196D01*
X92884081Y-54983873D01*
X92896219Y-54986018D01*
X92915171Y-54982259D01*
X92951703Y-54971751D01*
X92998257Y-54956684D01*
X93002941Y-54955090D01*
X93174142Y-54888809D01*
X93356500Y-54803903D01*
X93545185Y-54703098D01*
X93735372Y-54589119D01*
X93922232Y-54464694D01*
X94089064Y-54341784D01*
X94164184Y-54280069D01*
X94251627Y-54202474D01*
X94346697Y-54113653D01*
X94444696Y-54018262D01*
X94540930Y-53920958D01*
X94630702Y-53826396D01*
X94709316Y-53739231D01*
X94770060Y-53666666D01*
X94960814Y-53404920D01*
X95132599Y-53125205D01*
X95284639Y-52829057D01*
X95416159Y-52518012D01*
X95526383Y-52193606D01*
X95544068Y-52133333D01*
X95635561Y-51772870D01*
X95708683Y-51396806D01*
X95763341Y-51008967D01*
X95799443Y-50613176D01*
X95816896Y-50213259D01*
X95815609Y-49813040D01*
X95795488Y-49416345D01*
X95756441Y-49026997D01*
X95698376Y-48648823D01*
X95635652Y-48346080D01*
X95627945Y-48310203D01*
X95621751Y-48282352D01*
X95614048Y-48260538D01*
X95601814Y-48242775D01*
X95582028Y-48227075D01*
X95551668Y-48211451D01*
X95507713Y-48193915D01*
X95447140Y-48172482D01*
X95366929Y-48145162D01*
X95290479Y-48119070D01*
X94967165Y-48016438D01*
X94643186Y-47930928D01*
X94313140Y-47861438D01*
X93971625Y-47806864D01*
X93613238Y-47766104D01*
X93522216Y-47758097D01*
X93358556Y-47747764D01*
X93174411Y-47741862D01*
X92975577Y-47740221D01*
X92767850Y-47742671D01*
X92557025Y-47749043D01*
X92348900Y-47759166D01*
X92149268Y-47772871D01*
X91963928Y-47789988D01*
X91814653Y-47808099D01*
X91528908Y-47854510D01*
X91236047Y-47914941D01*
X90944000Y-47987393D01*
X90660699Y-48069867D01*
X90394075Y-48160367D01*
X90347246Y-48177815D01*
X90200472Y-48233333D01*
X90171018Y-48353333D01*
X90137654Y-48502298D01*
X90105238Y-48672040D01*
X90074683Y-48856669D01*
X90046901Y-49050297D01*
X90022806Y-49247032D01*
X90004594Y-49426666D01*
X89997894Y-49522248D01*
X89992818Y-49639377D01*
X89989340Y-49772984D01*
X89987435Y-49918002D01*
X89987077Y-50069362D01*
X89810333Y-50069362D01*
X89809988Y-50044368D01*
X89815632Y-49801101D01*
X89829508Y-49548865D01*
X89851043Y-49292989D01*
X89879668Y-49038807D01*
X89914812Y-48791650D01*
X89955902Y-48556850D01*
X90002369Y-48339739D01*
X90033302Y-48217557D01*
X90062840Y-48108449D01*
X90231709Y-48046040D01*
X90562425Y-47930912D01*
X90884510Y-47833769D01*
X91203034Y-47753652D01*
X91523067Y-47689600D01*
X91849678Y-47640653D01*
X92187936Y-47605850D01*
X92542912Y-47584232D01*
X92698158Y-47578855D01*
X93152385Y-47578578D01*
X93598315Y-47602884D01*
G37*
G36*
X103720178Y-54035722D02*
G01*
X103819357Y-54324778D01*
X103914604Y-54039055D01*
X104009851Y-53753333D01*
X104099933Y-53749365D01*
X104147447Y-53747679D01*
X104173579Y-53749064D01*
X104183597Y-53755268D01*
X104182767Y-53768037D01*
X104180371Y-53776032D01*
X104168759Y-53810584D01*
X104149708Y-53864524D01*
X104124458Y-53934527D01*
X104094254Y-54017272D01*
X104060335Y-54109432D01*
X104023945Y-54207686D01*
X103986326Y-54308709D01*
X103948719Y-54409178D01*
X103912366Y-54505769D01*
X103878510Y-54595158D01*
X103848394Y-54674022D01*
X103823257Y-54739037D01*
X103804344Y-54786880D01*
X103792896Y-54814226D01*
X103790807Y-54818473D01*
X103753438Y-54860328D01*
X103698176Y-54893864D01*
X103633482Y-54914913D01*
X103584673Y-54920000D01*
X103520798Y-54920000D01*
X103520798Y-54848422D01*
X103520798Y-54776844D01*
X103575995Y-54769444D01*
X103612881Y-54762275D01*
X103639511Y-54749055D01*
X103660578Y-54724690D01*
X103680777Y-54684087D01*
X103700105Y-54634781D01*
X103734468Y-54542896D01*
X103628737Y-54254781D01*
X103595537Y-54164363D01*
X103562724Y-54075093D01*
X103532328Y-53992487D01*
X103506378Y-53922058D01*
X103486904Y-53869322D01*
X103482217Y-53856666D01*
X103441427Y-53746666D01*
X103531213Y-53746666D01*
X103620999Y-53746666D01*
X103720178Y-54035722D01*
G37*
G36*
X97611103Y-53796666D02*
G01*
X97611581Y-53912171D01*
X97612911Y-54016129D01*
X97615000Y-54105522D01*
X97617759Y-54177332D01*
X97621097Y-54228540D01*
X97624922Y-54256128D01*
X97624956Y-54256252D01*
X97657235Y-54327199D01*
X97708428Y-54380387D01*
X97776137Y-54414101D01*
X97857965Y-54426626D01*
X97863199Y-54426666D01*
X97945929Y-54417472D01*
X98011451Y-54388830D01*
X98062365Y-54339153D01*
X98092748Y-54286666D01*
X98099658Y-54269657D01*
X98105157Y-54249792D01*
X98109406Y-54223984D01*
X98112567Y-54189148D01*
X98114801Y-54142199D01*
X98116268Y-54080051D01*
X98117131Y-53999619D01*
X98117551Y-53897817D01*
X98117669Y-53810000D01*
X98117962Y-53386666D01*
X98205333Y-53386666D01*
X98292705Y-53386666D01*
X98288710Y-53836666D01*
X98284716Y-54286666D01*
X98247217Y-54362989D01*
X98191411Y-54448217D01*
X98118175Y-54513888D01*
X98029239Y-54559006D01*
X97926329Y-54582572D01*
X97860660Y-54585971D01*
X97762254Y-54577057D01*
X97694836Y-54558533D01*
X97628990Y-54523384D01*
X97565493Y-54472456D01*
X97513075Y-54413636D01*
X97487172Y-54370984D01*
X97473630Y-54338623D01*
X97462718Y-54302594D01*
X97454171Y-54259768D01*
X97447723Y-54207020D01*
X97443112Y-54141222D01*
X97440072Y-54059246D01*
X97438339Y-53957967D01*
X97437649Y-53834256D01*
X97437605Y-53784846D01*
X97437605Y-53386666D01*
X97524317Y-53386666D01*
X97611029Y-53386666D01*
X97611103Y-53796666D01*
G37*
G36*
X98929323Y-53741064D02*
G01*
X98969449Y-53745726D01*
X99001976Y-53756191D01*
X99036428Y-53774662D01*
X99045371Y-53780118D01*
X99103349Y-53826543D01*
X99144437Y-53886380D01*
X99155227Y-53908001D01*
X99163460Y-53928142D01*
X99169481Y-53950660D01*
X99173635Y-53979411D01*
X99176270Y-54018249D01*
X99177732Y-54071032D01*
X99178365Y-54141615D01*
X99178516Y-54233854D01*
X99178519Y-54266261D01*
X99178519Y-54580000D01*
X99098477Y-54580000D01*
X99018435Y-54580000D01*
X99011764Y-54279362D01*
X99009068Y-54171927D01*
X99005711Y-54087960D01*
X99000788Y-54024264D01*
X98993394Y-53977642D01*
X98982623Y-53944896D01*
X98967572Y-53922829D01*
X98947333Y-53908244D01*
X98921003Y-53897943D01*
X98902269Y-53892587D01*
X98832128Y-53885887D01*
X98767953Y-53903430D01*
X98717478Y-53940821D01*
X98707052Y-53952545D01*
X98699080Y-53965056D01*
X98693177Y-53981938D01*
X98688957Y-54006776D01*
X98686036Y-54043154D01*
X98684028Y-54094656D01*
X98682547Y-54164867D01*
X98681207Y-54257370D01*
X98680894Y-54281046D01*
X98676862Y-54586666D01*
X98599740Y-54586666D01*
X98556501Y-54585237D01*
X98524798Y-54581543D01*
X98513725Y-54577777D01*
X98511521Y-54562717D01*
X98509516Y-54524298D01*
X98507780Y-54465828D01*
X98506383Y-54390617D01*
X98505395Y-54301971D01*
X98504886Y-54203199D01*
X98504832Y-54157777D01*
X98504832Y-53746666D01*
X98591544Y-53746666D01*
X98640182Y-53748001D01*
X98667215Y-53752772D01*
X98677621Y-53762127D01*
X98678256Y-53766666D01*
X98681005Y-53782875D01*
X98692879Y-53783793D01*
X98719314Y-53769056D01*
X98728150Y-53763333D01*
X98757471Y-53750089D01*
X98799336Y-53742675D01*
X98860181Y-53740046D01*
X98872075Y-53740000D01*
X98929323Y-53741064D01*
G37*
G36*
X99555573Y-54163333D02*
G01*
X99552048Y-54580000D01*
X99478146Y-54583915D01*
X99435756Y-54584491D01*
X99404832Y-54581831D01*
X99394769Y-54578359D01*
X99392421Y-54563150D01*
X99390284Y-54524589D01*
X99388435Y-54465989D01*
X99386946Y-54390666D01*
X99385893Y-54301934D01*
X99385351Y-54203105D01*
X99385294Y-54157777D01*
X99385294Y-53746666D01*
X99472196Y-53746666D01*
X99559098Y-53746666D01*
X99555573Y-54163333D01*
G37*
G36*
X100345213Y-53747358D02*
G01*
X100371604Y-53750383D01*
X100381417Y-53757177D01*
X100379696Y-53769171D01*
X100379371Y-53770000D01*
X100372527Y-53788064D01*
X100357690Y-53827823D01*
X100336094Y-53885949D01*
X100308972Y-53959116D01*
X100277559Y-54043996D01*
X100243088Y-54137264D01*
X100232231Y-54166666D01*
X100197084Y-54261817D01*
X100164631Y-54349588D01*
X100136104Y-54426653D01*
X100112737Y-54489686D01*
X100095760Y-54535360D01*
X100086408Y-54560349D01*
X100085265Y-54563333D01*
X100072170Y-54578332D01*
X100043934Y-54585379D01*
X100010532Y-54586666D01*
X99970264Y-54585095D01*
X99948048Y-54577752D01*
X99935319Y-54560696D01*
X99930861Y-54550000D01*
X99922765Y-54528332D01*
X99906809Y-54485142D01*
X99884287Y-54423956D01*
X99856497Y-54348299D01*
X99824734Y-54261697D01*
X99790294Y-54167674D01*
X99782605Y-54146666D01*
X99748208Y-54052695D01*
X99716629Y-53966449D01*
X99689075Y-53891225D01*
X99666754Y-53830319D01*
X99650873Y-53787027D01*
X99642641Y-53764646D01*
X99641912Y-53762685D01*
X99644469Y-53753431D01*
X99663768Y-53748937D01*
X99703901Y-53748551D01*
X99725611Y-53749352D01*
X99815813Y-53753333D01*
X99912842Y-54033333D01*
X99944557Y-54124217D01*
X99969005Y-54192363D01*
X99987336Y-54240339D01*
X100000700Y-54270712D01*
X100010246Y-54286049D01*
X100017124Y-54288918D01*
X100022484Y-54281887D01*
X100023284Y-54280000D01*
X100031620Y-54257307D01*
X100046892Y-54213847D01*
X100067543Y-54154132D01*
X100092011Y-54082670D01*
X100118740Y-54003975D01*
X100121210Y-53996669D01*
X100205724Y-53746672D01*
X100297199Y-53746669D01*
X100345213Y-53747358D01*
G37*
G36*
X100824720Y-53740099D02*
G01*
X100909917Y-53766530D01*
X100981264Y-53814644D01*
X101037534Y-53883228D01*
X101077497Y-53971066D01*
X101099928Y-54076945D01*
X101102812Y-54108370D01*
X101110010Y-54213333D01*
X100839812Y-54213333D01*
X100569614Y-54213333D01*
X100578777Y-54263333D01*
X100603362Y-54337079D01*
X100645506Y-54392384D01*
X100703053Y-54427321D01*
X100773848Y-54439964D01*
X100776452Y-54439979D01*
X100842122Y-54430181D01*
X100907508Y-54404196D01*
X100955241Y-54371025D01*
X100984743Y-54343324D01*
X101038800Y-54386116D01*
X101069495Y-54412343D01*
X101089081Y-54432783D01*
X101092857Y-54439739D01*
X101082829Y-54456055D01*
X101057113Y-54481564D01*
X101022261Y-54510724D01*
X100984824Y-54537995D01*
X100955938Y-54555515D01*
X100913003Y-54569695D01*
X100852858Y-54579113D01*
X100784608Y-54583400D01*
X100717360Y-54582191D01*
X100660219Y-54575117D01*
X100635923Y-54568418D01*
X100556245Y-54526051D01*
X100493673Y-54463922D01*
X100456891Y-54403444D01*
X100440997Y-54369316D01*
X100430321Y-54339217D01*
X100423832Y-54306503D01*
X100420501Y-54264526D01*
X100419299Y-54206641D01*
X100419170Y-54160000D01*
X100419697Y-54087615D01*
X100421201Y-54051300D01*
X100572453Y-54051300D01*
X100578475Y-54066093D01*
X100599033Y-54074660D01*
X100637409Y-54078701D01*
X100696888Y-54079918D01*
X100752678Y-54080000D01*
X100932773Y-54080000D01*
X100932723Y-54043333D01*
X100925654Y-54006800D01*
X100908513Y-53967159D01*
X100906632Y-53963980D01*
X100863688Y-53915750D01*
X100810275Y-53888374D01*
X100751830Y-53881298D01*
X100693790Y-53893965D01*
X100641590Y-53925820D01*
X100600669Y-53976308D01*
X100590875Y-53996238D01*
X100577681Y-54028582D01*
X100572453Y-54051300D01*
X100421201Y-54051300D01*
X100421855Y-54035526D01*
X100426510Y-53997373D01*
X100434529Y-53966795D01*
X100446776Y-53937433D01*
X100450529Y-53929682D01*
X100501919Y-53847669D01*
X100564707Y-53789125D01*
X100641174Y-53752457D01*
X100726901Y-53736566D01*
X100824720Y-53740099D01*
G37*
G36*
X101747883Y-53752195D02*
G01*
X101772877Y-53763333D01*
X101821179Y-53791214D01*
X101845153Y-53815778D01*
X101845919Y-53841721D01*
X101824598Y-53873740D01*
X101804327Y-53895177D01*
X101748963Y-53950512D01*
X101713044Y-53922273D01*
X101655642Y-53891760D01*
X101595940Y-53884861D01*
X101539564Y-53900289D01*
X101492142Y-53936759D01*
X101464987Y-53978988D01*
X101456497Y-54000687D01*
X101450161Y-54025952D01*
X101445668Y-54058866D01*
X101442713Y-54103511D01*
X101440985Y-54163969D01*
X101440177Y-54244322D01*
X101439999Y-54310000D01*
X101439706Y-54586666D01*
X101359664Y-54586666D01*
X101279622Y-54586666D01*
X101279622Y-54166666D01*
X101279622Y-53746666D01*
X101359664Y-53746666D01*
X101404600Y-53747744D01*
X101428883Y-53752215D01*
X101438493Y-53761937D01*
X101439706Y-53771519D01*
X101441524Y-53785044D01*
X101450886Y-53787702D01*
X101473652Y-53778868D01*
X101501998Y-53764853D01*
X101581976Y-53738151D01*
X101666634Y-53733917D01*
X101747883Y-53752195D01*
G37*
G36*
X102277824Y-53740314D02*
G01*
X102364932Y-53758989D01*
X102442917Y-53791082D01*
X102486477Y-53819642D01*
X102500244Y-53832398D01*
X102502018Y-53844672D01*
X102489464Y-53862754D01*
X102460250Y-53892932D01*
X102458718Y-53894463D01*
X102404724Y-53948429D01*
X102352441Y-53917548D01*
X102317557Y-53900392D01*
X102279705Y-53890854D01*
X102229375Y-53887031D01*
X102198208Y-53886666D01*
X102128050Y-53890585D01*
X102080486Y-53903555D01*
X102052428Y-53927399D01*
X102040787Y-53963938D01*
X102040021Y-53980000D01*
X102044464Y-54014553D01*
X102060282Y-54039808D01*
X102091205Y-54057849D01*
X102140965Y-54070759D01*
X102213292Y-54080620D01*
X102221856Y-54081514D01*
X102323313Y-54096286D01*
X102401313Y-54118514D01*
X102458485Y-54150055D01*
X102497456Y-54192766D01*
X102520856Y-54248503D01*
X102529664Y-54298940D01*
X102525772Y-54379125D01*
X102498005Y-54449881D01*
X102448265Y-54508664D01*
X102378454Y-54552927D01*
X102325620Y-54572048D01*
X102271827Y-54581216D01*
X102203118Y-54585074D01*
X102130172Y-54583760D01*
X102063670Y-54577410D01*
X102020010Y-54568102D01*
X101950234Y-54541799D01*
X101896276Y-54510071D01*
X101863122Y-54482409D01*
X101826296Y-54448076D01*
X101875834Y-54397371D01*
X101912378Y-54363273D01*
X101938381Y-54349152D01*
X101959100Y-54353493D01*
X101975021Y-54368779D01*
X102015960Y-54401740D01*
X102071517Y-54424339D01*
X102135547Y-54436585D01*
X102201904Y-54438484D01*
X102264441Y-54430043D01*
X102317012Y-54411268D01*
X102353472Y-54382168D01*
X102361852Y-54368342D01*
X102370540Y-54325946D01*
X102362067Y-54285110D01*
X102338870Y-54256379D01*
X102335546Y-54254423D01*
X102312215Y-54247507D01*
X102269448Y-54239581D01*
X102214399Y-54231862D01*
X102179995Y-54227992D01*
X102077239Y-54212196D01*
X101998169Y-54187359D01*
X101940870Y-54151962D01*
X101903430Y-54104484D01*
X101883935Y-54043406D01*
X101879937Y-53989545D01*
X101887410Y-53918404D01*
X101912555Y-53860938D01*
X101959464Y-53808157D01*
X101964521Y-53803655D01*
X102024942Y-53766726D01*
X102101511Y-53743989D01*
X102187911Y-53735249D01*
X102277824Y-53740314D01*
G37*
G36*
X102853781Y-54166666D02*
G01*
X102853781Y-54586666D01*
X102773739Y-54586666D01*
X102693697Y-54586666D01*
X102693697Y-54166666D01*
X102693697Y-53746666D01*
X102773739Y-53746666D01*
X102853781Y-53746666D01*
X102853781Y-54166666D01*
G37*
G36*
X103253991Y-53620000D02*
G01*
X103253991Y-53746666D01*
X103340703Y-53746666D01*
X103427416Y-53746666D01*
X103427416Y-53813333D01*
X103427416Y-53880000D01*
X103340703Y-53880000D01*
X103253991Y-53880000D01*
X103253991Y-54130784D01*
X103254622Y-54229934D01*
X103256607Y-54304690D01*
X103260082Y-54357301D01*
X103265186Y-54390010D01*
X103270667Y-54403539D01*
X103298021Y-54420061D01*
X103347024Y-54428938D01*
X103354044Y-54429420D01*
X103420745Y-54433333D01*
X103420745Y-54506666D01*
X103420745Y-54580000D01*
X103360714Y-54582270D01*
X103312269Y-54581271D01*
X103266830Y-54575961D01*
X103257660Y-54574022D01*
X103187730Y-54544945D01*
X103133912Y-54497368D01*
X103124109Y-54483789D01*
X103115974Y-54468012D01*
X103109644Y-54446098D01*
X103104766Y-54414347D01*
X103100987Y-54369056D01*
X103097953Y-54306523D01*
X103095311Y-54223048D01*
X103093907Y-54167308D01*
X103087237Y-53886666D01*
X103037211Y-53882528D01*
X102987185Y-53878390D01*
X102987185Y-53812528D01*
X102987185Y-53746666D01*
X103040546Y-53746666D01*
X103093907Y-53746666D01*
X103093907Y-53620000D01*
X103093907Y-53493333D01*
X103173949Y-53493333D01*
X103253991Y-53493333D01*
X103253991Y-53620000D01*
G37*
G36*
X105012181Y-53738498D02*
G01*
X105093177Y-53760772D01*
X105166121Y-53802983D01*
X105213358Y-53848866D01*
X105248472Y-53899298D01*
X105272613Y-53954822D01*
X105287320Y-54021323D01*
X105294128Y-54104686D01*
X105295063Y-54161875D01*
X105293680Y-54237808D01*
X105288858Y-54295180D01*
X105279584Y-54341988D01*
X105267585Y-54379067D01*
X105230056Y-54448475D01*
X105175684Y-54509138D01*
X105111504Y-54554192D01*
X105070854Y-54570986D01*
X105011679Y-54581806D01*
X104941090Y-54584925D01*
X104872808Y-54580258D01*
X104834291Y-54572475D01*
X104788199Y-54550089D01*
X104737666Y-54511778D01*
X104691076Y-54465001D01*
X104656814Y-54417216D01*
X104654183Y-54412269D01*
X104628809Y-54341693D01*
X104613580Y-54254740D01*
X104612163Y-54228206D01*
X104777508Y-54228206D01*
X104784211Y-54291355D01*
X104799431Y-54338699D01*
X104824913Y-54375432D01*
X104862399Y-54406744D01*
X104866810Y-54409734D01*
X104926432Y-54435646D01*
X104986981Y-54435020D01*
X105037536Y-54413920D01*
X105076781Y-54385091D01*
X105103468Y-54351197D01*
X105120156Y-54306336D01*
X105129401Y-54244607D01*
X105132541Y-54194731D01*
X105132890Y-54101207D01*
X105124113Y-54029295D01*
X105105294Y-53975232D01*
X105075517Y-53935256D01*
X105067632Y-53928170D01*
X105008907Y-53893343D01*
X104947624Y-53884623D01*
X104886288Y-53901958D01*
X104844134Y-53926598D01*
X104814648Y-53955072D01*
X104795470Y-53992639D01*
X104784239Y-54044556D01*
X104778593Y-54116080D01*
X104777578Y-54144060D01*
X104777508Y-54228206D01*
X104612163Y-54228206D01*
X104608501Y-54159636D01*
X104613577Y-54064605D01*
X104628814Y-53977874D01*
X104653858Y-53908368D01*
X104703355Y-53838591D01*
X104768720Y-53786207D01*
X104845168Y-53751724D01*
X104927916Y-53735652D01*
X105012181Y-53738498D01*
G37*
G36*
X105828676Y-53458542D02*
G01*
X105828676Y-53533333D01*
X105770712Y-53533333D01*
X105722839Y-53538509D01*
X105691940Y-53556664D01*
X105674949Y-53591732D01*
X105668797Y-53647652D01*
X105668592Y-53664383D01*
X105668592Y-53746666D01*
X105748634Y-53746666D01*
X105828676Y-53746666D01*
X105828676Y-53813333D01*
X105828676Y-53880000D01*
X105748634Y-53880000D01*
X105668592Y-53880000D01*
X105668592Y-54233333D01*
X105668592Y-54586666D01*
X105588772Y-54586666D01*
X105508951Y-54586666D01*
X105505394Y-54236666D01*
X105501838Y-53886666D01*
X105451812Y-53882528D01*
X105401785Y-53878390D01*
X105401785Y-53812528D01*
X105401785Y-53746666D01*
X105455147Y-53746666D01*
X105508508Y-53746666D01*
X105508508Y-53645348D01*
X105514905Y-53555608D01*
X105535336Y-53487460D01*
X105571661Y-53438767D01*
X105625738Y-53407393D01*
X105699427Y-53391200D01*
X105731900Y-53388636D01*
X105828676Y-53383752D01*
X105828676Y-53458542D01*
G37*
G36*
X107083858Y-53799312D02*
G01*
X107111260Y-53899631D01*
X107136662Y-53991188D01*
X107159187Y-54070938D01*
X107177960Y-54135839D01*
X107192106Y-54182846D01*
X107200750Y-54208917D01*
X107202907Y-54213247D01*
X107207566Y-54200805D01*
X107217572Y-54165490D01*
X107232135Y-54110377D01*
X107250465Y-54038543D01*
X107271770Y-53953067D01*
X107295262Y-53857025D01*
X107309024Y-53800000D01*
X107408295Y-53386666D01*
X107499847Y-53386666D01*
X107548076Y-53387413D01*
X107574819Y-53390603D01*
X107585252Y-53397663D01*
X107584557Y-53410000D01*
X107579850Y-53427756D01*
X107569350Y-53468429D01*
X107553805Y-53529081D01*
X107533966Y-53606776D01*
X107510583Y-53698578D01*
X107484403Y-53801550D01*
X107456178Y-53912756D01*
X107449270Y-53940000D01*
X107420034Y-54055100D01*
X107392089Y-54164688D01*
X107366287Y-54265461D01*
X107343476Y-54354118D01*
X107324508Y-54427354D01*
X107310231Y-54481869D01*
X107301496Y-54514360D01*
X107300669Y-54517298D01*
X107280512Y-54587930D01*
X107206283Y-54583965D01*
X107132054Y-54580000D01*
X107017500Y-54163947D01*
X106989662Y-54064251D01*
X106963736Y-53974095D01*
X106940611Y-53896358D01*
X106921173Y-53833918D01*
X106906310Y-53789656D01*
X106896911Y-53766450D01*
X106894189Y-53763947D01*
X106888551Y-53780401D01*
X106876790Y-53819281D01*
X106859854Y-53877298D01*
X106838689Y-53951165D01*
X106814242Y-54037594D01*
X106787459Y-54133295D01*
X106776603Y-54172358D01*
X106749269Y-54270479D01*
X106724009Y-54360341D01*
X106701749Y-54438712D01*
X106683417Y-54502359D01*
X106669938Y-54548050D01*
X106662240Y-54572551D01*
X106660989Y-54575691D01*
X106645896Y-54581313D01*
X106614727Y-54584993D01*
X106576527Y-54586553D01*
X106540338Y-54585812D01*
X106515206Y-54582593D01*
X106509033Y-54578696D01*
X106505818Y-54564521D01*
X106496620Y-54527169D01*
X106482110Y-54469288D01*
X106462958Y-54393524D01*
X106439835Y-54302526D01*
X106413412Y-54198940D01*
X106384359Y-54085414D01*
X106362290Y-53999401D01*
X106331695Y-53879829D01*
X106303261Y-53767822D01*
X106277663Y-53666104D01*
X106255577Y-53577401D01*
X106237677Y-53504436D01*
X106224640Y-53449934D01*
X106217140Y-53416620D01*
X106215546Y-53407371D01*
X106220845Y-53395777D01*
X106240214Y-53389359D01*
X106278866Y-53386854D01*
X106301095Y-53386666D01*
X106386644Y-53386666D01*
X106490482Y-53810000D01*
X106515471Y-53910725D01*
X106538583Y-54001688D01*
X106559052Y-54080038D01*
X106576109Y-54142925D01*
X106588989Y-54187503D01*
X106596923Y-54210920D01*
X106599094Y-54213333D01*
X106603696Y-54195903D01*
X106614456Y-54156052D01*
X106630479Y-54097075D01*
X106650866Y-54022268D01*
X106674721Y-53934926D01*
X106701144Y-53838346D01*
X106713474Y-53793333D01*
X106823081Y-53393333D01*
X106897368Y-53389398D01*
X106971655Y-53385463D01*
X107083858Y-53799312D01*
G37*
G36*
X107843067Y-54166666D02*
G01*
X107843067Y-54586666D01*
X107763025Y-54586666D01*
X107682983Y-54586666D01*
X107682983Y-54166666D01*
X107682983Y-53746666D01*
X107763025Y-53746666D01*
X107843067Y-53746666D01*
X107843067Y-54166666D01*
G37*
G36*
X108481003Y-53741064D02*
G01*
X108521129Y-53745726D01*
X108553657Y-53756191D01*
X108588108Y-53774662D01*
X108597051Y-53780118D01*
X108655030Y-53826543D01*
X108696118Y-53886380D01*
X108706908Y-53908001D01*
X108715141Y-53928142D01*
X108721161Y-53950660D01*
X108725316Y-53979411D01*
X108727951Y-54018249D01*
X108729412Y-54071032D01*
X108730045Y-54141615D01*
X108730196Y-54233854D01*
X108730199Y-54266261D01*
X108730199Y-54580000D01*
X108650157Y-54580000D01*
X108570115Y-54580000D01*
X108563445Y-54279362D01*
X108560749Y-54171927D01*
X108557392Y-54087960D01*
X108552469Y-54024264D01*
X108545074Y-53977642D01*
X108534304Y-53944896D01*
X108519252Y-53922829D01*
X108499014Y-53908244D01*
X108472684Y-53897943D01*
X108453950Y-53892587D01*
X108383809Y-53885887D01*
X108319634Y-53903430D01*
X108269159Y-53940821D01*
X108258732Y-53952545D01*
X108250760Y-53965056D01*
X108244857Y-53981938D01*
X108240638Y-54006776D01*
X108237717Y-54043154D01*
X108235708Y-54094656D01*
X108234227Y-54164867D01*
X108232888Y-54257370D01*
X108232575Y-54281046D01*
X108228542Y-54586666D01*
X108151421Y-54586666D01*
X108108182Y-54585237D01*
X108076478Y-54581543D01*
X108065406Y-54577777D01*
X108063202Y-54562717D01*
X108061197Y-54524298D01*
X108059461Y-54465828D01*
X108058064Y-54390617D01*
X108057076Y-54301971D01*
X108056566Y-54203199D01*
X108056512Y-54157777D01*
X108056512Y-53746666D01*
X108143224Y-53746666D01*
X108191863Y-53748001D01*
X108218896Y-53752772D01*
X108229302Y-53762127D01*
X108229937Y-53766666D01*
X108232686Y-53782875D01*
X108244559Y-53783793D01*
X108270995Y-53769056D01*
X108279831Y-53763333D01*
X108309151Y-53750089D01*
X108351017Y-53742675D01*
X108411861Y-53740046D01*
X108423756Y-53740000D01*
X108481003Y-53741064D01*
G37*
G36*
X109577311Y-53986666D02*
G01*
X109577311Y-54586666D01*
X109497269Y-54586666D01*
X109452563Y-54585693D01*
X109428407Y-54581419D01*
X109418698Y-54571811D01*
X109417227Y-54560000D01*
X109415606Y-54538292D01*
X109413377Y-54533333D01*
X109400294Y-54538812D01*
X109371825Y-54552621D01*
X109357195Y-54560000D01*
X109301940Y-54577884D01*
X109233014Y-54585842D01*
X109161594Y-54583652D01*
X109098860Y-54571095D01*
X109083718Y-54565409D01*
X109017954Y-54524628D01*
X108967362Y-54465106D01*
X108931229Y-54385499D01*
X108908844Y-54284464D01*
X108902399Y-54222965D01*
X108902084Y-54189272D01*
X109072829Y-54189272D01*
X109077586Y-54269097D01*
X109087235Y-54327450D01*
X109103755Y-54369367D01*
X109129126Y-54399884D01*
X109165046Y-54423885D01*
X109210994Y-54436062D01*
X109265703Y-54433431D01*
X109316947Y-54417650D01*
X109344298Y-54399583D01*
X109375782Y-54358888D01*
X109396375Y-54304108D01*
X109407199Y-54231118D01*
X109409586Y-54160000D01*
X109404488Y-54062858D01*
X109388524Y-53988830D01*
X109360685Y-53936252D01*
X109319965Y-53903457D01*
X109265354Y-53888781D01*
X109244767Y-53887639D01*
X109184258Y-53893552D01*
X109138032Y-53914657D01*
X109104935Y-53952974D01*
X109083816Y-54010526D01*
X109073522Y-54089336D01*
X109072829Y-54189272D01*
X108902084Y-54189272D01*
X108901242Y-54099173D01*
X108916366Y-53990204D01*
X108947115Y-53898164D01*
X108992832Y-53825160D01*
X109039909Y-53781759D01*
X109106209Y-53749764D01*
X109184645Y-53734600D01*
X109266103Y-53736972D01*
X109341474Y-53757582D01*
X109343277Y-53758371D01*
X109380150Y-53774289D01*
X109405591Y-53784553D01*
X109412252Y-53786666D01*
X109413983Y-53774101D01*
X109415452Y-53739479D01*
X109416545Y-53687408D01*
X109417146Y-53622498D01*
X109417227Y-53586666D01*
X109417227Y-53386666D01*
X109497269Y-53386666D01*
X109577311Y-53386666D01*
X109577311Y-53986666D01*
G37*
G36*
X110145464Y-53741250D02*
G01*
X110195099Y-53745458D01*
X110234843Y-53754018D01*
X110273064Y-53768226D01*
X110280593Y-53771558D01*
X110333065Y-53797062D01*
X110362159Y-53818078D01*
X110369690Y-53838896D01*
X110357475Y-53863807D01*
X110331793Y-53892561D01*
X110281602Y-53943934D01*
X110208424Y-53910450D01*
X110156227Y-53889939D01*
X110109684Y-53881716D01*
X110054370Y-53882812D01*
X110005209Y-53888353D01*
X109973425Y-53898492D01*
X109949741Y-53916726D01*
X109942157Y-53925073D01*
X109920902Y-53956686D01*
X109910926Y-53985144D01*
X109910819Y-53987410D01*
X109922938Y-54022223D01*
X109954460Y-54051825D01*
X109998131Y-54069865D01*
X110006792Y-54071404D01*
X110041009Y-54076053D01*
X110091900Y-54082756D01*
X110149669Y-54090226D01*
X110162192Y-54091828D01*
X110254141Y-54109890D01*
X110322860Y-54138662D01*
X110370246Y-54179894D01*
X110398200Y-54235336D01*
X110408621Y-54306739D01*
X110408789Y-54319152D01*
X110399010Y-54398894D01*
X110368558Y-54464320D01*
X110315519Y-54518411D01*
X110257668Y-54554428D01*
X110216224Y-54567910D01*
X110156438Y-54577473D01*
X110086401Y-54582811D01*
X110014206Y-54583612D01*
X109947946Y-54579570D01*
X109895712Y-54570375D01*
X109889425Y-54568479D01*
X109853254Y-54553352D01*
X109810958Y-54530918D01*
X109769190Y-54505387D01*
X109734599Y-54480966D01*
X109713837Y-54461865D01*
X109710714Y-54455398D01*
X109719523Y-54441266D01*
X109742191Y-54415517D01*
X109762909Y-54394471D01*
X109815104Y-54343531D01*
X109859626Y-54376590D01*
X109928958Y-54416298D01*
X110006653Y-54436352D01*
X110067543Y-54440000D01*
X110137941Y-54432596D01*
X110193554Y-54411980D01*
X110231436Y-54380542D01*
X110248636Y-54340675D01*
X110243247Y-54297469D01*
X110230418Y-54274564D01*
X110208503Y-54257596D01*
X110173023Y-54244924D01*
X110119503Y-54234906D01*
X110049740Y-54226547D01*
X109959284Y-54213547D01*
X109890780Y-54194421D01*
X109839793Y-54166978D01*
X109801889Y-54129030D01*
X109779879Y-54093333D01*
X109755946Y-54020232D01*
X109756949Y-53946970D01*
X109781514Y-53877812D01*
X109828265Y-53817023D01*
X109881964Y-53776548D01*
X109913334Y-53759522D01*
X109942246Y-53748779D01*
X109976287Y-53742907D01*
X110023046Y-53740490D01*
X110077573Y-53740097D01*
X110145464Y-53741250D01*
G37*
G36*
X110905503Y-53736705D02*
G01*
X110999367Y-53755472D01*
X111076903Y-53795162D01*
X111137831Y-53855398D01*
X111181869Y-53935799D01*
X111208740Y-54035988D01*
X111218162Y-54155585D01*
X111218172Y-54160000D01*
X111209146Y-54279418D01*
X111182472Y-54380388D01*
X111138751Y-54462165D01*
X111078588Y-54524010D01*
X111002586Y-54565178D01*
X110911348Y-54584929D01*
X110871323Y-54586666D01*
X110811103Y-54583847D01*
X110763196Y-54573253D01*
X110713632Y-54551676D01*
X110709427Y-54549510D01*
X110637990Y-54499748D01*
X110584509Y-54433368D01*
X110548507Y-54349216D01*
X110529506Y-54246139D01*
X110527028Y-54122983D01*
X110527313Y-54116949D01*
X110691944Y-54116949D01*
X110692251Y-54189666D01*
X110698200Y-54259020D01*
X110709554Y-54316146D01*
X110718432Y-54340000D01*
X110757288Y-54391695D01*
X110810260Y-54424472D01*
X110871119Y-54436665D01*
X110933635Y-54426605D01*
X110971606Y-54407741D01*
X111004889Y-54379530D01*
X111027894Y-54342723D01*
X111042126Y-54292593D01*
X111049090Y-54224410D01*
X111050449Y-54160000D01*
X111045941Y-54064353D01*
X111031467Y-53991798D01*
X111005601Y-53940161D01*
X110966918Y-53907270D01*
X110913991Y-53890953D01*
X110872077Y-53888205D01*
X110804479Y-53899446D01*
X110750962Y-53931800D01*
X110714608Y-53983208D01*
X110709212Y-53996891D01*
X110697519Y-54049735D01*
X110691944Y-54116949D01*
X110527313Y-54116949D01*
X110527610Y-54110671D01*
X110533092Y-54040695D01*
X110542383Y-53987642D01*
X110557564Y-53941824D01*
X110569601Y-53915335D01*
X110620804Y-53838595D01*
X110688355Y-53782357D01*
X110770451Y-53747581D01*
X110865288Y-53735226D01*
X110905503Y-53736705D01*
G37*
G36*
X111813104Y-53740808D02*
G01*
X111882711Y-53760385D01*
X111938554Y-53793698D01*
X111949733Y-53804371D01*
X111978276Y-53834737D01*
X111920307Y-53891599D01*
X111862339Y-53948461D01*
X111810397Y-53913111D01*
X111752416Y-53886987D01*
X111694001Y-53887487D01*
X111637167Y-53912909D01*
X111612878Y-53930153D01*
X111594124Y-53948503D01*
X111580123Y-53971551D01*
X111570095Y-54002890D01*
X111563259Y-54046115D01*
X111558834Y-54104818D01*
X111556038Y-54182593D01*
X111554090Y-54283033D01*
X111553888Y-54296044D01*
X111549425Y-54586666D01*
X111470511Y-54586666D01*
X111391596Y-54586666D01*
X111391596Y-54166666D01*
X111391596Y-53746666D01*
X111471638Y-53746666D01*
X111516392Y-53747663D01*
X111540575Y-53751981D01*
X111550266Y-53761611D01*
X111551680Y-53772883D01*
X111552947Y-53788820D01*
X111561113Y-53791491D01*
X111582728Y-53780719D01*
X111598266Y-53771628D01*
X111663225Y-53745717D01*
X111737390Y-53735681D01*
X111813104Y-53740808D01*
G37*
G36*
X99558718Y-53473333D02*
G01*
X99558718Y-53560000D01*
X99472006Y-53560000D01*
X99385294Y-53560000D01*
X99385294Y-53473333D01*
X99385294Y-53386666D01*
X99472006Y-53386666D01*
X99558718Y-53386666D01*
X99558718Y-53473333D01*
G37*
G36*
X102853781Y-53473333D02*
G01*
X102853781Y-53560000D01*
X102767069Y-53560000D01*
X102680357Y-53560000D01*
X102680357Y-53473333D01*
X102680357Y-53386666D01*
X102767069Y-53386666D01*
X102853781Y-53386666D01*
X102853781Y-53473333D01*
G37*
G36*
X107856407Y-53473333D02*
G01*
X107856407Y-53560000D01*
X107763025Y-53560000D01*
X107669643Y-53560000D01*
X107669643Y-53473333D01*
X107669643Y-53386666D01*
X107763025Y-53386666D01*
X107856407Y-53386666D01*
X107856407Y-53473333D01*
G37*
G36*
X101694169Y-50109080D02*
G01*
X101791841Y-50117148D01*
X101871084Y-50134153D01*
X101939342Y-50162528D01*
X102004062Y-50204711D01*
X102016675Y-50214569D01*
X102066701Y-50254589D01*
X102066701Y-50187294D01*
X102066701Y-50120000D01*
X102220115Y-50120000D01*
X102373529Y-50120000D01*
X102373428Y-51016666D01*
X102373196Y-51200975D01*
X102372556Y-51370127D01*
X102371531Y-51522611D01*
X102370140Y-51656910D01*
X102368406Y-51771513D01*
X102366350Y-51864904D01*
X102363992Y-51935571D01*
X102361355Y-51981999D01*
X102359638Y-51997648D01*
X102325711Y-52128758D01*
X102269513Y-52248011D01*
X102193081Y-52352888D01*
X102098451Y-52440869D01*
X101987661Y-52509435D01*
X101923814Y-52536774D01*
X101866740Y-52551531D01*
X101790971Y-52562363D01*
X101704239Y-52569019D01*
X101614275Y-52571247D01*
X101528810Y-52568796D01*
X101455576Y-52561415D01*
X101416095Y-52553281D01*
X101297262Y-52507202D01*
X101179134Y-52435082D01*
X101097429Y-52369703D01*
X101051096Y-52329044D01*
X101148350Y-52231188D01*
X101189563Y-52190549D01*
X101223983Y-52158157D01*
X101247263Y-52138011D01*
X101254680Y-52133333D01*
X101269064Y-52141262D01*
X101296723Y-52161736D01*
X101321715Y-52182042D01*
X101407637Y-52242743D01*
X101495777Y-52280013D01*
X101593463Y-52296593D01*
X101631776Y-52298020D01*
X101742948Y-52290380D01*
X101836271Y-52264822D01*
X101912505Y-52220490D01*
X101972414Y-52156526D01*
X102016758Y-52072076D01*
X102046301Y-51966282D01*
X102061803Y-51838290D01*
X102063138Y-51813333D01*
X102069983Y-51660000D01*
X102031656Y-51695710D01*
X101955990Y-51749693D01*
X101862401Y-51789976D01*
X101756643Y-51815155D01*
X101644468Y-51823828D01*
X101539269Y-51815824D01*
X101416978Y-51785911D01*
X101311437Y-51736364D01*
X101221885Y-51666444D01*
X101147564Y-51575412D01*
X101087714Y-51462532D01*
X101043281Y-51333333D01*
X101034892Y-51297943D01*
X101028649Y-51258426D01*
X101024268Y-51210358D01*
X101021470Y-51149316D01*
X101019970Y-51070877D01*
X101019488Y-50970616D01*
X101019485Y-50960000D01*
X101320106Y-50960000D01*
X101325489Y-51094061D01*
X101341210Y-51212740D01*
X101366628Y-51313558D01*
X101401102Y-51394039D01*
X101443991Y-51451705D01*
X101448509Y-51455933D01*
X101512367Y-51497261D01*
X101591498Y-51523606D01*
X101678639Y-51534262D01*
X101766528Y-51528523D01*
X101847902Y-51505684D01*
X101867474Y-51496666D01*
X101927849Y-51456485D01*
X101975767Y-51402153D01*
X102012293Y-51331201D01*
X102038495Y-51241161D01*
X102055437Y-51129566D01*
X102061860Y-51046666D01*
X102063968Y-50907605D01*
X102054682Y-50781117D01*
X102034596Y-50670046D01*
X102004301Y-50577233D01*
X101964391Y-50505523D01*
X101944096Y-50481550D01*
X101902110Y-50442600D01*
X101862073Y-50416881D01*
X101816630Y-50401818D01*
X101758426Y-50394837D01*
X101692126Y-50393333D01*
X101630925Y-50393962D01*
X101588510Y-50396945D01*
X101556996Y-50403925D01*
X101528497Y-50416543D01*
X101500106Y-50433333D01*
X101439719Y-50483150D01*
X101392265Y-50550182D01*
X101357199Y-50636020D01*
X101333979Y-50742255D01*
X101322059Y-50870476D01*
X101320106Y-50960000D01*
X101019485Y-50960000D01*
X101019887Y-50857479D01*
X101021279Y-50777192D01*
X101023945Y-50714716D01*
X101028166Y-50665625D01*
X101034224Y-50625498D01*
X101042400Y-50589910D01*
X101043281Y-50586666D01*
X101090137Y-50452300D01*
X101150690Y-50340750D01*
X101225020Y-50251903D01*
X101313206Y-50185642D01*
X101328702Y-50177079D01*
X101406571Y-50142072D01*
X101486379Y-50119927D01*
X101575646Y-50109245D01*
X101681896Y-50108625D01*
X101694169Y-50109080D01*
G37*
G36*
X113256250Y-50115429D02*
G01*
X113366897Y-50141743D01*
X113457703Y-50185645D01*
X113479359Y-50200916D01*
X113532720Y-50241629D01*
X113536786Y-50180814D01*
X113540852Y-50120000D01*
X113693535Y-50120000D01*
X113846218Y-50120000D01*
X113846021Y-51043333D01*
X113845954Y-51231338D01*
X113845750Y-51394726D01*
X113845274Y-51535546D01*
X113844393Y-51655847D01*
X113842972Y-51757680D01*
X113840879Y-51843094D01*
X113837977Y-51914138D01*
X113834135Y-51972861D01*
X113829217Y-52021314D01*
X113823089Y-52061545D01*
X113815618Y-52095605D01*
X113806670Y-52125541D01*
X113796111Y-52153405D01*
X113783806Y-52181245D01*
X113769675Y-52210999D01*
X113739560Y-52261526D01*
X113696055Y-52319287D01*
X113646430Y-52374636D01*
X113646274Y-52374794D01*
X113564176Y-52448379D01*
X113479817Y-52502994D01*
X113388120Y-52540520D01*
X113284009Y-52562833D01*
X113162408Y-52571813D01*
X113113032Y-52572141D01*
X113044288Y-52570125D01*
X112978669Y-52565605D01*
X112924691Y-52559306D01*
X112896558Y-52553736D01*
X112808681Y-52522863D01*
X112722945Y-52477906D01*
X112631872Y-52414841D01*
X112617232Y-52403528D01*
X112522999Y-52329835D01*
X112620646Y-52231584D01*
X112662084Y-52190830D01*
X112696910Y-52158330D01*
X112720731Y-52138081D01*
X112728613Y-52133333D01*
X112743500Y-52140963D01*
X112773122Y-52161075D01*
X112811376Y-52189496D01*
X112815659Y-52192804D01*
X112894395Y-52245808D01*
X112971157Y-52278419D01*
X113055868Y-52294116D01*
X113112500Y-52296840D01*
X113219660Y-52290352D01*
X113307914Y-52267033D01*
X113380340Y-52225162D01*
X113440017Y-52163018D01*
X113485360Y-52088352D01*
X113505209Y-52047190D01*
X113518640Y-52012636D01*
X113527175Y-51977294D01*
X113532335Y-51933765D01*
X113535644Y-51874655D01*
X113537075Y-51837094D01*
X113542769Y-51677485D01*
X113469314Y-51726231D01*
X113364157Y-51780508D01*
X113247815Y-51813111D01*
X113124963Y-51823805D01*
X113000279Y-51812357D01*
X112878440Y-51778534D01*
X112830317Y-51758108D01*
X112738403Y-51701886D01*
X112660989Y-51626132D01*
X112597098Y-51529510D01*
X112545755Y-51410679D01*
X112522708Y-51336091D01*
X112510275Y-51272846D01*
X112500947Y-51189467D01*
X112494775Y-51092312D01*
X112491814Y-50987738D01*
X112492088Y-50891737D01*
X112794878Y-50891737D01*
X112794891Y-51021414D01*
X112805592Y-51147277D01*
X112826441Y-51260906D01*
X112840933Y-51311814D01*
X112874887Y-51381498D01*
X112925791Y-51445170D01*
X112986201Y-51494294D01*
X113012447Y-51508457D01*
X113064207Y-51523551D01*
X113131698Y-51531696D01*
X113204791Y-51532525D01*
X113273363Y-51525670D01*
X113303544Y-51519038D01*
X113373757Y-51485986D01*
X113432939Y-51429564D01*
X113480196Y-51351070D01*
X113514640Y-51251799D01*
X113526866Y-51194270D01*
X113533595Y-51135299D01*
X113537087Y-51059481D01*
X113537567Y-50973404D01*
X113535264Y-50883657D01*
X113530404Y-50796829D01*
X113523215Y-50719510D01*
X113513924Y-50658287D01*
X113507485Y-50632181D01*
X113467190Y-50540514D01*
X113410463Y-50469727D01*
X113337973Y-50420319D01*
X113250392Y-50392790D01*
X113178243Y-50386796D01*
X113078522Y-50395833D01*
X112995340Y-50423900D01*
X112927761Y-50471952D01*
X112874849Y-50540945D01*
X112835670Y-50631833D01*
X112809287Y-50745571D01*
X112806089Y-50766666D01*
X112794878Y-50891737D01*
X112492088Y-50891737D01*
X112492115Y-50882104D01*
X112495731Y-50781766D01*
X112502716Y-50693083D01*
X112513121Y-50622411D01*
X112516667Y-50606666D01*
X112560443Y-50469818D01*
X112618022Y-50355641D01*
X112690034Y-50263620D01*
X112777112Y-50193234D01*
X112879885Y-50143965D01*
X112998986Y-50115296D01*
X113125623Y-50106666D01*
X113256250Y-50115429D01*
G37*
G36*
X106062319Y-50115436D02*
G01*
X106179193Y-50142715D01*
X106283145Y-50189963D01*
X106377972Y-50258637D01*
X106415305Y-50293535D01*
X106488383Y-50380889D01*
X106546106Y-50482816D01*
X106589304Y-50601611D01*
X106618804Y-50739567D01*
X106635437Y-50898980D01*
X106635700Y-50903333D01*
X106645385Y-51066666D01*
X106090287Y-51066666D01*
X105535189Y-51066666D01*
X105535347Y-51116666D01*
X105543360Y-51189786D01*
X105564799Y-51268716D01*
X105596404Y-51345864D01*
X105634916Y-51413640D01*
X105677076Y-51464454D01*
X105688995Y-51474536D01*
X105780555Y-51527996D01*
X105884324Y-51559769D01*
X105995661Y-51568844D01*
X106081650Y-51560089D01*
X106171411Y-51537092D01*
X106247408Y-51500875D01*
X106320024Y-51446175D01*
X106337361Y-51430404D01*
X106402025Y-51369950D01*
X106445524Y-51404353D01*
X106479119Y-51432149D01*
X106521794Y-51469078D01*
X106555724Y-51499392D01*
X106622426Y-51560028D01*
X106555724Y-51621990D01*
X106454316Y-51705845D01*
X106352487Y-51767173D01*
X106243119Y-51809256D01*
X106119090Y-51835380D01*
X106082982Y-51840030D01*
X106029618Y-51845794D01*
X105986135Y-51849845D01*
X105959546Y-51851556D01*
X105955409Y-51851471D01*
X105936128Y-51849181D01*
X105898579Y-51844776D01*
X105852312Y-51839377D01*
X105716566Y-51811501D01*
X105595539Y-51761565D01*
X105489934Y-51690200D01*
X105400454Y-51598037D01*
X105327802Y-51485706D01*
X105272681Y-51353838D01*
X105258601Y-51306666D01*
X105247602Y-51248361D01*
X105239738Y-51170206D01*
X105234997Y-51078679D01*
X105233371Y-50980260D01*
X105234847Y-50881429D01*
X105237544Y-50826666D01*
X105535189Y-50826666D01*
X105928729Y-50826666D01*
X106322269Y-50826666D01*
X106322269Y-50781404D01*
X106318313Y-50745349D01*
X106307971Y-50695243D01*
X106294294Y-50644737D01*
X106253436Y-50554146D01*
X106192896Y-50479057D01*
X106116249Y-50422123D01*
X106027067Y-50385998D01*
X105928924Y-50373333D01*
X105928729Y-50373333D01*
X105830704Y-50385946D01*
X105741674Y-50422066D01*
X105665098Y-50479111D01*
X105604437Y-50554502D01*
X105563152Y-50645656D01*
X105563034Y-50646037D01*
X105548710Y-50698877D01*
X105538661Y-50748350D01*
X105535189Y-50781404D01*
X105535189Y-50826666D01*
X105237544Y-50826666D01*
X105239416Y-50788663D01*
X105240108Y-50781404D01*
X105247066Y-50708442D01*
X105257787Y-50647246D01*
X105259690Y-50640000D01*
X105310526Y-50499491D01*
X105379010Y-50378966D01*
X105436922Y-50307050D01*
X105525047Y-50226010D01*
X105620334Y-50167140D01*
X105726603Y-50128883D01*
X105847673Y-50109685D01*
X105928729Y-50106666D01*
X106062319Y-50115436D01*
G37*
G36*
X107681098Y-50108784D02*
G01*
X107767992Y-50116590D01*
X107822590Y-50127105D01*
X107941380Y-50171310D01*
X108046434Y-50238069D01*
X108136643Y-50326440D01*
X108210897Y-50435488D01*
X108229652Y-50471592D01*
X108277171Y-50589584D01*
X108307462Y-50715328D01*
X108321766Y-50854845D01*
X108323319Y-50926104D01*
X108323319Y-51066666D01*
X107774539Y-51066666D01*
X107225759Y-51066666D01*
X107232800Y-51150000D01*
X107253227Y-51265066D01*
X107293324Y-51363208D01*
X107352550Y-51443578D01*
X107430370Y-51505327D01*
X107472028Y-51527140D01*
X107518245Y-51546416D01*
X107558693Y-51557871D01*
X107603543Y-51563379D01*
X107662964Y-51564813D01*
X107676313Y-51564782D01*
X107778844Y-51558051D01*
X107864891Y-51537065D01*
X107942056Y-51499042D01*
X108017940Y-51441201D01*
X108020742Y-51438716D01*
X108097167Y-51370635D01*
X108171927Y-51435317D01*
X108214324Y-51471794D01*
X108253609Y-51505243D01*
X108281275Y-51528423D01*
X108298495Y-51544463D01*
X108305091Y-51559233D01*
X108298823Y-51576412D01*
X108277454Y-51599680D01*
X108238741Y-51632717D01*
X108197918Y-51665375D01*
X108074282Y-51747820D01*
X107942407Y-51805393D01*
X107801329Y-51838349D01*
X107650089Y-51846945D01*
X107543686Y-51839332D01*
X107407500Y-51811163D01*
X107286157Y-51761076D01*
X107180440Y-51689814D01*
X107091130Y-51598120D01*
X107019009Y-51486739D01*
X106964858Y-51356414D01*
X106940430Y-51265412D01*
X106927685Y-51184038D01*
X106920029Y-51085416D01*
X106917453Y-50978140D01*
X106919950Y-50870807D01*
X106923329Y-50826666D01*
X107225706Y-50826666D01*
X107622636Y-50826666D01*
X108019565Y-50826666D01*
X108010359Y-50750000D01*
X107994377Y-50674719D01*
X107966391Y-50598195D01*
X107930638Y-50530370D01*
X107899009Y-50488756D01*
X107840777Y-50442264D01*
X107766774Y-50404832D01*
X107687580Y-50381336D01*
X107656178Y-50376872D01*
X107556378Y-50380143D01*
X107465077Y-50407060D01*
X107384986Y-50455240D01*
X107318816Y-50522296D01*
X107269280Y-50605845D01*
X107239090Y-50703500D01*
X107232725Y-50749299D01*
X107225706Y-50826666D01*
X106923329Y-50826666D01*
X106927513Y-50772012D01*
X106940134Y-50690351D01*
X106940944Y-50686666D01*
X106983721Y-50544411D01*
X107043867Y-50419903D01*
X107120334Y-50314357D01*
X107212072Y-50228991D01*
X107318033Y-50165021D01*
X107423313Y-50127105D01*
X107497927Y-50114042D01*
X107587466Y-50107935D01*
X107681098Y-50108784D01*
G37*
G36*
X98985084Y-49533333D02*
G01*
X98985084Y-49680000D01*
X98378098Y-49680000D01*
X97771113Y-49680000D01*
X97771113Y-50066666D01*
X97771113Y-50453333D01*
X98291386Y-50453333D01*
X98811659Y-50453333D01*
X98811659Y-50600000D01*
X98811659Y-50746666D01*
X98291386Y-50746666D01*
X97771113Y-50746666D01*
X97771113Y-51140000D01*
X97771113Y-51533333D01*
X98378098Y-51533333D01*
X98985084Y-51533333D01*
X98985084Y-51680000D01*
X98985084Y-51826666D01*
X98218014Y-51826666D01*
X97450945Y-51826666D01*
X97450945Y-50606666D01*
X97450945Y-49386666D01*
X98218014Y-49386666D01*
X98985084Y-49386666D01*
X98985084Y-49533333D01*
G37*
G36*
X100131467Y-50109016D02*
G01*
X100248514Y-50130572D01*
X100354824Y-50171073D01*
X100356404Y-50171877D01*
X100448648Y-50233278D01*
X100529572Y-50315707D01*
X100595226Y-50414560D01*
X100629667Y-50490225D01*
X100636359Y-50508861D01*
X100641953Y-50527812D01*
X100646566Y-50549600D01*
X100650318Y-50576750D01*
X100653328Y-50611785D01*
X100655715Y-50657230D01*
X100657596Y-50715608D01*
X100659093Y-50789443D01*
X100660322Y-50881258D01*
X100661403Y-50993578D01*
X100662455Y-51128927D01*
X100662941Y-51196666D01*
X100667405Y-51826666D01*
X100513272Y-51826666D01*
X100359138Y-51826666D01*
X100359138Y-51273989D01*
X100358762Y-51122280D01*
X100357659Y-50988725D01*
X100355864Y-50874869D01*
X100353414Y-50782258D01*
X100350344Y-50712440D01*
X100346692Y-50666959D01*
X100344646Y-50653772D01*
X100314998Y-50569831D01*
X100266539Y-50497029D01*
X100203664Y-50441394D01*
X100179327Y-50427225D01*
X100143227Y-50410668D01*
X100108668Y-50400514D01*
X100067225Y-50395292D01*
X100010468Y-50393530D01*
X99985892Y-50393458D01*
X99916848Y-50394993D01*
X99867526Y-50400087D01*
X99831091Y-50409718D01*
X99812185Y-50418285D01*
X99733426Y-50474420D01*
X99674005Y-50548671D01*
X99649028Y-50599313D01*
X99641853Y-50618000D01*
X99635909Y-50636745D01*
X99631059Y-50658200D01*
X99627162Y-50685021D01*
X99624078Y-50719860D01*
X99621669Y-50765372D01*
X99619794Y-50824209D01*
X99618315Y-50899026D01*
X99617092Y-50992476D01*
X99615984Y-51107214D01*
X99614854Y-51245892D01*
X99614822Y-51250000D01*
X99610303Y-51826666D01*
X99457777Y-51826666D01*
X99305252Y-51826666D01*
X99305252Y-50973333D01*
X99305252Y-50120000D01*
X99458666Y-50120000D01*
X99612079Y-50120000D01*
X99612079Y-50185765D01*
X99612079Y-50251530D01*
X99679787Y-50205990D01*
X99777842Y-50154891D01*
X99889937Y-50121488D01*
X100009876Y-50106093D01*
X100131467Y-50109016D01*
G37*
G36*
X103107248Y-50973333D02*
G01*
X103107248Y-51826666D01*
X102953834Y-51826666D01*
X102800420Y-51826666D01*
X102800420Y-50973333D01*
X102800420Y-50120000D01*
X102953834Y-50120000D01*
X103107248Y-50120000D01*
X103107248Y-50973333D01*
G37*
G36*
X104399316Y-50117442D02*
G01*
X104480906Y-50132553D01*
X104551205Y-50157448D01*
X104617667Y-50194494D01*
X104660093Y-50224513D01*
X104737482Y-50298722D01*
X104803844Y-50395484D01*
X104845950Y-50482917D01*
X104852623Y-50499965D01*
X104858201Y-50517388D01*
X104862802Y-50537669D01*
X104866539Y-50563292D01*
X104869529Y-50596740D01*
X104871886Y-50640498D01*
X104873726Y-50697049D01*
X104875164Y-50768877D01*
X104876315Y-50858467D01*
X104877295Y-50968301D01*
X104878220Y-51100864D01*
X104878781Y-51190000D01*
X104882720Y-51826666D01*
X104728702Y-51826666D01*
X104574685Y-51826666D01*
X104574685Y-51254864D01*
X104574572Y-51105492D01*
X104574048Y-50980231D01*
X104572831Y-50876527D01*
X104570639Y-50791824D01*
X104567191Y-50723569D01*
X104562206Y-50669205D01*
X104555403Y-50626178D01*
X104546500Y-50591933D01*
X104535216Y-50563916D01*
X104521269Y-50539570D01*
X104504379Y-50516343D01*
X104491634Y-50500567D01*
X104445001Y-50452965D01*
X104393684Y-50420951D01*
X104331532Y-50402150D01*
X104252395Y-50394186D01*
X104214495Y-50393503D01*
X104117706Y-50398973D01*
X104041000Y-50416832D01*
X103979999Y-50448820D01*
X103930329Y-50496676D01*
X103919678Y-50510618D01*
X103901560Y-50536553D01*
X103886456Y-50561697D01*
X103874092Y-50588663D01*
X103864194Y-50620062D01*
X103856488Y-50658505D01*
X103850702Y-50706606D01*
X103846562Y-50766976D01*
X103843794Y-50842227D01*
X103842125Y-50934971D01*
X103841282Y-51047821D01*
X103840990Y-51183387D01*
X103840966Y-51262420D01*
X103840966Y-51826666D01*
X103687552Y-51826666D01*
X103534138Y-51826666D01*
X103534138Y-50973333D01*
X103534138Y-50120000D01*
X103686821Y-50120000D01*
X103839504Y-50120000D01*
X103843570Y-50179955D01*
X103847636Y-50239911D01*
X103907668Y-50199658D01*
X103992276Y-50153366D01*
X104085212Y-50123879D01*
X104191609Y-50110017D01*
X104298982Y-50109744D01*
X104399316Y-50117442D01*
G37*
G36*
X109445892Y-50108651D02*
G01*
X109545784Y-50117319D01*
X109628244Y-50137039D01*
X109701248Y-50170735D01*
X109772777Y-50221328D01*
X109787860Y-50233949D01*
X109844184Y-50282135D01*
X109741934Y-50394400D01*
X109700320Y-50439038D01*
X109664721Y-50475264D01*
X109639173Y-50499098D01*
X109628115Y-50506666D01*
X109612356Y-50498955D01*
X109582724Y-50478848D01*
X109549669Y-50453831D01*
X109496879Y-50417645D01*
X109445085Y-50396320D01*
X109385753Y-50387662D01*
X109310353Y-50389478D01*
X109301844Y-50390132D01*
X109210638Y-50409920D01*
X109131487Y-50452415D01*
X109066603Y-50515544D01*
X109018195Y-50597228D01*
X108991142Y-50682051D01*
X108987448Y-50713292D01*
X108984234Y-50769120D01*
X108981548Y-50847462D01*
X108979437Y-50946241D01*
X108977952Y-51063383D01*
X108977140Y-51196813D01*
X108976995Y-51287322D01*
X108976995Y-51826666D01*
X108823582Y-51826666D01*
X108670168Y-51826666D01*
X108670168Y-50973333D01*
X108670168Y-50120000D01*
X108823582Y-50120000D01*
X108976995Y-50120000D01*
X108976995Y-50186375D01*
X108976995Y-50252751D01*
X109056652Y-50201294D01*
X109141304Y-50154988D01*
X109229246Y-50125180D01*
X109327333Y-50110236D01*
X109442422Y-50108526D01*
X109445892Y-50108651D01*
G37*
G36*
X110364390Y-50973333D02*
G01*
X110364390Y-51826666D01*
X110210977Y-51826666D01*
X110057563Y-51826666D01*
X110057563Y-50973333D01*
X110057563Y-50120000D01*
X110210977Y-50120000D01*
X110364390Y-50120000D01*
X110364390Y-50973333D01*
G37*
G36*
X111616137Y-50115636D02*
G01*
X111694054Y-50122788D01*
X111758619Y-50137090D01*
X111816376Y-50160303D01*
X111873864Y-50194189D01*
X111909360Y-50219205D01*
X111990674Y-50293155D01*
X112056501Y-50385027D01*
X112101733Y-50478596D01*
X112108711Y-50496419D01*
X112114541Y-50514046D01*
X112119343Y-50533971D01*
X112123238Y-50558691D01*
X112126343Y-50590702D01*
X112128780Y-50632499D01*
X112130667Y-50686578D01*
X112132123Y-50755435D01*
X112133270Y-50841566D01*
X112134225Y-50947466D01*
X112135109Y-51075632D01*
X112135810Y-51190000D01*
X112139636Y-51826666D01*
X111985732Y-51826666D01*
X111831827Y-51826666D01*
X111831827Y-51255753D01*
X111831712Y-51106162D01*
X111831185Y-50980695D01*
X111829973Y-50876811D01*
X111827801Y-50791966D01*
X111824397Y-50723620D01*
X111819488Y-50669230D01*
X111812799Y-50626254D01*
X111804059Y-50592150D01*
X111792993Y-50564376D01*
X111779328Y-50540390D01*
X111762790Y-50517650D01*
X111750878Y-50502946D01*
X111703719Y-50454490D01*
X111652711Y-50421889D01*
X111591537Y-50402667D01*
X111513877Y-50394349D01*
X111471638Y-50393503D01*
X111374849Y-50398973D01*
X111298142Y-50416832D01*
X111237142Y-50448820D01*
X111187471Y-50496676D01*
X111176821Y-50510618D01*
X111158703Y-50536553D01*
X111143599Y-50561697D01*
X111131235Y-50588663D01*
X111121337Y-50620062D01*
X111113631Y-50658505D01*
X111107845Y-50706606D01*
X111103705Y-50766976D01*
X111100937Y-50842227D01*
X111099268Y-50934971D01*
X111098425Y-51047821D01*
X111098133Y-51183387D01*
X111098109Y-51262420D01*
X111098109Y-51826666D01*
X110944695Y-51826666D01*
X110791281Y-51826666D01*
X110791281Y-50973333D01*
X110791281Y-50120000D01*
X110943964Y-50120000D01*
X111096647Y-50120000D01*
X111100713Y-50180257D01*
X111104779Y-50240514D01*
X111153802Y-50207124D01*
X111213886Y-50169821D01*
X111271165Y-50143633D01*
X111332568Y-50126788D01*
X111405028Y-50117512D01*
X111495473Y-50114034D01*
X111518329Y-50113871D01*
X111616137Y-50115636D01*
G37*
G36*
X103120588Y-49553333D02*
G01*
X103120588Y-49720000D01*
X102953834Y-49720000D01*
X102787079Y-49720000D01*
X102787079Y-49553333D01*
X102787079Y-49386666D01*
X102953834Y-49386666D01*
X103120588Y-49386666D01*
X103120588Y-49553333D01*
G37*
G36*
X110377731Y-49553333D02*
G01*
X110377731Y-49720000D01*
X110210977Y-49720000D01*
X110044222Y-49720000D01*
X110044222Y-49553333D01*
X110044222Y-49386666D01*
X110210977Y-49386666D01*
X110377731Y-49386666D01*
X110377731Y-49553333D01*
G37*
G36*
X93061331Y-51620906D02*
G01*
X93132428Y-51621647D01*
X93190865Y-51622849D01*
X93232275Y-51624527D01*
X93252291Y-51626698D01*
X93253366Y-51627216D01*
X93256753Y-51640865D01*
X93265035Y-51678892D01*
X93277849Y-51739531D01*
X93294832Y-51821016D01*
X93315622Y-51921581D01*
X93339857Y-52039461D01*
X93367173Y-52172888D01*
X93397209Y-52320098D01*
X93429601Y-52479324D01*
X93463987Y-52648801D01*
X93500004Y-52826762D01*
X93521531Y-52933333D01*
X93558382Y-53115796D01*
X93593817Y-53291073D01*
X93627471Y-53457369D01*
X93658982Y-53612891D01*
X93687982Y-53755844D01*
X93714109Y-53884435D01*
X93736997Y-53996869D01*
X93756281Y-54091353D01*
X93771597Y-54166092D01*
X93782581Y-54219293D01*
X93788867Y-54249161D01*
X93790205Y-54255046D01*
X93782065Y-54272825D01*
X93752033Y-54300629D01*
X93702314Y-54337043D01*
X93635117Y-54380650D01*
X93552649Y-54430035D01*
X93457117Y-54483783D01*
X93350728Y-54540478D01*
X93322111Y-54555245D01*
X93250694Y-54591098D01*
X93175969Y-54627301D01*
X93102218Y-54661924D01*
X93033723Y-54693033D01*
X92974765Y-54718696D01*
X92929625Y-54736982D01*
X92902585Y-54745958D01*
X92898208Y-54746544D01*
X92885573Y-54741489D01*
X92853288Y-54727790D01*
X92806142Y-54707498D01*
X92748927Y-54682665D01*
X92744967Y-54680939D01*
X92624683Y-54625811D01*
X92500223Y-54563891D01*
X92377194Y-54498293D01*
X92261203Y-54432129D01*
X92157858Y-54368510D01*
X92072767Y-54310548D01*
X92058553Y-54300000D01*
X92023238Y-54273333D01*
X92172685Y-53527766D01*
X92356792Y-53527766D01*
X92369042Y-53644673D01*
X92398935Y-53754337D01*
X92445064Y-53850604D01*
X92473737Y-53891740D01*
X92522373Y-53938507D01*
X92586172Y-53980292D01*
X92653677Y-54010285D01*
X92688445Y-54019327D01*
X92745804Y-54017758D01*
X92796753Y-53995219D01*
X92834022Y-53955716D01*
X92844441Y-53933333D01*
X92852059Y-53912934D01*
X92856824Y-53908120D01*
X92859457Y-53921825D01*
X92860679Y-53956979D01*
X92861116Y-54001111D01*
X92862431Y-54053983D01*
X92865288Y-54096194D01*
X92869159Y-54121004D01*
X92870763Y-54124444D01*
X92889852Y-54131460D01*
X92910784Y-54133333D01*
X92941911Y-54133333D01*
X92941911Y-53936208D01*
X92941911Y-53882353D01*
X92960808Y-53882353D01*
X92963880Y-53904795D01*
X92981117Y-53955678D01*
X93006857Y-53988137D01*
X93039679Y-54007208D01*
X93096410Y-54019253D01*
X93162005Y-54009050D01*
X93238785Y-53976234D01*
X93239715Y-53975738D01*
X93315695Y-53921002D01*
X93375476Y-53846322D01*
X93419454Y-53751018D01*
X93448023Y-53634415D01*
X93451258Y-53613268D01*
X93458123Y-53518398D01*
X93453589Y-53421804D01*
X93438607Y-53332384D01*
X93414131Y-53259037D01*
X93413147Y-53256941D01*
X93398068Y-53227793D01*
X93387705Y-53219939D01*
X93376179Y-53230203D01*
X93372583Y-53235013D01*
X93333104Y-53296269D01*
X93295439Y-53367565D01*
X93263239Y-53440727D01*
X93240156Y-53507579D01*
X93230431Y-53553333D01*
X93210602Y-53644362D01*
X93174445Y-53724630D01*
X93124882Y-53790225D01*
X93064838Y-53837231D01*
X93000481Y-53861153D01*
X92970569Y-53869127D01*
X92960808Y-53882353D01*
X92941911Y-53882353D01*
X92941911Y-53739082D01*
X92980880Y-53716075D01*
X93011434Y-53689185D01*
X93034596Y-53647287D01*
X93051305Y-53587321D01*
X93062500Y-53506230D01*
X93067659Y-53433333D01*
X93076137Y-53320675D01*
X93089569Y-53230674D01*
X93109313Y-53159565D01*
X93136726Y-53103580D01*
X93173166Y-53058955D01*
X93214680Y-53025474D01*
X93249520Y-52997149D01*
X93259537Y-52974424D01*
X93245045Y-52953962D01*
X93222721Y-52940342D01*
X93167237Y-52922066D01*
X93114524Y-52927879D01*
X93060664Y-52958538D01*
X93040466Y-52975598D01*
X93012287Y-53001198D01*
X93004899Y-52946144D01*
X92995983Y-52908259D01*
X92979905Y-52862878D01*
X92959831Y-52816744D01*
X92938929Y-52776602D01*
X92920363Y-52749195D01*
X92908561Y-52740959D01*
X92894047Y-52753268D01*
X92874533Y-52784004D01*
X92853273Y-52826233D01*
X92833521Y-52873025D01*
X92818533Y-52917446D01*
X92812222Y-52946144D01*
X92804834Y-53001198D01*
X92776655Y-52975598D01*
X92720963Y-52935698D01*
X92668208Y-52921285D01*
X92615455Y-52931835D01*
X92593786Y-52942874D01*
X92564559Y-52964186D01*
X92558299Y-52983444D01*
X92575506Y-53005437D01*
X92602441Y-53025474D01*
X92648140Y-53063111D01*
X92683593Y-53108726D01*
X92710158Y-53166085D01*
X92729194Y-53238955D01*
X92742057Y-53331102D01*
X92749463Y-53433333D01*
X92757795Y-53534443D01*
X92771504Y-53611638D01*
X92791254Y-53667247D01*
X92817711Y-53703602D01*
X92829209Y-53712559D01*
X92849271Y-53730078D01*
X92859022Y-53754294D01*
X92861837Y-53794445D01*
X92861869Y-53801974D01*
X92861869Y-53870000D01*
X92818513Y-53861545D01*
X92750202Y-53835232D01*
X92689616Y-53786799D01*
X92639874Y-53720394D01*
X92604095Y-53640164D01*
X92585556Y-53551829D01*
X92577011Y-53502289D01*
X92559815Y-53450854D01*
X92531057Y-53389709D01*
X92511586Y-53353333D01*
X92482982Y-53302033D01*
X92458498Y-53259411D01*
X92441342Y-53230976D01*
X92435495Y-53222555D01*
X92423591Y-53224340D01*
X92408778Y-53247304D01*
X92392993Y-53286401D01*
X92378174Y-53336586D01*
X92366260Y-53392814D01*
X92363591Y-53409766D01*
X92356792Y-53527766D01*
X92172685Y-53527766D01*
X92287221Y-52956362D01*
X92324060Y-52772955D01*
X92359562Y-52596939D01*
X92393362Y-52430075D01*
X92425099Y-52274125D01*
X92454408Y-52130850D01*
X92480926Y-52002012D01*
X92504289Y-51889374D01*
X92524134Y-51794696D01*
X92540098Y-51719740D01*
X92551818Y-51666268D01*
X92558929Y-51636042D01*
X92560908Y-51629695D01*
X92576053Y-51627311D01*
X92613477Y-51625264D01*
X92668815Y-51623568D01*
X92737697Y-51622238D01*
X92815758Y-51621292D01*
X92898628Y-51620744D01*
X92981942Y-51620610D01*
X93061331Y-51620906D01*
G37*
G36*
X91158443Y-52747802D02*
G01*
X91185278Y-52896273D01*
X91210500Y-53036906D01*
X91233731Y-53167524D01*
X91254591Y-53285948D01*
X91272705Y-53390002D01*
X91287693Y-53477509D01*
X91299178Y-53546291D01*
X91306782Y-53594171D01*
X91310128Y-53618971D01*
X91310146Y-53622019D01*
X91299850Y-53615098D01*
X91277643Y-53591542D01*
X91247760Y-53555946D01*
X91238187Y-53543931D01*
X91090975Y-53345699D01*
X90960242Y-53144399D01*
X90839771Y-52930186D01*
X90793982Y-52840528D01*
X90749779Y-52748689D01*
X90705524Y-52651184D01*
X90662406Y-52551178D01*
X90621609Y-52451837D01*
X90584322Y-52356329D01*
X90551730Y-52267818D01*
X90525020Y-52189470D01*
X90505379Y-52124453D01*
X90493992Y-52075932D01*
X90492048Y-52047073D01*
X90494500Y-52041410D01*
X90510666Y-52033727D01*
X90547293Y-52019882D01*
X90599333Y-52001534D01*
X90661738Y-51980344D01*
X90729464Y-51957973D01*
X90797462Y-51936080D01*
X90860686Y-51916326D01*
X90914090Y-51900372D01*
X90952626Y-51889878D01*
X90960871Y-51887970D01*
X91000893Y-51879429D01*
X91158443Y-52747802D01*
G37*
G36*
X94831223Y-51884081D02*
G01*
X94865913Y-51893636D01*
X94918209Y-51909201D01*
X94984243Y-51929619D01*
X95060143Y-51953733D01*
X95075013Y-51958525D01*
X95328296Y-52040328D01*
X95307596Y-52110164D01*
X95239569Y-52316268D01*
X95155527Y-52532301D01*
X95059077Y-52750127D01*
X94953832Y-52961609D01*
X94843400Y-53158614D01*
X94839537Y-53165061D01*
X94807519Y-53216309D01*
X94768122Y-53276212D01*
X94724017Y-53341053D01*
X94677874Y-53407116D01*
X94632364Y-53470683D01*
X94590159Y-53528040D01*
X94553928Y-53575469D01*
X94526342Y-53609254D01*
X94510074Y-53625679D01*
X94507795Y-53626666D01*
X94503878Y-53615420D01*
X94506315Y-53590000D01*
X94509853Y-53570701D01*
X94517706Y-53527496D01*
X94529452Y-53462719D01*
X94544669Y-53378705D01*
X94562933Y-53277791D01*
X94583822Y-53162311D01*
X94606913Y-53034602D01*
X94631783Y-52896998D01*
X94658011Y-52751836D01*
X94663762Y-52720000D01*
X94690068Y-52574608D01*
X94715027Y-52437122D01*
X94738231Y-52309763D01*
X94759271Y-52194756D01*
X94777737Y-52094320D01*
X94793222Y-52010680D01*
X94805315Y-51946057D01*
X94813608Y-51902673D01*
X94817693Y-51882751D01*
X94818010Y-51881694D01*
X94831223Y-51884081D01*
G37*
G36*
X91905524Y-51694190D02*
G01*
X91906542Y-51694697D01*
X91905431Y-51708829D01*
X91899177Y-51748036D01*
X91887748Y-51812475D01*
X91871116Y-51902303D01*
X91849252Y-52017678D01*
X91822125Y-52158758D01*
X91789706Y-52325701D01*
X91764769Y-52453333D01*
X91761626Y-52446048D01*
X91754690Y-52415558D01*
X91744556Y-52364961D01*
X91731821Y-52297356D01*
X91717083Y-52215840D01*
X91700937Y-52123512D01*
X91698133Y-52107189D01*
X91677333Y-51982741D01*
X91661967Y-51883881D01*
X91651970Y-51810105D01*
X91647275Y-51760907D01*
X91647819Y-51735782D01*
X91649618Y-51732271D01*
X91668227Y-51726580D01*
X91704679Y-51719238D01*
X91751859Y-51711286D01*
X91802650Y-51703764D01*
X91849936Y-51697714D01*
X91886599Y-51694176D01*
X91905524Y-51694190D01*
G37*
G36*
X93957960Y-51698187D02*
G01*
X94003721Y-51704504D01*
X94054916Y-51712379D01*
X94104609Y-51720718D01*
X94145867Y-51728430D01*
X94171753Y-51734424D01*
X94176864Y-51736526D01*
X94175673Y-51749973D01*
X94170607Y-51785764D01*
X94162311Y-51839961D01*
X94151431Y-51908628D01*
X94138615Y-51987828D01*
X94124508Y-52073624D01*
X94109756Y-52162078D01*
X94095006Y-52249253D01*
X94080905Y-52331214D01*
X94068099Y-52404021D01*
X94059299Y-52452606D01*
X94055987Y-52445025D01*
X94048333Y-52414268D01*
X94036983Y-52363351D01*
X94022587Y-52295295D01*
X94005792Y-52213118D01*
X93987246Y-52119839D01*
X93980619Y-52085939D01*
X93961783Y-51988166D01*
X93945011Y-51899140D01*
X93930889Y-51822145D01*
X93920008Y-51760467D01*
X93912955Y-51717387D01*
X93910318Y-51696192D01*
X93910479Y-51694589D01*
X93924567Y-51694518D01*
X93957960Y-51698187D01*
G37*
G36*
X91965357Y-51392893D02*
G01*
X91965358Y-51407220D01*
X91960942Y-51439385D01*
X91953652Y-51481230D01*
X91945027Y-51524601D01*
X91936611Y-51561341D01*
X91929944Y-51583293D01*
X91929038Y-51585061D01*
X91913926Y-51591342D01*
X91876815Y-51600927D01*
X91822042Y-51612867D01*
X91753948Y-51626210D01*
X91683599Y-51638850D01*
X91549669Y-51663797D01*
X91405199Y-51693996D01*
X91255046Y-51728194D01*
X91104070Y-51765138D01*
X90957128Y-51803574D01*
X90819078Y-51842248D01*
X90694778Y-51879906D01*
X90589087Y-51915296D01*
X90537346Y-51934635D01*
X90498748Y-51949083D01*
X90470514Y-51958269D01*
X90462238Y-51960000D01*
X90453627Y-51948167D01*
X90442881Y-51917725D01*
X90435758Y-51890000D01*
X90425273Y-51844347D01*
X90415999Y-51805517D01*
X90412376Y-51791173D01*
X90411213Y-51779877D01*
X90416618Y-51769745D01*
X90432057Y-51759092D01*
X90460996Y-51746233D01*
X90506904Y-51729485D01*
X90573245Y-51707161D01*
X90610352Y-51694957D01*
X90797282Y-51637057D01*
X90998180Y-51580801D01*
X91200471Y-51529540D01*
X91391583Y-51486624D01*
X91394432Y-51486034D01*
X91457631Y-51473509D01*
X91531029Y-51459853D01*
X91610254Y-51445776D01*
X91690935Y-51431993D01*
X91768700Y-51419217D01*
X91839178Y-51408161D01*
X91897998Y-51399538D01*
X91940788Y-51394062D01*
X91963177Y-51392445D01*
X91965357Y-51392893D01*
G37*
G36*
X93896950Y-51400555D02*
G01*
X93952133Y-51406053D01*
X94024306Y-51416070D01*
X94110477Y-51430070D01*
X94207654Y-51447516D01*
X94312844Y-51467872D01*
X94423055Y-51490602D01*
X94535296Y-51515170D01*
X94646573Y-51541040D01*
X94749527Y-51566553D01*
X94842353Y-51591152D01*
X94937980Y-51617918D01*
X95032952Y-51645739D01*
X95123818Y-51673506D01*
X95207122Y-51700109D01*
X95279410Y-51724437D01*
X95337230Y-51745382D01*
X95377126Y-51761833D01*
X95395646Y-51772681D01*
X95396533Y-51774470D01*
X95392854Y-51803935D01*
X95383437Y-51843969D01*
X95370710Y-51886934D01*
X95357102Y-51925192D01*
X95345043Y-51951108D01*
X95338215Y-51957832D01*
X95320879Y-51952985D01*
X95283072Y-51941062D01*
X95229573Y-51923611D01*
X95165156Y-51902182D01*
X95129727Y-51890249D01*
X94993603Y-51846983D01*
X94838821Y-51802483D01*
X94673209Y-51758707D01*
X94504597Y-51717611D01*
X94340814Y-51681153D01*
X94189690Y-51651290D01*
X94136381Y-51641939D01*
X94060197Y-51628825D01*
X93993440Y-51616738D01*
X93940441Y-51606513D01*
X93905532Y-51598980D01*
X93893148Y-51595181D01*
X93887287Y-51579828D01*
X93878301Y-51546656D01*
X93868111Y-51504032D01*
X93858640Y-51460324D01*
X93851808Y-51423899D01*
X93849523Y-51405262D01*
X93861749Y-51400113D01*
X93896950Y-51400555D01*
G37*
G36*
X92020299Y-51095814D02*
G01*
X92021428Y-51105281D01*
X92018846Y-51133865D01*
X92012267Y-51175159D01*
X92003440Y-51220537D01*
X91994115Y-51261372D01*
X91986042Y-51289041D01*
X91982862Y-51295423D01*
X91967155Y-51300650D01*
X91930566Y-51308282D01*
X91878670Y-51317266D01*
X91821323Y-51325944D01*
X91718352Y-51342089D01*
X91597678Y-51363512D01*
X91466542Y-51388727D01*
X91332187Y-51416246D01*
X91201854Y-51444581D01*
X91082787Y-51472245D01*
X90982226Y-51497751D01*
X90974212Y-51499923D01*
X90913723Y-51516889D01*
X90840091Y-51538268D01*
X90758536Y-51562466D01*
X90674281Y-51587890D01*
X90592549Y-51612946D01*
X90518560Y-51636040D01*
X90457538Y-51655580D01*
X90414705Y-51669971D01*
X90403297Y-51674135D01*
X90390454Y-51669805D01*
X90378624Y-51644254D01*
X90368329Y-51603897D01*
X90357998Y-51556554D01*
X90349051Y-51516117D01*
X90344904Y-51497783D01*
X90344139Y-51485898D01*
X90350387Y-51475370D01*
X90367307Y-51464371D01*
X90398559Y-51451073D01*
X90447803Y-51433649D01*
X90518700Y-51410272D01*
X90522810Y-51408936D01*
X90738393Y-51342114D01*
X90950582Y-51283199D01*
X91164971Y-51230956D01*
X91387150Y-51184151D01*
X91622713Y-51141549D01*
X91877250Y-51101916D01*
X91978072Y-51087658D01*
X92008456Y-51086334D01*
X92020299Y-51095814D01*
G37*
G36*
X93891981Y-51097463D02*
G01*
X93960727Y-51107029D01*
X94010950Y-51114352D01*
X94227300Y-51148638D01*
X94439429Y-51188877D01*
X94657930Y-51237192D01*
X94812224Y-51274899D01*
X94915843Y-51301914D01*
X95019101Y-51330383D01*
X95118796Y-51359280D01*
X95211726Y-51387578D01*
X95294691Y-51414248D01*
X95364490Y-51438262D01*
X95417920Y-51458594D01*
X95451782Y-51474216D01*
X95462909Y-51483778D01*
X95459522Y-51508929D01*
X95449792Y-51558123D01*
X95433557Y-51632166D01*
X95429522Y-51650000D01*
X95425645Y-51664286D01*
X95419043Y-51672967D01*
X95405728Y-51675508D01*
X95381716Y-51671376D01*
X95343020Y-51660036D01*
X95285654Y-51640956D01*
X95236449Y-51624143D01*
X95016402Y-51554203D01*
X94778925Y-51488505D01*
X94533197Y-51429317D01*
X94288395Y-51378910D01*
X94137596Y-51352491D01*
X94039998Y-51336878D01*
X93965380Y-51324847D01*
X93910505Y-51315011D01*
X93872139Y-51305987D01*
X93847046Y-51296389D01*
X93831993Y-51284833D01*
X93823744Y-51269932D01*
X93819064Y-51250302D01*
X93814718Y-51224559D01*
X93812573Y-51213333D01*
X93802609Y-51165185D01*
X93797538Y-51130760D01*
X93800648Y-51108418D01*
X93815232Y-51096515D01*
X93844579Y-51093411D01*
X93891981Y-51097463D01*
G37*
G36*
X92906472Y-51336416D02*
G01*
X93200971Y-51340000D01*
X93217603Y-51420000D01*
X93226599Y-51465958D01*
X93232873Y-51503098D01*
X93234823Y-51520000D01*
X93232001Y-51526246D01*
X93221172Y-51531069D01*
X93199409Y-51534643D01*
X93163783Y-51537145D01*
X93111369Y-51538751D01*
X93039238Y-51539636D01*
X92944464Y-51539976D01*
X92902068Y-51540000D01*
X92798289Y-51539830D01*
X92718301Y-51539203D01*
X92659215Y-51537943D01*
X92618143Y-51535873D01*
X92592197Y-51532816D01*
X92578488Y-51528598D01*
X92574128Y-51523040D01*
X92574463Y-51520000D01*
X92579875Y-51496886D01*
X92588177Y-51456900D01*
X92596087Y-51416416D01*
X92611973Y-51332832D01*
X92906472Y-51336416D01*
G37*
G36*
X92087980Y-50770073D02*
G01*
X92088140Y-50770838D01*
X92085708Y-50787356D01*
X92079231Y-50823185D01*
X92069960Y-50871496D01*
X92066874Y-50887133D01*
X92045597Y-50994267D01*
X91830072Y-51024131D01*
X91405029Y-51095477D01*
X90977813Y-51192125D01*
X90550448Y-51313299D01*
X90470112Y-51338205D01*
X90411621Y-51355743D01*
X90371377Y-51366562D01*
X90345779Y-51371313D01*
X90331228Y-51370647D01*
X90324124Y-51365215D01*
X90320867Y-51355666D01*
X90320682Y-51354825D01*
X90307664Y-51288795D01*
X90298708Y-51231063D01*
X90294448Y-51186925D01*
X90295519Y-51161679D01*
X90297156Y-51158392D01*
X90313990Y-51150615D01*
X90352570Y-51137003D01*
X90408902Y-51118744D01*
X90478993Y-51097028D01*
X90558850Y-51073043D01*
X90644480Y-51047978D01*
X90731889Y-51023023D01*
X90817085Y-50999365D01*
X90896075Y-50978194D01*
X90942565Y-50966237D01*
X91101648Y-50927942D01*
X91261132Y-50893277D01*
X91426087Y-50861327D01*
X91601583Y-50831178D01*
X91792692Y-50801915D01*
X92004484Y-50772621D01*
X92044774Y-50767330D01*
X92074134Y-50765936D01*
X92087980Y-50770073D01*
G37*
G36*
X93823736Y-50778231D02*
G01*
X93993349Y-50797715D01*
X94181626Y-50826152D01*
X94382588Y-50862270D01*
X94590256Y-50904798D01*
X94798651Y-50952464D01*
X95001795Y-51003997D01*
X95193708Y-51058127D01*
X95310028Y-51094240D01*
X95519203Y-51161932D01*
X95511695Y-51204299D01*
X95505513Y-51243105D01*
X95498428Y-51293022D01*
X95495332Y-51316666D01*
X95487822Y-51355636D01*
X95478025Y-51380560D01*
X95471522Y-51385655D01*
X95453345Y-51381058D01*
X95415996Y-51369433D01*
X95365441Y-51352690D01*
X95323161Y-51338172D01*
X95217844Y-51303602D01*
X95093106Y-51266139D01*
X94955780Y-51227624D01*
X94812705Y-51189895D01*
X94670714Y-51154791D01*
X94536643Y-51124152D01*
X94493725Y-51115004D01*
X94427038Y-51101741D01*
X94347285Y-51086908D01*
X94259005Y-51071243D01*
X94166732Y-51055484D01*
X94075002Y-51040371D01*
X93988352Y-51026639D01*
X93911317Y-51015030D01*
X93848433Y-51006279D01*
X93804237Y-51001126D01*
X93787423Y-51000054D01*
X93777408Y-50988013D01*
X93765980Y-50956635D01*
X93756448Y-50916666D01*
X93746674Y-50867093D01*
X93737747Y-50823870D01*
X93732729Y-50801235D01*
X93725045Y-50769137D01*
X93823736Y-50778231D01*
G37*
G36*
X92992712Y-51037011D02*
G01*
X93010238Y-51037721D01*
X93138597Y-51043689D01*
X93154793Y-51118511D01*
X93165065Y-51165582D01*
X93174031Y-51206029D01*
X93177960Y-51223333D01*
X93184930Y-51253333D01*
X92910007Y-51253333D01*
X92817518Y-51253179D01*
X92748367Y-51252528D01*
X92699211Y-51251095D01*
X92666706Y-51248597D01*
X92647512Y-51244749D01*
X92638285Y-51239266D01*
X92635682Y-51231864D01*
X92635666Y-51230000D01*
X92638596Y-51204827D01*
X92645586Y-51163656D01*
X92652830Y-51126666D01*
X92669413Y-51046666D01*
X92775646Y-51039210D01*
X92840348Y-51036420D01*
X92917442Y-51035657D01*
X92992712Y-51037011D01*
G37*
G36*
X90368596Y-48474407D02*
G01*
X90374883Y-48494109D01*
X90384267Y-48532722D01*
X90396906Y-48591046D01*
X90412956Y-48669882D01*
X90432572Y-48770030D01*
X90455912Y-48892289D01*
X90483131Y-49037461D01*
X90514386Y-49206346D01*
X90549833Y-49399744D01*
X90589628Y-49618455D01*
X90598376Y-49666699D01*
X90630413Y-49844187D01*
X90660857Y-50014206D01*
X90689394Y-50174926D01*
X90715710Y-50324517D01*
X90739492Y-50461148D01*
X90760425Y-50582988D01*
X90778195Y-50688206D01*
X90792489Y-50774972D01*
X90802992Y-50841455D01*
X90809391Y-50885825D01*
X90811371Y-50906250D01*
X90811142Y-50907399D01*
X90795092Y-50914415D01*
X90758449Y-50926979D01*
X90706310Y-50943437D01*
X90643772Y-50962138D01*
X90629534Y-50966271D01*
X90555597Y-50987987D01*
X90481382Y-51010420D01*
X90415584Y-51030905D01*
X90367442Y-51046593D01*
X90276603Y-51077473D01*
X90268170Y-51008736D01*
X90246348Y-50788850D01*
X90231885Y-50548182D01*
X90224782Y-50291581D01*
X90225041Y-50023899D01*
X90232662Y-49749985D01*
X90247648Y-49474689D01*
X90267723Y-49226666D01*
X90275633Y-49148139D01*
X90285493Y-49058572D01*
X90296740Y-48962325D01*
X90308810Y-48863760D01*
X90321138Y-48767234D01*
X90333161Y-48677109D01*
X90344313Y-48597743D01*
X90354032Y-48533498D01*
X90361754Y-48488732D01*
X90365251Y-48472816D01*
X90368596Y-48474407D01*
G37*
G36*
X95446946Y-48465774D02*
G01*
X95453885Y-48498383D01*
X95462562Y-48551455D01*
X95472616Y-48621943D01*
X95483685Y-48706804D01*
X95495410Y-48802992D01*
X95507428Y-48907462D01*
X95519378Y-49017167D01*
X95530900Y-49129064D01*
X95541631Y-49240107D01*
X95551212Y-49347250D01*
X95558718Y-49440000D01*
X95565726Y-49553591D01*
X95570891Y-49682762D01*
X95574277Y-49823774D01*
X95575945Y-49972891D01*
X95575960Y-50126375D01*
X95574384Y-50280488D01*
X95571280Y-50431495D01*
X95566712Y-50575657D01*
X95560742Y-50709238D01*
X95553434Y-50828501D01*
X95544851Y-50929707D01*
X95535055Y-51009121D01*
X95531914Y-51028002D01*
X95523266Y-51076004D01*
X95436554Y-51046926D01*
X95389977Y-51031863D01*
X95325956Y-51011912D01*
X95252681Y-50989593D01*
X95178338Y-50967423D01*
X95173083Y-50965876D01*
X95109015Y-50946095D01*
X95055305Y-50927714D01*
X95016593Y-50912459D01*
X94997521Y-50902059D01*
X94996323Y-50900101D01*
X94998654Y-50884630D01*
X95005376Y-50845330D01*
X95016083Y-50784429D01*
X95030368Y-50704154D01*
X95047825Y-50606732D01*
X95068048Y-50494390D01*
X95090630Y-50369356D01*
X95115165Y-50233857D01*
X95141247Y-50090119D01*
X95168470Y-49940370D01*
X95196426Y-49786837D01*
X95224710Y-49631747D01*
X95252916Y-49477328D01*
X95280637Y-49325806D01*
X95307466Y-49179409D01*
X95332999Y-49040364D01*
X95356827Y-48910897D01*
X95378545Y-48793237D01*
X95397746Y-48689610D01*
X95414025Y-48602243D01*
X95426975Y-48533364D01*
X95436189Y-48485200D01*
X95441261Y-48459978D01*
X95442106Y-48456673D01*
X95446946Y-48465774D01*
G37*
G36*
X93086422Y-50782943D02*
G01*
X93096864Y-50833724D01*
X93106635Y-50883493D01*
X93109106Y-50896666D01*
X93118305Y-50946666D01*
X92903709Y-50946666D01*
X92689112Y-50946666D01*
X92697704Y-50903333D01*
X92705885Y-50863607D01*
X92716508Y-50813904D01*
X92721009Y-50793333D01*
X92735722Y-50726666D01*
X92904329Y-50722943D01*
X93072937Y-50719221D01*
X93086422Y-50782943D01*
G37*
G36*
X93302303Y-47975519D02*
G01*
X93378231Y-47980678D01*
X93469725Y-47988863D01*
X93574097Y-47999750D01*
X93688656Y-48013017D01*
X93810711Y-48028340D01*
X93937573Y-48045397D01*
X94066550Y-48063865D01*
X94194953Y-48083419D01*
X94320091Y-48103738D01*
X94439274Y-48124498D01*
X94533633Y-48142200D01*
X94620547Y-48159304D01*
X94684575Y-48172544D01*
X94729058Y-48182966D01*
X94757334Y-48191620D01*
X94772742Y-48199553D01*
X94778620Y-48207813D01*
X94778309Y-48217448D01*
X94777979Y-48218894D01*
X94774848Y-48235804D01*
X94767624Y-48277147D01*
X94756622Y-48341054D01*
X94742160Y-48425658D01*
X94724555Y-48529093D01*
X94704123Y-48649489D01*
X94681181Y-48784980D01*
X94656047Y-48933699D01*
X94629036Y-49093777D01*
X94600466Y-49263348D01*
X94570654Y-49440543D01*
X94562900Y-49486666D01*
X94532812Y-49665332D01*
X94503833Y-49836719D01*
X94476282Y-49998974D01*
X94450481Y-50150243D01*
X94426750Y-50288671D01*
X94405407Y-50412405D01*
X94386774Y-50519591D01*
X94371171Y-50608374D01*
X94358917Y-50676901D01*
X94350332Y-50723317D01*
X94345738Y-50745769D01*
X94345235Y-50747456D01*
X94337328Y-50757870D01*
X94321724Y-50761895D01*
X94292308Y-50759789D01*
X94242963Y-50751804D01*
X94242594Y-50751739D01*
X94196384Y-50744209D01*
X94130881Y-50734389D01*
X94053268Y-50723315D01*
X93970724Y-50712023D01*
X93929115Y-50706523D01*
X93856063Y-50696874D01*
X93793160Y-50688334D01*
X93744771Y-50681515D01*
X93715262Y-50677029D01*
X93708149Y-50675573D01*
X93705224Y-50661525D01*
X93697737Y-50623421D01*
X93686091Y-50563381D01*
X93670690Y-50483526D01*
X93651938Y-50385973D01*
X93630240Y-50272842D01*
X93605998Y-50146253D01*
X93579616Y-50008325D01*
X93551499Y-49861177D01*
X93522050Y-49706928D01*
X93491672Y-49547697D01*
X93460771Y-49385605D01*
X93429748Y-49222770D01*
X93399009Y-49061311D01*
X93368957Y-48903348D01*
X93339996Y-48751000D01*
X93329043Y-48693333D01*
X93449349Y-48693333D01*
X93497012Y-48780000D01*
X93517972Y-48821340D01*
X93530115Y-48851962D01*
X93531300Y-48866258D01*
X93530110Y-48866666D01*
X93515589Y-48871708D01*
X93523852Y-48885531D01*
X93553260Y-48906186D01*
X93572242Y-48916811D01*
X93620769Y-48943466D01*
X93670513Y-48972092D01*
X93681334Y-48978555D01*
X93733729Y-49010199D01*
X93690395Y-49032596D01*
X93662293Y-49050942D01*
X93657468Y-49066256D01*
X93660560Y-49071250D01*
X93663864Y-49090832D01*
X93651781Y-49125889D01*
X93634791Y-49159276D01*
X93614947Y-49197569D01*
X93602595Y-49225412D01*
X93600327Y-49235847D01*
X93615050Y-49239430D01*
X93648943Y-49244160D01*
X93693359Y-49248883D01*
X93736612Y-49254560D01*
X93765752Y-49261583D01*
X93774576Y-49268448D01*
X93774512Y-49268558D01*
X93772069Y-49278419D01*
X93785323Y-49276581D01*
X93816521Y-49262210D01*
X93867912Y-49234470D01*
X93871118Y-49232680D01*
X93955777Y-49185361D01*
X93955777Y-49359347D01*
X93955777Y-49533333D01*
X94002468Y-49533333D01*
X94049159Y-49533333D01*
X94049159Y-49366666D01*
X94049674Y-49303528D01*
X94051081Y-49251364D01*
X94053170Y-49215223D01*
X94055735Y-49200154D01*
X94056032Y-49200000D01*
X94070330Y-49206065D01*
X94100878Y-49221896D01*
X94137379Y-49242009D01*
X94180582Y-49263699D01*
X94210093Y-49272986D01*
X94220554Y-49270694D01*
X94237574Y-49262152D01*
X94272799Y-49253635D01*
X94308612Y-49248257D01*
X94351544Y-49242660D01*
X94382280Y-49237401D01*
X94392864Y-49234253D01*
X94389415Y-49221085D01*
X94375557Y-49191641D01*
X94357011Y-49157199D01*
X94334057Y-49112238D01*
X94326264Y-49084223D01*
X94330988Y-49070319D01*
X94334260Y-49056489D01*
X94315083Y-49040200D01*
X94302367Y-49033199D01*
X94259021Y-49010796D01*
X94357530Y-48952224D01*
X94403902Y-48924775D01*
X94442009Y-48902442D01*
X94465640Y-48888860D01*
X94469380Y-48886826D01*
X94472689Y-48876898D01*
X94465601Y-48872074D01*
X94460066Y-48860677D01*
X94467514Y-48835043D01*
X94489047Y-48791814D01*
X94496270Y-48778741D01*
X94544058Y-48693333D01*
X94451000Y-48693333D01*
X94399332Y-48691988D01*
X94369201Y-48687256D01*
X94355567Y-48678086D01*
X94353630Y-48673068D01*
X94346341Y-48666070D01*
X94327259Y-48670205D01*
X94292823Y-48686802D01*
X94246486Y-48713068D01*
X94200054Y-48739836D01*
X94162773Y-48760499D01*
X94140258Y-48771980D01*
X94136428Y-48773333D01*
X94133329Y-48760963D01*
X94130895Y-48727707D01*
X94129453Y-48679341D01*
X94129201Y-48646082D01*
X94128688Y-48586800D01*
X94126589Y-48549549D01*
X94122062Y-48529702D01*
X94114266Y-48522634D01*
X94106777Y-48522748D01*
X94085146Y-48513402D01*
X94057402Y-48478635D01*
X94044023Y-48456666D01*
X94021565Y-48419725D01*
X94003896Y-48394358D01*
X93995943Y-48386666D01*
X93986076Y-48397447D01*
X93968085Y-48425537D01*
X93948639Y-48459821D01*
X93923622Y-48501846D01*
X93904432Y-48522677D01*
X93887477Y-48526073D01*
X93885740Y-48525590D01*
X93874916Y-48524527D01*
X93868054Y-48532664D01*
X93864270Y-48554551D01*
X93862681Y-48594738D01*
X93862395Y-48645768D01*
X93861897Y-48700409D01*
X93860557Y-48743353D01*
X93858610Y-48768831D01*
X93857259Y-48773333D01*
X93844185Y-48767162D01*
X93813478Y-48750636D01*
X93770610Y-48726733D01*
X93747202Y-48713445D01*
X93695132Y-48684888D01*
X93661824Y-48669840D01*
X93643827Y-48667035D01*
X93637966Y-48673445D01*
X93628960Y-48684538D01*
X93604693Y-48690789D01*
X93560277Y-48693205D01*
X93541501Y-48693333D01*
X93449349Y-48693333D01*
X93329043Y-48693333D01*
X93312529Y-48606386D01*
X93286961Y-48471626D01*
X93263695Y-48348838D01*
X93243135Y-48240143D01*
X93225684Y-48147659D01*
X93211747Y-48073506D01*
X93201728Y-48019803D01*
X93196029Y-47988669D01*
X93194828Y-47981427D01*
X93207912Y-47975570D01*
X93244633Y-47973709D01*
X93302303Y-47975519D01*
G37*
G36*
X92606751Y-47971029D02*
G01*
X92617128Y-47974076D01*
X92621057Y-47979264D01*
X92621410Y-47986528D01*
X92621063Y-47992980D01*
X92618486Y-48009592D01*
X92611173Y-48050596D01*
X92599465Y-48114202D01*
X92583700Y-48198623D01*
X92564218Y-48302071D01*
X92541358Y-48422755D01*
X92515459Y-48558890D01*
X92486860Y-48708684D01*
X92455901Y-48870352D01*
X92422922Y-49042103D01*
X92388261Y-49222150D01*
X92364261Y-49346556D01*
X92108140Y-50673112D01*
X92041439Y-50682657D01*
X92004074Y-50687991D01*
X91947093Y-50696111D01*
X91877293Y-50706047D01*
X91801473Y-50716834D01*
X91774632Y-50720650D01*
X91700179Y-50731241D01*
X91631161Y-50741071D01*
X91573756Y-50749258D01*
X91534144Y-50754922D01*
X91524744Y-50756272D01*
X91487410Y-50757880D01*
X91470180Y-50748037D01*
X91468899Y-50745056D01*
X91465859Y-50729520D01*
X91458726Y-50689534D01*
X91447814Y-50626945D01*
X91433440Y-50543603D01*
X91415918Y-50441357D01*
X91395564Y-50322057D01*
X91372693Y-50187550D01*
X91347621Y-50039686D01*
X91320662Y-49880315D01*
X91292132Y-49711285D01*
X91262347Y-49534444D01*
X91254310Y-49486666D01*
X91224215Y-49307832D01*
X91195284Y-49136148D01*
X91167833Y-48973482D01*
X91165618Y-48960379D01*
X91289405Y-48960379D01*
X91294923Y-48996064D01*
X91310315Y-49030284D01*
X91327317Y-49058010D01*
X91368870Y-49122688D01*
X91401025Y-49088010D01*
X91443371Y-49060300D01*
X91493851Y-49053487D01*
X91542909Y-49068507D01*
X91550527Y-49073374D01*
X91579793Y-49108516D01*
X91598317Y-49160877D01*
X91604921Y-49222785D01*
X91598425Y-49286564D01*
X91588490Y-49320602D01*
X91594066Y-49341534D01*
X91621562Y-49367332D01*
X91626097Y-49370496D01*
X91659519Y-49398275D01*
X91698114Y-49437580D01*
X91722821Y-49466628D01*
X91751867Y-49500918D01*
X91775769Y-49524670D01*
X91787972Y-49532263D01*
X91802626Y-49522529D01*
X91827463Y-49497180D01*
X91853124Y-49466628D01*
X91889198Y-49425336D01*
X91927332Y-49388381D01*
X91949848Y-49370496D01*
X91979717Y-49344401D01*
X91988040Y-49322678D01*
X91987455Y-49320602D01*
X91973018Y-49259167D01*
X91972348Y-49195257D01*
X91984266Y-49136547D01*
X92007593Y-49090711D01*
X92025417Y-49073374D01*
X92073263Y-49054494D01*
X92124180Y-49057608D01*
X92168611Y-49081779D01*
X92174920Y-49088010D01*
X92207075Y-49122688D01*
X92248628Y-49058010D01*
X92272205Y-49017955D01*
X92283866Y-48984637D01*
X92286717Y-48945583D01*
X92285289Y-48910754D01*
X92276054Y-48845748D01*
X92255701Y-48802097D01*
X92221570Y-48775868D01*
X92187220Y-48765606D01*
X92125588Y-48765990D01*
X92061156Y-48790483D01*
X91992015Y-48839858D01*
X91981869Y-48848784D01*
X91948389Y-48878263D01*
X91924345Y-48898281D01*
X91914778Y-48904644D01*
X91914767Y-48904568D01*
X91919484Y-48890862D01*
X91931750Y-48859506D01*
X91947802Y-48820000D01*
X91973116Y-48741745D01*
X91979142Y-48671623D01*
X91964734Y-48604914D01*
X91928748Y-48536898D01*
X91870041Y-48462857D01*
X91857982Y-48449616D01*
X91786717Y-48372567D01*
X91710119Y-48459228D01*
X91651026Y-48532802D01*
X91613577Y-48597972D01*
X91596557Y-48660086D01*
X91598749Y-48724492D01*
X91618940Y-48796538D01*
X91628143Y-48820000D01*
X91645040Y-48861624D01*
X91656953Y-48892170D01*
X91661177Y-48904568D01*
X91652204Y-48898756D01*
X91628579Y-48879143D01*
X91595344Y-48849922D01*
X91594076Y-48848784D01*
X91524125Y-48795870D01*
X91459149Y-48767946D01*
X91397240Y-48764239D01*
X91388724Y-48765606D01*
X91343105Y-48781787D01*
X91313166Y-48812573D01*
X91296247Y-48861900D01*
X91290656Y-48910754D01*
X91289405Y-48960379D01*
X91165618Y-48960379D01*
X91142179Y-48821702D01*
X91118639Y-48682675D01*
X91097530Y-48558267D01*
X91079169Y-48450347D01*
X91063873Y-48360781D01*
X91051958Y-48291437D01*
X91043743Y-48244181D01*
X91039543Y-48220882D01*
X91039152Y-48218999D01*
X91038312Y-48209128D01*
X91043270Y-48200743D01*
X91057362Y-48192791D01*
X91083927Y-48184220D01*
X91126299Y-48173980D01*
X91187816Y-48161019D01*
X91271815Y-48144284D01*
X91283514Y-48141982D01*
X91601643Y-48085152D01*
X91933105Y-48037360D01*
X92248214Y-48001290D01*
X92357602Y-47990147D01*
X92443307Y-47981530D01*
X92508202Y-47975374D01*
X92555160Y-47971614D01*
X92587052Y-47970187D01*
X92606751Y-47971029D01*
G37*
G36*
X92904482Y-49921376D02*
G01*
X92914046Y-49951321D01*
X92927482Y-50004311D01*
X92944404Y-50078737D01*
X92964426Y-50172994D01*
X92983311Y-50266084D01*
X93057819Y-50640000D01*
X92906483Y-50640000D01*
X92846522Y-50639176D01*
X92797787Y-50636941D01*
X92765581Y-50633643D01*
X92755110Y-50630000D01*
X92757670Y-50612293D01*
X92764816Y-50572758D01*
X92775685Y-50515671D01*
X92789414Y-50445310D01*
X92805139Y-50365951D01*
X92821998Y-50281871D01*
X92839127Y-50197345D01*
X92855664Y-50116652D01*
X92870745Y-50044067D01*
X92883507Y-49983868D01*
X92893088Y-49940330D01*
X92898625Y-49917731D01*
X92899178Y-49916084D01*
X92904482Y-49921376D01*
G37*
D14*
%TO.C,C4*%
X171261252Y-100265000D02*
X170738748Y-100265000D01*
X171261252Y-101735000D02*
X170738748Y-101735000D01*
%TO.C,C3*%
X173990000Y-100640580D02*
X173990000Y-100359420D01*
X175010000Y-100640580D02*
X175010000Y-100359420D01*
D11*
%TO.C,L2*%
X165000000Y-128500000D02*
G75*
G02*
X105000000Y-128500000I-30000000J0D01*
G01*
X105000000Y-128500000D02*
G75*
G02*
X165000000Y-128500000I30000000J0D01*
G01*
D15*
%TO.C,U2*%
X215794000Y-97040000D02*
X86000000Y-97040000D01*
X215794000Y-38620000D02*
X215794000Y-97040000D01*
X86000000Y-97040000D02*
X86000000Y-38620000D01*
X86000000Y-38620000D02*
X215794000Y-38620000D01*
D14*
%TO.C,D5*%
X203302500Y-101265000D02*
X203302500Y-102735000D01*
X203302500Y-102735000D02*
X205587500Y-102735000D01*
X205587500Y-101265000D02*
X203302500Y-101265000D01*
%TO.C,J2*%
X179000000Y-137000000D02*
G75*
G02*
X168000000Y-137000000I-5500000J0D01*
G01*
X168000000Y-137000000D02*
G75*
G02*
X179000000Y-137000000I5500000J0D01*
G01*
D16*
%TO.C,U5*%
X188401200Y-104575700D02*
X188401200Y-112424300D01*
X188401200Y-112424300D02*
X194598800Y-112424300D01*
X194598800Y-104575700D02*
X188401200Y-104575700D01*
X194598800Y-112424300D02*
X194598800Y-104575700D01*
D14*
%TO.C,C6*%
X171711252Y-115765000D02*
X171188748Y-115765000D01*
X171711252Y-117235000D02*
X171188748Y-117235000D01*
%TO.C,C11*%
X196640580Y-101990000D02*
X196359420Y-101990000D01*
X196640580Y-103010000D02*
X196359420Y-103010000D01*
%TO.C,R6*%
X171977500Y-122262742D02*
X171977500Y-122737258D01*
X173022500Y-122262742D02*
X173022500Y-122737258D01*
%TO.C,R1*%
X191762742Y-115977500D02*
X192237258Y-115977500D01*
X191762742Y-117022500D02*
X192237258Y-117022500D01*
%TO.C,J4*%
X98500000Y-136000000D02*
G75*
G02*
X87500000Y-136000000I-5500000J0D01*
G01*
X87500000Y-136000000D02*
G75*
G02*
X98500000Y-136000000I5500000J0D01*
G01*
D16*
%TO.C,U3*%
X169901200Y-105075700D02*
X169901200Y-112924300D01*
X169901200Y-112924300D02*
X176098800Y-112924300D01*
X176098800Y-105075700D02*
X169901200Y-105075700D01*
X176098800Y-112924300D02*
X176098800Y-105075700D01*
D14*
%TO.C,J3*%
X213000000Y-121000000D02*
G75*
G02*
X202000000Y-121000000I-5500000J0D01*
G01*
X202000000Y-121000000D02*
G75*
G02*
X213000000Y-121000000I5500000J0D01*
G01*
%TO.C,J5*%
X215000000Y-137000000D02*
G75*
G02*
X204000000Y-137000000I-5500000J0D01*
G01*
X204000000Y-137000000D02*
G75*
G02*
X215000000Y-137000000I5500000J0D01*
G01*
%TO.C,C8*%
X171590580Y-117990000D02*
X171309420Y-117990000D01*
X171590580Y-119010000D02*
X171309420Y-119010000D01*
%TO.C,J1*%
X98500000Y-105000000D02*
G75*
G02*
X87500000Y-105000000I-5500000J0D01*
G01*
X87500000Y-105000000D02*
G75*
G02*
X98500000Y-105000000I5500000J0D01*
G01*
%TO.C,D3*%
X160912500Y-103235000D02*
X163197500Y-103235000D01*
X163197500Y-101765000D02*
X160912500Y-101765000D01*
X163197500Y-103235000D02*
X163197500Y-101765000D01*
%TO.C,D4*%
X205515000Y-108265000D02*
X205515000Y-109735000D01*
X205515000Y-109735000D02*
X207800000Y-109735000D01*
X207800000Y-108265000D02*
X205515000Y-108265000D01*
%TO.C,D2*%
X161200000Y-109735000D02*
X163485000Y-109735000D01*
X163485000Y-108265000D02*
X161200000Y-108265000D01*
X163485000Y-109735000D02*
X163485000Y-108265000D01*
%TO.C,D6*%
X100350000Y-119990000D02*
X100350000Y-125500000D01*
X103650000Y-119990000D02*
X100350000Y-119990000D01*
X103650000Y-119990000D02*
X103650000Y-125500000D01*
%TO.C,R3*%
X175977500Y-100762742D02*
X175977500Y-101237258D01*
X177022500Y-100762742D02*
X177022500Y-101237258D01*
%TO.C,Q1*%
X100184000Y-109380000D02*
X100184000Y-119620000D01*
X103315000Y-109380000D02*
X103315000Y-119620000D01*
X104825000Y-109380000D02*
X100184000Y-109380000D01*
X104825000Y-109380000D02*
X104825000Y-119620000D01*
X104825000Y-112650000D02*
X103315000Y-112650000D01*
X104825000Y-116351000D02*
X103315000Y-116351000D01*
X104825000Y-119620000D02*
X100184000Y-119620000D01*
%TO.C,C14*%
X188640580Y-115990000D02*
X188359420Y-115990000D01*
X188640580Y-117010000D02*
X188359420Y-117010000D01*
%TO.C,C9*%
X196640580Y-103990000D02*
X196359420Y-103990000D01*
X196640580Y-105010000D02*
X196359420Y-105010000D01*
%TO.C,C17*%
X181590000Y-129788748D02*
X181590000Y-131211252D01*
X183410000Y-129788748D02*
X183410000Y-131211252D01*
%TO.C,D1*%
X179510000Y-124350000D02*
X174000000Y-124350000D01*
X179510000Y-127650000D02*
X174000000Y-127650000D01*
X179510000Y-127650000D02*
X179510000Y-124350000D01*
%TO.C,C15*%
X89759000Y-118413323D02*
X86082000Y-118413323D01*
X89759000Y-118453323D02*
X86093000Y-118453323D01*
X89759000Y-118493323D02*
X86103000Y-118493323D01*
X89759000Y-118533323D02*
X86115000Y-118533323D01*
X89759000Y-118573323D02*
X86126000Y-118573323D01*
X89759000Y-118613323D02*
X86138000Y-118613323D01*
X89759000Y-118653323D02*
X86150000Y-118653323D01*
X89759000Y-118693323D02*
X86163000Y-118693323D01*
X89759000Y-118733323D02*
X86176000Y-118733323D01*
X89759000Y-118773323D02*
X86189000Y-118773323D01*
X89759000Y-118813323D02*
X86203000Y-118813323D01*
X89759000Y-118853323D02*
X86217000Y-118853323D01*
X89759000Y-118893323D02*
X86232000Y-118893323D01*
X89759000Y-118933323D02*
X86246000Y-118933323D01*
X89759000Y-118973323D02*
X86262000Y-118973323D01*
X89759000Y-119013323D02*
X86277000Y-119013323D01*
X89759000Y-119053323D02*
X86293000Y-119053323D01*
X89759000Y-119093323D02*
X86310000Y-119093323D01*
X89759000Y-119133323D02*
X86326000Y-119133323D01*
X89759000Y-119173323D02*
X86343000Y-119173323D01*
X89759000Y-119213323D02*
X86361000Y-119213323D01*
X89759000Y-119253323D02*
X86379000Y-119253323D01*
X89759000Y-119293323D02*
X86397000Y-119293323D01*
X89759000Y-119333323D02*
X86416000Y-119333323D01*
X89759000Y-119373323D02*
X86436000Y-119373323D01*
X89759000Y-119413323D02*
X86455000Y-119413323D01*
X89759000Y-119453323D02*
X86475000Y-119453323D01*
X89759000Y-119493323D02*
X86496000Y-119493323D01*
X89759000Y-119533323D02*
X86517000Y-119533323D01*
X89759000Y-119573323D02*
X86538000Y-119573323D01*
X89759000Y-119613323D02*
X86560000Y-119613323D01*
X89759000Y-119653323D02*
X86583000Y-119653323D01*
X89759000Y-119693323D02*
X86605000Y-119693323D01*
X89759000Y-119733323D02*
X86629000Y-119733323D01*
X89759000Y-119773323D02*
X86653000Y-119773323D01*
X89759000Y-119813323D02*
X86677000Y-119813323D01*
X89759000Y-119853323D02*
X86702000Y-119853323D01*
X89759000Y-119893323D02*
X86727000Y-119893323D01*
X89759000Y-119933323D02*
X86753000Y-119933323D01*
X89759000Y-119973323D02*
X86779000Y-119973323D01*
X89759000Y-120013323D02*
X86806000Y-120013323D01*
X89759000Y-120053323D02*
X86834000Y-120053323D01*
X89759000Y-120093323D02*
X86862000Y-120093323D01*
X89759000Y-120133323D02*
X86890000Y-120133323D01*
X89759000Y-120173323D02*
X86920000Y-120173323D01*
X89759000Y-120213323D02*
X86950000Y-120213323D01*
X89759000Y-120253323D02*
X86980000Y-120253323D01*
X89759000Y-120293323D02*
X87011000Y-120293323D01*
X89759000Y-120333323D02*
X87043000Y-120333323D01*
X89759000Y-120373323D02*
X87075000Y-120373323D01*
X89759000Y-120413323D02*
X87108000Y-120413323D01*
X89759000Y-120453323D02*
X87142000Y-120453323D01*
X89759000Y-120493323D02*
X87176000Y-120493323D01*
X89759000Y-120533323D02*
X87211000Y-120533323D01*
X89759000Y-120573323D02*
X87247000Y-120573323D01*
X89759000Y-120613323D02*
X87284000Y-120613323D01*
X89759000Y-120653323D02*
X87321000Y-120653323D01*
X89759000Y-120693323D02*
X87360000Y-120693323D01*
X89759000Y-120733323D02*
X87399000Y-120733323D01*
X89759000Y-120773323D02*
X87439000Y-120773323D01*
X89759000Y-120813323D02*
X87480000Y-120813323D01*
X89759000Y-120853323D02*
X87522000Y-120853323D01*
X91599000Y-122213323D02*
X90401000Y-122213323D01*
X91862000Y-122173323D02*
X90138000Y-122173323D01*
X92062000Y-122133323D02*
X89938000Y-122133323D01*
X92230000Y-122093323D02*
X89770000Y-122093323D01*
X92378000Y-122053323D02*
X89622000Y-122053323D01*
X92510000Y-122013323D02*
X89490000Y-122013323D01*
X92630000Y-121973323D02*
X89370000Y-121973323D01*
X92742000Y-121933323D02*
X89258000Y-121933323D01*
X92846000Y-121893323D02*
X89154000Y-121893323D01*
X92944000Y-121853323D02*
X89056000Y-121853323D01*
X93037000Y-121813323D02*
X88963000Y-121813323D01*
X93125000Y-121773323D02*
X88875000Y-121773323D01*
X93209000Y-121733323D02*
X88791000Y-121733323D01*
X93289000Y-121693323D02*
X88711000Y-121693323D01*
X93365000Y-121653323D02*
X88635000Y-121653323D01*
X93439000Y-121613323D02*
X88561000Y-121613323D01*
X93510000Y-121573323D02*
X88490000Y-121573323D01*
X93579000Y-121533323D02*
X88421000Y-121533323D01*
X93645000Y-121493323D02*
X88355000Y-121493323D01*
X93709000Y-121453323D02*
X88291000Y-121453323D01*
X93770000Y-121413323D02*
X88230000Y-121413323D01*
X93830000Y-121373323D02*
X88170000Y-121373323D01*
X93875000Y-111652677D02*
X93875000Y-112652677D01*
X93889000Y-121333323D02*
X88111000Y-121333323D01*
X93945000Y-121293323D02*
X88055000Y-121293323D01*
X94000000Y-121253323D02*
X88000000Y-121253323D01*
X94054000Y-121213323D02*
X87946000Y-121213323D01*
X94106000Y-121173323D02*
X87894000Y-121173323D01*
X94156000Y-121133323D02*
X87844000Y-121133323D01*
X94206000Y-121093323D02*
X87794000Y-121093323D01*
X94254000Y-121053323D02*
X87746000Y-121053323D01*
X94301000Y-121013323D02*
X87699000Y-121013323D01*
X94347000Y-120973323D02*
X87653000Y-120973323D01*
X94375000Y-112152677D02*
X93375000Y-112152677D01*
X94392000Y-120933323D02*
X87608000Y-120933323D01*
X94436000Y-120893323D02*
X87564000Y-120893323D01*
X94478000Y-120853323D02*
X92241000Y-120853323D01*
X94520000Y-120813323D02*
X92241000Y-120813323D01*
X94561000Y-120773323D02*
X92241000Y-120773323D01*
X94601000Y-120733323D02*
X92241000Y-120733323D01*
X94640000Y-120693323D02*
X92241000Y-120693323D01*
X94679000Y-120653323D02*
X92241000Y-120653323D01*
X94716000Y-120613323D02*
X92241000Y-120613323D01*
X94753000Y-120573323D02*
X92241000Y-120573323D01*
X94789000Y-120533323D02*
X92241000Y-120533323D01*
X94824000Y-120493323D02*
X92241000Y-120493323D01*
X94858000Y-120453323D02*
X92241000Y-120453323D01*
X94892000Y-120413323D02*
X92241000Y-120413323D01*
X94925000Y-120373323D02*
X92241000Y-120373323D01*
X94957000Y-120333323D02*
X92241000Y-120333323D01*
X94989000Y-120293323D02*
X92241000Y-120293323D01*
X95020000Y-120253323D02*
X92241000Y-120253323D01*
X95050000Y-120213323D02*
X92241000Y-120213323D01*
X95080000Y-120173323D02*
X92241000Y-120173323D01*
X95110000Y-120133323D02*
X92241000Y-120133323D01*
X95138000Y-120093323D02*
X92241000Y-120093323D01*
X95166000Y-120053323D02*
X92241000Y-120053323D01*
X95194000Y-120013323D02*
X92241000Y-120013323D01*
X95221000Y-119973323D02*
X92241000Y-119973323D01*
X95247000Y-119933323D02*
X92241000Y-119933323D01*
X95273000Y-119893323D02*
X92241000Y-119893323D01*
X95298000Y-119853323D02*
X92241000Y-119853323D01*
X95323000Y-119813323D02*
X92241000Y-119813323D01*
X95347000Y-119773323D02*
X92241000Y-119773323D01*
X95371000Y-119733323D02*
X92241000Y-119733323D01*
X95395000Y-119693323D02*
X92241000Y-119693323D01*
X95417000Y-119653323D02*
X92241000Y-119653323D01*
X95440000Y-119613323D02*
X92241000Y-119613323D01*
X95462000Y-119573323D02*
X92241000Y-119573323D01*
X95483000Y-119533323D02*
X92241000Y-119533323D01*
X95504000Y-119493323D02*
X92241000Y-119493323D01*
X95525000Y-119453323D02*
X92241000Y-119453323D01*
X95545000Y-119413323D02*
X92241000Y-119413323D01*
X95564000Y-119373323D02*
X92241000Y-119373323D01*
X95584000Y-119333323D02*
X92241000Y-119333323D01*
X95603000Y-119293323D02*
X92241000Y-119293323D01*
X95621000Y-119253323D02*
X92241000Y-119253323D01*
X95639000Y-119213323D02*
X92241000Y-119213323D01*
X95657000Y-119173323D02*
X92241000Y-119173323D01*
X95674000Y-119133323D02*
X92241000Y-119133323D01*
X95690000Y-119093323D02*
X92241000Y-119093323D01*
X95707000Y-119053323D02*
X92241000Y-119053323D01*
X95723000Y-119013323D02*
X92241000Y-119013323D01*
X95738000Y-118973323D02*
X92241000Y-118973323D01*
X95754000Y-118933323D02*
X92241000Y-118933323D01*
X95768000Y-118893323D02*
X92241000Y-118893323D01*
X95783000Y-118853323D02*
X92241000Y-118853323D01*
X95797000Y-118813323D02*
X92241000Y-118813323D01*
X95811000Y-118773323D02*
X92241000Y-118773323D01*
X95824000Y-118733323D02*
X92241000Y-118733323D01*
X95837000Y-118693323D02*
X92241000Y-118693323D01*
X95850000Y-118653323D02*
X92241000Y-118653323D01*
X95862000Y-118613323D02*
X92241000Y-118613323D01*
X95874000Y-118573323D02*
X92241000Y-118573323D01*
X95885000Y-118533323D02*
X92241000Y-118533323D01*
X95897000Y-118493323D02*
X92241000Y-118493323D01*
X95907000Y-118453323D02*
X92241000Y-118453323D01*
X95918000Y-118413323D02*
X92241000Y-118413323D01*
X95928000Y-118373323D02*
X86072000Y-118373323D01*
X95938000Y-118333323D02*
X86062000Y-118333323D01*
X95947000Y-118293323D02*
X86053000Y-118293323D01*
X95956000Y-118253323D02*
X86044000Y-118253323D01*
X95965000Y-118213323D02*
X86035000Y-118213323D01*
X95974000Y-118173323D02*
X86026000Y-118173323D01*
X95982000Y-118133323D02*
X86018000Y-118133323D01*
X95990000Y-118093323D02*
X86010000Y-118093323D01*
X95997000Y-118053323D02*
X86003000Y-118053323D01*
X96004000Y-118013323D02*
X85996000Y-118013323D01*
X96011000Y-117973323D02*
X85989000Y-117973323D01*
X96018000Y-117933323D02*
X85982000Y-117933323D01*
X96024000Y-117893323D02*
X85976000Y-117893323D01*
X96030000Y-117853323D02*
X85970000Y-117853323D01*
X96035000Y-117812323D02*
X85965000Y-117812323D01*
X96040000Y-117772323D02*
X85960000Y-117772323D01*
X96045000Y-117732323D02*
X85955000Y-117732323D01*
X96050000Y-117692323D02*
X85950000Y-117692323D01*
X96054000Y-117652323D02*
X85946000Y-117652323D01*
X96058000Y-117612323D02*
X85942000Y-117612323D01*
X96062000Y-117572323D02*
X85938000Y-117572323D01*
X96065000Y-117532323D02*
X85935000Y-117532323D01*
X96068000Y-117492323D02*
X85932000Y-117492323D01*
X96070000Y-117452323D02*
X85930000Y-117452323D01*
X96073000Y-117412323D02*
X85927000Y-117412323D01*
X96075000Y-117372323D02*
X85925000Y-117372323D01*
X96077000Y-117332323D02*
X85923000Y-117332323D01*
X96078000Y-117292323D02*
X85922000Y-117292323D01*
X96079000Y-117252323D02*
X85921000Y-117252323D01*
X96080000Y-117132323D02*
X85920000Y-117132323D01*
X96080000Y-117172323D02*
X85920000Y-117172323D01*
X96080000Y-117212323D02*
X85920000Y-117212323D01*
X96120000Y-117132323D02*
G75*
G02*
X85880000Y-117132323I-5120000J0D01*
G01*
X85880000Y-117132323D02*
G75*
G02*
X96120000Y-117132323I5120000J0D01*
G01*
%TO.C,C12*%
X196640580Y-111990000D02*
X196359420Y-111990000D01*
X196640580Y-113010000D02*
X196359420Y-113010000D01*
%TO.C,C13*%
X196640580Y-113990000D02*
X196359420Y-113990000D01*
X196640580Y-115010000D02*
X196359420Y-115010000D01*
%TO.C,C7*%
X171590580Y-119490000D02*
X171309420Y-119490000D01*
X171590580Y-120510000D02*
X171309420Y-120510000D01*
%TO.C,L1*%
X197120000Y-124000000D02*
G75*
G02*
X184880000Y-124000000I-6120000J0D01*
G01*
X184880000Y-124000000D02*
G75*
G02*
X197120000Y-124000000I6120000J0D01*
G01*
D16*
%TO.C,U4*%
X177626500Y-101119400D02*
X177626500Y-120880600D01*
X177626500Y-120880600D02*
X185373500Y-120880600D01*
X185373500Y-101119400D02*
X177626500Y-101119400D01*
X185373500Y-120880600D02*
X185373500Y-101119400D01*
D15*
%TO.C,PS1*%
X195500000Y-107250000D02*
X195500000Y-109750000D01*
X199500000Y-107250000D02*
X199500000Y-109750000D01*
D17*
X195100000Y-106400000D02*
G75*
G02*
X194900000Y-106400000I-100000J0D01*
G01*
X194900000Y-106400000D02*
G75*
G02*
X195100000Y-106400000I100000J0D01*
G01*
D14*
%TO.C,C1*%
X187490000Y-102359420D02*
X187490000Y-102640580D01*
X188510000Y-102359420D02*
X188510000Y-102640580D01*
%TO.C,R5*%
X169977500Y-122737258D02*
X169977500Y-122262742D01*
X171022500Y-122737258D02*
X171022500Y-122262742D01*
%TO.C,R4*%
X175272936Y-122090000D02*
X175727064Y-122090000D01*
X175272936Y-123560000D02*
X175727064Y-123560000D01*
%TD*%
M02*
