%TF.GenerationSoftware,KiCad,Pcbnew,8.0.8*%
%TF.CreationDate,2025-03-09T18:41:19-04:00*%
%TF.ProjectId,Power_Elec_Project,506f7765-725f-4456-9c65-635f50726f6a,1*%
%TF.SameCoordinates,Original*%
%TF.FileFunction,Copper,L2,Bot*%
%TF.FilePolarity,Positive*%
%FSLAX46Y46*%
G04 Gerber Fmt 4.6, Leading zero omitted, Abs format (unit mm)*
G04 Created by KiCad (PCBNEW 8.0.8) date 2025-03-09 18:41:19*
%MOMM*%
%LPD*%
G01*
G04 APERTURE LIST*
G04 Aperture macros list*
%AMRoundRect*
0 Rectangle with rounded corners*
0 $1 Rounding radius*
0 $2 $3 $4 $5 $6 $7 $8 $9 X,Y pos of 4 corners*
0 Add a 4 corners polygon primitive as box body*
4,1,4,$2,$3,$4,$5,$6,$7,$8,$9,$2,$3,0*
0 Add four circle primitives for the rounded corners*
1,1,$1+$1,$2,$3*
1,1,$1+$1,$4,$5*
1,1,$1+$1,$6,$7*
1,1,$1+$1,$8,$9*
0 Add four rect primitives between the rounded corners*
20,1,$1+$1,$2,$3,$4,$5,0*
20,1,$1+$1,$4,$5,$6,$7,0*
20,1,$1+$1,$6,$7,$8,$9,0*
20,1,$1+$1,$8,$9,$2,$3,0*%
G04 Aperture macros list end*
%TA.AperFunction,ComponentPad*%
%ADD10C,1.700000*%
%TD*%
%TA.AperFunction,ComponentPad*%
%ADD11C,3.000000*%
%TD*%
%TA.AperFunction,ComponentPad*%
%ADD12R,1.879600X1.879600*%
%TD*%
%TA.AperFunction,ComponentPad*%
%ADD13C,1.879600*%
%TD*%
%TA.AperFunction,ComponentPad*%
%ADD14R,1.524000X1.524000*%
%TD*%
%TA.AperFunction,ComponentPad*%
%ADD15C,1.524000*%
%TD*%
%TA.AperFunction,ComponentPad*%
%ADD16R,1.500000X1.500000*%
%TD*%
%TA.AperFunction,ComponentPad*%
%ADD17C,1.500000*%
%TD*%
%TA.AperFunction,ComponentPad*%
%ADD18C,10.160000*%
%TD*%
%TA.AperFunction,ComponentPad*%
%ADD19R,2.000000X1.905000*%
%TD*%
%TA.AperFunction,ComponentPad*%
%ADD20O,2.000000X1.905000*%
%TD*%
%TA.AperFunction,ComponentPad*%
%ADD21R,2.000000X2.000000*%
%TD*%
%TA.AperFunction,ComponentPad*%
%ADD22C,2.000000*%
%TD*%
%TA.AperFunction,ComponentPad*%
%ADD23C,3.200000*%
%TD*%
%TA.AperFunction,ComponentPad*%
%ADD24R,1.270000X1.270000*%
%TD*%
%TA.AperFunction,ComponentPad*%
%ADD25C,1.270000*%
%TD*%
%TA.AperFunction,SMDPad,CuDef*%
%ADD26RoundRect,0.250000X-0.250000X-0.475000X0.250000X-0.475000X0.250000X0.475000X-0.250000X0.475000X0*%
%TD*%
%TA.AperFunction,SMDPad,CuDef*%
%ADD27RoundRect,0.250000X0.350000X0.450000X-0.350000X0.450000X-0.350000X-0.450000X0.350000X-0.450000X0*%
%TD*%
%TA.AperFunction,SMDPad,CuDef*%
%ADD28RoundRect,0.200000X-0.200000X-0.275000X0.200000X-0.275000X0.200000X0.275000X-0.200000X0.275000X0*%
%TD*%
%TA.AperFunction,SMDPad,CuDef*%
%ADD29RoundRect,0.250000X-0.475000X0.250000X-0.475000X-0.250000X0.475000X-0.250000X0.475000X0.250000X0*%
%TD*%
%TA.AperFunction,SMDPad,CuDef*%
%ADD30RoundRect,0.250000X-0.650000X0.412500X-0.650000X-0.412500X0.650000X-0.412500X0.650000X0.412500X0*%
%TD*%
%TA.AperFunction,SMDPad,CuDef*%
%ADD31RoundRect,0.200000X-0.275000X0.200000X-0.275000X-0.200000X0.275000X-0.200000X0.275000X0.200000X0*%
%TD*%
%TA.AperFunction,SMDPad,CuDef*%
%ADD32RoundRect,0.250000X0.475000X-0.250000X0.475000X0.250000X-0.475000X0.250000X-0.475000X-0.250000X0*%
%TD*%
%TA.AperFunction,SMDPad,CuDef*%
%ADD33RoundRect,0.200000X0.200000X0.275000X-0.200000X0.275000X-0.200000X-0.275000X0.200000X-0.275000X0*%
%TD*%
%TA.AperFunction,ViaPad*%
%ADD34C,0.800000*%
%TD*%
%TA.AperFunction,Conductor*%
%ADD35C,0.800000*%
%TD*%
%TA.AperFunction,Conductor*%
%ADD36C,0.600000*%
%TD*%
%TA.AperFunction,Conductor*%
%ADD37C,1.000000*%
%TD*%
%TA.AperFunction,Conductor*%
%ADD38C,0.200000*%
%TD*%
G04 APERTURE END LIST*
D10*
%TO.P,L2,1,1*%
%TO.N,GNDREF*%
X111500000Y-128500000D03*
%TO.P,L2,2,2*%
%TO.N,/VOUT*%
X158500000Y-128500000D03*
%TD*%
D11*
%TO.P,U2,*%
%TO.N,*%
X88540000Y-41160000D03*
X88540000Y-94500000D03*
X213000000Y-41160000D03*
X213000000Y-94500000D03*
D12*
%TO.P,U2,J1_1,3.3V_J1*%
%TO.N,+3.3V*%
X117750000Y-90690000D03*
D13*
%TO.P,U2,J1_2,GPIO32*%
%TO.N,unconnected-(U2A-GPIO32-PadJ1_2)*%
X120290000Y-90690000D03*
%TO.P,U2,J1_3,GPIO19/SCIRXDB*%
%TO.N,unconnected-(U2A-GPIO19{slash}SCIRXDB-PadJ1_3)*%
X122830000Y-90690000D03*
%TO.P,U2,J1_4,GPIO18/SCITXDB*%
%TO.N,unconnected-(U2A-GPIO18{slash}SCITXDB-PadJ1_4)*%
X125370000Y-90690000D03*
%TO.P,U2,J1_5,GPIO67*%
%TO.N,unconnected-(U2A-GPIO67-PadJ1_5)*%
X127910000Y-90690000D03*
%TO.P,U2,J1_6,GPIO111*%
%TO.N,unconnected-(U2A-GPIO111-PadJ1_6)*%
X130450000Y-90690000D03*
%TO.P,U2,J1_7,GPIO60/SPICLKA*%
%TO.N,unconnected-(U2A-GPIO60{slash}SPICLKA-PadJ1_7)*%
X132990000Y-90690000D03*
%TO.P,U2,J1_8,GPIO22*%
%TO.N,unconnected-(U2A-GPIO22-PadJ1_8)*%
X135530000Y-90690000D03*
%TO.P,U2,J1_9,GPIO105/I2CSCLA*%
%TO.N,unconnected-(U2A-GPIO105{slash}I2CSCLA-PadJ1_9)*%
X138070000Y-90690000D03*
%TO.P,U2,J1_10,GPIO104/I2CSDAA*%
%TO.N,unconnected-(U2A-GPIO104{slash}I2CSDAA-PadJ1_10)*%
X140610000Y-90690000D03*
D12*
%TO.P,U2,J2_1,GPIO29/OPXBAR6*%
%TO.N,unconnected-(U2B-GPIO29{slash}OPXBAR6-PadJ2_1)*%
X140610000Y-44970000D03*
D13*
%TO.P,U2,J2_2,GPIO125/SD1CLK2*%
%TO.N,unconnected-(U2B-GPIO125{slash}SD1CLK2-PadJ2_2)*%
X138070000Y-44970000D03*
%TO.P,U2,J2_3,GPIO124/SD1D2*%
%TO.N,unconnected-(U2B-GPIO124{slash}SD1D2-PadJ2_3)*%
X135530000Y-44970000D03*
%TO.P,U2,J2_4,GPIO59/SPIAMISO*%
%TO.N,unconnected-(U2B-GPIO59{slash}SPIAMISO-PadJ2_4)*%
X132990000Y-44970000D03*
%TO.P,U2,J2_5,GPIO58/SPIAMOSI*%
%TO.N,unconnected-(U2B-GPIO58{slash}SPIAMOSI-PadJ2_5)*%
X130450000Y-44970000D03*
%TO.P,U2,J2_6,~{RESET_J2}*%
%TO.N,unconnected-(U2B-~{RESET_J2}-PadJ2_6)*%
X127910000Y-44970000D03*
%TO.P,U2,J2_7,GPIO122/SD1D1*%
%TO.N,unconnected-(U2B-GPIO122{slash}SD1D1-PadJ2_7)*%
X125370000Y-44970000D03*
%TO.P,U2,J2_8,GPIO123/SD1CLK1*%
%TO.N,unconnected-(U2B-GPIO123{slash}SD1CLK1-PadJ2_8)*%
X122830000Y-44970000D03*
%TO.P,U2,J2_9,GPIO61/SPIACS*%
%TO.N,unconnected-(U2B-GPIO61{slash}SPIACS-PadJ2_9)*%
X120290000Y-44970000D03*
%TO.P,U2,J2_10,GND_J2*%
%TO.N,GND*%
X117750000Y-44970000D03*
D12*
%TO.P,U2,J3_1,+5V_J3*%
%TO.N,unconnected-(U2C-+5V_J3-PadJ3_1)*%
X117750000Y-88150000D03*
D13*
%TO.P,U2,J3_2,GND_J3*%
%TO.N,GND*%
X120290000Y-88150000D03*
%TO.P,U2,J3_3,ADCIN14/ANALOGIN*%
%TO.N,/VFILT*%
X122830000Y-88150000D03*
%TO.P,U2,J3_4,ADCINC3/ANALOGIN*%
%TO.N,unconnected-(U2C-ADCINC3{slash}ANALOGIN-PadJ3_4)*%
X125370000Y-88150000D03*
%TO.P,U2,J3_5,ADCINB3/ANALOGIN*%
%TO.N,unconnected-(U2C-ADCINB3{slash}ANALOGIN-PadJ3_5)*%
X127910000Y-88150000D03*
%TO.P,U2,J3_6,ADCINA3/ANALOGIN*%
%TO.N,unconnected-(U2C-ADCINA3{slash}ANALOGIN-PadJ3_6)*%
X130450000Y-88150000D03*
%TO.P,U2,J3_7,ADCINC2/ANALOGIN*%
%TO.N,unconnected-(U2C-ADCINC2{slash}ANALOGIN-PadJ3_7)*%
X132990000Y-88150000D03*
%TO.P,U2,J3_8,ADCINB2/ANALOGIN*%
%TO.N,unconnected-(U2C-ADCINB2{slash}ANALOGIN-PadJ3_8)*%
X135530000Y-88150000D03*
%TO.P,U2,J3_9,ADCINA2/ANALOGIN*%
%TO.N,unconnected-(U2C-ADCINA2{slash}ANALOGIN-PadJ3_9)*%
X138070000Y-88150000D03*
%TO.P,U2,J3_10,ADCINA0/ANALOGIN(DACA)*%
%TO.N,unconnected-(U2C-ADCINA0{slash}ANALOGIN(DACA)-PadJ3_10)*%
X140610000Y-88150000D03*
D12*
%TO.P,U2,J4_1,PWM/BASED/DAC2*%
%TO.N,unconnected-(U2D-PWM{slash}BASED{slash}DAC2-PadJ4_1)*%
X140610000Y-47510000D03*
D13*
%TO.P,U2,J4_2,PWM/BASED/DAC1*%
%TO.N,unconnected-(U2D-PWM{slash}BASED{slash}DAC1-PadJ4_2)*%
X138070000Y-47510000D03*
%TO.P,U2,J4_3,GPIO16/OPXBAR7*%
%TO.N,unconnected-(U2D-GPIO16{slash}OPXBAR7-PadJ4_3)*%
X135530000Y-47510000D03*
%TO.P,U2,J4_4,GPIO24/OPXBAR1*%
%TO.N,unconnected-(U2D-GPIO24{slash}OPXBAR1-PadJ4_4)*%
X132990000Y-47510000D03*
%TO.P,U2,J4_5,GPIO5/PWMOUT3B*%
%TO.N,unconnected-(U2D-GPIO5{slash}PWMOUT3B-PadJ4_5)*%
X130450000Y-47510000D03*
%TO.P,U2,J4_6,GPIO4/PWMOUT3A*%
%TO.N,unconnected-(U2D-GPIO4{slash}PWMOUT3A-PadJ4_6)*%
X127910000Y-47510000D03*
%TO.P,U2,J4_7,GPIO3/PWMOUT2B*%
%TO.N,unconnected-(U2D-GPIO3{slash}PWMOUT2B-PadJ4_7)*%
X125370000Y-47510000D03*
%TO.P,U2,J4_8,GPIO2//PWMOUT2A*%
%TO.N,unconnected-(U2D-GPIO2{slash}{slash}PWMOUT2A-PadJ4_8)*%
X122830000Y-47510000D03*
%TO.P,U2,J4_9,GPIO1/PWMOUT1B*%
%TO.N,unconnected-(U2D-GPIO1{slash}PWMOUT1B-PadJ4_9)*%
X120290000Y-47510000D03*
%TO.P,U2,J4_10,GPIO0/PWMOUT1A*%
%TO.N,unconnected-(U2D-GPIO0{slash}PWMOUT1A-PadJ4_10)*%
X117750000Y-47510000D03*
D12*
%TO.P,U2,J5_1,3.3V_J5*%
%TO.N,unconnected-(U2E-3.3V_J5-PadJ5_1)*%
X181250000Y-90690000D03*
D13*
%TO.P,U2,J5_2,GPIO95*%
%TO.N,unconnected-(U2E-GPIO95-PadJ5_2)*%
X183790000Y-90690000D03*
%TO.P,U2,J5_3,GPIO139/SCICRX*%
%TO.N,unconnected-(U2E-GPIO139{slash}SCICRX-PadJ5_3)*%
X186330000Y-90690000D03*
%TO.P,U2,J5_4,GPIO56/SCICIX*%
%TO.N,unconnected-(U2E-GPIO56{slash}SCICIX-PadJ5_4)*%
X188870000Y-90690000D03*
%TO.P,U2,J5_5,GPIO97*%
%TO.N,unconnected-(U2E-GPIO97-PadJ5_5)*%
X191410000Y-90690000D03*
%TO.P,U2,J5_6,GPIO94*%
%TO.N,unconnected-(U2E-GPIO94-PadJ5_6)*%
X193950000Y-90690000D03*
%TO.P,U2,J5_7,GPIO65/SPIBCLK*%
%TO.N,unconnected-(U2E-GPIO65{slash}SPIBCLK-PadJ5_7)*%
X196490000Y-90690000D03*
%TO.P,U2,J5_8,GPIO52*%
%TO.N,unconnected-(U2E-GPIO52-PadJ5_8)*%
X199030000Y-90690000D03*
%TO.P,U2,J5_9,GPIO41/I2CSCLB/J5*%
%TO.N,unconnected-(U2E-GPIO41{slash}I2CSCLB{slash}J5-PadJ5_9)*%
X201570000Y-90690000D03*
%TO.P,U2,J5_10,GPIO40/I2CSDAB/J5*%
%TO.N,unconnected-(U2E-GPIO40{slash}I2CSDAB{slash}J5-PadJ5_10)*%
X204110000Y-90690000D03*
D12*
%TO.P,U2,J6_1,GPIO25/OPXBAR2*%
%TO.N,unconnected-(U2F-GPIO25{slash}OPXBAR2-PadJ6_1)*%
X204110000Y-44970000D03*
D13*
%TO.P,U2,J6_2,GPIO27/SD2CLK2*%
%TO.N,unconnected-(U2F-GPIO27{slash}SD2CLK2-PadJ6_2)*%
X201570000Y-44970000D03*
%TO.P,U2,J6_3,GPIO26/SD2D2*%
%TO.N,unconnected-(U2F-GPIO26{slash}SD2D2-PadJ6_3)*%
X199030000Y-44970000D03*
%TO.P,U2,J6_4,GPIO64/SPIBMISO*%
%TO.N,unconnected-(U2F-GPIO64{slash}SPIBMISO-PadJ6_4)*%
X196490000Y-44970000D03*
%TO.P,U2,J6_5,GPIO63/SPIBMOSI*%
%TO.N,unconnected-(U2F-GPIO63{slash}SPIBMOSI-PadJ6_5)*%
X193950000Y-44970000D03*
%TO.P,U2,J6_6,~{RESET_J6}*%
%TO.N,unconnected-(U2F-~{RESET_J6}-PadJ6_6)*%
X191410000Y-44970000D03*
%TO.P,U2,J6_7,GPIO130/SD2D1*%
%TO.N,unconnected-(U2F-GPIO130{slash}SD2D1-PadJ6_7)*%
X188870000Y-44970000D03*
%TO.P,U2,J6_8,GPIO131/SD2CLK1*%
%TO.N,unconnected-(U2F-GPIO131{slash}SD2CLK1-PadJ6_8)*%
X186330000Y-44970000D03*
%TO.P,U2,J6_9,GPIO66/SPIBCS*%
%TO.N,unconnected-(U2F-GPIO66{slash}SPIBCS-PadJ6_9)*%
X183790000Y-44970000D03*
%TO.P,U2,J6_10,GND_J6*%
%TO.N,unconnected-(U2F-GND_J6-PadJ6_10)*%
X181250000Y-44970000D03*
D12*
%TO.P,U2,J7_1,+5V_J7*%
%TO.N,+5V*%
X181250000Y-88150000D03*
D13*
%TO.P,U2,J7_2,GND_J7*%
%TO.N,GND*%
X183790000Y-88150000D03*
%TO.P,U2,J7_3,ADCIN15/ANALOGIN*%
%TO.N,unconnected-(U2G-ADCIN15{slash}ANALOGIN-PadJ7_3)*%
X186330000Y-88150000D03*
%TO.P,U2,J7_4,ADCINC5/ANALOGIN*%
%TO.N,unconnected-(U2G-ADCINC5{slash}ANALOGIN-PadJ7_4)*%
X188870000Y-88150000D03*
%TO.P,U2,J7_5,ADCINB5/ANALOGIN*%
%TO.N,unconnected-(U2G-ADCINB5{slash}ANALOGIN-PadJ7_5)*%
X191410000Y-88150000D03*
%TO.P,U2,J7_6,ADCINA5/ANALOGIN*%
%TO.N,unconnected-(U2G-ADCINA5{slash}ANALOGIN-PadJ7_6)*%
X193950000Y-88150000D03*
%TO.P,U2,J7_7,ADCINC4/ANALOGIN*%
%TO.N,unconnected-(U2G-ADCINC4{slash}ANALOGIN-PadJ7_7)*%
X196490000Y-88150000D03*
%TO.P,U2,J7_8,ADCINB4/ANALOGIN*%
%TO.N,unconnected-(U2G-ADCINB4{slash}ANALOGIN-PadJ7_8)*%
X199030000Y-88150000D03*
%TO.P,U2,J7_9,ADCINA4/ANALOGIN*%
%TO.N,unconnected-(U2G-ADCINA4{slash}ANALOGIN-PadJ7_9)*%
X201570000Y-88150000D03*
%TO.P,U2,J7_10,ADCINA1/ANALOGIN(DACB)*%
%TO.N,unconnected-(U2G-ADCINA1{slash}ANALOGIN(DACB)-PadJ7_10)*%
X204110000Y-88150000D03*
D12*
%TO.P,U2,J8_1,PWM/BASED/DAC4*%
%TO.N,unconnected-(U2H-PWM{slash}BASED{slash}DAC4-PadJ8_1)*%
X204110000Y-47510000D03*
D13*
%TO.P,U2,J8_2,PWM/BASED/DAC3*%
%TO.N,unconnected-(U2H-PWM{slash}BASED{slash}DAC3-PadJ8_2)*%
X201570000Y-47510000D03*
%TO.P,U2,J8_3,GPIO15/OPXBAR4*%
%TO.N,unconnected-(U2H-GPIO15{slash}OPXBAR4-PadJ8_3)*%
X199030000Y-47510000D03*
%TO.P,U2,J8_4,GPIO14/OPXBAR3*%
%TO.N,unconnected-(U2H-GPIO14{slash}OPXBAR3-PadJ8_4)*%
X196490000Y-47510000D03*
%TO.P,U2,J8_5,GPIO11/PWMOUT6B*%
%TO.N,/PWM*%
X193950000Y-47510000D03*
%TO.P,U2,J8_6,GPIO10/PWMOUT6A*%
%TO.N,unconnected-(U2H-GPIO10{slash}PWMOUT6A-PadJ8_6)*%
X191410000Y-47510000D03*
%TO.P,U2,J8_7,GPIO9/PWMOUT5B*%
%TO.N,unconnected-(U2H-GPIO9{slash}PWMOUT5B-PadJ8_7)*%
X188870000Y-47510000D03*
%TO.P,U2,J8_8,GPIO8/PWMOUT5A*%
%TO.N,unconnected-(U2H-GPIO8{slash}PWMOUT5A-PadJ8_8)*%
X186330000Y-47510000D03*
%TO.P,U2,J8_9,GPIO7/PWMOUT4B*%
%TO.N,unconnected-(U2H-GPIO7{slash}PWMOUT4B-PadJ8_9)*%
X183790000Y-47510000D03*
%TO.P,U2,J8_10,GPIO6/PWMOUT4A*%
%TO.N,unconnected-(U2H-GPIO6{slash}PWMOUT4A-PadJ8_10)*%
X181250000Y-47510000D03*
D14*
%TO.P,U2,J10_1,+3V_J10*%
%TO.N,unconnected-(U2I-+3V_J10-PadJ10_1)*%
X214270000Y-44970000D03*
D15*
%TO.P,U2,J10_2,GND_J10*%
%TO.N,GND*%
X211730000Y-44970000D03*
%TO.P,U2,J10_3,GND_J10__1*%
X209190000Y-44970000D03*
D14*
%TO.P,U2,J12_1,CANH*%
%TO.N,unconnected-(U2J-CANH-PadJ12_1)*%
X214270000Y-80530000D03*
D15*
%TO.P,U2,J12_2,CANL*%
%TO.N,unconnected-(U2J-CANL-PadJ12_2)*%
X214270000Y-83070000D03*
%TO.P,U2,J12_3,GND_J12*%
%TO.N,GND*%
X214270000Y-85610000D03*
D14*
%TO.P,U2,J14_1,EQEP1A*%
%TO.N,unconnected-(U2K-EQEP1A-PadJ14_1)*%
X214270000Y-50050000D03*
D15*
%TO.P,U2,J14_2,EQEP1B*%
%TO.N,unconnected-(U2K-EQEP1B-PadJ14_2)*%
X214270000Y-52590000D03*
%TO.P,U2,J14_3,EQEP1I*%
%TO.N,unconnected-(U2K-EQEP1I-PadJ14_3)*%
X214270000Y-55130000D03*
%TO.P,U2,J14_4,+5V_J14*%
%TO.N,unconnected-(U2K-+5V_J14-PadJ14_4)*%
X214270000Y-57670000D03*
%TO.P,U2,J14_5,GND_J14*%
%TO.N,GND*%
X214270000Y-60210000D03*
D14*
%TO.P,U2,J15_1,EQEP2A*%
%TO.N,unconnected-(U2L-EQEP2A-PadJ15_1)*%
X214270000Y-65290000D03*
D15*
%TO.P,U2,J15_2,EQEP2B*%
%TO.N,unconnected-(U2L-EQEP2B-PadJ15_2)*%
X214270000Y-67830000D03*
%TO.P,U2,J15_3,EQEP2I*%
%TO.N,unconnected-(U2L-EQEP2I-PadJ15_3)*%
X214270000Y-70370000D03*
%TO.P,U2,J15_4,+5V_J15*%
%TO.N,unconnected-(U2L-+5V_J15-PadJ15_4)*%
X214270000Y-72910000D03*
%TO.P,U2,J15_5,GND_J15*%
%TO.N,GND*%
X214270000Y-75450000D03*
D14*
%TO.P,U2,J16_1,+5V_J16*%
%TO.N,unconnected-(U2N-+5V_J16-PadJ16_1)*%
X214270000Y-90690000D03*
D15*
%TO.P,U2,J16_2,GND_J16*%
%TO.N,GND*%
X211730000Y-90690000D03*
%TO.P,U2,J16_3,GND_J16__1*%
X209190000Y-90690000D03*
D16*
%TO.P,U2,J21_1,ADCIND0*%
%TO.N,unconnected-(U2M-ADCIND0-PadJ21_1)*%
X144094000Y-87916000D03*
D17*
%TO.P,U2,J21_2,TP21/GND*%
%TO.N,GND*%
X144094000Y-90456000D03*
%TO.P,U2,J21_3,ADCIND1*%
%TO.N,unconnected-(U2M-ADCIND1-PadJ21_3)*%
X146634000Y-87916000D03*
%TO.P,U2,J21_4,TP22/GND*%
%TO.N,GND*%
X146634000Y-90456000D03*
%TO.P,U2,J21_5,ADCIND2*%
%TO.N,unconnected-(U2M-ADCIND2-PadJ21_5)*%
X149174000Y-87916000D03*
%TO.P,U2,J21_6,TP23/GND*%
%TO.N,GND*%
X149174000Y-90456000D03*
%TO.P,U2,J21_7,ADCIND3*%
%TO.N,unconnected-(U2M-ADCIND3-PadJ21_7)*%
X151714000Y-87916000D03*
%TO.P,U2,J21_8,TP24/GND*%
%TO.N,GND*%
X151714000Y-90456000D03*
%TD*%
D18*
%TO.P,J2,1,Pin_1*%
%TO.N,GNDREF*%
X173500000Y-137000000D03*
%TD*%
%TO.P,J4,1,Pin_1*%
%TO.N,GNDPWR*%
X93000000Y-136000000D03*
%TD*%
%TO.P,J3,1,Pin_1*%
%TO.N,/VOUT*%
X207500000Y-121000000D03*
%TD*%
%TO.P,J5,1,Pin_1*%
%TO.N,GNDPWR*%
X209500000Y-137000000D03*
%TD*%
%TO.P,J1,1,Pin_1*%
%TO.N,VDD*%
X93000000Y-105000000D03*
%TD*%
D19*
%TO.P,Q1,1,G*%
%TO.N,/VG*%
X101555000Y-111960000D03*
D20*
%TO.P,Q1,2,D*%
%TO.N,VDD*%
X101555000Y-114500000D03*
%TO.P,Q1,3,S*%
%TO.N,GNDREF*%
X101555000Y-117040000D03*
%TD*%
D21*
%TO.P,C15,1*%
%TO.N,VDD*%
X91000000Y-114632323D03*
D22*
%TO.P,C15,2*%
%TO.N,GNDPWR*%
X91000000Y-119632323D03*
%TD*%
D23*
%TO.P,L1,1,1*%
%TO.N,Net-(C2-Pad1)*%
X191000000Y-127000000D03*
%TO.P,L1,2,2*%
%TO.N,Net-(U5-INP)*%
X191000000Y-121000000D03*
%TD*%
D24*
%TO.P,U4,1,+VIN(VCC)*%
%TO.N,+5V*%
X183575000Y-103350000D03*
D25*
%TO.P,U4,2,-VIN(GGND)*%
%TO.N,GND*%
X183575000Y-105890000D03*
%TO.P,U4,5,-VOUT*%
%TO.N,GNDREF*%
X183575000Y-113510000D03*
%TO.P,U4,7,+VOUT*%
%TO.N,ISO_12V*%
X183575000Y-118590000D03*
%TD*%
D26*
%TO.P,C2,1*%
%TO.N,Net-(C2-Pad1)*%
X193550000Y-123500000D03*
%TO.P,C2,2*%
%TO.N,GNDPWR*%
X195450000Y-123500000D03*
%TD*%
D27*
%TO.P,R12,1*%
%TO.N,Net-(R10-Pad1)*%
X205500000Y-111000000D03*
%TO.P,R12,2*%
%TO.N,ISO_3.3V*%
X203500000Y-111000000D03*
%TD*%
D28*
%TO.P,R7,1*%
%TO.N,Net-(D2-A)*%
X161175000Y-108500000D03*
%TO.P,R7,2*%
%TO.N,ISO_12V*%
X162825000Y-108500000D03*
%TD*%
%TO.P,R9,1*%
%TO.N,Net-(D3-A)*%
X160887500Y-103500000D03*
%TO.P,R9,2*%
%TO.N,+5V*%
X162537500Y-103500000D03*
%TD*%
D29*
%TO.P,C5,1*%
%TO.N,+5V*%
X181075000Y-103440000D03*
%TO.P,C5,2*%
%TO.N,GND*%
X181075000Y-105340000D03*
%TD*%
D28*
%TO.P,R10,1*%
%TO.N,Net-(R10-Pad1)*%
X207175000Y-111000000D03*
%TO.P,R10,2*%
%TO.N,Net-(R10-Pad2)*%
X208825000Y-111000000D03*
%TD*%
%TO.P,R14,1*%
%TO.N,Net-(R13-Pad1)*%
X207175000Y-104000000D03*
%TO.P,R14,2*%
%TO.N,Net-(R14-Pad2)*%
X208825000Y-104000000D03*
%TD*%
D30*
%TO.P,C16,1*%
%TO.N,VDD*%
X96500000Y-114437500D03*
%TO.P,C16,2*%
%TO.N,GNDPWR*%
X96500000Y-117562500D03*
%TD*%
D31*
%TO.P,R2,1*%
%TO.N,Net-(C2-Pad1)*%
X193500000Y-125675000D03*
%TO.P,R2,2*%
%TO.N,/VOUT*%
X193500000Y-127325000D03*
%TD*%
D32*
%TO.P,C10,1*%
%TO.N,ISO_12V*%
X181075000Y-117340000D03*
%TO.P,C10,2*%
%TO.N,GNDREF*%
X181075000Y-115440000D03*
%TD*%
D33*
%TO.P,R11,1*%
%TO.N,Net-(R10-Pad2)*%
X208325000Y-113000000D03*
%TO.P,R11,2*%
%TO.N,Net-(D4-A)*%
X206675000Y-113000000D03*
%TD*%
D27*
%TO.P,R13,1*%
%TO.N,Net-(R13-Pad1)*%
X205500000Y-104000000D03*
%TO.P,R13,2*%
%TO.N,+3.3V*%
X203500000Y-104000000D03*
%TD*%
D28*
%TO.P,R8,1*%
%TO.N,Net-(D3-A)*%
X160887500Y-101500000D03*
%TO.P,R8,2*%
%TO.N,+5V*%
X162537500Y-101500000D03*
%TD*%
D33*
%TO.P,R15,1*%
%TO.N,Net-(R14-Pad2)*%
X208825000Y-102000000D03*
%TO.P,R15,2*%
%TO.N,Net-(D5-A)*%
X207175000Y-102000000D03*
%TD*%
D34*
%TO.N,VDD*%
X102500000Y-106000000D03*
X104000000Y-106000000D03*
X101500000Y-101000000D03*
X104500000Y-101000000D03*
X101000000Y-104000000D03*
X100000000Y-103000000D03*
X105500000Y-102000000D03*
X104500000Y-103000000D03*
X104000000Y-104000000D03*
X100000000Y-101000000D03*
X103000000Y-105000000D03*
X100000000Y-105000000D03*
X102500000Y-104000000D03*
X103000000Y-101000000D03*
X101000000Y-102000000D03*
X101500000Y-103000000D03*
X101500000Y-105000000D03*
X101000000Y-106000000D03*
X104500000Y-105000000D03*
X102500000Y-102000000D03*
X105500000Y-106000000D03*
X103000000Y-103000000D03*
X105500000Y-104000000D03*
X104000000Y-102000000D03*
%TO.N,+3.3V*%
X201000000Y-105000000D03*
%TO.N,GND*%
X149500000Y-58000000D03*
X136000000Y-69000000D03*
X186000000Y-72000000D03*
X125500000Y-66500000D03*
X151000000Y-56000000D03*
X160000000Y-64500000D03*
X144500000Y-71000000D03*
X153500000Y-56000000D03*
X156000000Y-56000000D03*
X150000000Y-64500000D03*
X166000000Y-62500000D03*
X210000000Y-79500000D03*
X124500000Y-60500000D03*
X143000000Y-62500000D03*
X203000000Y-82000000D03*
X137000000Y-71000000D03*
X132000000Y-60500000D03*
X210000000Y-69000000D03*
X139500000Y-71000000D03*
X134500000Y-60500000D03*
X131000000Y-69000000D03*
X143000000Y-56000000D03*
X128000000Y-62500000D03*
X146500000Y-69000000D03*
X202500000Y-79500000D03*
X141500000Y-58000000D03*
X199000000Y-73500000D03*
X157500000Y-60500000D03*
X167500000Y-60500000D03*
X141000000Y-69000000D03*
X170000000Y-60500000D03*
X195500000Y-82000000D03*
X185500000Y-82000000D03*
X203500000Y-71000000D03*
X124000000Y-58000000D03*
X193000000Y-82000000D03*
X193000000Y-105000000D03*
X164500000Y-103500000D03*
X202500000Y-69000000D03*
X171000000Y-56000000D03*
X124500000Y-64500000D03*
X140500000Y-66500000D03*
X133000000Y-62500000D03*
X165000000Y-71000000D03*
X201500000Y-73500000D03*
X209000000Y-84000000D03*
X147500000Y-64500000D03*
X194000000Y-84000000D03*
X122000000Y-71000000D03*
X153500000Y-62500000D03*
X161000000Y-66500000D03*
X161500000Y-69000000D03*
X207500000Y-69000000D03*
X164500000Y-58000000D03*
X142000000Y-71000000D03*
X190000000Y-101000000D03*
X152000000Y-58000000D03*
X168500000Y-66500000D03*
X152500000Y-64500000D03*
X202500000Y-75500000D03*
X155000000Y-60500000D03*
X158500000Y-62500000D03*
X133000000Y-66500000D03*
X148500000Y-56000000D03*
X207500000Y-79500000D03*
X121000000Y-69000000D03*
X132000000Y-71000000D03*
X168500000Y-62500000D03*
X206000000Y-71000000D03*
X170000000Y-71000000D03*
X163500000Y-66500000D03*
X186500000Y-77500000D03*
X200000000Y-69000000D03*
X199000000Y-77500000D03*
X149000000Y-69000000D03*
X205500000Y-82000000D03*
X187500000Y-79500000D03*
X130500000Y-62500000D03*
X129500000Y-60500000D03*
X150000000Y-71000000D03*
X159000000Y-69000000D03*
X168500000Y-56000000D03*
X190000000Y-73500000D03*
X166500000Y-69000000D03*
X190000000Y-79500000D03*
X129500000Y-64500000D03*
X162500000Y-71000000D03*
X190000000Y-75500000D03*
X197500000Y-69000000D03*
X191500000Y-77500000D03*
X167500000Y-71000000D03*
X134500000Y-71000000D03*
X157500000Y-64500000D03*
X144000000Y-58000000D03*
X203000000Y-100500000D03*
X165000000Y-64500000D03*
X200500000Y-82000000D03*
X142000000Y-60500000D03*
X193500000Y-69000000D03*
X156000000Y-66500000D03*
X169500000Y-58000000D03*
X146500000Y-58000000D03*
X167500000Y-64500000D03*
X154000000Y-69000000D03*
X169000000Y-100500000D03*
X127000000Y-60500000D03*
X155000000Y-71000000D03*
X188000000Y-70500000D03*
X162000000Y-58000000D03*
X133500000Y-69000000D03*
X139500000Y-64500000D03*
X188000000Y-82000000D03*
X130500000Y-56000000D03*
X140500000Y-62500000D03*
X148500000Y-62500000D03*
X208000000Y-82000000D03*
X154500000Y-58000000D03*
X191500000Y-84000000D03*
X123500000Y-69000000D03*
X138000000Y-62500000D03*
X188000000Y-75500000D03*
X165000000Y-60500000D03*
X197500000Y-75500000D03*
X150000000Y-60500000D03*
X161000000Y-56000000D03*
X208500000Y-71000000D03*
X173000000Y-99725000D03*
X200000000Y-79500000D03*
X160000000Y-71000000D03*
X198500000Y-71000000D03*
X147500000Y-71000000D03*
X156000000Y-62500000D03*
X209000000Y-73500000D03*
X205000000Y-79500000D03*
X157500000Y-71000000D03*
X125500000Y-56000000D03*
X125500000Y-62500000D03*
X195000000Y-79500000D03*
X128000000Y-56000000D03*
X196000000Y-71000000D03*
X196500000Y-77500000D03*
X192500000Y-79500000D03*
X158500000Y-56000000D03*
X145500000Y-66500000D03*
X158500000Y-66500000D03*
X195000000Y-69000000D03*
X123000000Y-62500000D03*
X135500000Y-56000000D03*
X142000000Y-64500000D03*
X123000000Y-56000000D03*
X137000000Y-64500000D03*
X127000000Y-71000000D03*
X163500000Y-56000000D03*
X204000000Y-73500000D03*
X186500000Y-84000000D03*
X145500000Y-62500000D03*
X126000000Y-69000000D03*
X187500000Y-69000000D03*
X196500000Y-84000000D03*
X195000000Y-75500000D03*
X134500000Y-64500000D03*
X191500000Y-73500000D03*
X162500000Y-60500000D03*
X206500000Y-84000000D03*
X139000000Y-58000000D03*
X136500000Y-58000000D03*
X172000000Y-58000000D03*
X189000000Y-77500000D03*
X138000000Y-56000000D03*
X196500000Y-73500000D03*
X144500000Y-60500000D03*
X145500000Y-56000000D03*
X194000000Y-73500000D03*
X199000000Y-84000000D03*
X209000000Y-77500000D03*
X144500000Y-64500000D03*
X127000000Y-64500000D03*
X151000000Y-66500000D03*
X201500000Y-77500000D03*
X193500000Y-71000000D03*
X194000000Y-77500000D03*
X156500000Y-69000000D03*
X137000000Y-60500000D03*
X130500000Y-66500000D03*
X129500000Y-71000000D03*
X138000000Y-66500000D03*
X191500000Y-71500000D03*
X143000000Y-66500000D03*
X204000000Y-77500000D03*
X132000000Y-64500000D03*
X164000000Y-69000000D03*
X190500000Y-82000000D03*
X171000000Y-62500000D03*
X151500000Y-69000000D03*
X162500000Y-64500000D03*
X160000000Y-60500000D03*
X155000000Y-64500000D03*
X206500000Y-73500000D03*
X189000000Y-84000000D03*
X161000000Y-62500000D03*
X153500000Y-66500000D03*
X143500000Y-69000000D03*
X152500000Y-60500000D03*
X128500000Y-69000000D03*
X122000000Y-60500000D03*
X134000000Y-58000000D03*
X206500000Y-77500000D03*
X133000000Y-56000000D03*
X207500000Y-75500000D03*
X123000000Y-66500000D03*
X192500000Y-75500000D03*
X135500000Y-66500000D03*
X171000000Y-66500000D03*
X122000000Y-64500000D03*
X124500000Y-71000000D03*
X210000000Y-75500000D03*
X189500000Y-68500000D03*
X205000000Y-75500000D03*
X157000000Y-58000000D03*
X201500000Y-84000000D03*
X166000000Y-66500000D03*
X148500000Y-66500000D03*
X211000000Y-71000000D03*
X166000000Y-56000000D03*
X159500000Y-58000000D03*
X152500000Y-71000000D03*
X128000000Y-66500000D03*
X131500000Y-58000000D03*
X147500000Y-60500000D03*
X198000000Y-82000000D03*
X135500000Y-62500000D03*
X200000000Y-75500000D03*
X140500000Y-56000000D03*
X129000000Y-58000000D03*
X205000000Y-69000000D03*
X170000000Y-64500000D03*
X204000000Y-84000000D03*
X167000000Y-58000000D03*
X138500000Y-69000000D03*
X201000000Y-71000000D03*
X139500000Y-60500000D03*
X169000000Y-69000000D03*
X163500000Y-62500000D03*
X151000000Y-62500000D03*
X126500000Y-58000000D03*
X197500000Y-79500000D03*
%TO.N,GNDPWR*%
X137000000Y-135500000D03*
X141000000Y-140000000D03*
X183500000Y-136000000D03*
X126000000Y-140000000D03*
X197000000Y-118000000D03*
X189000000Y-138500000D03*
X122500000Y-138000000D03*
X123500000Y-140000000D03*
X194000000Y-138500000D03*
X139500000Y-135500000D03*
X198500000Y-136000000D03*
X195000000Y-118000000D03*
X127500000Y-138000000D03*
X143500000Y-140000000D03*
X144500000Y-135500000D03*
X197500000Y-119000000D03*
X182500000Y-134000000D03*
X132000000Y-135500000D03*
X197000000Y-120000000D03*
X192500000Y-140500000D03*
X195500000Y-117000000D03*
X181000000Y-136000000D03*
X135000000Y-138000000D03*
X134500000Y-135500000D03*
X133500000Y-133500000D03*
X188500000Y-136000000D03*
X131000000Y-140000000D03*
X196500000Y-117000000D03*
X191500000Y-138500000D03*
X195000000Y-134000000D03*
X141000000Y-133500000D03*
X124500000Y-135500000D03*
X196000000Y-120000000D03*
X187500000Y-140500000D03*
X138500000Y-133500000D03*
X195000000Y-140500000D03*
X196000000Y-118000000D03*
X196500000Y-119000000D03*
X136000000Y-133500000D03*
X142000000Y-135500000D03*
X180000000Y-140500000D03*
X184000000Y-138500000D03*
X186500000Y-138500000D03*
X182500000Y-140500000D03*
X199137500Y-112137500D03*
X190000000Y-134000000D03*
X145000000Y-138000000D03*
X202000000Y-109000000D03*
X131000000Y-133500000D03*
X186000000Y-136000000D03*
X195500000Y-119000000D03*
X128500000Y-133500000D03*
X199000000Y-138000000D03*
X197500000Y-134000000D03*
X123500000Y-133500000D03*
X138500000Y-140000000D03*
X191000000Y-136000000D03*
X129500000Y-135500000D03*
X130000000Y-138000000D03*
X127000000Y-135500000D03*
X181500000Y-138500000D03*
X137500000Y-138000000D03*
X193500000Y-136000000D03*
X180000000Y-134000000D03*
X128500000Y-140000000D03*
X179500000Y-138500000D03*
X196000000Y-136000000D03*
X185000000Y-134000000D03*
X126000000Y-133500000D03*
X132500000Y-138000000D03*
X196500000Y-109500000D03*
X197000000Y-140500000D03*
X147000000Y-135500000D03*
X201000000Y-141000000D03*
X140000000Y-138000000D03*
X125000000Y-138000000D03*
X146000000Y-140000000D03*
X196500000Y-138500000D03*
X185000000Y-140500000D03*
X192500000Y-134000000D03*
X190000000Y-140500000D03*
X143500000Y-133500000D03*
X146000000Y-133500000D03*
X201000000Y-136000000D03*
X136000000Y-140000000D03*
X200000000Y-134000000D03*
X186500000Y-114500000D03*
X187500000Y-134000000D03*
X142500000Y-138000000D03*
X133500000Y-140000000D03*
%TO.N,+5V*%
X177500000Y-89500000D03*
X180060000Y-102940000D03*
%TO.N,ISO_12V*%
X173500000Y-112500000D03*
%TO.N,GNDREF*%
X119500000Y-110000000D03*
X108500000Y-123000000D03*
X116000000Y-120000000D03*
X111000000Y-118000000D03*
X115500000Y-112000000D03*
X125500000Y-112000000D03*
X137000000Y-113000000D03*
X121000000Y-118000000D03*
X118500000Y-119000000D03*
X121000000Y-122000000D03*
X110000000Y-124000000D03*
X125000000Y-120000000D03*
X120000000Y-120000000D03*
X133500000Y-112000000D03*
X121500000Y-110000000D03*
X117000000Y-111000000D03*
X114000000Y-124000000D03*
X134500000Y-110000000D03*
X117000000Y-120000000D03*
X127500000Y-123000000D03*
X128500000Y-110000000D03*
X120000000Y-113000000D03*
X116500000Y-112000000D03*
X120500000Y-119000000D03*
X127500000Y-121000000D03*
X126000000Y-113000000D03*
X111500000Y-119000000D03*
X115000000Y-126000000D03*
X118000000Y-122000000D03*
X137000000Y-111000000D03*
X125500000Y-121000000D03*
X107500000Y-123000000D03*
X111500000Y-125000000D03*
X127000000Y-111000000D03*
X119500000Y-119000000D03*
X109000000Y-124000000D03*
X117500000Y-123000000D03*
X133000000Y-120000000D03*
X127000000Y-118000000D03*
X126500000Y-119000000D03*
X138500000Y-110000000D03*
X122500000Y-112000000D03*
X141000000Y-113000000D03*
X117000000Y-113000000D03*
X132500000Y-110000000D03*
X136000000Y-118000000D03*
X114500000Y-119000000D03*
X125500000Y-119000000D03*
X125000000Y-118000000D03*
X132500000Y-121000000D03*
X123500000Y-112000000D03*
X128000000Y-122000000D03*
X129500000Y-110000000D03*
X123000000Y-122000000D03*
X115500000Y-121000000D03*
X133000000Y-118000000D03*
X128500000Y-121000000D03*
X126000000Y-111000000D03*
X113000000Y-122000000D03*
X117500000Y-112000000D03*
X107000000Y-122000000D03*
X128000000Y-118000000D03*
X129000000Y-118000000D03*
X118000000Y-113000000D03*
X119000000Y-111000000D03*
X109500000Y-123000000D03*
X122500000Y-123000000D03*
X112500000Y-125000000D03*
X121500000Y-123000000D03*
X120500000Y-121000000D03*
X136500000Y-119000000D03*
X107500000Y-121000000D03*
X129500000Y-121000000D03*
X121500000Y-121000000D03*
X137500000Y-110000000D03*
X135500000Y-112000000D03*
X163500000Y-112000000D03*
X127000000Y-122000000D03*
X135500000Y-110000000D03*
X114500000Y-121000000D03*
X138000000Y-113000000D03*
X107000000Y-126000000D03*
X167000000Y-113000000D03*
X113500000Y-123000000D03*
X131500000Y-121000000D03*
X117500000Y-121000000D03*
X122500000Y-110000000D03*
X122000000Y-122000000D03*
X114500000Y-123000000D03*
X116500000Y-123000000D03*
X128500000Y-112000000D03*
X115000000Y-124000000D03*
X112000000Y-120000000D03*
X125000000Y-111000000D03*
X113500000Y-121000000D03*
X120000000Y-111000000D03*
X116500000Y-125000000D03*
X133000000Y-113000000D03*
X111000000Y-122000000D03*
X114500000Y-112000000D03*
X125500000Y-123000000D03*
X134000000Y-122000000D03*
X131000000Y-122000000D03*
X117000000Y-124000000D03*
X124500000Y-121000000D03*
X112000000Y-124000000D03*
X108000000Y-122000000D03*
X116000000Y-113000000D03*
X124500000Y-119000000D03*
X135000000Y-120000000D03*
X135000000Y-113000000D03*
X135500000Y-119000000D03*
X134500000Y-121000000D03*
X130000000Y-120000000D03*
X137500000Y-121000000D03*
X131000000Y-111000000D03*
X110000000Y-120000000D03*
X129000000Y-122000000D03*
X128500000Y-119000000D03*
X134500000Y-112000000D03*
X165000000Y-111000000D03*
X139000000Y-113000000D03*
X120500000Y-110000000D03*
X164500000Y-112000000D03*
X112000000Y-122000000D03*
X134000000Y-120000000D03*
X127000000Y-120000000D03*
X131000000Y-120000000D03*
X139000000Y-111000000D03*
X117500000Y-119000000D03*
X124000000Y-113000000D03*
X130000000Y-113000000D03*
X141000000Y-111000000D03*
X114000000Y-113000000D03*
X114000000Y-122000000D03*
X130500000Y-119000000D03*
X136000000Y-120000000D03*
X115000000Y-122000000D03*
X112500000Y-119000000D03*
X118000000Y-120000000D03*
X126000000Y-120000000D03*
X110500000Y-125000000D03*
X110000000Y-122000000D03*
X131500000Y-110000000D03*
X128000000Y-120000000D03*
X138000000Y-111000000D03*
X109500000Y-125000000D03*
X165500000Y-110000000D03*
X108000000Y-120000000D03*
X115500000Y-125000000D03*
X107500000Y-125000000D03*
X136000000Y-122000000D03*
X125000000Y-113000000D03*
X122500000Y-121000000D03*
X115500000Y-123000000D03*
X133500000Y-121000000D03*
X135000000Y-111000000D03*
X113000000Y-124000000D03*
X126500000Y-112000000D03*
X116000000Y-126000000D03*
X109500000Y-121000000D03*
X140500000Y-112000000D03*
X133500000Y-119000000D03*
X116500000Y-110000000D03*
X113000000Y-111000000D03*
X122000000Y-111000000D03*
X108500000Y-125000000D03*
X113000000Y-120000000D03*
X111500000Y-121000000D03*
X121500000Y-112000000D03*
X132500000Y-112000000D03*
X117000000Y-118000000D03*
X113500000Y-125000000D03*
X121000000Y-120000000D03*
X131500000Y-112000000D03*
X117000000Y-122000000D03*
X119000000Y-113000000D03*
X135500000Y-121000000D03*
X122500000Y-119000000D03*
X140000000Y-111000000D03*
X114000000Y-126000000D03*
X123500000Y-123000000D03*
X132000000Y-122000000D03*
X111500000Y-123000000D03*
X136000000Y-111000000D03*
X136500000Y-110000000D03*
X123000000Y-120000000D03*
X124500000Y-112000000D03*
X123500000Y-119000000D03*
X125000000Y-122000000D03*
X127000000Y-113000000D03*
X112000000Y-118000000D03*
X115000000Y-118000000D03*
X164000000Y-111000000D03*
X119000000Y-122000000D03*
X123500000Y-121000000D03*
X119500000Y-112000000D03*
X124500000Y-110000000D03*
X132000000Y-111000000D03*
X138000000Y-122000000D03*
X123000000Y-111000000D03*
X126000000Y-118000000D03*
X115000000Y-120000000D03*
X136500000Y-121000000D03*
X126000000Y-122000000D03*
X127500000Y-110000000D03*
X131500000Y-119000000D03*
X115500000Y-110000000D03*
X115500000Y-119000000D03*
X110500000Y-121000000D03*
X129000000Y-113000000D03*
X164500000Y-110000000D03*
X130000000Y-122000000D03*
X132000000Y-118000000D03*
X123000000Y-113000000D03*
X137000000Y-122000000D03*
X116000000Y-124000000D03*
X138500000Y-112000000D03*
X107000000Y-124000000D03*
X132500000Y-119000000D03*
X117500000Y-110000000D03*
X114000000Y-111000000D03*
X166500000Y-112000000D03*
X124000000Y-111000000D03*
X122000000Y-120000000D03*
X108500000Y-119000000D03*
X136000000Y-113000000D03*
X134500000Y-119000000D03*
X114000000Y-120000000D03*
X119000000Y-118000000D03*
X120000000Y-122000000D03*
X135000000Y-122000000D03*
X110000000Y-126000000D03*
X109000000Y-122000000D03*
X137500000Y-119000000D03*
X141500000Y-112000000D03*
X116000000Y-111000000D03*
X113500000Y-112000000D03*
X129000000Y-120000000D03*
X139500000Y-112000000D03*
X116000000Y-122000000D03*
X119000000Y-120000000D03*
X124000000Y-118000000D03*
X108500000Y-121000000D03*
X137000000Y-120000000D03*
X116500000Y-119000000D03*
X121000000Y-111000000D03*
X118500000Y-121000000D03*
X131000000Y-118000000D03*
X118500000Y-123000000D03*
X140500000Y-110000000D03*
X126500000Y-121000000D03*
X124000000Y-122000000D03*
X116500000Y-121000000D03*
X109000000Y-120000000D03*
X130500000Y-121000000D03*
X130000000Y-118000000D03*
X133000000Y-122000000D03*
X120000000Y-118000000D03*
X119500000Y-123000000D03*
X129000000Y-111000000D03*
X133000000Y-111000000D03*
X113000000Y-118000000D03*
X122000000Y-118000000D03*
X131000000Y-113000000D03*
X140000000Y-113000000D03*
X137500000Y-112000000D03*
X114500000Y-110000000D03*
X134000000Y-118000000D03*
X115000000Y-113000000D03*
X132000000Y-113000000D03*
X126500000Y-110000000D03*
X124000000Y-120000000D03*
X128000000Y-111000000D03*
X123500000Y-110000000D03*
X121500000Y-119000000D03*
X119500000Y-121000000D03*
X120500000Y-123000000D03*
X133500000Y-110000000D03*
X112500000Y-121000000D03*
X111000000Y-120000000D03*
X114000000Y-118000000D03*
X138000000Y-120000000D03*
X129500000Y-112000000D03*
X166000000Y-113000000D03*
X139500000Y-110000000D03*
X134000000Y-111000000D03*
X113500000Y-119000000D03*
X118000000Y-118000000D03*
X137000000Y-118000000D03*
X113000000Y-113000000D03*
X122000000Y-113000000D03*
X127500000Y-119000000D03*
X114500000Y-125000000D03*
X166000000Y-111000000D03*
X123000000Y-118000000D03*
X126500000Y-123000000D03*
X109000000Y-126000000D03*
X118500000Y-110000000D03*
X117000000Y-126000000D03*
X128000000Y-113000000D03*
X112500000Y-123000000D03*
X125500000Y-110000000D03*
X115000000Y-111000000D03*
X120500000Y-112000000D03*
X130000000Y-111000000D03*
X124500000Y-123000000D03*
X136500000Y-112000000D03*
X127500000Y-112000000D03*
X110500000Y-119000000D03*
X130500000Y-112000000D03*
X116000000Y-118000000D03*
X108000000Y-126000000D03*
X132000000Y-120000000D03*
X118500000Y-112000000D03*
X108000000Y-124000000D03*
X111000000Y-124000000D03*
X121000000Y-113000000D03*
X118000000Y-111000000D03*
X135000000Y-118000000D03*
X130500000Y-110000000D03*
X110500000Y-123000000D03*
X165500000Y-112000000D03*
X109500000Y-119000000D03*
X129500000Y-119000000D03*
X134000000Y-113000000D03*
%TO.N,ISO_3.3V*%
X190000000Y-111000000D03*
X200500000Y-111500000D03*
%TO.N,Net-(D2-A)*%
X159500000Y-108500000D03*
%TO.N,Net-(D3-A)*%
X159500000Y-101000000D03*
%TO.N,Net-(D4-A)*%
X205500000Y-114000000D03*
%TO.N,Net-(D5-A)*%
X208000000Y-100000000D03*
%TO.N,Net-(U5-INP)*%
X191500000Y-112000000D03*
%TO.N,/VOUT*%
X161000000Y-123000000D03*
X160000000Y-118500000D03*
X162000000Y-121500000D03*
X163500000Y-129000000D03*
X161000000Y-120000000D03*
X158000000Y-118500000D03*
X167500000Y-129000000D03*
X163000000Y-123000000D03*
X158000000Y-121500000D03*
X165500000Y-129000000D03*
X178500000Y-129500000D03*
X166500000Y-124500000D03*
X167500000Y-126000000D03*
X176500000Y-129500000D03*
X156000000Y-121500000D03*
X180500000Y-127500000D03*
X184000000Y-127500000D03*
X163000000Y-120000000D03*
X199000000Y-128500000D03*
X156000000Y-118500000D03*
X179500000Y-128500000D03*
X177500000Y-128500000D03*
X160000000Y-121500000D03*
X162000000Y-118500000D03*
X180500000Y-129500000D03*
X163500000Y-126000000D03*
X159000000Y-120000000D03*
X165500000Y-126000000D03*
X159000000Y-123000000D03*
X169500000Y-126000000D03*
X175500000Y-128500000D03*
X162500000Y-127500000D03*
X157000000Y-120000000D03*
X168500000Y-124500000D03*
X164500000Y-127500000D03*
X164500000Y-124500000D03*
X168500000Y-127500000D03*
X166500000Y-127500000D03*
X169500000Y-129000000D03*
X174500000Y-129500000D03*
X162500000Y-124500000D03*
X157000000Y-123000000D03*
X182500000Y-127500000D03*
%TO.N,/PWM*%
X176000000Y-88000000D03*
X176000000Y-97000000D03*
%TD*%
D35*
%TO.N,+3.3V*%
X202000000Y-104000000D02*
X201000000Y-105000000D01*
X203500000Y-104000000D02*
X202000000Y-104000000D01*
D36*
%TO.N,GND*%
X117750000Y-44970000D02*
X117530000Y-44970000D01*
D35*
X120290000Y-88150000D02*
X120290000Y-86820923D01*
D36*
X181625000Y-105890000D02*
X181075000Y-105340000D01*
X144094000Y-90456000D02*
X151714000Y-90456000D01*
X183575000Y-105890000D02*
X181625000Y-105890000D01*
D35*
X113500000Y-47000000D02*
X115530000Y-44970000D01*
X113500000Y-80030923D02*
X113500000Y-47000000D01*
X115530000Y-44970000D02*
X117750000Y-44970000D01*
X120290000Y-86820923D02*
X113500000Y-80030923D01*
D36*
%TO.N,Net-(C2-Pad1)*%
X193550000Y-123500000D02*
X193550000Y-125625000D01*
X193500000Y-125675000D02*
X192325000Y-125675000D01*
X193550000Y-125625000D02*
X193500000Y-125675000D01*
X192325000Y-125675000D02*
X191000000Y-127000000D01*
%TO.N,+5V*%
X181075000Y-103440000D02*
X180560000Y-103440000D01*
D37*
X177500000Y-96639214D02*
X183575000Y-102714214D01*
X183575000Y-102714214D02*
X183575000Y-103350000D01*
D36*
X162537500Y-103500000D02*
X162537500Y-101500000D01*
X183485000Y-103440000D02*
X183575000Y-103350000D01*
X181075000Y-103440000D02*
X183485000Y-103440000D01*
D37*
X177500000Y-89500000D02*
X177500000Y-96639214D01*
D36*
X180560000Y-103440000D02*
X178620000Y-101500000D01*
X178620000Y-101500000D02*
X162537500Y-101500000D01*
%TO.N,ISO_12V*%
X181075000Y-117340000D02*
X182325000Y-117340000D01*
X182325000Y-117340000D02*
X183575000Y-118590000D01*
X162825000Y-108500000D02*
X169500000Y-108500000D01*
X169500000Y-108500000D02*
X173500000Y-112500000D01*
%TO.N,GNDREF*%
X181075000Y-115440000D02*
X179500000Y-117015000D01*
X181075000Y-115440000D02*
X181645000Y-115440000D01*
X179500000Y-117015000D02*
X179500000Y-121500000D01*
X181645000Y-115440000D02*
X183575000Y-113510000D01*
X179500000Y-121500000D02*
X172500000Y-128500000D01*
X172500000Y-128500000D02*
X172500000Y-136500000D01*
%TO.N,ISO_3.3V*%
X200500000Y-111500000D02*
X200000000Y-111000000D01*
X200000000Y-111000000D02*
X190000000Y-111000000D01*
X200500000Y-111500000D02*
X203000000Y-111500000D01*
X203000000Y-111500000D02*
X203500000Y-111000000D01*
%TO.N,Net-(D2-A)*%
X159500000Y-108500000D02*
X161175000Y-108500000D01*
%TO.N,Net-(D3-A)*%
X160000000Y-101500000D02*
X159500000Y-101000000D01*
X160887500Y-101500000D02*
X160000000Y-101500000D01*
X160887500Y-101500000D02*
X160887500Y-103500000D01*
%TO.N,Net-(D4-A)*%
X206500000Y-113000000D02*
X205500000Y-114000000D01*
X206675000Y-113000000D02*
X206500000Y-113000000D01*
%TO.N,Net-(D5-A)*%
X207175000Y-102000000D02*
X207175000Y-100825000D01*
X207175000Y-100825000D02*
X208000000Y-100000000D01*
%TO.N,Net-(U5-INP)*%
X191000000Y-112500000D02*
X191500000Y-112000000D01*
X191000000Y-121000000D02*
X191000000Y-112500000D01*
%TO.N,/VOUT*%
X197500000Y-128500000D02*
X199000000Y-128500000D01*
X196325000Y-127325000D02*
X197500000Y-128500000D01*
X193500000Y-127325000D02*
X196325000Y-127325000D01*
D37*
%TO.N,/PWM*%
X176000000Y-88000000D02*
X176000000Y-97000000D01*
D36*
%TO.N,Net-(R10-Pad1)*%
X207175000Y-111000000D02*
X205500000Y-111000000D01*
%TO.N,Net-(R10-Pad2)*%
X208325000Y-111500000D02*
X208825000Y-111000000D01*
X208325000Y-113000000D02*
X208325000Y-111500000D01*
%TO.N,Net-(R13-Pad1)*%
X205500000Y-104000000D02*
X207175000Y-104000000D01*
D38*
%TO.N,Net-(R14-Pad2)*%
X208825000Y-102000000D02*
X208825000Y-104000000D01*
%TD*%
%TA.AperFunction,Conductor*%
%TO.N,GNDREF*%
G36*
X158611985Y-108019685D02*
G01*
X158657740Y-108072489D01*
X158667684Y-108141647D01*
X158662877Y-108162318D01*
X158623172Y-108284519D01*
X158614326Y-108311744D01*
X158594540Y-108500000D01*
X158614326Y-108688256D01*
X158614327Y-108688259D01*
X158672818Y-108868277D01*
X158672821Y-108868284D01*
X158767467Y-109032216D01*
X158824153Y-109095172D01*
X158894129Y-109172888D01*
X159047265Y-109284148D01*
X159047270Y-109284151D01*
X159220192Y-109361142D01*
X159220197Y-109361144D01*
X159405354Y-109400500D01*
X159405355Y-109400500D01*
X159594644Y-109400500D01*
X159594646Y-109400500D01*
X159779803Y-109361144D01*
X159856749Y-109326885D01*
X159891931Y-109311221D01*
X159942367Y-109300500D01*
X160458768Y-109300500D01*
X160525807Y-109320185D01*
X160535235Y-109326885D01*
X160539807Y-109330466D01*
X160539812Y-109330469D01*
X160539815Y-109330472D01*
X160685394Y-109418478D01*
X160847804Y-109469086D01*
X160918384Y-109475500D01*
X160918387Y-109475500D01*
X161431613Y-109475500D01*
X161431616Y-109475500D01*
X161502196Y-109469086D01*
X161664606Y-109418478D01*
X161810185Y-109330472D01*
X161856509Y-109284148D01*
X161912319Y-109228339D01*
X161973642Y-109194854D01*
X162043334Y-109199838D01*
X162087681Y-109228339D01*
X162189811Y-109330469D01*
X162189813Y-109330470D01*
X162189815Y-109330472D01*
X162335394Y-109418478D01*
X162497804Y-109469086D01*
X162568384Y-109475500D01*
X162568387Y-109475500D01*
X163081613Y-109475500D01*
X163081616Y-109475500D01*
X163152196Y-109469086D01*
X163314606Y-109418478D01*
X163460185Y-109330472D01*
X163460189Y-109330467D01*
X163460192Y-109330466D01*
X163464765Y-109326885D01*
X163529678Y-109301039D01*
X163541232Y-109300500D01*
X169117060Y-109300500D01*
X169184099Y-109320185D01*
X169204741Y-109336819D01*
X172621262Y-112753340D01*
X172651512Y-112802703D01*
X172672818Y-112868277D01*
X172672821Y-112868284D01*
X172767467Y-113032216D01*
X172862247Y-113137479D01*
X172894129Y-113172888D01*
X173047265Y-113284148D01*
X173047270Y-113284151D01*
X173220192Y-113361142D01*
X173220197Y-113361144D01*
X173405354Y-113400500D01*
X173405355Y-113400500D01*
X173594644Y-113400500D01*
X173594646Y-113400500D01*
X173779803Y-113361144D01*
X173952730Y-113284151D01*
X174105871Y-113172888D01*
X174232533Y-113032216D01*
X174327179Y-112868284D01*
X174385674Y-112688256D01*
X174405460Y-112500000D01*
X174385674Y-112311744D01*
X174327179Y-112131716D01*
X174232533Y-111967784D01*
X174105871Y-111827112D01*
X174105870Y-111827111D01*
X173952734Y-111715851D01*
X173952729Y-111715848D01*
X173784809Y-111641084D01*
X173747564Y-111615486D01*
X170343759Y-108211681D01*
X170310274Y-108150358D01*
X170315258Y-108080666D01*
X170357130Y-108024733D01*
X170422594Y-108000316D01*
X170431440Y-108000000D01*
X182995572Y-108000000D01*
X183004418Y-108000316D01*
X183275790Y-108019724D01*
X183293291Y-108022241D01*
X183554803Y-108079129D01*
X183571762Y-108084108D01*
X183822524Y-108177638D01*
X183838616Y-108184987D01*
X184073501Y-108313244D01*
X184088375Y-108322802D01*
X184302624Y-108483188D01*
X184315994Y-108494774D01*
X184505225Y-108684005D01*
X184516811Y-108697375D01*
X184644752Y-108868284D01*
X184677193Y-108911619D01*
X184686758Y-108926503D01*
X184815011Y-109161382D01*
X184822361Y-109177475D01*
X184915888Y-109428229D01*
X184920872Y-109445205D01*
X184977757Y-109706702D01*
X184980275Y-109724214D01*
X184995979Y-109943787D01*
X184996117Y-109959269D01*
X184996104Y-109959520D01*
X184995138Y-109977535D01*
X184994954Y-109982681D01*
X184994820Y-109986424D01*
X184994500Y-110004407D01*
X184994500Y-120072472D01*
X184994184Y-120081318D01*
X184980275Y-120275785D01*
X184977757Y-120293297D01*
X184920872Y-120554794D01*
X184915888Y-120571770D01*
X184822361Y-120822524D01*
X184815011Y-120838617D01*
X184686758Y-121073496D01*
X184677193Y-121088380D01*
X184516811Y-121302624D01*
X184505225Y-121315994D01*
X184315994Y-121505225D01*
X184302624Y-121516811D01*
X184088380Y-121677193D01*
X184073496Y-121686758D01*
X183838617Y-121815011D01*
X183822524Y-121822361D01*
X183571770Y-121915888D01*
X183554794Y-121920872D01*
X183293297Y-121977757D01*
X183275785Y-121980275D01*
X183056210Y-121995979D01*
X183040727Y-121996117D01*
X183022497Y-121995139D01*
X183013574Y-121994820D01*
X182995591Y-121994500D01*
X182995572Y-121994500D01*
X179683440Y-121994500D01*
X179683438Y-121994500D01*
X179629393Y-121997397D01*
X179613611Y-121999094D01*
X179611802Y-121999289D01*
X179598546Y-122000000D01*
X177115683Y-122000000D01*
X177098037Y-121998738D01*
X177068561Y-121994500D01*
X177068560Y-121994500D01*
X169927527Y-121994500D01*
X169918681Y-121994184D01*
X169724214Y-121980275D01*
X169706702Y-121977757D01*
X169445205Y-121920872D01*
X169428229Y-121915888D01*
X169177475Y-121822361D01*
X169161382Y-121815011D01*
X168926503Y-121686758D01*
X168911619Y-121677193D01*
X168697375Y-121516811D01*
X168684005Y-121505225D01*
X168494774Y-121315994D01*
X168483188Y-121302624D01*
X168469718Y-121284630D01*
X168322802Y-121088375D01*
X168313244Y-121073501D01*
X168184987Y-120838616D01*
X168177638Y-120822524D01*
X168084108Y-120571762D01*
X168079129Y-120554803D01*
X168022241Y-120293291D01*
X168019724Y-120275785D01*
X168005816Y-120081318D01*
X168005500Y-120072472D01*
X168005500Y-118004407D01*
X168005179Y-117986425D01*
X168005178Y-117986413D01*
X168005178Y-117986381D01*
X168004862Y-117977535D01*
X168003896Y-117959518D01*
X168000316Y-117909464D01*
X168000000Y-117900618D01*
X168000000Y-117500000D01*
X168000000Y-117039983D01*
X179849500Y-117039983D01*
X179849500Y-117640001D01*
X179849501Y-117640019D01*
X179860000Y-117742796D01*
X179860001Y-117742799D01*
X179912298Y-117900618D01*
X179915186Y-117909334D01*
X180007288Y-118058656D01*
X180131344Y-118182712D01*
X180280666Y-118274814D01*
X180447203Y-118329999D01*
X180549991Y-118340500D01*
X181600008Y-118340499D01*
X181600016Y-118340498D01*
X181600019Y-118340498D01*
X181656302Y-118334748D01*
X181702797Y-118329999D01*
X181869334Y-118274814D01*
X181945710Y-118227704D01*
X182013098Y-118209265D01*
X182079762Y-118230187D01*
X182098485Y-118245563D01*
X182402129Y-118549207D01*
X182435614Y-118610530D01*
X182437919Y-118625446D01*
X182454051Y-118799537D01*
X182454051Y-118799539D01*
X182454052Y-118799542D01*
X182507672Y-118987997D01*
X182511642Y-119001950D01*
X182605442Y-119190325D01*
X182732261Y-119358260D01*
X182887776Y-119500030D01*
X182887778Y-119500032D01*
X183066692Y-119610811D01*
X183066698Y-119610814D01*
X183072287Y-119612979D01*
X183262924Y-119686832D01*
X183469780Y-119725500D01*
X183469782Y-119725500D01*
X183680218Y-119725500D01*
X183680220Y-119725500D01*
X183887076Y-119686832D01*
X184083304Y-119610813D01*
X184262223Y-119500031D01*
X184417740Y-119358259D01*
X184544558Y-119190325D01*
X184638359Y-119001947D01*
X184695948Y-118799542D01*
X184715365Y-118590000D01*
X184695948Y-118380458D01*
X184638359Y-118178053D01*
X184544558Y-117989675D01*
X184417740Y-117821741D01*
X184331144Y-117742799D01*
X184262223Y-117679969D01*
X184262221Y-117679967D01*
X184083307Y-117569188D01*
X184083301Y-117569185D01*
X183895522Y-117496440D01*
X183887076Y-117493168D01*
X183680220Y-117454500D01*
X183680218Y-117454500D01*
X183622940Y-117454500D01*
X183555901Y-117434815D01*
X183535259Y-117418181D01*
X182835292Y-116718213D01*
X182835288Y-116718210D01*
X182704185Y-116630609D01*
X182704172Y-116630602D01*
X182558501Y-116570264D01*
X182558489Y-116570261D01*
X182403845Y-116539500D01*
X182403842Y-116539500D01*
X182112230Y-116539500D01*
X182045191Y-116519815D01*
X182024549Y-116503181D01*
X182018657Y-116497289D01*
X182018656Y-116497288D01*
X181869334Y-116405186D01*
X181702797Y-116350001D01*
X181702795Y-116350000D01*
X181600010Y-116339500D01*
X180549998Y-116339500D01*
X180549980Y-116339501D01*
X180447203Y-116350000D01*
X180447200Y-116350001D01*
X180280668Y-116405185D01*
X180280663Y-116405187D01*
X180131342Y-116497289D01*
X180007289Y-116621342D01*
X179915187Y-116770663D01*
X179915185Y-116770668D01*
X179890411Y-116845433D01*
X179860001Y-116937203D01*
X179860001Y-116937204D01*
X179860000Y-116937204D01*
X179849500Y-117039983D01*
X168000000Y-117039983D01*
X168000000Y-115500000D01*
X166000002Y-115500000D01*
X165599382Y-115500000D01*
X165590536Y-115499684D01*
X165540468Y-115496103D01*
X165522497Y-115495139D01*
X165513574Y-115494820D01*
X165495591Y-115494500D01*
X165495572Y-115494500D01*
X158077925Y-115494500D01*
X158077922Y-115494500D01*
X158060308Y-115494807D01*
X158051629Y-115495110D01*
X158034008Y-115496034D01*
X157977296Y-115500000D01*
X157500000Y-115500000D01*
X157251254Y-115638191D01*
X157095226Y-115694991D01*
X157062563Y-115708189D01*
X157046740Y-115715234D01*
X157014972Y-115730728D01*
X156780065Y-115855657D01*
X156764591Y-115864236D01*
X156757133Y-115868542D01*
X156742016Y-115877628D01*
X156118705Y-116267196D01*
X156113205Y-116270439D01*
X154028707Y-117428495D01*
X154028694Y-117428502D01*
X153000000Y-118000000D01*
X153000000Y-119176807D01*
X153000000Y-119176822D01*
X153000000Y-119509796D01*
X152999676Y-119518754D01*
X152996146Y-119567483D01*
X152995154Y-119585751D01*
X152994829Y-119594721D01*
X152994500Y-119612986D01*
X152994500Y-122572472D01*
X152994184Y-122581318D01*
X152980275Y-122775785D01*
X152977757Y-122793297D01*
X152920872Y-123054794D01*
X152915888Y-123071770D01*
X152822361Y-123322524D01*
X152815011Y-123338617D01*
X152686758Y-123573496D01*
X152677193Y-123588380D01*
X152516811Y-123802624D01*
X152505225Y-123815994D01*
X152315994Y-124005225D01*
X152302624Y-124016811D01*
X152088380Y-124177193D01*
X152073496Y-124186758D01*
X151838617Y-124315011D01*
X151822524Y-124322361D01*
X151571770Y-124415888D01*
X151554794Y-124420872D01*
X151293297Y-124477757D01*
X151275785Y-124480275D01*
X151081319Y-124494184D01*
X151072473Y-124494500D01*
X137371787Y-124494500D01*
X137339849Y-124496247D01*
X137316614Y-124497519D01*
X137300773Y-124499259D01*
X137287241Y-124500000D01*
X135111443Y-124500000D01*
X135105359Y-124499851D01*
X135000000Y-124494675D01*
X134894641Y-124499851D01*
X134888557Y-124500000D01*
X132675336Y-124500000D01*
X132657690Y-124498738D01*
X132628214Y-124494500D01*
X132628213Y-124494500D01*
X121290023Y-124494500D01*
X121290005Y-124494500D01*
X121271126Y-124494853D01*
X121261860Y-124495200D01*
X121242952Y-124496262D01*
X121193097Y-124500000D01*
X120500000Y-124500000D01*
X120271096Y-124712553D01*
X120241084Y-124724339D01*
X120206416Y-124739474D01*
X120189735Y-124747512D01*
X120156302Y-124765191D01*
X119913391Y-124905522D01*
X119881383Y-124925647D01*
X119866080Y-124936089D01*
X119835674Y-124958546D01*
X119612787Y-125136417D01*
X119598203Y-125148508D01*
X119591231Y-125154514D01*
X119591208Y-125154534D01*
X119587173Y-125158142D01*
X119577093Y-125167156D01*
X117183470Y-127389809D01*
X113830347Y-130503423D01*
X113830347Y-130503424D01*
X113472265Y-130835926D01*
X113433214Y-130860478D01*
X113313073Y-130907657D01*
X113295354Y-130913126D01*
X113021917Y-130975569D01*
X113003582Y-130978334D01*
X112792603Y-130994153D01*
X112783332Y-130994500D01*
X106427527Y-130994500D01*
X106418681Y-130994184D01*
X106224214Y-130980275D01*
X106206702Y-130977757D01*
X105945205Y-130920872D01*
X105928229Y-130915888D01*
X105677475Y-130822361D01*
X105661382Y-130815011D01*
X105426503Y-130686758D01*
X105411619Y-130677193D01*
X105197375Y-130516811D01*
X105184005Y-130505225D01*
X104994774Y-130315994D01*
X104983188Y-130302624D01*
X104822802Y-130088375D01*
X104813244Y-130073501D01*
X104684987Y-129838616D01*
X104677638Y-129822524D01*
X104584108Y-129571762D01*
X104579129Y-129554803D01*
X104522241Y-129293291D01*
X104519724Y-129275785D01*
X104505816Y-129081318D01*
X104505500Y-129072472D01*
X104505500Y-125504407D01*
X104505179Y-125486425D01*
X104505178Y-125486413D01*
X104505178Y-125486381D01*
X104504862Y-125477535D01*
X104503896Y-125459518D01*
X104500316Y-125409464D01*
X104500000Y-125400618D01*
X104500000Y-125000000D01*
X104500000Y-123000000D01*
X102500002Y-123000000D01*
X102099382Y-123000000D01*
X102090536Y-122999684D01*
X102040468Y-122996103D01*
X102022497Y-122995139D01*
X102013574Y-122994820D01*
X101995591Y-122994500D01*
X101995572Y-122994500D01*
X101927527Y-122994500D01*
X101918681Y-122994184D01*
X101724214Y-122980275D01*
X101706702Y-122977757D01*
X101445205Y-122920872D01*
X101428229Y-122915888D01*
X101177475Y-122822361D01*
X101161382Y-122815011D01*
X100926503Y-122686758D01*
X100911619Y-122677193D01*
X100697375Y-122516811D01*
X100684005Y-122505225D01*
X100494774Y-122315994D01*
X100483188Y-122302624D01*
X100322802Y-122088375D01*
X100313244Y-122073501D01*
X100184987Y-121838616D01*
X100177638Y-121822524D01*
X100123432Y-121677193D01*
X100084108Y-121571762D01*
X100079129Y-121554803D01*
X100022241Y-121293291D01*
X100019724Y-121275785D01*
X100005816Y-121081318D01*
X100005500Y-121072472D01*
X100005500Y-118504407D01*
X100005179Y-118486425D01*
X100005178Y-118486413D01*
X100005178Y-118486381D01*
X100004862Y-118477535D01*
X100003896Y-118459518D01*
X100000316Y-118409464D01*
X100000000Y-118400618D01*
X100000000Y-118004427D01*
X100000316Y-117995581D01*
X100019724Y-117724207D01*
X100022240Y-117706710D01*
X100079130Y-117445192D01*
X100084107Y-117428241D01*
X100177640Y-117177470D01*
X100184985Y-117161388D01*
X100313248Y-116926491D01*
X100322798Y-116911630D01*
X100483195Y-116697366D01*
X100494767Y-116684012D01*
X100684012Y-116494767D01*
X100697366Y-116483195D01*
X100911630Y-116322798D01*
X100926491Y-116313248D01*
X101161388Y-116184985D01*
X101177470Y-116177640D01*
X101428241Y-116084107D01*
X101445192Y-116079130D01*
X101706710Y-116022240D01*
X101724207Y-116019724D01*
X101918681Y-116005815D01*
X101927527Y-116005500D01*
X103493890Y-116005500D01*
X103493907Y-116005500D01*
X103518707Y-116004891D01*
X103530861Y-116004294D01*
X103555610Y-116002469D01*
X103572274Y-116000827D01*
X103574617Y-116000597D01*
X103586770Y-116000000D01*
X106000000Y-116000000D01*
X108000000Y-116000000D01*
X108000000Y-112094621D01*
X108000382Y-112084893D01*
X108000564Y-112082577D01*
X108003560Y-112044514D01*
X108004729Y-112024686D01*
X108005111Y-112014957D01*
X108005500Y-111995124D01*
X108005500Y-109927526D01*
X108005816Y-109918680D01*
X108019724Y-109724214D01*
X108022240Y-109706710D01*
X108079130Y-109445192D01*
X108084107Y-109428241D01*
X108177640Y-109177470D01*
X108184985Y-109161388D01*
X108313248Y-108926491D01*
X108322798Y-108911630D01*
X108483195Y-108697366D01*
X108494767Y-108684012D01*
X108684012Y-108494767D01*
X108697366Y-108483195D01*
X108911630Y-108322798D01*
X108926491Y-108313248D01*
X109161388Y-108184985D01*
X109177470Y-108177640D01*
X109428241Y-108084107D01*
X109445192Y-108079130D01*
X109706710Y-108022240D01*
X109724207Y-108019724D01*
X109995582Y-108000316D01*
X110004428Y-108000000D01*
X158544946Y-108000000D01*
X158611985Y-108019685D01*
G37*
%TD.AperFunction*%
%TD*%
%TA.AperFunction,Conductor*%
%TO.N,VDD*%
G36*
X105504418Y-97500316D02*
G01*
X105775790Y-97519724D01*
X105793291Y-97522241D01*
X106054803Y-97579129D01*
X106071762Y-97584108D01*
X106322521Y-97677637D01*
X106322524Y-97677638D01*
X106338616Y-97684987D01*
X106573499Y-97813243D01*
X106588375Y-97822802D01*
X106802621Y-97983186D01*
X106802624Y-97983188D01*
X106815994Y-97994774D01*
X107005225Y-98184005D01*
X107016811Y-98197375D01*
X107177193Y-98411619D01*
X107186758Y-98426503D01*
X107315011Y-98661382D01*
X107322361Y-98677475D01*
X107415888Y-98928229D01*
X107420872Y-98945205D01*
X107477757Y-99206702D01*
X107480275Y-99224214D01*
X107499684Y-99495581D01*
X107500000Y-99504427D01*
X107500000Y-111995124D01*
X107499618Y-112004853D01*
X107482298Y-112224924D01*
X107479254Y-112244142D01*
X107428863Y-112454035D01*
X107422850Y-112472541D01*
X107340243Y-112671971D01*
X107331409Y-112689308D01*
X107218624Y-112873355D01*
X107207187Y-112889096D01*
X107066997Y-113053238D01*
X107053238Y-113066997D01*
X106889096Y-113207187D01*
X106873355Y-113218624D01*
X106689308Y-113331409D01*
X106671971Y-113340243D01*
X106472541Y-113422850D01*
X106454035Y-113428863D01*
X106244142Y-113479254D01*
X106224924Y-113482298D01*
X106004854Y-113499618D01*
X105995125Y-113500000D01*
X104500000Y-113500000D01*
X104500000Y-114500000D01*
X104500000Y-114500001D01*
X104481982Y-114682935D01*
X104477240Y-114706775D01*
X104427424Y-114870998D01*
X104418121Y-114893456D01*
X104337227Y-115044798D01*
X104323722Y-115065010D01*
X104214854Y-115197666D01*
X104197666Y-115214854D01*
X104065010Y-115323722D01*
X104044798Y-115337227D01*
X103893456Y-115418121D01*
X103870998Y-115427424D01*
X103706775Y-115477240D01*
X103682934Y-115481982D01*
X103506061Y-115499403D01*
X103493907Y-115500000D01*
X99000000Y-115500000D01*
X87004448Y-115500000D01*
X86995602Y-115499684D01*
X86724235Y-115480275D01*
X86706723Y-115477757D01*
X86445225Y-115420872D01*
X86428249Y-115415888D01*
X86177497Y-115322362D01*
X86161404Y-115315012D01*
X85926521Y-115186756D01*
X85911638Y-115177191D01*
X85697398Y-115016813D01*
X85684034Y-115005234D01*
X85536836Y-114858037D01*
X85503353Y-114796717D01*
X85500520Y-114770372D01*
X85500519Y-110959635D01*
X100054500Y-110959635D01*
X100054500Y-112960370D01*
X100054501Y-112960376D01*
X100060908Y-113019983D01*
X100111202Y-113154828D01*
X100111206Y-113154835D01*
X100197452Y-113270044D01*
X100197455Y-113270047D01*
X100312664Y-113356293D01*
X100312671Y-113356297D01*
X100447517Y-113406591D01*
X100447516Y-113406591D01*
X100454444Y-113407335D01*
X100507127Y-113413000D01*
X102602872Y-113412999D01*
X102662483Y-113406591D01*
X102797331Y-113356296D01*
X102912546Y-113270046D01*
X102998796Y-113154831D01*
X103049091Y-113019983D01*
X103055500Y-112960373D01*
X103055499Y-110959628D01*
X103049091Y-110900017D01*
X102998796Y-110765169D01*
X102998795Y-110765168D01*
X102998793Y-110765164D01*
X102912547Y-110649955D01*
X102912544Y-110649952D01*
X102797335Y-110563706D01*
X102797328Y-110563702D01*
X102662482Y-110513408D01*
X102662483Y-110513408D01*
X102602883Y-110507001D01*
X102602881Y-110507000D01*
X102602873Y-110507000D01*
X102602864Y-110507000D01*
X100507129Y-110507000D01*
X100507123Y-110507001D01*
X100447516Y-110513408D01*
X100312671Y-110563702D01*
X100312664Y-110563706D01*
X100197455Y-110649952D01*
X100197452Y-110649955D01*
X100111206Y-110765164D01*
X100111202Y-110765171D01*
X100060908Y-110900017D01*
X100054501Y-110959616D01*
X100054501Y-110959623D01*
X100054500Y-110959635D01*
X85500519Y-110959635D01*
X85500516Y-98229640D01*
X85520201Y-98162602D01*
X85536830Y-98141965D01*
X85684030Y-97994765D01*
X85697392Y-97983188D01*
X85911640Y-97822803D01*
X85926509Y-97813247D01*
X86161410Y-97684981D01*
X86177479Y-97677642D01*
X86428257Y-97584107D01*
X86445208Y-97579130D01*
X86706727Y-97522240D01*
X86724224Y-97519724D01*
X86995599Y-97500316D01*
X87004445Y-97500000D01*
X105495572Y-97500000D01*
X105504418Y-97500316D01*
G37*
%TD.AperFunction*%
%TD*%
%TA.AperFunction,Conductor*%
%TO.N,GND*%
G36*
X212229713Y-43007818D02*
G01*
X212434954Y-43084369D01*
X212574763Y-43114782D01*
X212714566Y-43145195D01*
X212714568Y-43145195D01*
X212714572Y-43145196D01*
X212968220Y-43163337D01*
X212999999Y-43165610D01*
X213000000Y-43165610D01*
X213000001Y-43165610D01*
X213028595Y-43163564D01*
X213285428Y-43145196D01*
X213285433Y-43145195D01*
X213565043Y-43084370D01*
X213565046Y-43084369D01*
X213719114Y-43026904D01*
X213771299Y-43019403D01*
X213775804Y-43019725D01*
X213793291Y-43022241D01*
X214054803Y-43079129D01*
X214071762Y-43084108D01*
X214290276Y-43165610D01*
X214322524Y-43177638D01*
X214338616Y-43184987D01*
X214573501Y-43313244D01*
X214588375Y-43322802D01*
X214802624Y-43483188D01*
X214815994Y-43494774D01*
X214817039Y-43495819D01*
X214850524Y-43557142D01*
X214845540Y-43626834D01*
X214803668Y-43682767D01*
X214738204Y-43707184D01*
X214729358Y-43707500D01*
X213460129Y-43707500D01*
X213460123Y-43707501D01*
X213400516Y-43713908D01*
X213265671Y-43764202D01*
X213265664Y-43764206D01*
X213150455Y-43850452D01*
X213150452Y-43850455D01*
X213064206Y-43965664D01*
X213064202Y-43965671D01*
X213013908Y-44100517D01*
X213007501Y-44160116D01*
X213007500Y-44160135D01*
X213007500Y-45779870D01*
X213007501Y-45779876D01*
X213013908Y-45839483D01*
X213064202Y-45974328D01*
X213064206Y-45974335D01*
X213150452Y-46089544D01*
X213150455Y-46089547D01*
X213265664Y-46175793D01*
X213265671Y-46175797D01*
X213400517Y-46226091D01*
X213400516Y-46226091D01*
X213407444Y-46226835D01*
X213460127Y-46232500D01*
X215079872Y-46232499D01*
X215139483Y-46226091D01*
X215274331Y-46175796D01*
X215301689Y-46155315D01*
X215367151Y-46130898D01*
X215435425Y-46145749D01*
X215484831Y-46195153D01*
X215500000Y-46254582D01*
X215500000Y-48765417D01*
X215480315Y-48832456D01*
X215427511Y-48878211D01*
X215358353Y-48888155D01*
X215301689Y-48864684D01*
X215274331Y-48844204D01*
X215274328Y-48844202D01*
X215139482Y-48793908D01*
X215139483Y-48793908D01*
X215079883Y-48787501D01*
X215079881Y-48787500D01*
X215079873Y-48787500D01*
X215079864Y-48787500D01*
X213460129Y-48787500D01*
X213460123Y-48787501D01*
X213400516Y-48793908D01*
X213265671Y-48844202D01*
X213265664Y-48844206D01*
X213150455Y-48930452D01*
X213150452Y-48930455D01*
X213064206Y-49045664D01*
X213064202Y-49045671D01*
X213013908Y-49180517D01*
X213007501Y-49240116D01*
X213007500Y-49240135D01*
X213007500Y-50859870D01*
X213007501Y-50859876D01*
X213013908Y-50919483D01*
X213064202Y-51054328D01*
X213064206Y-51054335D01*
X213150452Y-51169544D01*
X213150455Y-51169547D01*
X213265664Y-51255793D01*
X213265671Y-51255797D01*
X213400517Y-51306091D01*
X213400516Y-51306091D01*
X213407444Y-51306835D01*
X213460127Y-51312500D01*
X213500079Y-51312499D01*
X213567116Y-51332182D01*
X213612872Y-51384985D01*
X213622817Y-51454143D01*
X213593794Y-51517700D01*
X213571203Y-51538074D01*
X213455375Y-51619177D01*
X213299175Y-51775377D01*
X213172466Y-51956338D01*
X213172465Y-51956340D01*
X213079107Y-52156548D01*
X213079104Y-52156554D01*
X213021930Y-52369929D01*
X213021929Y-52369937D01*
X213002677Y-52589997D01*
X213002677Y-52590002D01*
X213021929Y-52810062D01*
X213021930Y-52810070D01*
X213079104Y-53023445D01*
X213079105Y-53023447D01*
X213079106Y-53023450D01*
X213172466Y-53223662D01*
X213172468Y-53223666D01*
X213299170Y-53404615D01*
X213299175Y-53404621D01*
X213455378Y-53560824D01*
X213455384Y-53560829D01*
X213636333Y-53687531D01*
X213636335Y-53687532D01*
X213636338Y-53687534D01*
X213755748Y-53743215D01*
X213765189Y-53747618D01*
X213817628Y-53793790D01*
X213836780Y-53860984D01*
X213816564Y-53927865D01*
X213765189Y-53972382D01*
X213636340Y-54032465D01*
X213636338Y-54032466D01*
X213455377Y-54159175D01*
X213299175Y-54315377D01*
X213172466Y-54496338D01*
X213172465Y-54496340D01*
X213079107Y-54696548D01*
X213079104Y-54696554D01*
X213021930Y-54909929D01*
X213021929Y-54909937D01*
X213002677Y-55129997D01*
X213002677Y-55130002D01*
X213021929Y-55350062D01*
X213021930Y-55350070D01*
X213079104Y-55563445D01*
X213079105Y-55563447D01*
X213079106Y-55563450D01*
X213172466Y-55763662D01*
X213172468Y-55763666D01*
X213299170Y-55944615D01*
X213299175Y-55944621D01*
X213455378Y-56100824D01*
X213455384Y-56100829D01*
X213636333Y-56227531D01*
X213636335Y-56227532D01*
X213636338Y-56227534D01*
X213755748Y-56283215D01*
X213765189Y-56287618D01*
X213817628Y-56333790D01*
X213836780Y-56400984D01*
X213816564Y-56467865D01*
X213765189Y-56512382D01*
X213636340Y-56572465D01*
X213636338Y-56572466D01*
X213455377Y-56699175D01*
X213299175Y-56855377D01*
X213172466Y-57036338D01*
X213172465Y-57036340D01*
X213079107Y-57236548D01*
X213079104Y-57236554D01*
X213021930Y-57449929D01*
X213021929Y-57449937D01*
X213002677Y-57669997D01*
X213002677Y-57670002D01*
X213021929Y-57890062D01*
X213021930Y-57890070D01*
X213079104Y-58103445D01*
X213079105Y-58103447D01*
X213079106Y-58103450D01*
X213172466Y-58303662D01*
X213172468Y-58303666D01*
X213299170Y-58484615D01*
X213299175Y-58484621D01*
X213455378Y-58640824D01*
X213455384Y-58640829D01*
X213636333Y-58767531D01*
X213636335Y-58767532D01*
X213636338Y-58767534D01*
X213836550Y-58860894D01*
X214049932Y-58918070D01*
X214207123Y-58931822D01*
X214269998Y-58937323D01*
X214270000Y-58937323D01*
X214270002Y-58937323D01*
X214325017Y-58932509D01*
X214490068Y-58918070D01*
X214703450Y-58860894D01*
X214903662Y-58767534D01*
X215084620Y-58640826D01*
X215240826Y-58484620D01*
X215274425Y-58436636D01*
X215329002Y-58393011D01*
X215398500Y-58385817D01*
X215460855Y-58417340D01*
X215496269Y-58477570D01*
X215500000Y-58507759D01*
X215500000Y-64005417D01*
X215480315Y-64072456D01*
X215427511Y-64118211D01*
X215358353Y-64128155D01*
X215301689Y-64104684D01*
X215274331Y-64084204D01*
X215274328Y-64084202D01*
X215139482Y-64033908D01*
X215139483Y-64033908D01*
X215079883Y-64027501D01*
X215079881Y-64027500D01*
X215079873Y-64027500D01*
X215079864Y-64027500D01*
X213460129Y-64027500D01*
X213460123Y-64027501D01*
X213400516Y-64033908D01*
X213265671Y-64084202D01*
X213265664Y-64084206D01*
X213150455Y-64170452D01*
X213150452Y-64170455D01*
X213064206Y-64285664D01*
X213064202Y-64285671D01*
X213013908Y-64420517D01*
X213007501Y-64480116D01*
X213007500Y-64480135D01*
X213007500Y-66099870D01*
X213007501Y-66099876D01*
X213013908Y-66159483D01*
X213064202Y-66294328D01*
X213064206Y-66294335D01*
X213150452Y-66409544D01*
X213150455Y-66409547D01*
X213265664Y-66495793D01*
X213265671Y-66495797D01*
X213400517Y-66546091D01*
X213400516Y-66546091D01*
X213407444Y-66546835D01*
X213460127Y-66552500D01*
X213500079Y-66552499D01*
X213567116Y-66572182D01*
X213612872Y-66624985D01*
X213622817Y-66694143D01*
X213593794Y-66757700D01*
X213571203Y-66778074D01*
X213455375Y-66859177D01*
X213299175Y-67015377D01*
X213172466Y-67196338D01*
X213172465Y-67196340D01*
X213079107Y-67396548D01*
X213079104Y-67396554D01*
X213021930Y-67609929D01*
X213021929Y-67609937D01*
X213002677Y-67829997D01*
X213002677Y-67830002D01*
X213021929Y-68050062D01*
X213021930Y-68050070D01*
X213079104Y-68263445D01*
X213079105Y-68263447D01*
X213079106Y-68263450D01*
X213172466Y-68463662D01*
X213172468Y-68463666D01*
X213299170Y-68644615D01*
X213299175Y-68644621D01*
X213455378Y-68800824D01*
X213455384Y-68800829D01*
X213636333Y-68927531D01*
X213636335Y-68927532D01*
X213636338Y-68927534D01*
X213755748Y-68983215D01*
X213765189Y-68987618D01*
X213817628Y-69033790D01*
X213836780Y-69100984D01*
X213816564Y-69167865D01*
X213765189Y-69212382D01*
X213636340Y-69272465D01*
X213636338Y-69272466D01*
X213455377Y-69399175D01*
X213299175Y-69555377D01*
X213172466Y-69736338D01*
X213172465Y-69736340D01*
X213079107Y-69936548D01*
X213079104Y-69936554D01*
X213021930Y-70149929D01*
X213021929Y-70149937D01*
X213002677Y-70369997D01*
X213002677Y-70370002D01*
X213021929Y-70590062D01*
X213021930Y-70590070D01*
X213079104Y-70803445D01*
X213079105Y-70803447D01*
X213079106Y-70803450D01*
X213172466Y-71003662D01*
X213172468Y-71003666D01*
X213299170Y-71184615D01*
X213299175Y-71184621D01*
X213455378Y-71340824D01*
X213455384Y-71340829D01*
X213636333Y-71467531D01*
X213636335Y-71467532D01*
X213636338Y-71467534D01*
X213755748Y-71523215D01*
X213765189Y-71527618D01*
X213817628Y-71573790D01*
X213836780Y-71640984D01*
X213816564Y-71707865D01*
X213765189Y-71752382D01*
X213636340Y-71812465D01*
X213636338Y-71812466D01*
X213455377Y-71939175D01*
X213299175Y-72095377D01*
X213172466Y-72276338D01*
X213172465Y-72276340D01*
X213079107Y-72476548D01*
X213079104Y-72476554D01*
X213021930Y-72689929D01*
X213021929Y-72689937D01*
X213002677Y-72909997D01*
X213002677Y-72910002D01*
X213021929Y-73130062D01*
X213021930Y-73130070D01*
X213079104Y-73343445D01*
X213079105Y-73343447D01*
X213079106Y-73343450D01*
X213172466Y-73543662D01*
X213172468Y-73543666D01*
X213299170Y-73724615D01*
X213299175Y-73724621D01*
X213455378Y-73880824D01*
X213455384Y-73880829D01*
X213636333Y-74007531D01*
X213636335Y-74007532D01*
X213636338Y-74007534D01*
X213836550Y-74100894D01*
X214049932Y-74158070D01*
X214207123Y-74171822D01*
X214269998Y-74177323D01*
X214270000Y-74177323D01*
X214270002Y-74177323D01*
X214325017Y-74172509D01*
X214490068Y-74158070D01*
X214703450Y-74100894D01*
X214903662Y-74007534D01*
X215084620Y-73880826D01*
X215240826Y-73724620D01*
X215274425Y-73676636D01*
X215329002Y-73633011D01*
X215398500Y-73625817D01*
X215460855Y-73657340D01*
X215496269Y-73717570D01*
X215500000Y-73747759D01*
X215500000Y-79245417D01*
X215480315Y-79312456D01*
X215427511Y-79358211D01*
X215358353Y-79368155D01*
X215301689Y-79344684D01*
X215274331Y-79324204D01*
X215274328Y-79324202D01*
X215139482Y-79273908D01*
X215139483Y-79273908D01*
X215079883Y-79267501D01*
X215079881Y-79267500D01*
X215079873Y-79267500D01*
X215079864Y-79267500D01*
X213460129Y-79267500D01*
X213460123Y-79267501D01*
X213400516Y-79273908D01*
X213265671Y-79324202D01*
X213265664Y-79324206D01*
X213150455Y-79410452D01*
X213150452Y-79410455D01*
X213064206Y-79525664D01*
X213064202Y-79525671D01*
X213013908Y-79660517D01*
X213007501Y-79720116D01*
X213007500Y-79720135D01*
X213007500Y-81339870D01*
X213007501Y-81339876D01*
X213013908Y-81399483D01*
X213064202Y-81534328D01*
X213064206Y-81534335D01*
X213150452Y-81649544D01*
X213150455Y-81649547D01*
X213265664Y-81735793D01*
X213265671Y-81735797D01*
X213400517Y-81786091D01*
X213400516Y-81786091D01*
X213407444Y-81786835D01*
X213460127Y-81792500D01*
X213500079Y-81792499D01*
X213567116Y-81812182D01*
X213612872Y-81864985D01*
X213622817Y-81934143D01*
X213593794Y-81997700D01*
X213571203Y-82018074D01*
X213455375Y-82099177D01*
X213299175Y-82255377D01*
X213172466Y-82436338D01*
X213172465Y-82436340D01*
X213079107Y-82636548D01*
X213079104Y-82636554D01*
X213021930Y-82849929D01*
X213021929Y-82849937D01*
X213002677Y-83069997D01*
X213002677Y-83070002D01*
X213021929Y-83290062D01*
X213021930Y-83290070D01*
X213079104Y-83503445D01*
X213079105Y-83503447D01*
X213079106Y-83503450D01*
X213172466Y-83703662D01*
X213172468Y-83703666D01*
X213299170Y-83884615D01*
X213299175Y-83884621D01*
X213455378Y-84040824D01*
X213455384Y-84040829D01*
X213636333Y-84167531D01*
X213636335Y-84167532D01*
X213636338Y-84167534D01*
X213836550Y-84260894D01*
X214049932Y-84318070D01*
X214207123Y-84331822D01*
X214269998Y-84337323D01*
X214270000Y-84337323D01*
X214270002Y-84337323D01*
X214325017Y-84332509D01*
X214490068Y-84318070D01*
X214703450Y-84260894D01*
X214903662Y-84167534D01*
X215084620Y-84040826D01*
X215240826Y-83884620D01*
X215274425Y-83836636D01*
X215329002Y-83793011D01*
X215398500Y-83785817D01*
X215460855Y-83817340D01*
X215496269Y-83877570D01*
X215500000Y-83907759D01*
X215500000Y-89405417D01*
X215480315Y-89472456D01*
X215427511Y-89518211D01*
X215358353Y-89528155D01*
X215301689Y-89504684D01*
X215274331Y-89484204D01*
X215274328Y-89484202D01*
X215139482Y-89433908D01*
X215139483Y-89433908D01*
X215079883Y-89427501D01*
X215079881Y-89427500D01*
X215079873Y-89427500D01*
X215079864Y-89427500D01*
X213460129Y-89427500D01*
X213460123Y-89427501D01*
X213400516Y-89433908D01*
X213265671Y-89484202D01*
X213265664Y-89484206D01*
X213150455Y-89570452D01*
X213150452Y-89570455D01*
X213064206Y-89685664D01*
X213064202Y-89685671D01*
X213013908Y-89820517D01*
X213007501Y-89880116D01*
X213007500Y-89880135D01*
X213007500Y-91499870D01*
X213007501Y-91499876D01*
X213013908Y-91559483D01*
X213064202Y-91694328D01*
X213064206Y-91694335D01*
X213150452Y-91809544D01*
X213150455Y-91809547D01*
X213265664Y-91895793D01*
X213265671Y-91895797D01*
X213400517Y-91946091D01*
X213400516Y-91946091D01*
X213407444Y-91946835D01*
X213460127Y-91952500D01*
X215079872Y-91952499D01*
X215139483Y-91946091D01*
X215274331Y-91895796D01*
X215301689Y-91875315D01*
X215367151Y-91850898D01*
X215435425Y-91865749D01*
X215484831Y-91915153D01*
X215500000Y-91974582D01*
X215500000Y-104495572D01*
X215499684Y-104504418D01*
X215480275Y-104775785D01*
X215477757Y-104793297D01*
X215420872Y-105054794D01*
X215415888Y-105071770D01*
X215322361Y-105322524D01*
X215315011Y-105338617D01*
X215186758Y-105573496D01*
X215177193Y-105588380D01*
X215016811Y-105802624D01*
X215005225Y-105815994D01*
X214815994Y-106005225D01*
X214802624Y-106016811D01*
X214588380Y-106177193D01*
X214573496Y-106186758D01*
X214338617Y-106315011D01*
X214322524Y-106322361D01*
X214071770Y-106415888D01*
X214054794Y-106420872D01*
X213793297Y-106477757D01*
X213775785Y-106480275D01*
X213504418Y-106499684D01*
X213495572Y-106500000D01*
X110004428Y-106500000D01*
X109995582Y-106499684D01*
X109724214Y-106480275D01*
X109706702Y-106477757D01*
X109445205Y-106420872D01*
X109428229Y-106415888D01*
X109177475Y-106322361D01*
X109161382Y-106315011D01*
X108926503Y-106186758D01*
X108911619Y-106177193D01*
X108697375Y-106016811D01*
X108684005Y-106005225D01*
X108494774Y-105815994D01*
X108483188Y-105802624D01*
X108479188Y-105797281D01*
X108322802Y-105588375D01*
X108313244Y-105573501D01*
X108184987Y-105338616D01*
X108177638Y-105322524D01*
X108172003Y-105307417D01*
X108084108Y-105071762D01*
X108079129Y-105054803D01*
X108067207Y-104999999D01*
X200094540Y-104999999D01*
X200098821Y-105040731D01*
X200099500Y-105053692D01*
X200099500Y-105088692D01*
X200107639Y-105129614D01*
X200109341Y-105140839D01*
X200114325Y-105188249D01*
X200114326Y-105188256D01*
X200118304Y-105200500D01*
X200124903Y-105220807D01*
X200128587Y-105234927D01*
X200134105Y-105262665D01*
X200134106Y-105262670D01*
X200152641Y-105307417D01*
X200156011Y-105316550D01*
X200172820Y-105368282D01*
X200186571Y-105392100D01*
X200193743Y-105406644D01*
X200201986Y-105426544D01*
X200201988Y-105426547D01*
X200232626Y-105472402D01*
X200236910Y-105479290D01*
X200267467Y-105532216D01*
X200281355Y-105547640D01*
X200292307Y-105561721D01*
X200300535Y-105574035D01*
X200344283Y-105617783D01*
X200348751Y-105622491D01*
X200394129Y-105672888D01*
X200399821Y-105677024D01*
X200405463Y-105681123D01*
X200420259Y-105693760D01*
X200425960Y-105699461D01*
X200425965Y-105699465D01*
X200482981Y-105737561D01*
X200486956Y-105740330D01*
X200547270Y-105784151D01*
X200553896Y-105787101D01*
X200553907Y-105787106D01*
X200572353Y-105797277D01*
X200573453Y-105798012D01*
X200643027Y-105826831D01*
X200645930Y-105828077D01*
X200720195Y-105861143D01*
X200720197Y-105861144D01*
X200720691Y-105861249D01*
X200731373Y-105864567D01*
X200731507Y-105864127D01*
X200737330Y-105865893D01*
X200737334Y-105865895D01*
X200817904Y-105881920D01*
X200819283Y-105882204D01*
X200905354Y-105900500D01*
X200905355Y-105900500D01*
X201094645Y-105900500D01*
X201094646Y-105900500D01*
X201180699Y-105882208D01*
X201182134Y-105881912D01*
X201262666Y-105865895D01*
X201262671Y-105865893D01*
X201268495Y-105864127D01*
X201268628Y-105864568D01*
X201279319Y-105861247D01*
X201279404Y-105861228D01*
X201279803Y-105861144D01*
X201354096Y-105828065D01*
X201356942Y-105826843D01*
X201426547Y-105798012D01*
X201427637Y-105797283D01*
X201446088Y-105787107D01*
X201452730Y-105784151D01*
X201513039Y-105740333D01*
X201516966Y-105737595D01*
X201574036Y-105699464D01*
X201579740Y-105693760D01*
X201594533Y-105681124D01*
X201605871Y-105672888D01*
X201651265Y-105622471D01*
X201655698Y-105617800D01*
X202336680Y-104936819D01*
X202398003Y-104903334D01*
X202424361Y-104900500D01*
X202487769Y-104900500D01*
X202554808Y-104920185D01*
X202575450Y-104936818D01*
X202681344Y-105042712D01*
X202830666Y-105134814D01*
X202997203Y-105189999D01*
X203099991Y-105200500D01*
X203900008Y-105200499D01*
X203900016Y-105200498D01*
X203900019Y-105200498D01*
X203956302Y-105194748D01*
X204002797Y-105189999D01*
X204169334Y-105134814D01*
X204318656Y-105042712D01*
X204412319Y-104949049D01*
X204473642Y-104915564D01*
X204543334Y-104920548D01*
X204587681Y-104949049D01*
X204681344Y-105042712D01*
X204830666Y-105134814D01*
X204997203Y-105189999D01*
X205099991Y-105200500D01*
X205900008Y-105200499D01*
X205900016Y-105200498D01*
X205900019Y-105200498D01*
X205956302Y-105194748D01*
X206002797Y-105189999D01*
X206169334Y-105134814D01*
X206318656Y-105042712D01*
X206442712Y-104918656D01*
X206444186Y-104916266D01*
X206445625Y-104914971D01*
X206447193Y-104912989D01*
X206447531Y-104913256D01*
X206496130Y-104869541D01*
X206565092Y-104858316D01*
X206613873Y-104875242D01*
X206685394Y-104918478D01*
X206847804Y-104969086D01*
X206918384Y-104975500D01*
X206918387Y-104975500D01*
X207431613Y-104975500D01*
X207431616Y-104975500D01*
X207502196Y-104969086D01*
X207664606Y-104918478D01*
X207810185Y-104830472D01*
X207847366Y-104793291D01*
X207912319Y-104728339D01*
X207973642Y-104694854D01*
X208043334Y-104699838D01*
X208087681Y-104728339D01*
X208189811Y-104830469D01*
X208189813Y-104830470D01*
X208189815Y-104830472D01*
X208335394Y-104918478D01*
X208497804Y-104969086D01*
X208568384Y-104975500D01*
X208568387Y-104975500D01*
X209081613Y-104975500D01*
X209081616Y-104975500D01*
X209152196Y-104969086D01*
X209314606Y-104918478D01*
X209460185Y-104830472D01*
X209580472Y-104710185D01*
X209668478Y-104564606D01*
X209719086Y-104402196D01*
X209725500Y-104331616D01*
X209725500Y-103668384D01*
X209719086Y-103597804D01*
X209668478Y-103435394D01*
X209580472Y-103289815D01*
X209580470Y-103289813D01*
X209580469Y-103289811D01*
X209461819Y-103171161D01*
X209428334Y-103109838D01*
X209425500Y-103083480D01*
X209425500Y-102916519D01*
X209445185Y-102849480D01*
X209461814Y-102828842D01*
X209580472Y-102710185D01*
X209668478Y-102564606D01*
X209719086Y-102402196D01*
X209725500Y-102331616D01*
X209725500Y-101668384D01*
X209719086Y-101597804D01*
X209668478Y-101435394D01*
X209580472Y-101289815D01*
X209580470Y-101289813D01*
X209580469Y-101289811D01*
X209460188Y-101169530D01*
X209314606Y-101081522D01*
X209152196Y-101030914D01*
X209152194Y-101030913D01*
X209152192Y-101030913D01*
X209102778Y-101026423D01*
X209081616Y-101024500D01*
X208568384Y-101024500D01*
X208497804Y-101030914D01*
X208497802Y-101030914D01*
X208491270Y-101031508D01*
X208491024Y-101028808D01*
X208433388Y-101023618D01*
X208378234Y-100980724D01*
X208355027Y-100914821D01*
X208371133Y-100846833D01*
X208421440Y-100798346D01*
X208428376Y-100794993D01*
X208452730Y-100784151D01*
X208605871Y-100672888D01*
X208732533Y-100532216D01*
X208827179Y-100368284D01*
X208885674Y-100188256D01*
X208905460Y-100000000D01*
X208885674Y-99811744D01*
X208827179Y-99631716D01*
X208732533Y-99467784D01*
X208605871Y-99327112D01*
X208605870Y-99327111D01*
X208452734Y-99215851D01*
X208452729Y-99215848D01*
X208279807Y-99138857D01*
X208279802Y-99138855D01*
X208134001Y-99107865D01*
X208094646Y-99099500D01*
X207905354Y-99099500D01*
X207872897Y-99106398D01*
X207720197Y-99138855D01*
X207720192Y-99138857D01*
X207547270Y-99215848D01*
X207547265Y-99215851D01*
X207394129Y-99327111D01*
X207267466Y-99467785D01*
X207172821Y-99631715D01*
X207172816Y-99631725D01*
X207151510Y-99697298D01*
X207121261Y-99746659D01*
X206768422Y-100099500D01*
X206664711Y-100203211D01*
X206608960Y-100258962D01*
X206553209Y-100314712D01*
X206465609Y-100445814D01*
X206465602Y-100445827D01*
X206405264Y-100591498D01*
X206405261Y-100591510D01*
X206374500Y-100746153D01*
X206374500Y-101329732D01*
X206356617Y-101393881D01*
X206331523Y-101435391D01*
X206280913Y-101597807D01*
X206274500Y-101668386D01*
X206274500Y-102331613D01*
X206280913Y-102402192D01*
X206280913Y-102402194D01*
X206280914Y-102402196D01*
X206331522Y-102564606D01*
X206413272Y-102699837D01*
X206419530Y-102710188D01*
X206476591Y-102767249D01*
X206510076Y-102828572D01*
X206505092Y-102898264D01*
X206463220Y-102954197D01*
X206397756Y-102978614D01*
X206329483Y-102963762D01*
X206323814Y-102960469D01*
X206169340Y-102865189D01*
X206169335Y-102865187D01*
X206169334Y-102865186D01*
X206002797Y-102810001D01*
X206002795Y-102810000D01*
X205900010Y-102799500D01*
X205099998Y-102799500D01*
X205099980Y-102799501D01*
X204997203Y-102810000D01*
X204997200Y-102810001D01*
X204830668Y-102865185D01*
X204830663Y-102865187D01*
X204681342Y-102957289D01*
X204587681Y-103050951D01*
X204526358Y-103084436D01*
X204456666Y-103079452D01*
X204412319Y-103050951D01*
X204318657Y-102957289D01*
X204318656Y-102957288D01*
X204169334Y-102865186D01*
X204002797Y-102810001D01*
X204002795Y-102810000D01*
X203900010Y-102799500D01*
X203099998Y-102799500D01*
X203099980Y-102799501D01*
X202997203Y-102810000D01*
X202997200Y-102810001D01*
X202830668Y-102865185D01*
X202830663Y-102865187D01*
X202681345Y-102957287D01*
X202575450Y-103063182D01*
X202514127Y-103096666D01*
X202487769Y-103099500D01*
X201911304Y-103099500D01*
X201737339Y-103134103D01*
X201737323Y-103134108D01*
X201621453Y-103182102D01*
X201621454Y-103182103D01*
X201573454Y-103201986D01*
X201481872Y-103263180D01*
X201481871Y-103263180D01*
X201425969Y-103300532D01*
X201425961Y-103300538D01*
X200420260Y-104306238D01*
X200405468Y-104318872D01*
X200394136Y-104327105D01*
X200394126Y-104327114D01*
X200348750Y-104377508D01*
X200344285Y-104382213D01*
X200300539Y-104425960D01*
X200300532Y-104425968D01*
X200292308Y-104438277D01*
X200281361Y-104452352D01*
X200267468Y-104467782D01*
X200267467Y-104467783D01*
X200236907Y-104520713D01*
X200232626Y-104527597D01*
X200201987Y-104573454D01*
X200193742Y-104593357D01*
X200186575Y-104607890D01*
X200172820Y-104631716D01*
X200172818Y-104631721D01*
X200156010Y-104683449D01*
X200152642Y-104692580D01*
X200134105Y-104737333D01*
X200134103Y-104737341D01*
X200128588Y-104765067D01*
X200124902Y-104779193D01*
X200114326Y-104811743D01*
X200114325Y-104811746D01*
X200109341Y-104859160D01*
X200107639Y-104870384D01*
X200099500Y-104911307D01*
X200099500Y-104946306D01*
X200098821Y-104959266D01*
X200094540Y-104999999D01*
X108067207Y-104999999D01*
X108022241Y-104793291D01*
X108019724Y-104775785D01*
X108018957Y-104765067D01*
X108000316Y-104504418D01*
X108000000Y-104495572D01*
X108000000Y-101000000D01*
X158594540Y-101000000D01*
X158614326Y-101188256D01*
X158614327Y-101188259D01*
X158672818Y-101368277D01*
X158672821Y-101368284D01*
X158767467Y-101532216D01*
X158826523Y-101597804D01*
X158894129Y-101672888D01*
X159047265Y-101784148D01*
X159047270Y-101784151D01*
X159215190Y-101858915D01*
X159252435Y-101884513D01*
X159489707Y-102121786D01*
X159489711Y-102121789D01*
X159620814Y-102209390D01*
X159620818Y-102209392D01*
X159620821Y-102209394D01*
X159766503Y-102269738D01*
X159894437Y-102295185D01*
X159921153Y-102300499D01*
X159921157Y-102300500D01*
X159921158Y-102300500D01*
X159963000Y-102300500D01*
X160030039Y-102320185D01*
X160075794Y-102372989D01*
X160087000Y-102424500D01*
X160087000Y-102829732D01*
X160069117Y-102893881D01*
X160044023Y-102935391D01*
X160044022Y-102935393D01*
X160044022Y-102935394D01*
X160035182Y-102963762D01*
X159993413Y-103097807D01*
X159987000Y-103168386D01*
X159987000Y-103831613D01*
X159993413Y-103902192D01*
X159993413Y-103902194D01*
X159993414Y-103902196D01*
X160044022Y-104064606D01*
X160100877Y-104158656D01*
X160132030Y-104210188D01*
X160252311Y-104330469D01*
X160252313Y-104330470D01*
X160252315Y-104330472D01*
X160397894Y-104418478D01*
X160560304Y-104469086D01*
X160630884Y-104475500D01*
X160630887Y-104475500D01*
X161144113Y-104475500D01*
X161144116Y-104475500D01*
X161214696Y-104469086D01*
X161377106Y-104418478D01*
X161522685Y-104330472D01*
X161570447Y-104282710D01*
X161624819Y-104228339D01*
X161686142Y-104194854D01*
X161755834Y-104199838D01*
X161800181Y-104228339D01*
X161902311Y-104330469D01*
X161902313Y-104330470D01*
X161902315Y-104330472D01*
X162047894Y-104418478D01*
X162210304Y-104469086D01*
X162280884Y-104475500D01*
X162280887Y-104475500D01*
X162794113Y-104475500D01*
X162794116Y-104475500D01*
X162864696Y-104469086D01*
X163027106Y-104418478D01*
X163172685Y-104330472D01*
X163292972Y-104210185D01*
X163380978Y-104064606D01*
X163431586Y-103902196D01*
X163438000Y-103831616D01*
X163438000Y-103168384D01*
X163431586Y-103097804D01*
X163380978Y-102935394D01*
X163362500Y-102904827D01*
X163355883Y-102893881D01*
X163338000Y-102829732D01*
X163338000Y-102424500D01*
X163357685Y-102357461D01*
X163410489Y-102311706D01*
X163462000Y-102300500D01*
X178237060Y-102300500D01*
X178304099Y-102320185D01*
X178324741Y-102336819D01*
X179181261Y-103193339D01*
X179211511Y-103242701D01*
X179232819Y-103308280D01*
X179232821Y-103308284D01*
X179327467Y-103472216D01*
X179440547Y-103597804D01*
X179454129Y-103612888D01*
X179607265Y-103724148D01*
X179607266Y-103724148D01*
X179607270Y-103724151D01*
X179775191Y-103798915D01*
X179812436Y-103824513D01*
X179853730Y-103865807D01*
X179883755Y-103914483D01*
X179915186Y-104009334D01*
X180007288Y-104158656D01*
X180131344Y-104282712D01*
X180280666Y-104374814D01*
X180447203Y-104429999D01*
X180549991Y-104440500D01*
X181600008Y-104440499D01*
X181600016Y-104440498D01*
X181600019Y-104440498D01*
X181656302Y-104434748D01*
X181702797Y-104429999D01*
X181869334Y-104374814D01*
X182018656Y-104282712D01*
X182024549Y-104276819D01*
X182085872Y-104243334D01*
X182112230Y-104240500D01*
X182443993Y-104240500D01*
X182511032Y-104260185D01*
X182543260Y-104290190D01*
X182582449Y-104342541D01*
X182582452Y-104342544D01*
X182582454Y-104342546D01*
X182582457Y-104342548D01*
X182697664Y-104428793D01*
X182697671Y-104428797D01*
X182832517Y-104479091D01*
X182832516Y-104479091D01*
X182839444Y-104479835D01*
X182892127Y-104485500D01*
X184257872Y-104485499D01*
X184317483Y-104479091D01*
X184452331Y-104428796D01*
X184567546Y-104342546D01*
X184653796Y-104227331D01*
X184704091Y-104092483D01*
X184710500Y-104032873D01*
X184710499Y-102667128D01*
X184704091Y-102607517D01*
X184688086Y-102564606D01*
X184653797Y-102472671D01*
X184653793Y-102472664D01*
X184588987Y-102386095D01*
X184567546Y-102357454D01*
X184567544Y-102357452D01*
X184567541Y-102357449D01*
X184511599Y-102315572D01*
X184471347Y-102263755D01*
X184461633Y-102240303D01*
X184461632Y-102240300D01*
X184461630Y-102240297D01*
X184461628Y-102240293D01*
X184352140Y-102076433D01*
X184331193Y-102055486D01*
X184212782Y-101937075D01*
X184212781Y-101937074D01*
X178536819Y-96261112D01*
X178503334Y-96199789D01*
X178500500Y-96173431D01*
X178500500Y-94499998D01*
X210994390Y-94499998D01*
X210994390Y-94500001D01*
X211014804Y-94785433D01*
X211075628Y-95065037D01*
X211175635Y-95333166D01*
X211312770Y-95584309D01*
X211312775Y-95584317D01*
X211484254Y-95813387D01*
X211484270Y-95813405D01*
X211686594Y-96015729D01*
X211686612Y-96015745D01*
X211915682Y-96187224D01*
X211915690Y-96187229D01*
X212166833Y-96324364D01*
X212166832Y-96324364D01*
X212166836Y-96324365D01*
X212166839Y-96324367D01*
X212434954Y-96424369D01*
X212434960Y-96424370D01*
X212434962Y-96424371D01*
X212714566Y-96485195D01*
X212714568Y-96485195D01*
X212714572Y-96485196D01*
X212968220Y-96503337D01*
X212999999Y-96505610D01*
X213000000Y-96505610D01*
X213000001Y-96505610D01*
X213028595Y-96503564D01*
X213285428Y-96485196D01*
X213565046Y-96424369D01*
X213833161Y-96324367D01*
X214084315Y-96187226D01*
X214313395Y-96015739D01*
X214515739Y-95813395D01*
X214687226Y-95584315D01*
X214824367Y-95333161D01*
X214924369Y-95065046D01*
X214985196Y-94785428D01*
X215005610Y-94500000D01*
X214985196Y-94214572D01*
X214924369Y-93934954D01*
X214824367Y-93666839D01*
X214687226Y-93415685D01*
X214687224Y-93415682D01*
X214515745Y-93186612D01*
X214515729Y-93186594D01*
X214313405Y-92984270D01*
X214313387Y-92984254D01*
X214084317Y-92812775D01*
X214084309Y-92812770D01*
X213833166Y-92675635D01*
X213833167Y-92675635D01*
X213725915Y-92635632D01*
X213565046Y-92575631D01*
X213565043Y-92575630D01*
X213565037Y-92575628D01*
X213285433Y-92514804D01*
X213000001Y-92494390D01*
X212999999Y-92494390D01*
X212714566Y-92514804D01*
X212434962Y-92575628D01*
X212166833Y-92675635D01*
X211915690Y-92812770D01*
X211915682Y-92812775D01*
X211686612Y-92984254D01*
X211686594Y-92984270D01*
X211484270Y-93186594D01*
X211484254Y-93186612D01*
X211312775Y-93415682D01*
X211312770Y-93415690D01*
X211175635Y-93666833D01*
X211075628Y-93934962D01*
X211014804Y-94214566D01*
X210994390Y-94499998D01*
X178500500Y-94499998D01*
X178500500Y-89401456D01*
X178462052Y-89208170D01*
X178462051Y-89208169D01*
X178462051Y-89208165D01*
X178432854Y-89137676D01*
X178386635Y-89026092D01*
X178386628Y-89026079D01*
X178277139Y-88862218D01*
X178277136Y-88862214D01*
X178137785Y-88722863D01*
X178137781Y-88722860D01*
X177973920Y-88613371D01*
X177973907Y-88613364D01*
X177791839Y-88537950D01*
X177791829Y-88537947D01*
X177598543Y-88499500D01*
X177598541Y-88499500D01*
X177401459Y-88499500D01*
X177401457Y-88499500D01*
X177208170Y-88537947D01*
X177208165Y-88537949D01*
X177171951Y-88552949D01*
X177102482Y-88560416D01*
X177040003Y-88529141D01*
X177004351Y-88469051D01*
X177000500Y-88438387D01*
X177000500Y-87901456D01*
X176962052Y-87708170D01*
X176962051Y-87708169D01*
X176962051Y-87708165D01*
X176962049Y-87708160D01*
X176886635Y-87526092D01*
X176886628Y-87526079D01*
X176777139Y-87362218D01*
X176777136Y-87362214D01*
X176637785Y-87222863D01*
X176637781Y-87222860D01*
X176547199Y-87162335D01*
X179809700Y-87162335D01*
X179809700Y-89137670D01*
X179809701Y-89137676D01*
X179816108Y-89197283D01*
X179866402Y-89332128D01*
X179866405Y-89332134D01*
X179876554Y-89345691D01*
X179900970Y-89411155D01*
X179886117Y-89479428D01*
X179876554Y-89494309D01*
X179866405Y-89507865D01*
X179866402Y-89507871D01*
X179816108Y-89642717D01*
X179809701Y-89702316D01*
X179809700Y-89702335D01*
X179809700Y-91677670D01*
X179809701Y-91677676D01*
X179816108Y-91737283D01*
X179866402Y-91872128D01*
X179866406Y-91872135D01*
X179952652Y-91987344D01*
X179952655Y-91987347D01*
X180067864Y-92073593D01*
X180067871Y-92073597D01*
X180202717Y-92123891D01*
X180202716Y-92123891D01*
X180209644Y-92124635D01*
X180262327Y-92130300D01*
X182237672Y-92130299D01*
X182297283Y-92123891D01*
X182432131Y-92073596D01*
X182547346Y-91987346D01*
X182633596Y-91872131D01*
X182648864Y-91831196D01*
X182690735Y-91775262D01*
X182756199Y-91750845D01*
X182824472Y-91765696D01*
X182841203Y-91776672D01*
X182911256Y-91831196D01*
X182994255Y-91895797D01*
X182999531Y-91899903D01*
X183209455Y-92013509D01*
X183435216Y-92091012D01*
X183670653Y-92130300D01*
X183670654Y-92130300D01*
X183909346Y-92130300D01*
X183909347Y-92130300D01*
X184144784Y-92091012D01*
X184370545Y-92013509D01*
X184580469Y-91899903D01*
X184768832Y-91753295D01*
X184930494Y-91577682D01*
X184956191Y-91538350D01*
X185009337Y-91492993D01*
X185078568Y-91483569D01*
X185141904Y-91513071D01*
X185163809Y-91538350D01*
X185189506Y-91577682D01*
X185351168Y-91753295D01*
X185539531Y-91899903D01*
X185749455Y-92013509D01*
X185975216Y-92091012D01*
X186210653Y-92130300D01*
X186210654Y-92130300D01*
X186449346Y-92130300D01*
X186449347Y-92130300D01*
X186684784Y-92091012D01*
X186910545Y-92013509D01*
X187120469Y-91899903D01*
X187308832Y-91753295D01*
X187470494Y-91577682D01*
X187496191Y-91538350D01*
X187549337Y-91492993D01*
X187618568Y-91483569D01*
X187681904Y-91513071D01*
X187703809Y-91538350D01*
X187729506Y-91577682D01*
X187891168Y-91753295D01*
X188079531Y-91899903D01*
X188289455Y-92013509D01*
X188515216Y-92091012D01*
X188750653Y-92130300D01*
X188750654Y-92130300D01*
X188989346Y-92130300D01*
X188989347Y-92130300D01*
X189224784Y-92091012D01*
X189450545Y-92013509D01*
X189660469Y-91899903D01*
X189848832Y-91753295D01*
X190010494Y-91577682D01*
X190036191Y-91538350D01*
X190089337Y-91492993D01*
X190158568Y-91483569D01*
X190221904Y-91513071D01*
X190243809Y-91538350D01*
X190269506Y-91577682D01*
X190431168Y-91753295D01*
X190619531Y-91899903D01*
X190829455Y-92013509D01*
X191055216Y-92091012D01*
X191290653Y-92130300D01*
X191290654Y-92130300D01*
X191529346Y-92130300D01*
X191529347Y-92130300D01*
X191764784Y-92091012D01*
X191990545Y-92013509D01*
X192200469Y-91899903D01*
X192388832Y-91753295D01*
X192550494Y-91577682D01*
X192576191Y-91538350D01*
X192629337Y-91492993D01*
X192698568Y-91483569D01*
X192761904Y-91513071D01*
X192783809Y-91538350D01*
X192809506Y-91577682D01*
X192971168Y-91753295D01*
X193159531Y-91899903D01*
X193369455Y-92013509D01*
X193595216Y-92091012D01*
X193830653Y-92130300D01*
X193830654Y-92130300D01*
X194069346Y-92130300D01*
X194069347Y-92130300D01*
X194304784Y-92091012D01*
X194530545Y-92013509D01*
X194740469Y-91899903D01*
X194928832Y-91753295D01*
X195090494Y-91577682D01*
X195116191Y-91538350D01*
X195169337Y-91492993D01*
X195238568Y-91483569D01*
X195301904Y-91513071D01*
X195323809Y-91538350D01*
X195349506Y-91577682D01*
X195511168Y-91753295D01*
X195699531Y-91899903D01*
X195909455Y-92013509D01*
X196135216Y-92091012D01*
X196370653Y-92130300D01*
X196370654Y-92130300D01*
X196609346Y-92130300D01*
X196609347Y-92130300D01*
X196844784Y-92091012D01*
X197070545Y-92013509D01*
X197280469Y-91899903D01*
X197468832Y-91753295D01*
X197630494Y-91577682D01*
X197656191Y-91538350D01*
X197709337Y-91492993D01*
X197778568Y-91483569D01*
X197841904Y-91513071D01*
X197863809Y-91538350D01*
X197889506Y-91577682D01*
X198051168Y-91753295D01*
X198239531Y-91899903D01*
X198449455Y-92013509D01*
X198675216Y-92091012D01*
X198910653Y-92130300D01*
X198910654Y-92130300D01*
X199149346Y-92130300D01*
X199149347Y-92130300D01*
X199384784Y-92091012D01*
X199610545Y-92013509D01*
X199820469Y-91899903D01*
X200008832Y-91753295D01*
X200170494Y-91577682D01*
X200196191Y-91538350D01*
X200249337Y-91492993D01*
X200318568Y-91483569D01*
X200381904Y-91513071D01*
X200403809Y-91538350D01*
X200429506Y-91577682D01*
X200591168Y-91753295D01*
X200779531Y-91899903D01*
X200989455Y-92013509D01*
X201215216Y-92091012D01*
X201450653Y-92130300D01*
X201450654Y-92130300D01*
X201689346Y-92130300D01*
X201689347Y-92130300D01*
X201924784Y-92091012D01*
X202150545Y-92013509D01*
X202360469Y-91899903D01*
X202548832Y-91753295D01*
X202710494Y-91577682D01*
X202736191Y-91538350D01*
X202789337Y-91492993D01*
X202858568Y-91483569D01*
X202921904Y-91513071D01*
X202943809Y-91538350D01*
X202969506Y-91577682D01*
X203131168Y-91753295D01*
X203319531Y-91899903D01*
X203529455Y-92013509D01*
X203755216Y-92091012D01*
X203990653Y-92130300D01*
X203990654Y-92130300D01*
X204229346Y-92130300D01*
X204229347Y-92130300D01*
X204464784Y-92091012D01*
X204690545Y-92013509D01*
X204900469Y-91899903D01*
X205088832Y-91753295D01*
X205250494Y-91577682D01*
X205381047Y-91377856D01*
X205476929Y-91159267D01*
X205535525Y-90927878D01*
X205555236Y-90690000D01*
X205535525Y-90452122D01*
X205476929Y-90220733D01*
X205381047Y-90002144D01*
X205250494Y-89802318D01*
X205088832Y-89626705D01*
X204948978Y-89517853D01*
X204908166Y-89461143D01*
X204904491Y-89391370D01*
X204939122Y-89330687D01*
X204948979Y-89322146D01*
X205088832Y-89213295D01*
X205250494Y-89037682D01*
X205381047Y-88837856D01*
X205476929Y-88619267D01*
X205535525Y-88387878D01*
X205539051Y-88345330D01*
X205555236Y-88150005D01*
X205555236Y-88149994D01*
X205535526Y-87912130D01*
X205535524Y-87912118D01*
X205476929Y-87680732D01*
X205409097Y-87526092D01*
X205381047Y-87462144D01*
X205250494Y-87262318D01*
X205088832Y-87086705D01*
X204900469Y-86940097D01*
X204804152Y-86887972D01*
X204690546Y-86826491D01*
X204690541Y-86826489D01*
X204464786Y-86748988D01*
X204304266Y-86722202D01*
X204229347Y-86709700D01*
X203990653Y-86709700D01*
X203931793Y-86719522D01*
X203755213Y-86748988D01*
X203529458Y-86826489D01*
X203529453Y-86826491D01*
X203319529Y-86940098D01*
X203131169Y-87086704D01*
X202969508Y-87262315D01*
X202943808Y-87301652D01*
X202890661Y-87347008D01*
X202821430Y-87356431D01*
X202758094Y-87326928D01*
X202736192Y-87301652D01*
X202710494Y-87262318D01*
X202548832Y-87086705D01*
X202360469Y-86940097D01*
X202264152Y-86887972D01*
X202150546Y-86826491D01*
X202150541Y-86826489D01*
X201924786Y-86748988D01*
X201764266Y-86722202D01*
X201689347Y-86709700D01*
X201450653Y-86709700D01*
X201391793Y-86719522D01*
X201215213Y-86748988D01*
X200989458Y-86826489D01*
X200989453Y-86826491D01*
X200779529Y-86940098D01*
X200591169Y-87086704D01*
X200429508Y-87262315D01*
X200403808Y-87301652D01*
X200350661Y-87347008D01*
X200281430Y-87356431D01*
X200218094Y-87326928D01*
X200196192Y-87301652D01*
X200170494Y-87262318D01*
X200008832Y-87086705D01*
X199820469Y-86940097D01*
X199724152Y-86887972D01*
X199610546Y-86826491D01*
X199610541Y-86826489D01*
X199384786Y-86748988D01*
X199224266Y-86722202D01*
X199149347Y-86709700D01*
X198910653Y-86709700D01*
X198851793Y-86719522D01*
X198675213Y-86748988D01*
X198449458Y-86826489D01*
X198449453Y-86826491D01*
X198239529Y-86940098D01*
X198051169Y-87086704D01*
X197889508Y-87262315D01*
X197863808Y-87301652D01*
X197810661Y-87347008D01*
X197741430Y-87356431D01*
X197678094Y-87326928D01*
X197656192Y-87301652D01*
X197630494Y-87262318D01*
X197468832Y-87086705D01*
X197280469Y-86940097D01*
X197184152Y-86887972D01*
X197070546Y-86826491D01*
X197070541Y-86826489D01*
X196844786Y-86748988D01*
X196684266Y-86722202D01*
X196609347Y-86709700D01*
X196370653Y-86709700D01*
X196311793Y-86719522D01*
X196135213Y-86748988D01*
X195909458Y-86826489D01*
X195909453Y-86826491D01*
X195699529Y-86940098D01*
X195511169Y-87086704D01*
X195349508Y-87262315D01*
X195323808Y-87301652D01*
X195270661Y-87347008D01*
X195201430Y-87356431D01*
X195138094Y-87326928D01*
X195116192Y-87301652D01*
X195090494Y-87262318D01*
X194928832Y-87086705D01*
X194740469Y-86940097D01*
X194644152Y-86887972D01*
X194530546Y-86826491D01*
X194530541Y-86826489D01*
X194304786Y-86748988D01*
X194144266Y-86722202D01*
X194069347Y-86709700D01*
X193830653Y-86709700D01*
X193771793Y-86719522D01*
X193595213Y-86748988D01*
X193369458Y-86826489D01*
X193369453Y-86826491D01*
X193159529Y-86940098D01*
X192971169Y-87086704D01*
X192809508Y-87262315D01*
X192783808Y-87301652D01*
X192730661Y-87347008D01*
X192661430Y-87356431D01*
X192598094Y-87326928D01*
X192576192Y-87301652D01*
X192550494Y-87262318D01*
X192388832Y-87086705D01*
X192200469Y-86940097D01*
X192104152Y-86887972D01*
X191990546Y-86826491D01*
X191990541Y-86826489D01*
X191764786Y-86748988D01*
X191604266Y-86722202D01*
X191529347Y-86709700D01*
X191290653Y-86709700D01*
X191231793Y-86719522D01*
X191055213Y-86748988D01*
X190829458Y-86826489D01*
X190829453Y-86826491D01*
X190619529Y-86940098D01*
X190431169Y-87086704D01*
X190269508Y-87262315D01*
X190243808Y-87301652D01*
X190190661Y-87347008D01*
X190121430Y-87356431D01*
X190058094Y-87326928D01*
X190036192Y-87301652D01*
X190010494Y-87262318D01*
X189848832Y-87086705D01*
X189660469Y-86940097D01*
X189564152Y-86887972D01*
X189450546Y-86826491D01*
X189450541Y-86826489D01*
X189224786Y-86748988D01*
X189064266Y-86722202D01*
X188989347Y-86709700D01*
X188750653Y-86709700D01*
X188691793Y-86719522D01*
X188515213Y-86748988D01*
X188289458Y-86826489D01*
X188289453Y-86826491D01*
X188079529Y-86940098D01*
X187891169Y-87086704D01*
X187729508Y-87262315D01*
X187703808Y-87301652D01*
X187650661Y-87347008D01*
X187581430Y-87356431D01*
X187518094Y-87326928D01*
X187496192Y-87301652D01*
X187470494Y-87262318D01*
X187308832Y-87086705D01*
X187120469Y-86940097D01*
X187024152Y-86887972D01*
X186910546Y-86826491D01*
X186910541Y-86826489D01*
X186684786Y-86748988D01*
X186524266Y-86722202D01*
X186449347Y-86709700D01*
X186210653Y-86709700D01*
X186151793Y-86719522D01*
X185975213Y-86748988D01*
X185749458Y-86826489D01*
X185749453Y-86826491D01*
X185539529Y-86940098D01*
X185351169Y-87086704D01*
X185189506Y-87262317D01*
X185058951Y-87462147D01*
X184963070Y-87680732D01*
X184904475Y-87912118D01*
X184904473Y-87912130D01*
X184884764Y-88149994D01*
X184884764Y-88150005D01*
X184904473Y-88387869D01*
X184904475Y-88387881D01*
X184963070Y-88619267D01*
X185030716Y-88773483D01*
X185058953Y-88837856D01*
X185189506Y-89037682D01*
X185351168Y-89213295D01*
X185351171Y-89213297D01*
X185351174Y-89213300D01*
X185491020Y-89322147D01*
X185531833Y-89378857D01*
X185535508Y-89448630D01*
X185500876Y-89509313D01*
X185491020Y-89517853D01*
X185351174Y-89626699D01*
X185351171Y-89626702D01*
X185189508Y-89802315D01*
X185163808Y-89841652D01*
X185110661Y-89887008D01*
X185041430Y-89896431D01*
X184978094Y-89866928D01*
X184956192Y-89841652D01*
X184930494Y-89802318D01*
X184768832Y-89626705D01*
X184580469Y-89480097D01*
X184469420Y-89420000D01*
X184370546Y-89366491D01*
X184370541Y-89366489D01*
X184144786Y-89288988D01*
X183987826Y-89262796D01*
X183909347Y-89249700D01*
X183670653Y-89249700D01*
X183611793Y-89259522D01*
X183435213Y-89288988D01*
X183209458Y-89366489D01*
X183209453Y-89366491D01*
X182999529Y-89480098D01*
X182841208Y-89603324D01*
X182776214Y-89628966D01*
X182707674Y-89615399D01*
X182657349Y-89566931D01*
X182648864Y-89548803D01*
X182633597Y-89507871D01*
X182633595Y-89507868D01*
X182631211Y-89504684D01*
X182623446Y-89494311D01*
X182599029Y-89428848D01*
X182613880Y-89360575D01*
X182623447Y-89345688D01*
X182633596Y-89332131D01*
X182683891Y-89197283D01*
X182690300Y-89137673D01*
X182690299Y-87162328D01*
X182683891Y-87102717D01*
X182667405Y-87058517D01*
X182633597Y-86967871D01*
X182633593Y-86967864D01*
X182547347Y-86852655D01*
X182547344Y-86852652D01*
X182432135Y-86766406D01*
X182432128Y-86766402D01*
X182297282Y-86716108D01*
X182297283Y-86716108D01*
X182237683Y-86709701D01*
X182237681Y-86709700D01*
X182237673Y-86709700D01*
X182237664Y-86709700D01*
X180262329Y-86709700D01*
X180262323Y-86709701D01*
X180202716Y-86716108D01*
X180067871Y-86766402D01*
X180067864Y-86766406D01*
X179952655Y-86852652D01*
X179952652Y-86852655D01*
X179866406Y-86967864D01*
X179866402Y-86967871D01*
X179816108Y-87102717D01*
X179814451Y-87118135D01*
X179809701Y-87162323D01*
X179809700Y-87162335D01*
X176547199Y-87162335D01*
X176473920Y-87113371D01*
X176473907Y-87113364D01*
X176291839Y-87037950D01*
X176291829Y-87037947D01*
X176098543Y-86999500D01*
X176098541Y-86999500D01*
X175901459Y-86999500D01*
X175901457Y-86999500D01*
X175708170Y-87037947D01*
X175708160Y-87037950D01*
X175526092Y-87113364D01*
X175526079Y-87113371D01*
X175362218Y-87222860D01*
X175362214Y-87222863D01*
X175222863Y-87362214D01*
X175222860Y-87362218D01*
X175113371Y-87526079D01*
X175113364Y-87526092D01*
X175037950Y-87708160D01*
X175037947Y-87708170D01*
X174999500Y-87901456D01*
X174999500Y-87901459D01*
X174999500Y-97098541D01*
X174999500Y-97098543D01*
X174999499Y-97098543D01*
X175037947Y-97291829D01*
X175037950Y-97291839D01*
X175113364Y-97473907D01*
X175113371Y-97473920D01*
X175222860Y-97637781D01*
X175222863Y-97637785D01*
X175362214Y-97777136D01*
X175362218Y-97777139D01*
X175526079Y-97886628D01*
X175526092Y-97886635D01*
X175708160Y-97962049D01*
X175708165Y-97962051D01*
X175708169Y-97962051D01*
X175708170Y-97962052D01*
X175901456Y-98000500D01*
X175901459Y-98000500D01*
X176098543Y-98000500D01*
X176228582Y-97974632D01*
X176291835Y-97962051D01*
X176473914Y-97886632D01*
X176637782Y-97777139D01*
X176777139Y-97637782D01*
X176815966Y-97579673D01*
X176869577Y-97534868D01*
X176938902Y-97526161D01*
X177001930Y-97556315D01*
X177006749Y-97560883D01*
X181673684Y-102227819D01*
X181707169Y-102289142D01*
X181702185Y-102358834D01*
X181660313Y-102414767D01*
X181594849Y-102439184D01*
X181586003Y-102439500D01*
X180876298Y-102439500D01*
X180809259Y-102419815D01*
X180784148Y-102398472D01*
X180747215Y-102357454D01*
X180665871Y-102267112D01*
X180665870Y-102267111D01*
X180512734Y-102155851D01*
X180512729Y-102155848D01*
X180344809Y-102081084D01*
X180307564Y-102055486D01*
X179130292Y-100878213D01*
X179130288Y-100878210D01*
X178999185Y-100790609D01*
X178999172Y-100790602D01*
X178853501Y-100730264D01*
X178853489Y-100730261D01*
X178698845Y-100699500D01*
X178698842Y-100699500D01*
X163253732Y-100699500D01*
X163186693Y-100679815D01*
X163177265Y-100673115D01*
X163172692Y-100669533D01*
X163172686Y-100669529D01*
X163172685Y-100669528D01*
X163027106Y-100581522D01*
X162864696Y-100530914D01*
X162864694Y-100530913D01*
X162864692Y-100530913D01*
X162815278Y-100526423D01*
X162794116Y-100524500D01*
X162280884Y-100524500D01*
X162261645Y-100526248D01*
X162210307Y-100530913D01*
X162047893Y-100581522D01*
X161902311Y-100669530D01*
X161902310Y-100669531D01*
X161800181Y-100771661D01*
X161738858Y-100805146D01*
X161669166Y-100800162D01*
X161624819Y-100771661D01*
X161522688Y-100669530D01*
X161460146Y-100631722D01*
X161377106Y-100581522D01*
X161214696Y-100530914D01*
X161214694Y-100530913D01*
X161214692Y-100530913D01*
X161165278Y-100526423D01*
X161144116Y-100524500D01*
X160630884Y-100524500D01*
X160560304Y-100530914D01*
X160522503Y-100542693D01*
X160408087Y-100578345D01*
X160338227Y-100579495D01*
X160278835Y-100542693D01*
X160263811Y-100521959D01*
X160252685Y-100502690D01*
X160232533Y-100467784D01*
X160105871Y-100327112D01*
X160088804Y-100314712D01*
X159952734Y-100215851D01*
X159952729Y-100215848D01*
X159779807Y-100138857D01*
X159779802Y-100138855D01*
X159634001Y-100107865D01*
X159594646Y-100099500D01*
X159405354Y-100099500D01*
X159372897Y-100106398D01*
X159220197Y-100138855D01*
X159220192Y-100138857D01*
X159047270Y-100215848D01*
X159047265Y-100215851D01*
X158894129Y-100327111D01*
X158767466Y-100467785D01*
X158672821Y-100631715D01*
X158672818Y-100631722D01*
X158621451Y-100789815D01*
X158614326Y-100811744D01*
X158594540Y-101000000D01*
X108000000Y-101000000D01*
X108000000Y-87162335D01*
X116309700Y-87162335D01*
X116309700Y-89137670D01*
X116309701Y-89137676D01*
X116316108Y-89197283D01*
X116366402Y-89332128D01*
X116366405Y-89332134D01*
X116376554Y-89345691D01*
X116400970Y-89411155D01*
X116386117Y-89479428D01*
X116376554Y-89494309D01*
X116366405Y-89507865D01*
X116366402Y-89507871D01*
X116316108Y-89642717D01*
X116309701Y-89702316D01*
X116309700Y-89702335D01*
X116309700Y-91677670D01*
X116309701Y-91677676D01*
X116316108Y-91737283D01*
X116366402Y-91872128D01*
X116366406Y-91872135D01*
X116452652Y-91987344D01*
X116452655Y-91987347D01*
X116567864Y-92073593D01*
X116567871Y-92073597D01*
X116702717Y-92123891D01*
X116702716Y-92123891D01*
X116709644Y-92124635D01*
X116762327Y-92130300D01*
X118737672Y-92130299D01*
X118797283Y-92123891D01*
X118932131Y-92073596D01*
X119047346Y-91987346D01*
X119133596Y-91872131D01*
X119148864Y-91831196D01*
X119190735Y-91775262D01*
X119256199Y-91750845D01*
X119324472Y-91765696D01*
X119341203Y-91776672D01*
X119411256Y-91831196D01*
X119494255Y-91895797D01*
X119499531Y-91899903D01*
X119709455Y-92013509D01*
X119935216Y-92091012D01*
X120170653Y-92130300D01*
X120170654Y-92130300D01*
X120409346Y-92130300D01*
X120409347Y-92130300D01*
X120644784Y-92091012D01*
X120870545Y-92013509D01*
X121080469Y-91899903D01*
X121268832Y-91753295D01*
X121430494Y-91577682D01*
X121456191Y-91538350D01*
X121509337Y-91492993D01*
X121578568Y-91483569D01*
X121641904Y-91513071D01*
X121663809Y-91538350D01*
X121689506Y-91577682D01*
X121851168Y-91753295D01*
X122039531Y-91899903D01*
X122249455Y-92013509D01*
X122475216Y-92091012D01*
X122710653Y-92130300D01*
X122710654Y-92130300D01*
X122949346Y-92130300D01*
X122949347Y-92130300D01*
X123184784Y-92091012D01*
X123410545Y-92013509D01*
X123620469Y-91899903D01*
X123808832Y-91753295D01*
X123970494Y-91577682D01*
X123996191Y-91538350D01*
X124049337Y-91492993D01*
X124118568Y-91483569D01*
X124181904Y-91513071D01*
X124203809Y-91538350D01*
X124229506Y-91577682D01*
X124391168Y-91753295D01*
X124579531Y-91899903D01*
X124789455Y-92013509D01*
X125015216Y-92091012D01*
X125250653Y-92130300D01*
X125250654Y-92130300D01*
X125489346Y-92130300D01*
X125489347Y-92130300D01*
X125724784Y-92091012D01*
X125950545Y-92013509D01*
X126160469Y-91899903D01*
X126348832Y-91753295D01*
X126510494Y-91577682D01*
X126536191Y-91538350D01*
X126589337Y-91492993D01*
X126658568Y-91483569D01*
X126721904Y-91513071D01*
X126743809Y-91538350D01*
X126769506Y-91577682D01*
X126931168Y-91753295D01*
X127119531Y-91899903D01*
X127329455Y-92013509D01*
X127555216Y-92091012D01*
X127790653Y-92130300D01*
X127790654Y-92130300D01*
X128029346Y-92130300D01*
X128029347Y-92130300D01*
X128264784Y-92091012D01*
X128490545Y-92013509D01*
X128700469Y-91899903D01*
X128888832Y-91753295D01*
X129050494Y-91577682D01*
X129076191Y-91538350D01*
X129129337Y-91492993D01*
X129198568Y-91483569D01*
X129261904Y-91513071D01*
X129283809Y-91538350D01*
X129309506Y-91577682D01*
X129471168Y-91753295D01*
X129659531Y-91899903D01*
X129869455Y-92013509D01*
X130095216Y-92091012D01*
X130330653Y-92130300D01*
X130330654Y-92130300D01*
X130569346Y-92130300D01*
X130569347Y-92130300D01*
X130804784Y-92091012D01*
X131030545Y-92013509D01*
X131240469Y-91899903D01*
X131428832Y-91753295D01*
X131590494Y-91577682D01*
X131616191Y-91538350D01*
X131669337Y-91492993D01*
X131738568Y-91483569D01*
X131801904Y-91513071D01*
X131823809Y-91538350D01*
X131849506Y-91577682D01*
X132011168Y-91753295D01*
X132199531Y-91899903D01*
X132409455Y-92013509D01*
X132635216Y-92091012D01*
X132870653Y-92130300D01*
X132870654Y-92130300D01*
X133109346Y-92130300D01*
X133109347Y-92130300D01*
X133344784Y-92091012D01*
X133570545Y-92013509D01*
X133780469Y-91899903D01*
X133968832Y-91753295D01*
X134130494Y-91577682D01*
X134156191Y-91538350D01*
X134209337Y-91492993D01*
X134278568Y-91483569D01*
X134341904Y-91513071D01*
X134363809Y-91538350D01*
X134389506Y-91577682D01*
X134551168Y-91753295D01*
X134739531Y-91899903D01*
X134949455Y-92013509D01*
X135175216Y-92091012D01*
X135410653Y-92130300D01*
X135410654Y-92130300D01*
X135649346Y-92130300D01*
X135649347Y-92130300D01*
X135884784Y-92091012D01*
X136110545Y-92013509D01*
X136320469Y-91899903D01*
X136508832Y-91753295D01*
X136670494Y-91577682D01*
X136696191Y-91538350D01*
X136749337Y-91492993D01*
X136818568Y-91483569D01*
X136881904Y-91513071D01*
X136903809Y-91538350D01*
X136929506Y-91577682D01*
X137091168Y-91753295D01*
X137279531Y-91899903D01*
X137489455Y-92013509D01*
X137715216Y-92091012D01*
X137950653Y-92130300D01*
X137950654Y-92130300D01*
X138189346Y-92130300D01*
X138189347Y-92130300D01*
X138424784Y-92091012D01*
X138650545Y-92013509D01*
X138860469Y-91899903D01*
X139048832Y-91753295D01*
X139210494Y-91577682D01*
X139236191Y-91538350D01*
X139289337Y-91492993D01*
X139358568Y-91483569D01*
X139421904Y-91513071D01*
X139443809Y-91538350D01*
X139469506Y-91577682D01*
X139631168Y-91753295D01*
X139819531Y-91899903D01*
X140029455Y-92013509D01*
X140255216Y-92091012D01*
X140490653Y-92130300D01*
X140490654Y-92130300D01*
X140729346Y-92130300D01*
X140729347Y-92130300D01*
X140964784Y-92091012D01*
X141190545Y-92013509D01*
X141400469Y-91899903D01*
X141588832Y-91753295D01*
X141750494Y-91577682D01*
X141881047Y-91377856D01*
X141976929Y-91159267D01*
X142035525Y-90927878D01*
X142055236Y-90690000D01*
X142035525Y-90452122D01*
X141976929Y-90220733D01*
X141881047Y-90002144D01*
X141750494Y-89802318D01*
X141588832Y-89626705D01*
X141448978Y-89517853D01*
X141408166Y-89461143D01*
X141404491Y-89391370D01*
X141439122Y-89330687D01*
X141448979Y-89322146D01*
X141588832Y-89213295D01*
X141750494Y-89037682D01*
X141881047Y-88837856D01*
X141976929Y-88619267D01*
X142035525Y-88387878D01*
X142039051Y-88345330D01*
X142055236Y-88150005D01*
X142055236Y-88149994D01*
X142035526Y-87912130D01*
X142035524Y-87912118D01*
X141976929Y-87680732D01*
X141909097Y-87526092D01*
X141881047Y-87462144D01*
X141750494Y-87262318D01*
X141617765Y-87118135D01*
X142843500Y-87118135D01*
X142843500Y-88713870D01*
X142843501Y-88713876D01*
X142849908Y-88773483D01*
X142900202Y-88908328D01*
X142900206Y-88908335D01*
X142986452Y-89023544D01*
X142986455Y-89023547D01*
X143101664Y-89109793D01*
X143101671Y-89109797D01*
X143236517Y-89160091D01*
X143236516Y-89160091D01*
X143243444Y-89160835D01*
X143296127Y-89166500D01*
X144891872Y-89166499D01*
X144951483Y-89160091D01*
X145086331Y-89109796D01*
X145201546Y-89023546D01*
X145287796Y-88908331D01*
X145338091Y-88773483D01*
X145344500Y-88713873D01*
X145344499Y-88647860D01*
X145364183Y-88580824D01*
X145416986Y-88535068D01*
X145486144Y-88525124D01*
X145549700Y-88554148D01*
X145570073Y-88576738D01*
X145619877Y-88647864D01*
X145672402Y-88722877D01*
X145827123Y-88877598D01*
X146006361Y-89003102D01*
X146204670Y-89095575D01*
X146416023Y-89152207D01*
X146598926Y-89168208D01*
X146633998Y-89171277D01*
X146634000Y-89171277D01*
X146634002Y-89171277D01*
X146662254Y-89168805D01*
X146851977Y-89152207D01*
X147063330Y-89095575D01*
X147261639Y-89003102D01*
X147440877Y-88877598D01*
X147595598Y-88722877D01*
X147721102Y-88543639D01*
X147791618Y-88392414D01*
X147837790Y-88339977D01*
X147904984Y-88320825D01*
X147971865Y-88341041D01*
X148016381Y-88392414D01*
X148086898Y-88543639D01*
X148212402Y-88722877D01*
X148367123Y-88877598D01*
X148546361Y-89003102D01*
X148744670Y-89095575D01*
X148956023Y-89152207D01*
X149138926Y-89168208D01*
X149173998Y-89171277D01*
X149174000Y-89171277D01*
X149174002Y-89171277D01*
X149202254Y-89168805D01*
X149391977Y-89152207D01*
X149603330Y-89095575D01*
X149801639Y-89003102D01*
X149980877Y-88877598D01*
X150135598Y-88722877D01*
X150261102Y-88543639D01*
X150331618Y-88392414D01*
X150377790Y-88339977D01*
X150444984Y-88320825D01*
X150511865Y-88341041D01*
X150556381Y-88392414D01*
X150626898Y-88543639D01*
X150752402Y-88722877D01*
X150907123Y-88877598D01*
X151086361Y-89003102D01*
X151284670Y-89095575D01*
X151496023Y-89152207D01*
X151678926Y-89168208D01*
X151713998Y-89171277D01*
X151714000Y-89171277D01*
X151714002Y-89171277D01*
X151742254Y-89168805D01*
X151931977Y-89152207D01*
X152143330Y-89095575D01*
X152341639Y-89003102D01*
X152520877Y-88877598D01*
X152675598Y-88722877D01*
X152801102Y-88543639D01*
X152893575Y-88345330D01*
X152950207Y-88133977D01*
X152969277Y-87916000D01*
X152968938Y-87912130D01*
X152965569Y-87873618D01*
X152950207Y-87698023D01*
X152893575Y-87486670D01*
X152801102Y-87288362D01*
X152801100Y-87288359D01*
X152801099Y-87288357D01*
X152675599Y-87109124D01*
X152604422Y-87037947D01*
X152520877Y-86954402D01*
X152382978Y-86857844D01*
X152341638Y-86828897D01*
X152207620Y-86766404D01*
X152143330Y-86736425D01*
X152143326Y-86736424D01*
X152143322Y-86736422D01*
X151931977Y-86679793D01*
X151714002Y-86660723D01*
X151713998Y-86660723D01*
X151586151Y-86671908D01*
X151496023Y-86679793D01*
X151496020Y-86679793D01*
X151284677Y-86736422D01*
X151284668Y-86736426D01*
X151086361Y-86828898D01*
X151086357Y-86828900D01*
X150907121Y-86954402D01*
X150752402Y-87109121D01*
X150626900Y-87288357D01*
X150626898Y-87288361D01*
X150556382Y-87439583D01*
X150510209Y-87492022D01*
X150443016Y-87511174D01*
X150376135Y-87490958D01*
X150331618Y-87439583D01*
X150288449Y-87347008D01*
X150261102Y-87288362D01*
X150261100Y-87288359D01*
X150261099Y-87288357D01*
X150135599Y-87109124D01*
X150064422Y-87037947D01*
X149980877Y-86954402D01*
X149842978Y-86857844D01*
X149801638Y-86828897D01*
X149667620Y-86766404D01*
X149603330Y-86736425D01*
X149603326Y-86736424D01*
X149603322Y-86736422D01*
X149391977Y-86679793D01*
X149174002Y-86660723D01*
X149173998Y-86660723D01*
X149046151Y-86671908D01*
X148956023Y-86679793D01*
X148956020Y-86679793D01*
X148744677Y-86736422D01*
X148744668Y-86736426D01*
X148546361Y-86828898D01*
X148546357Y-86828900D01*
X148367121Y-86954402D01*
X148212402Y-87109121D01*
X148086900Y-87288357D01*
X148086898Y-87288361D01*
X148016382Y-87439583D01*
X147970209Y-87492022D01*
X147903016Y-87511174D01*
X147836135Y-87490958D01*
X147791618Y-87439583D01*
X147748449Y-87347008D01*
X147721102Y-87288362D01*
X147721100Y-87288359D01*
X147721099Y-87288357D01*
X147595599Y-87109124D01*
X147524422Y-87037947D01*
X147440877Y-86954402D01*
X147302978Y-86857844D01*
X147261638Y-86828897D01*
X147127620Y-86766404D01*
X147063330Y-86736425D01*
X147063326Y-86736424D01*
X147063322Y-86736422D01*
X146851977Y-86679793D01*
X146634002Y-86660723D01*
X146633998Y-86660723D01*
X146506151Y-86671908D01*
X146416023Y-86679793D01*
X146416020Y-86679793D01*
X146204677Y-86736422D01*
X146204668Y-86736426D01*
X146006361Y-86828898D01*
X146006357Y-86828900D01*
X145827121Y-86954402D01*
X145672402Y-87109121D01*
X145570074Y-87255262D01*
X145515497Y-87298887D01*
X145445999Y-87306081D01*
X145383644Y-87274558D01*
X145348230Y-87214328D01*
X145344499Y-87184139D01*
X145344499Y-87118129D01*
X145344498Y-87118123D01*
X145344497Y-87118116D01*
X145338091Y-87058517D01*
X145304282Y-86967871D01*
X145287797Y-86923671D01*
X145287793Y-86923664D01*
X145201547Y-86808455D01*
X145201544Y-86808452D01*
X145086335Y-86722206D01*
X145086328Y-86722202D01*
X144951482Y-86671908D01*
X144951483Y-86671908D01*
X144891883Y-86665501D01*
X144891881Y-86665500D01*
X144891873Y-86665500D01*
X144891864Y-86665500D01*
X143296129Y-86665500D01*
X143296123Y-86665501D01*
X143236516Y-86671908D01*
X143101671Y-86722202D01*
X143101664Y-86722206D01*
X142986455Y-86808452D01*
X142986452Y-86808455D01*
X142900206Y-86923664D01*
X142900202Y-86923671D01*
X142849908Y-87058517D01*
X142844011Y-87113371D01*
X142843501Y-87118123D01*
X142843500Y-87118135D01*
X141617765Y-87118135D01*
X141588832Y-87086705D01*
X141400469Y-86940097D01*
X141304152Y-86887972D01*
X141190546Y-86826491D01*
X141190541Y-86826489D01*
X140964786Y-86748988D01*
X140804266Y-86722202D01*
X140729347Y-86709700D01*
X140490653Y-86709700D01*
X140431793Y-86719522D01*
X140255213Y-86748988D01*
X140029458Y-86826489D01*
X140029453Y-86826491D01*
X139819529Y-86940098D01*
X139631169Y-87086704D01*
X139469508Y-87262315D01*
X139443808Y-87301652D01*
X139390661Y-87347008D01*
X139321430Y-87356431D01*
X139258094Y-87326928D01*
X139236192Y-87301652D01*
X139210494Y-87262318D01*
X139048832Y-87086705D01*
X138860469Y-86940097D01*
X138764152Y-86887972D01*
X138650546Y-86826491D01*
X138650541Y-86826489D01*
X138424786Y-86748988D01*
X138264266Y-86722202D01*
X138189347Y-86709700D01*
X137950653Y-86709700D01*
X137891793Y-86719522D01*
X137715213Y-86748988D01*
X137489458Y-86826489D01*
X137489453Y-86826491D01*
X137279529Y-86940098D01*
X137091169Y-87086704D01*
X136929508Y-87262315D01*
X136903808Y-87301652D01*
X136850661Y-87347008D01*
X136781430Y-87356431D01*
X136718094Y-87326928D01*
X136696192Y-87301652D01*
X136670494Y-87262318D01*
X136508832Y-87086705D01*
X136320469Y-86940097D01*
X136224152Y-86887972D01*
X136110546Y-86826491D01*
X136110541Y-86826489D01*
X135884786Y-86748988D01*
X135724266Y-86722202D01*
X135649347Y-86709700D01*
X135410653Y-86709700D01*
X135351793Y-86719522D01*
X135175213Y-86748988D01*
X134949458Y-86826489D01*
X134949453Y-86826491D01*
X134739529Y-86940098D01*
X134551169Y-87086704D01*
X134389508Y-87262315D01*
X134363808Y-87301652D01*
X134310661Y-87347008D01*
X134241430Y-87356431D01*
X134178094Y-87326928D01*
X134156192Y-87301652D01*
X134130494Y-87262318D01*
X133968832Y-87086705D01*
X133780469Y-86940097D01*
X133684152Y-86887972D01*
X133570546Y-86826491D01*
X133570541Y-86826489D01*
X133344786Y-86748988D01*
X133184266Y-86722202D01*
X133109347Y-86709700D01*
X132870653Y-86709700D01*
X132811793Y-86719522D01*
X132635213Y-86748988D01*
X132409458Y-86826489D01*
X132409453Y-86826491D01*
X132199529Y-86940098D01*
X132011169Y-87086704D01*
X131849508Y-87262315D01*
X131823808Y-87301652D01*
X131770661Y-87347008D01*
X131701430Y-87356431D01*
X131638094Y-87326928D01*
X131616192Y-87301652D01*
X131590494Y-87262318D01*
X131428832Y-87086705D01*
X131240469Y-86940097D01*
X131144152Y-86887972D01*
X131030546Y-86826491D01*
X131030541Y-86826489D01*
X130804786Y-86748988D01*
X130644266Y-86722202D01*
X130569347Y-86709700D01*
X130330653Y-86709700D01*
X130271793Y-86719522D01*
X130095213Y-86748988D01*
X129869458Y-86826489D01*
X129869453Y-86826491D01*
X129659529Y-86940098D01*
X129471169Y-87086704D01*
X129309508Y-87262315D01*
X129283808Y-87301652D01*
X129230661Y-87347008D01*
X129161430Y-87356431D01*
X129098094Y-87326928D01*
X129076192Y-87301652D01*
X129050494Y-87262318D01*
X128888832Y-87086705D01*
X128700469Y-86940097D01*
X128604152Y-86887972D01*
X128490546Y-86826491D01*
X128490541Y-86826489D01*
X128264786Y-86748988D01*
X128104266Y-86722202D01*
X128029347Y-86709700D01*
X127790653Y-86709700D01*
X127731793Y-86719522D01*
X127555213Y-86748988D01*
X127329458Y-86826489D01*
X127329453Y-86826491D01*
X127119529Y-86940098D01*
X126931169Y-87086704D01*
X126769508Y-87262315D01*
X126743808Y-87301652D01*
X126690661Y-87347008D01*
X126621430Y-87356431D01*
X126558094Y-87326928D01*
X126536192Y-87301652D01*
X126510494Y-87262318D01*
X126348832Y-87086705D01*
X126160469Y-86940097D01*
X126064152Y-86887972D01*
X125950546Y-86826491D01*
X125950541Y-86826489D01*
X125724786Y-86748988D01*
X125564266Y-86722202D01*
X125489347Y-86709700D01*
X125250653Y-86709700D01*
X125191793Y-86719522D01*
X125015213Y-86748988D01*
X124789458Y-86826489D01*
X124789453Y-86826491D01*
X124579529Y-86940098D01*
X124391169Y-87086704D01*
X124229508Y-87262315D01*
X124203808Y-87301652D01*
X124150661Y-87347008D01*
X124081430Y-87356431D01*
X124018094Y-87326928D01*
X123996192Y-87301652D01*
X123970494Y-87262318D01*
X123808832Y-87086705D01*
X123620469Y-86940097D01*
X123524152Y-86887972D01*
X123410546Y-86826491D01*
X123410541Y-86826489D01*
X123184786Y-86748988D01*
X123024266Y-86722202D01*
X122949347Y-86709700D01*
X122710653Y-86709700D01*
X122651793Y-86719522D01*
X122475213Y-86748988D01*
X122249458Y-86826489D01*
X122249453Y-86826491D01*
X122039529Y-86940098D01*
X121851169Y-87086704D01*
X121689506Y-87262317D01*
X121558951Y-87462147D01*
X121463070Y-87680732D01*
X121404475Y-87912118D01*
X121404473Y-87912130D01*
X121384764Y-88149994D01*
X121384764Y-88150005D01*
X121404473Y-88387869D01*
X121404475Y-88387881D01*
X121463070Y-88619267D01*
X121530716Y-88773483D01*
X121558953Y-88837856D01*
X121689506Y-89037682D01*
X121851168Y-89213295D01*
X121851171Y-89213297D01*
X121851174Y-89213300D01*
X121991020Y-89322147D01*
X122031833Y-89378857D01*
X122035508Y-89448630D01*
X122000876Y-89509313D01*
X121991020Y-89517853D01*
X121851174Y-89626699D01*
X121851171Y-89626702D01*
X121689508Y-89802315D01*
X121663808Y-89841652D01*
X121610661Y-89887008D01*
X121541430Y-89896431D01*
X121478094Y-89866928D01*
X121456192Y-89841652D01*
X121430494Y-89802318D01*
X121268832Y-89626705D01*
X121080469Y-89480097D01*
X120969420Y-89420000D01*
X120870546Y-89366491D01*
X120870541Y-89366489D01*
X120644786Y-89288988D01*
X120487826Y-89262796D01*
X120409347Y-89249700D01*
X120170653Y-89249700D01*
X120111793Y-89259522D01*
X119935213Y-89288988D01*
X119709458Y-89366489D01*
X119709453Y-89366491D01*
X119499529Y-89480098D01*
X119341208Y-89603324D01*
X119276214Y-89628966D01*
X119207674Y-89615399D01*
X119157349Y-89566931D01*
X119148864Y-89548803D01*
X119133597Y-89507871D01*
X119133595Y-89507868D01*
X119131211Y-89504684D01*
X119123446Y-89494311D01*
X119099029Y-89428848D01*
X119113880Y-89360575D01*
X119123447Y-89345688D01*
X119133596Y-89332131D01*
X119183891Y-89197283D01*
X119190300Y-89137673D01*
X119190299Y-87162328D01*
X119183891Y-87102717D01*
X119167405Y-87058517D01*
X119133597Y-86967871D01*
X119133593Y-86967864D01*
X119047347Y-86852655D01*
X119047344Y-86852652D01*
X118932135Y-86766406D01*
X118932128Y-86766402D01*
X118797282Y-86716108D01*
X118797283Y-86716108D01*
X118737683Y-86709701D01*
X118737681Y-86709700D01*
X118737673Y-86709700D01*
X118737664Y-86709700D01*
X116762329Y-86709700D01*
X116762323Y-86709701D01*
X116702716Y-86716108D01*
X116567871Y-86766402D01*
X116567864Y-86766406D01*
X116452655Y-86852652D01*
X116452652Y-86852655D01*
X116366406Y-86967864D01*
X116366402Y-86967871D01*
X116316108Y-87102717D01*
X116314451Y-87118135D01*
X116309701Y-87162323D01*
X116309700Y-87162335D01*
X108000000Y-87162335D01*
X108000000Y-47509994D01*
X116304764Y-47509994D01*
X116304764Y-47510005D01*
X116324473Y-47747869D01*
X116324475Y-47747881D01*
X116383070Y-47979267D01*
X116478951Y-48197852D01*
X116478953Y-48197856D01*
X116609506Y-48397682D01*
X116771168Y-48573295D01*
X116959531Y-48719903D01*
X117169455Y-48833509D01*
X117395216Y-48911012D01*
X117630653Y-48950300D01*
X117630654Y-48950300D01*
X117869346Y-48950300D01*
X117869347Y-48950300D01*
X118104784Y-48911012D01*
X118330545Y-48833509D01*
X118540469Y-48719903D01*
X118728832Y-48573295D01*
X118890494Y-48397682D01*
X118916191Y-48358350D01*
X118969337Y-48312993D01*
X119038568Y-48303569D01*
X119101904Y-48333071D01*
X119123809Y-48358350D01*
X119149506Y-48397682D01*
X119311168Y-48573295D01*
X119499531Y-48719903D01*
X119709455Y-48833509D01*
X119935216Y-48911012D01*
X120170653Y-48950300D01*
X120170654Y-48950300D01*
X120409346Y-48950300D01*
X120409347Y-48950300D01*
X120644784Y-48911012D01*
X120870545Y-48833509D01*
X121080469Y-48719903D01*
X121268832Y-48573295D01*
X121430494Y-48397682D01*
X121456191Y-48358350D01*
X121509337Y-48312993D01*
X121578568Y-48303569D01*
X121641904Y-48333071D01*
X121663809Y-48358350D01*
X121689506Y-48397682D01*
X121851168Y-48573295D01*
X122039531Y-48719903D01*
X122249455Y-48833509D01*
X122475216Y-48911012D01*
X122710653Y-48950300D01*
X122710654Y-48950300D01*
X122949346Y-48950300D01*
X122949347Y-48950300D01*
X123184784Y-48911012D01*
X123410545Y-48833509D01*
X123620469Y-48719903D01*
X123808832Y-48573295D01*
X123970494Y-48397682D01*
X123996191Y-48358350D01*
X124049337Y-48312993D01*
X124118568Y-48303569D01*
X124181904Y-48333071D01*
X124203809Y-48358350D01*
X124229506Y-48397682D01*
X124391168Y-48573295D01*
X124579531Y-48719903D01*
X124789455Y-48833509D01*
X125015216Y-48911012D01*
X125250653Y-48950300D01*
X125250654Y-48950300D01*
X125489346Y-48950300D01*
X125489347Y-48950300D01*
X125724784Y-48911012D01*
X125950545Y-48833509D01*
X126160469Y-48719903D01*
X126348832Y-48573295D01*
X126510494Y-48397682D01*
X126536191Y-48358350D01*
X126589337Y-48312993D01*
X126658568Y-48303569D01*
X126721904Y-48333071D01*
X126743809Y-48358350D01*
X126769506Y-48397682D01*
X126931168Y-48573295D01*
X127119531Y-48719903D01*
X127329455Y-48833509D01*
X127555216Y-48911012D01*
X127790653Y-48950300D01*
X127790654Y-48950300D01*
X128029346Y-48950300D01*
X128029347Y-48950300D01*
X128264784Y-48911012D01*
X128490545Y-48833509D01*
X128700469Y-48719903D01*
X128888832Y-48573295D01*
X129050494Y-48397682D01*
X129076191Y-48358350D01*
X129129337Y-48312993D01*
X129198568Y-48303569D01*
X129261904Y-48333071D01*
X129283809Y-48358350D01*
X129309506Y-48397682D01*
X129471168Y-48573295D01*
X129659531Y-48719903D01*
X129869455Y-48833509D01*
X130095216Y-48911012D01*
X130330653Y-48950300D01*
X130330654Y-48950300D01*
X130569346Y-48950300D01*
X130569347Y-48950300D01*
X130804784Y-48911012D01*
X131030545Y-48833509D01*
X131240469Y-48719903D01*
X131428832Y-48573295D01*
X131590494Y-48397682D01*
X131616191Y-48358350D01*
X131669337Y-48312993D01*
X131738568Y-48303569D01*
X131801904Y-48333071D01*
X131823809Y-48358350D01*
X131849506Y-48397682D01*
X132011168Y-48573295D01*
X132199531Y-48719903D01*
X132409455Y-48833509D01*
X132635216Y-48911012D01*
X132870653Y-48950300D01*
X132870654Y-48950300D01*
X133109346Y-48950300D01*
X133109347Y-48950300D01*
X133344784Y-48911012D01*
X133570545Y-48833509D01*
X133780469Y-48719903D01*
X133968832Y-48573295D01*
X134130494Y-48397682D01*
X134156191Y-48358350D01*
X134209337Y-48312993D01*
X134278568Y-48303569D01*
X134341904Y-48333071D01*
X134363809Y-48358350D01*
X134389506Y-48397682D01*
X134551168Y-48573295D01*
X134739531Y-48719903D01*
X134949455Y-48833509D01*
X135175216Y-48911012D01*
X135410653Y-48950300D01*
X135410654Y-48950300D01*
X135649346Y-48950300D01*
X135649347Y-48950300D01*
X135884784Y-48911012D01*
X136110545Y-48833509D01*
X136320469Y-48719903D01*
X136508832Y-48573295D01*
X136670494Y-48397682D01*
X136696191Y-48358350D01*
X136749337Y-48312993D01*
X136818568Y-48303569D01*
X136881904Y-48333071D01*
X136903809Y-48358350D01*
X136929506Y-48397682D01*
X137091168Y-48573295D01*
X137279531Y-48719903D01*
X137489455Y-48833509D01*
X137715216Y-48911012D01*
X137950653Y-48950300D01*
X137950654Y-48950300D01*
X138189346Y-48950300D01*
X138189347Y-48950300D01*
X138424784Y-48911012D01*
X138650545Y-48833509D01*
X138860469Y-48719903D01*
X139018792Y-48596675D01*
X139083786Y-48571033D01*
X139152325Y-48584599D01*
X139202650Y-48633068D01*
X139211136Y-48651196D01*
X139226402Y-48692128D01*
X139226406Y-48692135D01*
X139312652Y-48807344D01*
X139312655Y-48807347D01*
X139427864Y-48893593D01*
X139427871Y-48893597D01*
X139562717Y-48943891D01*
X139562716Y-48943891D01*
X139569644Y-48944635D01*
X139622327Y-48950300D01*
X141597672Y-48950299D01*
X141657283Y-48943891D01*
X141792131Y-48893596D01*
X141907346Y-48807346D01*
X141993596Y-48692131D01*
X142043891Y-48557283D01*
X142050300Y-48497673D01*
X142050299Y-46522328D01*
X142043891Y-46462717D01*
X141993596Y-46327869D01*
X141983446Y-46314311D01*
X141959029Y-46248848D01*
X141973880Y-46180575D01*
X141983447Y-46165688D01*
X141993596Y-46152131D01*
X142043891Y-46017283D01*
X142050300Y-45957673D01*
X142050299Y-44969994D01*
X179804764Y-44969994D01*
X179804764Y-44970005D01*
X179824473Y-45207869D01*
X179824475Y-45207881D01*
X179883070Y-45439267D01*
X179978951Y-45657852D01*
X179978953Y-45657856D01*
X180109506Y-45857682D01*
X180271168Y-46033295D01*
X180271171Y-46033297D01*
X180271174Y-46033300D01*
X180411020Y-46142147D01*
X180451833Y-46198857D01*
X180455508Y-46268630D01*
X180420876Y-46329313D01*
X180411020Y-46337853D01*
X180271174Y-46446699D01*
X180271171Y-46446702D01*
X180109506Y-46622317D01*
X179978951Y-46822147D01*
X179883070Y-47040732D01*
X179824475Y-47272118D01*
X179824473Y-47272130D01*
X179804764Y-47509994D01*
X179804764Y-47510005D01*
X179824473Y-47747869D01*
X179824475Y-47747881D01*
X179883070Y-47979267D01*
X179978951Y-48197852D01*
X179978953Y-48197856D01*
X180109506Y-48397682D01*
X180271168Y-48573295D01*
X180459531Y-48719903D01*
X180669455Y-48833509D01*
X180895216Y-48911012D01*
X181130653Y-48950300D01*
X181130654Y-48950300D01*
X181369346Y-48950300D01*
X181369347Y-48950300D01*
X181604784Y-48911012D01*
X181830545Y-48833509D01*
X182040469Y-48719903D01*
X182228832Y-48573295D01*
X182390494Y-48397682D01*
X182416191Y-48358350D01*
X182469337Y-48312993D01*
X182538568Y-48303569D01*
X182601904Y-48333071D01*
X182623809Y-48358350D01*
X182649506Y-48397682D01*
X182811168Y-48573295D01*
X182999531Y-48719903D01*
X183209455Y-48833509D01*
X183435216Y-48911012D01*
X183670653Y-48950300D01*
X183670654Y-48950300D01*
X183909346Y-48950300D01*
X183909347Y-48950300D01*
X184144784Y-48911012D01*
X184370545Y-48833509D01*
X184580469Y-48719903D01*
X184768832Y-48573295D01*
X184930494Y-48397682D01*
X184956191Y-48358350D01*
X185009337Y-48312993D01*
X185078568Y-48303569D01*
X185141904Y-48333071D01*
X185163809Y-48358350D01*
X185189506Y-48397682D01*
X185351168Y-48573295D01*
X185539531Y-48719903D01*
X185749455Y-48833509D01*
X185975216Y-48911012D01*
X186210653Y-48950300D01*
X186210654Y-48950300D01*
X186449346Y-48950300D01*
X186449347Y-48950300D01*
X186684784Y-48911012D01*
X186910545Y-48833509D01*
X187120469Y-48719903D01*
X187308832Y-48573295D01*
X187470494Y-48397682D01*
X187496191Y-48358350D01*
X187549337Y-48312993D01*
X187618568Y-48303569D01*
X187681904Y-48333071D01*
X187703809Y-48358350D01*
X187729506Y-48397682D01*
X187891168Y-48573295D01*
X188079531Y-48719903D01*
X188289455Y-48833509D01*
X188515216Y-48911012D01*
X188750653Y-48950300D01*
X188750654Y-48950300D01*
X188989346Y-48950300D01*
X188989347Y-48950300D01*
X189224784Y-48911012D01*
X189450545Y-48833509D01*
X189660469Y-48719903D01*
X189848832Y-48573295D01*
X190010494Y-48397682D01*
X190036191Y-48358350D01*
X190089337Y-48312993D01*
X190158568Y-48303569D01*
X190221904Y-48333071D01*
X190243809Y-48358350D01*
X190269506Y-48397682D01*
X190431168Y-48573295D01*
X190619531Y-48719903D01*
X190829455Y-48833509D01*
X191055216Y-48911012D01*
X191290653Y-48950300D01*
X191290654Y-48950300D01*
X191529346Y-48950300D01*
X191529347Y-48950300D01*
X191764784Y-48911012D01*
X191990545Y-48833509D01*
X192200469Y-48719903D01*
X192388832Y-48573295D01*
X192550494Y-48397682D01*
X192576191Y-48358350D01*
X192629337Y-48312993D01*
X192698568Y-48303569D01*
X192761904Y-48333071D01*
X192783809Y-48358350D01*
X192809506Y-48397682D01*
X192971168Y-48573295D01*
X193159531Y-48719903D01*
X193369455Y-48833509D01*
X193595216Y-48911012D01*
X193830653Y-48950300D01*
X193830654Y-48950300D01*
X194069346Y-48950300D01*
X194069347Y-48950300D01*
X194304784Y-48911012D01*
X194530545Y-48833509D01*
X194740469Y-48719903D01*
X194928832Y-48573295D01*
X195090494Y-48397682D01*
X195116191Y-48358350D01*
X195169337Y-48312993D01*
X195238568Y-48303569D01*
X195301904Y-48333071D01*
X195323809Y-48358350D01*
X195349506Y-48397682D01*
X195511168Y-48573295D01*
X195699531Y-48719903D01*
X195909455Y-48833509D01*
X196135216Y-48911012D01*
X196370653Y-48950300D01*
X196370654Y-48950300D01*
X196609346Y-48950300D01*
X196609347Y-48950300D01*
X196844784Y-48911012D01*
X197070545Y-48833509D01*
X197280469Y-48719903D01*
X197468832Y-48573295D01*
X197630494Y-48397682D01*
X197656191Y-48358350D01*
X197709337Y-48312993D01*
X197778568Y-48303569D01*
X197841904Y-48333071D01*
X197863809Y-48358350D01*
X197889506Y-48397682D01*
X198051168Y-48573295D01*
X198239531Y-48719903D01*
X198449455Y-48833509D01*
X198675216Y-48911012D01*
X198910653Y-48950300D01*
X198910654Y-48950300D01*
X199149346Y-48950300D01*
X199149347Y-48950300D01*
X199384784Y-48911012D01*
X199610545Y-48833509D01*
X199820469Y-48719903D01*
X200008832Y-48573295D01*
X200170494Y-48397682D01*
X200196191Y-48358350D01*
X200249337Y-48312993D01*
X200318568Y-48303569D01*
X200381904Y-48333071D01*
X200403809Y-48358350D01*
X200429506Y-48397682D01*
X200591168Y-48573295D01*
X200779531Y-48719903D01*
X200989455Y-48833509D01*
X201215216Y-48911012D01*
X201450653Y-48950300D01*
X201450654Y-48950300D01*
X201689346Y-48950300D01*
X201689347Y-48950300D01*
X201924784Y-48911012D01*
X202150545Y-48833509D01*
X202360469Y-48719903D01*
X202518792Y-48596675D01*
X202583786Y-48571033D01*
X202652325Y-48584599D01*
X202702650Y-48633068D01*
X202711136Y-48651196D01*
X202726402Y-48692128D01*
X202726406Y-48692135D01*
X202812652Y-48807344D01*
X202812655Y-48807347D01*
X202927864Y-48893593D01*
X202927871Y-48893597D01*
X203062717Y-48943891D01*
X203062716Y-48943891D01*
X203069644Y-48944635D01*
X203122327Y-48950300D01*
X205097672Y-48950299D01*
X205157283Y-48943891D01*
X205292131Y-48893596D01*
X205407346Y-48807346D01*
X205493596Y-48692131D01*
X205543891Y-48557283D01*
X205550300Y-48497673D01*
X205550299Y-46522328D01*
X205543891Y-46462717D01*
X205493596Y-46327869D01*
X205483446Y-46314311D01*
X205459029Y-46248848D01*
X205473880Y-46180575D01*
X205483447Y-46165688D01*
X205493596Y-46152131D01*
X205543891Y-46017283D01*
X205550300Y-45957673D01*
X205550299Y-43982328D01*
X205543891Y-43922717D01*
X205538832Y-43909154D01*
X205493597Y-43787871D01*
X205493593Y-43787864D01*
X205407347Y-43672655D01*
X205407344Y-43672652D01*
X205292135Y-43586406D01*
X205292128Y-43586402D01*
X205157282Y-43536108D01*
X205157283Y-43536108D01*
X205097683Y-43529701D01*
X205097681Y-43529700D01*
X205097673Y-43529700D01*
X205097664Y-43529700D01*
X203122329Y-43529700D01*
X203122323Y-43529701D01*
X203062716Y-43536108D01*
X202927871Y-43586402D01*
X202927864Y-43586406D01*
X202812655Y-43672652D01*
X202812652Y-43672655D01*
X202726406Y-43787864D01*
X202726402Y-43787872D01*
X202711134Y-43828806D01*
X202669262Y-43884738D01*
X202603797Y-43909154D01*
X202535524Y-43894301D01*
X202518791Y-43883323D01*
X202360477Y-43760102D01*
X202360471Y-43760098D01*
X202150546Y-43646491D01*
X202150541Y-43646489D01*
X201924786Y-43568988D01*
X201767826Y-43542796D01*
X201689347Y-43529700D01*
X201450653Y-43529700D01*
X201391793Y-43539522D01*
X201215213Y-43568988D01*
X200989458Y-43646489D01*
X200989453Y-43646491D01*
X200779529Y-43760098D01*
X200591169Y-43906704D01*
X200429508Y-44082315D01*
X200403808Y-44121652D01*
X200350661Y-44167008D01*
X200281430Y-44176431D01*
X200218094Y-44146928D01*
X200196192Y-44121652D01*
X200170494Y-44082318D01*
X200008832Y-43906705D01*
X199820469Y-43760097D01*
X199704553Y-43697366D01*
X199610546Y-43646491D01*
X199610541Y-43646489D01*
X199384786Y-43568988D01*
X199227826Y-43542796D01*
X199149347Y-43529700D01*
X198910653Y-43529700D01*
X198851793Y-43539522D01*
X198675213Y-43568988D01*
X198449458Y-43646489D01*
X198449453Y-43646491D01*
X198239529Y-43760098D01*
X198051169Y-43906704D01*
X197889508Y-44082315D01*
X197863808Y-44121652D01*
X197810661Y-44167008D01*
X197741430Y-44176431D01*
X197678094Y-44146928D01*
X197656192Y-44121652D01*
X197630494Y-44082318D01*
X197468832Y-43906705D01*
X197280469Y-43760097D01*
X197164553Y-43697366D01*
X197070546Y-43646491D01*
X197070541Y-43646489D01*
X196844786Y-43568988D01*
X196687826Y-43542796D01*
X196609347Y-43529700D01*
X196370653Y-43529700D01*
X196311793Y-43539522D01*
X196135213Y-43568988D01*
X195909458Y-43646489D01*
X195909453Y-43646491D01*
X195699529Y-43760098D01*
X195511169Y-43906704D01*
X195349508Y-44082315D01*
X195323808Y-44121652D01*
X195270661Y-44167008D01*
X195201430Y-44176431D01*
X195138094Y-44146928D01*
X195116192Y-44121652D01*
X195090494Y-44082318D01*
X194928832Y-43906705D01*
X194740469Y-43760097D01*
X194624553Y-43697366D01*
X194530546Y-43646491D01*
X194530541Y-43646489D01*
X194304786Y-43568988D01*
X194147826Y-43542796D01*
X194069347Y-43529700D01*
X193830653Y-43529700D01*
X193771793Y-43539522D01*
X193595213Y-43568988D01*
X193369458Y-43646489D01*
X193369453Y-43646491D01*
X193159529Y-43760098D01*
X192971169Y-43906704D01*
X192809508Y-44082315D01*
X192783808Y-44121652D01*
X192730661Y-44167008D01*
X192661430Y-44176431D01*
X192598094Y-44146928D01*
X192576192Y-44121652D01*
X192550494Y-44082318D01*
X192388832Y-43906705D01*
X192200469Y-43760097D01*
X192084553Y-43697366D01*
X191990546Y-43646491D01*
X191990541Y-43646489D01*
X191764786Y-43568988D01*
X191607826Y-43542796D01*
X191529347Y-43529700D01*
X191290653Y-43529700D01*
X191231793Y-43539522D01*
X191055213Y-43568988D01*
X190829458Y-43646489D01*
X190829453Y-43646491D01*
X190619529Y-43760098D01*
X190431169Y-43906704D01*
X190269508Y-44082315D01*
X190243808Y-44121652D01*
X190190661Y-44167008D01*
X190121430Y-44176431D01*
X190058094Y-44146928D01*
X190036192Y-44121652D01*
X190010494Y-44082318D01*
X189848832Y-43906705D01*
X189660469Y-43760097D01*
X189544553Y-43697366D01*
X189450546Y-43646491D01*
X189450541Y-43646489D01*
X189224786Y-43568988D01*
X189067826Y-43542796D01*
X188989347Y-43529700D01*
X188750653Y-43529700D01*
X188691793Y-43539522D01*
X188515213Y-43568988D01*
X188289458Y-43646489D01*
X188289453Y-43646491D01*
X188079529Y-43760098D01*
X187891169Y-43906704D01*
X187729508Y-44082315D01*
X187703808Y-44121652D01*
X187650661Y-44167008D01*
X187581430Y-44176431D01*
X187518094Y-44146928D01*
X187496192Y-44121652D01*
X187470494Y-44082318D01*
X187308832Y-43906705D01*
X187120469Y-43760097D01*
X187004553Y-43697366D01*
X186910546Y-43646491D01*
X186910541Y-43646489D01*
X186684786Y-43568988D01*
X186527826Y-43542796D01*
X186449347Y-43529700D01*
X186210653Y-43529700D01*
X186151793Y-43539522D01*
X185975213Y-43568988D01*
X185749458Y-43646489D01*
X185749453Y-43646491D01*
X185539529Y-43760098D01*
X185351169Y-43906704D01*
X185189508Y-44082315D01*
X185163808Y-44121652D01*
X185110661Y-44167008D01*
X185041430Y-44176431D01*
X184978094Y-44146928D01*
X184956192Y-44121652D01*
X184930494Y-44082318D01*
X184768832Y-43906705D01*
X184580469Y-43760097D01*
X184464553Y-43697366D01*
X184370546Y-43646491D01*
X184370541Y-43646489D01*
X184144786Y-43568988D01*
X183987826Y-43542796D01*
X183909347Y-43529700D01*
X183670653Y-43529700D01*
X183611793Y-43539522D01*
X183435213Y-43568988D01*
X183209458Y-43646489D01*
X183209453Y-43646491D01*
X182999529Y-43760098D01*
X182811169Y-43906704D01*
X182649508Y-44082315D01*
X182623808Y-44121652D01*
X182570661Y-44167008D01*
X182501430Y-44176431D01*
X182438094Y-44146928D01*
X182416192Y-44121652D01*
X182390494Y-44082318D01*
X182228832Y-43906705D01*
X182040469Y-43760097D01*
X181924553Y-43697366D01*
X181830546Y-43646491D01*
X181830541Y-43646489D01*
X181604786Y-43568988D01*
X181447826Y-43542796D01*
X181369347Y-43529700D01*
X181130653Y-43529700D01*
X181071793Y-43539522D01*
X180895213Y-43568988D01*
X180669458Y-43646489D01*
X180669453Y-43646491D01*
X180459529Y-43760098D01*
X180271169Y-43906704D01*
X180109506Y-44082317D01*
X179978951Y-44282147D01*
X179883070Y-44500732D01*
X179824475Y-44732118D01*
X179824473Y-44732130D01*
X179804764Y-44969994D01*
X142050299Y-44969994D01*
X142050299Y-43982328D01*
X142043891Y-43922717D01*
X142038832Y-43909154D01*
X141993597Y-43787871D01*
X141993593Y-43787864D01*
X141907347Y-43672655D01*
X141907344Y-43672652D01*
X141792135Y-43586406D01*
X141792128Y-43586402D01*
X141657282Y-43536108D01*
X141657283Y-43536108D01*
X141597683Y-43529701D01*
X141597681Y-43529700D01*
X141597673Y-43529700D01*
X141597664Y-43529700D01*
X139622329Y-43529700D01*
X139622323Y-43529701D01*
X139562716Y-43536108D01*
X139427871Y-43586402D01*
X139427864Y-43586406D01*
X139312655Y-43672652D01*
X139312652Y-43672655D01*
X139226406Y-43787864D01*
X139226402Y-43787872D01*
X139211134Y-43828806D01*
X139169262Y-43884738D01*
X139103797Y-43909154D01*
X139035524Y-43894301D01*
X139018791Y-43883323D01*
X138860477Y-43760102D01*
X138860471Y-43760098D01*
X138650546Y-43646491D01*
X138650541Y-43646489D01*
X138424786Y-43568988D01*
X138267826Y-43542796D01*
X138189347Y-43529700D01*
X137950653Y-43529700D01*
X137891793Y-43539522D01*
X137715213Y-43568988D01*
X137489458Y-43646489D01*
X137489453Y-43646491D01*
X137279529Y-43760098D01*
X137091169Y-43906704D01*
X136929508Y-44082315D01*
X136903808Y-44121652D01*
X136850661Y-44167008D01*
X136781430Y-44176431D01*
X136718094Y-44146928D01*
X136696192Y-44121652D01*
X136670494Y-44082318D01*
X136508832Y-43906705D01*
X136320469Y-43760097D01*
X136204553Y-43697366D01*
X136110546Y-43646491D01*
X136110541Y-43646489D01*
X135884786Y-43568988D01*
X135727826Y-43542796D01*
X135649347Y-43529700D01*
X135410653Y-43529700D01*
X135351793Y-43539522D01*
X135175213Y-43568988D01*
X134949458Y-43646489D01*
X134949453Y-43646491D01*
X134739529Y-43760098D01*
X134551169Y-43906704D01*
X134389508Y-44082315D01*
X134363808Y-44121652D01*
X134310661Y-44167008D01*
X134241430Y-44176431D01*
X134178094Y-44146928D01*
X134156192Y-44121652D01*
X134130494Y-44082318D01*
X133968832Y-43906705D01*
X133780469Y-43760097D01*
X133664553Y-43697366D01*
X133570546Y-43646491D01*
X133570541Y-43646489D01*
X133344786Y-43568988D01*
X133187826Y-43542796D01*
X133109347Y-43529700D01*
X132870653Y-43529700D01*
X132811793Y-43539522D01*
X132635213Y-43568988D01*
X132409458Y-43646489D01*
X132409453Y-43646491D01*
X132199529Y-43760098D01*
X132011169Y-43906704D01*
X131849508Y-44082315D01*
X131823808Y-44121652D01*
X131770661Y-44167008D01*
X131701430Y-44176431D01*
X131638094Y-44146928D01*
X131616192Y-44121652D01*
X131590494Y-44082318D01*
X131428832Y-43906705D01*
X131240469Y-43760097D01*
X131124553Y-43697366D01*
X131030546Y-43646491D01*
X131030541Y-43646489D01*
X130804786Y-43568988D01*
X130647826Y-43542796D01*
X130569347Y-43529700D01*
X130330653Y-43529700D01*
X130271793Y-43539522D01*
X130095213Y-43568988D01*
X129869458Y-43646489D01*
X129869453Y-43646491D01*
X129659529Y-43760098D01*
X129471169Y-43906704D01*
X129309508Y-44082315D01*
X129283808Y-44121652D01*
X129230661Y-44167008D01*
X129161430Y-44176431D01*
X129098094Y-44146928D01*
X129076192Y-44121652D01*
X129050494Y-44082318D01*
X128888832Y-43906705D01*
X128700469Y-43760097D01*
X128584553Y-43697366D01*
X128490546Y-43646491D01*
X128490541Y-43646489D01*
X128264786Y-43568988D01*
X128107826Y-43542796D01*
X128029347Y-43529700D01*
X127790653Y-43529700D01*
X127731793Y-43539522D01*
X127555213Y-43568988D01*
X127329458Y-43646489D01*
X127329453Y-43646491D01*
X127119529Y-43760098D01*
X126931169Y-43906704D01*
X126769508Y-44082315D01*
X126743808Y-44121652D01*
X126690661Y-44167008D01*
X126621430Y-44176431D01*
X126558094Y-44146928D01*
X126536192Y-44121652D01*
X126510494Y-44082318D01*
X126348832Y-43906705D01*
X126160469Y-43760097D01*
X126044553Y-43697366D01*
X125950546Y-43646491D01*
X125950541Y-43646489D01*
X125724786Y-43568988D01*
X125567826Y-43542796D01*
X125489347Y-43529700D01*
X125250653Y-43529700D01*
X125191793Y-43539522D01*
X125015213Y-43568988D01*
X124789458Y-43646489D01*
X124789453Y-43646491D01*
X124579529Y-43760098D01*
X124391169Y-43906704D01*
X124229508Y-44082315D01*
X124203808Y-44121652D01*
X124150661Y-44167008D01*
X124081430Y-44176431D01*
X124018094Y-44146928D01*
X123996192Y-44121652D01*
X123970494Y-44082318D01*
X123808832Y-43906705D01*
X123620469Y-43760097D01*
X123504553Y-43697366D01*
X123410546Y-43646491D01*
X123410541Y-43646489D01*
X123184786Y-43568988D01*
X123027826Y-43542796D01*
X122949347Y-43529700D01*
X122710653Y-43529700D01*
X122651793Y-43539522D01*
X122475213Y-43568988D01*
X122249458Y-43646489D01*
X122249453Y-43646491D01*
X122039529Y-43760098D01*
X121851169Y-43906704D01*
X121689508Y-44082315D01*
X121663808Y-44121652D01*
X121610661Y-44167008D01*
X121541430Y-44176431D01*
X121478094Y-44146928D01*
X121456192Y-44121652D01*
X121430494Y-44082318D01*
X121268832Y-43906705D01*
X121080469Y-43760097D01*
X120964553Y-43697366D01*
X120870546Y-43646491D01*
X120870541Y-43646489D01*
X120644786Y-43568988D01*
X120487826Y-43542796D01*
X120409347Y-43529700D01*
X120170653Y-43529700D01*
X120111793Y-43539522D01*
X119935213Y-43568988D01*
X119709458Y-43646489D01*
X119709453Y-43646491D01*
X119499529Y-43760098D01*
X119311169Y-43906704D01*
X119149506Y-44082317D01*
X119018951Y-44282147D01*
X118923070Y-44500732D01*
X118864475Y-44732118D01*
X118864473Y-44732130D01*
X118844764Y-44969994D01*
X118844764Y-44970005D01*
X118864473Y-45207869D01*
X118864475Y-45207881D01*
X118923070Y-45439267D01*
X119018951Y-45657852D01*
X119018953Y-45657856D01*
X119149506Y-45857682D01*
X119311168Y-46033295D01*
X119311171Y-46033297D01*
X119311174Y-46033300D01*
X119451020Y-46142147D01*
X119491833Y-46198857D01*
X119495508Y-46268630D01*
X119460876Y-46329313D01*
X119451020Y-46337853D01*
X119311174Y-46446699D01*
X119311171Y-46446702D01*
X119149508Y-46622315D01*
X119123808Y-46661652D01*
X119070661Y-46707008D01*
X119001430Y-46716431D01*
X118938094Y-46686928D01*
X118916192Y-46661652D01*
X118890494Y-46622318D01*
X118728832Y-46446705D01*
X118540469Y-46300097D01*
X118403719Y-46226091D01*
X118330546Y-46186491D01*
X118330541Y-46186489D01*
X118104786Y-46108988D01*
X117947826Y-46082796D01*
X117869347Y-46069700D01*
X117630653Y-46069700D01*
X117571793Y-46079522D01*
X117395213Y-46108988D01*
X117169458Y-46186489D01*
X117169453Y-46186491D01*
X116959529Y-46300098D01*
X116771169Y-46446704D01*
X116609506Y-46622317D01*
X116478951Y-46822147D01*
X116383070Y-47040732D01*
X116324475Y-47272118D01*
X116324473Y-47272130D01*
X116304764Y-47509994D01*
X108000000Y-47509994D01*
X108000000Y-45004427D01*
X108000316Y-44995581D01*
X108019724Y-44724214D01*
X108022240Y-44706710D01*
X108079130Y-44445192D01*
X108084107Y-44428241D01*
X108177640Y-44177470D01*
X108184985Y-44161388D01*
X108313248Y-43926491D01*
X108322798Y-43911630D01*
X108483195Y-43697366D01*
X108494767Y-43684012D01*
X108684012Y-43494767D01*
X108697366Y-43483195D01*
X108911630Y-43322798D01*
X108926491Y-43313248D01*
X109161388Y-43184985D01*
X109177470Y-43177640D01*
X109428241Y-43084107D01*
X109445192Y-43079130D01*
X109706710Y-43022240D01*
X109724207Y-43019724D01*
X109995582Y-43000316D01*
X110004428Y-43000000D01*
X212186380Y-43000000D01*
X212229713Y-43007818D01*
G37*
%TD.AperFunction*%
%TD*%
%TA.AperFunction,Conductor*%
%TO.N,/VOUT*%
G36*
X165504418Y-116000316D02*
G01*
X165775790Y-116019724D01*
X165793291Y-116022241D01*
X166054803Y-116079129D01*
X166071762Y-116084108D01*
X166302046Y-116170000D01*
X166322524Y-116177638D01*
X166338616Y-116184987D01*
X166573501Y-116313244D01*
X166588375Y-116322802D01*
X166802624Y-116483188D01*
X166815994Y-116494774D01*
X167005225Y-116684005D01*
X167016811Y-116697375D01*
X167177193Y-116911619D01*
X167186758Y-116926503D01*
X167315011Y-117161382D01*
X167322361Y-117177475D01*
X167415888Y-117428229D01*
X167420872Y-117445205D01*
X167477757Y-117706702D01*
X167480275Y-117724214D01*
X167499684Y-117995581D01*
X167500000Y-118004427D01*
X167500000Y-122500000D01*
X177068560Y-122500000D01*
X177135599Y-122519685D01*
X177181354Y-122572489D01*
X177191298Y-122641647D01*
X177162273Y-122705203D01*
X177156241Y-122711681D01*
X171989711Y-127878211D01*
X171933960Y-127933962D01*
X171878209Y-127989712D01*
X171790609Y-128120814D01*
X171790602Y-128120827D01*
X171730264Y-128266498D01*
X171730261Y-128266510D01*
X171699500Y-128421153D01*
X171699500Y-129876000D01*
X171679815Y-129943039D01*
X171627011Y-129988794D01*
X171575500Y-130000000D01*
X155504428Y-130000000D01*
X155495582Y-129999684D01*
X155224214Y-129980275D01*
X155206702Y-129977757D01*
X154945205Y-129920872D01*
X154928229Y-129915888D01*
X154677475Y-129822361D01*
X154661382Y-129815011D01*
X154426503Y-129686758D01*
X154411619Y-129677193D01*
X154197375Y-129516811D01*
X154184005Y-129505225D01*
X153994774Y-129315994D01*
X153983188Y-129302624D01*
X153822802Y-129088375D01*
X153813244Y-129073501D01*
X153684987Y-128838616D01*
X153677638Y-128822524D01*
X153667469Y-128795259D01*
X153584108Y-128571762D01*
X153579129Y-128554803D01*
X153522241Y-128293291D01*
X153519724Y-128275785D01*
X153508641Y-128120827D01*
X153500316Y-128004418D01*
X153500000Y-127995572D01*
X153500000Y-119612979D01*
X153500324Y-119604022D01*
X153520224Y-119329263D01*
X153522805Y-119311535D01*
X153581122Y-119046896D01*
X153586228Y-119029731D01*
X153682076Y-118776245D01*
X153689599Y-118760004D01*
X153820973Y-118522972D01*
X153830754Y-118507990D01*
X153994912Y-118292364D01*
X154006756Y-118278942D01*
X154200265Y-118089226D01*
X154213929Y-118077643D01*
X154436395Y-117915133D01*
X154443789Y-117910131D01*
X157009929Y-116306293D01*
X157017404Y-116301976D01*
X157252339Y-116177034D01*
X157268139Y-116170000D01*
X157514082Y-116080468D01*
X157530704Y-116075700D01*
X157786715Y-116021273D01*
X157803845Y-116018865D01*
X158069274Y-116000302D01*
X158077925Y-116000000D01*
X165495572Y-116000000D01*
X165504418Y-116000316D01*
G37*
%TD.AperFunction*%
%TA.AperFunction,Conductor*%
G36*
X183004418Y-122500316D02*
G01*
X183275790Y-122519724D01*
X183293291Y-122522241D01*
X183554803Y-122579129D01*
X183571762Y-122584108D01*
X183822524Y-122677638D01*
X183838616Y-122684987D01*
X184073501Y-122813244D01*
X184088375Y-122822802D01*
X184302624Y-122983188D01*
X184315994Y-122994774D01*
X184505225Y-123184005D01*
X184516811Y-123197375D01*
X184677193Y-123411619D01*
X184686758Y-123426503D01*
X184815011Y-123661382D01*
X184822361Y-123677475D01*
X184915888Y-123928229D01*
X184920872Y-123945205D01*
X184977757Y-124206702D01*
X184980275Y-124224214D01*
X184999684Y-124495581D01*
X185000000Y-124504427D01*
X185000000Y-127995572D01*
X184999684Y-128004418D01*
X184980275Y-128275785D01*
X184977757Y-128293297D01*
X184920872Y-128554794D01*
X184915888Y-128571770D01*
X184822361Y-128822524D01*
X184815011Y-128838617D01*
X184686758Y-129073496D01*
X184677193Y-129088380D01*
X184516811Y-129302624D01*
X184505225Y-129315994D01*
X184315994Y-129505225D01*
X184302624Y-129516811D01*
X184088380Y-129677193D01*
X184073496Y-129686758D01*
X183838617Y-129815011D01*
X183822524Y-129822361D01*
X183571770Y-129915888D01*
X183554794Y-129920872D01*
X183293297Y-129977757D01*
X183275785Y-129980275D01*
X183004418Y-129999684D01*
X182995572Y-130000000D01*
X173424500Y-130000000D01*
X173357461Y-129980315D01*
X173311706Y-129927511D01*
X173300500Y-129876000D01*
X173300500Y-128882940D01*
X173320185Y-128815901D01*
X173336819Y-128795259D01*
X179595759Y-122536319D01*
X179657082Y-122502834D01*
X179683440Y-122500000D01*
X182995572Y-122500000D01*
X183004418Y-122500316D01*
G37*
%TD.AperFunction*%
%TD*%
%TA.AperFunction,Conductor*%
%TO.N,GNDPWR*%
G36*
X214504418Y-108000316D02*
G01*
X214775790Y-108019724D01*
X214793291Y-108022241D01*
X215054803Y-108079129D01*
X215071762Y-108084108D01*
X215322524Y-108177638D01*
X215338616Y-108184987D01*
X215573501Y-108313244D01*
X215588375Y-108322802D01*
X215802624Y-108483188D01*
X215815994Y-108494774D01*
X215963181Y-108641961D01*
X215996666Y-108703284D01*
X215999500Y-108729642D01*
X215999500Y-139496948D01*
X215999351Y-139503033D01*
X215982947Y-139836928D01*
X215981754Y-139849037D01*
X215933151Y-140176694D01*
X215930777Y-140188630D01*
X215850292Y-140509944D01*
X215846759Y-140521588D01*
X215735170Y-140833459D01*
X215730514Y-140844702D01*
X215588885Y-141144151D01*
X215583148Y-141154883D01*
X215412862Y-141438988D01*
X215406102Y-141449106D01*
X215208775Y-141715170D01*
X215201055Y-141724576D01*
X214978611Y-141970006D01*
X214970006Y-141978611D01*
X214724576Y-142201055D01*
X214715170Y-142208775D01*
X214449106Y-142406102D01*
X214438988Y-142412862D01*
X214154883Y-142583148D01*
X214144151Y-142588885D01*
X213844702Y-142730514D01*
X213833459Y-142735170D01*
X213521588Y-142846759D01*
X213509944Y-142850292D01*
X213188630Y-142930777D01*
X213176694Y-142933151D01*
X212849037Y-142981754D01*
X212836928Y-142982947D01*
X212529495Y-142998051D01*
X212503031Y-142999351D01*
X212496949Y-142999500D01*
X179025978Y-142999500D01*
X179015680Y-142999072D01*
X178975900Y-142995757D01*
X178975899Y-142995757D01*
X178971775Y-142996501D01*
X178966102Y-142997526D01*
X178944067Y-142999500D01*
X178934104Y-142999500D01*
X178895550Y-143009831D01*
X178885494Y-143012082D01*
X178846212Y-143019176D01*
X178837200Y-143023423D01*
X178816442Y-143031027D01*
X178806814Y-143033607D01*
X178772239Y-143053567D01*
X178763118Y-143058340D01*
X178727009Y-143075361D01*
X178726999Y-143075367D01*
X178719394Y-143081802D01*
X178701317Y-143094515D01*
X178692691Y-143099495D01*
X178692686Y-143099499D01*
X178670163Y-143122021D01*
X178659373Y-143131620D01*
X178259511Y-143447644D01*
X178252838Y-143452565D01*
X177817971Y-143751311D01*
X177810983Y-143755775D01*
X177357111Y-144024795D01*
X177349841Y-144028782D01*
X176879001Y-144266871D01*
X176871480Y-144270363D01*
X176385797Y-144476445D01*
X176378060Y-144479427D01*
X175879677Y-144652594D01*
X175871758Y-144655052D01*
X175362916Y-144794524D01*
X175354851Y-144796447D01*
X174837836Y-144901599D01*
X174829659Y-144902979D01*
X174306774Y-144973341D01*
X174298524Y-144974172D01*
X173772087Y-145009434D01*
X173763800Y-145009711D01*
X173236200Y-145009711D01*
X173227913Y-145009434D01*
X172701475Y-144974172D01*
X172693225Y-144973341D01*
X172170340Y-144902979D01*
X172162167Y-144901599D01*
X172051357Y-144879063D01*
X171645148Y-144796447D01*
X171637083Y-144794524D01*
X171128241Y-144655052D01*
X171120322Y-144652594D01*
X170621939Y-144479427D01*
X170614202Y-144476445D01*
X170128519Y-144270363D01*
X170120998Y-144266871D01*
X169650158Y-144028782D01*
X169642888Y-144024795D01*
X169189016Y-143755775D01*
X169182046Y-143751323D01*
X168747161Y-143452565D01*
X168740488Y-143447644D01*
X168367747Y-143153056D01*
X168340621Y-143131617D01*
X168329835Y-143122021D01*
X168307314Y-143099500D01*
X168307313Y-143099499D01*
X168298686Y-143094518D01*
X168280597Y-143081796D01*
X168272993Y-143075362D01*
X168236880Y-143058340D01*
X168227762Y-143053569D01*
X168193188Y-143033609D01*
X168193187Y-143033608D01*
X168193186Y-143033608D01*
X168190483Y-143032883D01*
X168183566Y-143031030D01*
X168162798Y-143023423D01*
X168153787Y-143019176D01*
X168153784Y-143019175D01*
X168114509Y-143012083D01*
X168104453Y-143009832D01*
X168065893Y-142999500D01*
X168065892Y-142999500D01*
X168055933Y-142999500D01*
X168033897Y-142997526D01*
X168024100Y-142995757D01*
X168024099Y-142995757D01*
X167984320Y-142999072D01*
X167974022Y-142999500D01*
X163569820Y-142999500D01*
X163554380Y-142997773D01*
X163554355Y-142998050D01*
X163546261Y-142997304D01*
X163492610Y-142999405D01*
X163487760Y-142999500D01*
X163434105Y-142999500D01*
X163426052Y-143000560D01*
X163426015Y-143000286D01*
X163422541Y-143000813D01*
X163422588Y-143001084D01*
X163414581Y-143002458D01*
X163363294Y-143018375D01*
X163358636Y-143019721D01*
X163306817Y-143033606D01*
X163299304Y-143036718D01*
X163299198Y-143036464D01*
X163295979Y-143037872D01*
X163296094Y-143038121D01*
X163288718Y-143041519D01*
X163243275Y-143070182D01*
X163239137Y-143072680D01*
X163223353Y-143081794D01*
X163192682Y-143099502D01*
X163186245Y-143104442D01*
X163186077Y-143104224D01*
X163183334Y-143106415D01*
X163183508Y-143106625D01*
X163177254Y-143111825D01*
X163140773Y-143151277D01*
X163137414Y-143154770D01*
X163099501Y-143192683D01*
X163094553Y-143199132D01*
X163094335Y-143198964D01*
X163092253Y-143201791D01*
X163092476Y-143201949D01*
X163087784Y-143208585D01*
X163062747Y-143256151D01*
X163060409Y-143260390D01*
X163033608Y-143306813D01*
X163031358Y-143312245D01*
X163025500Y-143324453D01*
X162523557Y-144238905D01*
X162521400Y-144242677D01*
X161955238Y-145193545D01*
X161952950Y-145197239D01*
X161353820Y-146127691D01*
X161351404Y-146131302D01*
X160720057Y-147040171D01*
X160717516Y-147043696D01*
X160054695Y-147929914D01*
X160052032Y-147933347D01*
X159358580Y-148795785D01*
X159355798Y-148799123D01*
X158632579Y-149636710D01*
X158629683Y-149639949D01*
X157877513Y-150451736D01*
X157874504Y-150454871D01*
X157094371Y-151239791D01*
X157091254Y-151242818D01*
X156284142Y-151999884D01*
X156280922Y-152002801D01*
X155447731Y-152731169D01*
X155444410Y-152733971D01*
X154586233Y-153432685D01*
X154582816Y-153435369D01*
X153700671Y-154103598D01*
X153697162Y-154106160D01*
X152792163Y-154743060D01*
X152788566Y-154745498D01*
X151861830Y-155350287D01*
X151858151Y-155352598D01*
X150910739Y-155924582D01*
X150906980Y-155926762D01*
X149940154Y-156465176D01*
X149936322Y-156467223D01*
X148951217Y-156971439D01*
X148947315Y-156973351D01*
X147945138Y-157442749D01*
X147941171Y-157444523D01*
X146923155Y-157878524D01*
X146919129Y-157880157D01*
X145886573Y-158278211D01*
X145882492Y-158279703D01*
X144836594Y-158641346D01*
X144832463Y-158642694D01*
X143774535Y-158967471D01*
X143770360Y-158968673D01*
X142701708Y-159256186D01*
X142697493Y-159257241D01*
X141619431Y-159507136D01*
X141615181Y-159508043D01*
X140529011Y-159720015D01*
X140524733Y-159720772D01*
X139431846Y-159894554D01*
X139427543Y-159895162D01*
X138329155Y-160030558D01*
X138324834Y-160031013D01*
X137222474Y-160127835D01*
X137218140Y-160128140D01*
X136112990Y-160186284D01*
X136108647Y-160186436D01*
X135002172Y-160205824D01*
X134997828Y-160205824D01*
X133891353Y-160186436D01*
X133887010Y-160186284D01*
X132781860Y-160128140D01*
X132777526Y-160127835D01*
X131675166Y-160031013D01*
X131670845Y-160030558D01*
X130572457Y-159895162D01*
X130568154Y-159894554D01*
X129475267Y-159720772D01*
X129470989Y-159720015D01*
X128384819Y-159508043D01*
X128380569Y-159507136D01*
X127302507Y-159257241D01*
X127298292Y-159256186D01*
X126229639Y-158968673D01*
X126225464Y-158967471D01*
X125167537Y-158642694D01*
X125163406Y-158641346D01*
X124509943Y-158415396D01*
X124117495Y-158279698D01*
X124113440Y-158278215D01*
X123337328Y-157979023D01*
X123080871Y-157880158D01*
X123076845Y-157878525D01*
X122124713Y-157472611D01*
X122058817Y-157444518D01*
X122054872Y-157442753D01*
X121052683Y-156973351D01*
X121048783Y-156971440D01*
X120063678Y-156467224D01*
X120059846Y-156465177D01*
X119093020Y-155926762D01*
X119089261Y-155924582D01*
X118141847Y-155352598D01*
X118138168Y-155350287D01*
X117211434Y-154745499D01*
X117207837Y-154743061D01*
X116640621Y-154343878D01*
X116302823Y-154106150D01*
X116299344Y-154103610D01*
X115812075Y-153734501D01*
X115417184Y-153435369D01*
X115413767Y-153432685D01*
X114555590Y-152733972D01*
X114552269Y-152731170D01*
X113719092Y-152002815D01*
X113715871Y-151999898D01*
X113129495Y-151449880D01*
X112908720Y-151242795D01*
X112905615Y-151239778D01*
X112125496Y-150454871D01*
X112122487Y-150451736D01*
X111791077Y-150094059D01*
X111370303Y-149639934D01*
X111367421Y-149636710D01*
X110644202Y-148799123D01*
X110641420Y-148795785D01*
X110022902Y-148026543D01*
X109947964Y-147933343D01*
X109945304Y-147929914D01*
X109282483Y-147043697D01*
X109279942Y-147040172D01*
X108648596Y-146131303D01*
X108648595Y-146131302D01*
X108648584Y-146131286D01*
X108646180Y-146127692D01*
X108646179Y-146127691D01*
X108047046Y-145197234D01*
X108044762Y-145193546D01*
X107478588Y-144242657D01*
X107476455Y-144238927D01*
X106974497Y-143324449D01*
X106968637Y-143312234D01*
X106966393Y-143306817D01*
X106966393Y-143306814D01*
X106939590Y-143260390D01*
X106939561Y-143260339D01*
X106937218Y-143256091D01*
X106928233Y-143239020D01*
X106912215Y-143208585D01*
X106912211Y-143208581D01*
X106907522Y-143201947D01*
X106907749Y-143201786D01*
X106905668Y-143198962D01*
X106905447Y-143199132D01*
X106900500Y-143192684D01*
X106862562Y-143154746D01*
X106859200Y-143151250D01*
X106822746Y-143111826D01*
X106816495Y-143106629D01*
X106816671Y-143106416D01*
X106813930Y-143104226D01*
X106813761Y-143104447D01*
X106807311Y-143099497D01*
X106760817Y-143072653D01*
X106756668Y-143070148D01*
X106730379Y-143053567D01*
X106711281Y-143041521D01*
X106711279Y-143041520D01*
X106711277Y-143041519D01*
X106703893Y-143038116D01*
X106704009Y-143037864D01*
X106700799Y-143036460D01*
X106700693Y-143036718D01*
X106693188Y-143033608D01*
X106693187Y-143033608D01*
X106693185Y-143033607D01*
X106693184Y-143033607D01*
X106672841Y-143028156D01*
X106641321Y-143019710D01*
X106636683Y-143018369D01*
X106585420Y-143002460D01*
X106577410Y-143001085D01*
X106577456Y-143000812D01*
X106573988Y-143000286D01*
X106573952Y-143000561D01*
X106565894Y-142999500D01*
X106565893Y-142999500D01*
X106565891Y-142999500D01*
X106512214Y-142999500D01*
X106507364Y-142999405D01*
X106453738Y-142997305D01*
X106445645Y-142998051D01*
X106445619Y-142997774D01*
X106430183Y-142999500D01*
X89003051Y-142999500D01*
X88996968Y-142999351D01*
X88970505Y-142998051D01*
X88663071Y-142982947D01*
X88650962Y-142981754D01*
X88323305Y-142933151D01*
X88311369Y-142930777D01*
X87990055Y-142850292D01*
X87978411Y-142846759D01*
X87666540Y-142735170D01*
X87655301Y-142730515D01*
X87355844Y-142588883D01*
X87345121Y-142583150D01*
X87061011Y-142412862D01*
X87050893Y-142406102D01*
X86784829Y-142208775D01*
X86775423Y-142201055D01*
X86539771Y-141987473D01*
X86529986Y-141978604D01*
X86521395Y-141970013D01*
X86298944Y-141724576D01*
X86291224Y-141715170D01*
X86093897Y-141449106D01*
X86087137Y-141438988D01*
X85916844Y-141154871D01*
X85911120Y-141144163D01*
X85769479Y-140844688D01*
X85764829Y-140833459D01*
X85735523Y-140751555D01*
X85653240Y-140521588D01*
X85649707Y-140509944D01*
X85569219Y-140188617D01*
X85566848Y-140176695D01*
X85553690Y-140087993D01*
X85518244Y-139849035D01*
X85517052Y-139836929D01*
X85516036Y-139816243D01*
X85500673Y-139503542D01*
X85500525Y-139497536D01*
X85500525Y-139393713D01*
X100649500Y-139393713D01*
X100649500Y-139606287D01*
X100682754Y-139816243D01*
X100693409Y-139849037D01*
X100748444Y-140018414D01*
X100844951Y-140207820D01*
X100969890Y-140379786D01*
X101120213Y-140530109D01*
X101292179Y-140655048D01*
X101292181Y-140655049D01*
X101292184Y-140655051D01*
X101481588Y-140751557D01*
X101683757Y-140817246D01*
X101893713Y-140850500D01*
X101893714Y-140850500D01*
X102106286Y-140850500D01*
X102106287Y-140850500D01*
X102316243Y-140817246D01*
X102518412Y-140751557D01*
X102707816Y-140655051D01*
X102729789Y-140639086D01*
X102879786Y-140530109D01*
X102879788Y-140530106D01*
X102879792Y-140530104D01*
X103030104Y-140379792D01*
X103030106Y-140379788D01*
X103030109Y-140379786D01*
X103155048Y-140207820D01*
X103155047Y-140207820D01*
X103155051Y-140207816D01*
X103251557Y-140018412D01*
X103317246Y-139816243D01*
X103350500Y-139606287D01*
X103350500Y-139393713D01*
X103317246Y-139183757D01*
X103251557Y-138981588D01*
X103155051Y-138792184D01*
X103155049Y-138792181D01*
X103155048Y-138792179D01*
X103030109Y-138620213D01*
X102879786Y-138469890D01*
X102707820Y-138344951D01*
X102518414Y-138248444D01*
X102518413Y-138248443D01*
X102518412Y-138248443D01*
X102316243Y-138182754D01*
X102316241Y-138182753D01*
X102316240Y-138182753D01*
X102154957Y-138157208D01*
X102106287Y-138149500D01*
X101893713Y-138149500D01*
X101845042Y-138157208D01*
X101683760Y-138182753D01*
X101481585Y-138248444D01*
X101292179Y-138344951D01*
X101120213Y-138469890D01*
X100969890Y-138620213D01*
X100844951Y-138792179D01*
X100748444Y-138981585D01*
X100682753Y-139183760D01*
X100664234Y-139300688D01*
X100649500Y-139393713D01*
X85500525Y-139393713D01*
X85500520Y-117229640D01*
X85520205Y-117162603D01*
X85536834Y-117141966D01*
X85684035Y-116994765D01*
X85697397Y-116983188D01*
X85911645Y-116822803D01*
X85926514Y-116813247D01*
X86161415Y-116684981D01*
X86177484Y-116677642D01*
X86428262Y-116584107D01*
X86445213Y-116579130D01*
X86706732Y-116522240D01*
X86724229Y-116519724D01*
X86995604Y-116500316D01*
X87004450Y-116500000D01*
X97495572Y-116500000D01*
X97504418Y-116500316D01*
X97775790Y-116519724D01*
X97793291Y-116522241D01*
X98054803Y-116579129D01*
X98071762Y-116584108D01*
X98322521Y-116677637D01*
X98322524Y-116677638D01*
X98338616Y-116684987D01*
X98573499Y-116813243D01*
X98588375Y-116822802D01*
X98802621Y-116983186D01*
X98802624Y-116983188D01*
X98815994Y-116994774D01*
X99005225Y-117184005D01*
X99016811Y-117197375D01*
X99177193Y-117411619D01*
X99186758Y-117426503D01*
X99315011Y-117661382D01*
X99322361Y-117677475D01*
X99415888Y-117928229D01*
X99420872Y-117945205D01*
X99477757Y-118206702D01*
X99480275Y-118224214D01*
X99499684Y-118495581D01*
X99500000Y-118504427D01*
X99500000Y-123500000D01*
X101995572Y-123500000D01*
X102004418Y-123500316D01*
X102275790Y-123519724D01*
X102293291Y-123522241D01*
X102554803Y-123579129D01*
X102571762Y-123584108D01*
X102758317Y-123653690D01*
X102822524Y-123677638D01*
X102838616Y-123684987D01*
X103073501Y-123813244D01*
X103088375Y-123822802D01*
X103108357Y-123837761D01*
X103302624Y-123983188D01*
X103315994Y-123994774D01*
X103505225Y-124184005D01*
X103516811Y-124197375D01*
X103589395Y-124294336D01*
X103677193Y-124411619D01*
X103686758Y-124426503D01*
X103815011Y-124661382D01*
X103822361Y-124677475D01*
X103915888Y-124928229D01*
X103920872Y-124945205D01*
X103977757Y-125206702D01*
X103980275Y-125224214D01*
X103999684Y-125495581D01*
X104000000Y-125504427D01*
X104000000Y-131500000D01*
X112714608Y-131500000D01*
X112714620Y-131500000D01*
X113500000Y-131500000D01*
X114174315Y-130873851D01*
X117527438Y-127760236D01*
X119921076Y-125537571D01*
X119928100Y-125531522D01*
X120150979Y-125353657D01*
X120166276Y-125343220D01*
X120409162Y-125202904D01*
X120425848Y-125194864D01*
X120686938Y-125092337D01*
X120704633Y-125086876D01*
X120978093Y-125024428D01*
X120996405Y-125021666D01*
X121280752Y-125000347D01*
X121290023Y-125000000D01*
X132628213Y-125000000D01*
X132695252Y-125019685D01*
X132741007Y-125072489D01*
X132750951Y-125141647D01*
X132721926Y-125205203D01*
X132702080Y-125223598D01*
X132459043Y-125403846D01*
X132167807Y-125667807D01*
X131903846Y-125959043D01*
X131669692Y-126274763D01*
X131467620Y-126611899D01*
X131299562Y-126967227D01*
X131299561Y-126967229D01*
X131167143Y-127337315D01*
X131071637Y-127718593D01*
X131015961Y-128093936D01*
X131013962Y-128107409D01*
X130994675Y-128500000D01*
X131013962Y-128892591D01*
X131013962Y-128892597D01*
X131013963Y-128892599D01*
X131071637Y-129281406D01*
X131167143Y-129662684D01*
X131299561Y-130032770D01*
X131299562Y-130032772D01*
X131467620Y-130388100D01*
X131669692Y-130725236D01*
X131903846Y-131040956D01*
X132167807Y-131332192D01*
X132459043Y-131596153D01*
X132459049Y-131596158D01*
X132774761Y-131830306D01*
X132774763Y-131830307D01*
X133111899Y-132032379D01*
X133111902Y-132032380D01*
X133111903Y-132032381D01*
X133467228Y-132200438D01*
X133837316Y-132332857D01*
X134218600Y-132428364D01*
X134607409Y-132486038D01*
X135000000Y-132505325D01*
X135392591Y-132486038D01*
X135781400Y-132428364D01*
X136162684Y-132332857D01*
X136532772Y-132200438D01*
X136888097Y-132032381D01*
X137225239Y-131830306D01*
X137540951Y-131596158D01*
X137832192Y-131332192D01*
X138096158Y-131040951D01*
X138330306Y-130725239D01*
X138532381Y-130388097D01*
X138700438Y-130032772D01*
X138832857Y-129662684D01*
X138928364Y-129281400D01*
X138986038Y-128892591D01*
X139005325Y-128500000D01*
X138986038Y-128107409D01*
X138928364Y-127718600D01*
X138832857Y-127337316D01*
X138700438Y-126967228D01*
X138532381Y-126611903D01*
X138513558Y-126580499D01*
X138330307Y-126274763D01*
X138330306Y-126274761D01*
X138096158Y-125959049D01*
X138096153Y-125959043D01*
X137832192Y-125667807D01*
X137540956Y-125403846D01*
X137465396Y-125347807D01*
X137297919Y-125223597D01*
X137255800Y-125167851D01*
X137250504Y-125098183D01*
X137283715Y-125036711D01*
X137344889Y-125002953D01*
X137371787Y-125000000D01*
X152870500Y-125000000D01*
X152937539Y-125019685D01*
X152983294Y-125072489D01*
X152994500Y-125124000D01*
X152994500Y-127995591D01*
X152994820Y-128013574D01*
X152995139Y-128022497D01*
X152996103Y-128040471D01*
X153004266Y-128154619D01*
X153004271Y-128154682D01*
X153015511Y-128311839D01*
X153019370Y-128347734D01*
X153021883Y-128365219D01*
X153028296Y-128400760D01*
X153085178Y-128662246D01*
X153094101Y-128697202D01*
X153099079Y-128714158D01*
X153110479Y-128748414D01*
X153189960Y-128961509D01*
X153189961Y-128961511D01*
X153198289Y-128983841D01*
X153204008Y-128999173D01*
X153217693Y-129032214D01*
X153217824Y-129032529D01*
X153225160Y-129048594D01*
X153241324Y-129080884D01*
X153369574Y-129315755D01*
X153369577Y-129315761D01*
X153387978Y-129346776D01*
X153397536Y-129361650D01*
X153418129Y-129391311D01*
X153578515Y-129605560D01*
X153578528Y-129605577D01*
X153601158Y-129633659D01*
X153612756Y-129647042D01*
X153637335Y-129673439D01*
X153826559Y-129862663D01*
X153852956Y-129887242D01*
X153866339Y-129898840D01*
X153894421Y-129921470D01*
X153894429Y-129921476D01*
X153894439Y-129921484D01*
X154108683Y-130081866D01*
X154108686Y-130081868D01*
X154138331Y-130102451D01*
X154144405Y-130106353D01*
X154153216Y-130112016D01*
X154184244Y-130130425D01*
X154184250Y-130130428D01*
X154184258Y-130130433D01*
X154276865Y-130180999D01*
X154419123Y-130258678D01*
X154435249Y-130266751D01*
X154451375Y-130274824D01*
X154467467Y-130282173D01*
X154500807Y-130295984D01*
X154500816Y-130295987D01*
X154500820Y-130295989D01*
X154751574Y-130389516D01*
X154751594Y-130389522D01*
X154751595Y-130389523D01*
X154785819Y-130400913D01*
X154785827Y-130400915D01*
X154785829Y-130400916D01*
X154802805Y-130405900D01*
X154826821Y-130412029D01*
X154837761Y-130414822D01*
X155099241Y-130471703D01*
X155099245Y-130471703D01*
X155099251Y-130471705D01*
X155134758Y-130478111D01*
X155152270Y-130480629D01*
X155152291Y-130480632D01*
X155188137Y-130484486D01*
X155188151Y-130484487D01*
X155459519Y-130503896D01*
X155477536Y-130504862D01*
X155486382Y-130505178D01*
X155486414Y-130505178D01*
X155486426Y-130505179D01*
X155504409Y-130505500D01*
X171575500Y-130505500D01*
X171642539Y-130525185D01*
X171688294Y-130577989D01*
X171699500Y-130629500D01*
X171699500Y-131629871D01*
X171679815Y-131696910D01*
X171627011Y-131742665D01*
X171616809Y-131746788D01*
X171417398Y-131817244D01*
X171417392Y-131817246D01*
X170985384Y-132012526D01*
X170985362Y-132012537D01*
X170571472Y-132243751D01*
X170571453Y-132243763D01*
X170178655Y-132509247D01*
X170178654Y-132509248D01*
X169809790Y-132807085D01*
X169809788Y-132807086D01*
X169467489Y-133135153D01*
X169154262Y-133491048D01*
X168872331Y-133872243D01*
X168623752Y-134275961D01*
X168623741Y-134275981D01*
X168410302Y-134699311D01*
X168410298Y-134699322D01*
X168233529Y-135139229D01*
X168233527Y-135139234D01*
X168094698Y-135592559D01*
X168094696Y-135592567D01*
X167994810Y-136056038D01*
X167934587Y-136526326D01*
X167914467Y-136999993D01*
X167914467Y-137000006D01*
X167934587Y-137473673D01*
X167994810Y-137943961D01*
X168094696Y-138407432D01*
X168094698Y-138407440D01*
X168233527Y-138860765D01*
X168233529Y-138860770D01*
X168410298Y-139300677D01*
X168410302Y-139300688D01*
X168623741Y-139724018D01*
X168623752Y-139724038D01*
X168680525Y-139816243D01*
X168872332Y-140127758D01*
X169154256Y-140508944D01*
X169154261Y-140508949D01*
X169154262Y-140508951D01*
X169467489Y-140864846D01*
X169809788Y-141192913D01*
X169809790Y-141192914D01*
X170178654Y-141490751D01*
X170178655Y-141490752D01*
X170310821Y-141580080D01*
X170571464Y-141756244D01*
X170755423Y-141859009D01*
X170985362Y-141987462D01*
X170985384Y-141987473D01*
X171417391Y-142182752D01*
X171417398Y-142182755D01*
X171864429Y-142340701D01*
X172323244Y-142460167D01*
X172790538Y-142540293D01*
X172936774Y-142552739D01*
X173262924Y-142580499D01*
X173262941Y-142580499D01*
X173262943Y-142580500D01*
X173262944Y-142580500D01*
X173737056Y-142580500D01*
X173737057Y-142580500D01*
X173737058Y-142580499D01*
X173737075Y-142580499D01*
X174018242Y-142556567D01*
X174209462Y-142540293D01*
X174676756Y-142460167D01*
X175135571Y-142340701D01*
X175582602Y-142182755D01*
X176014628Y-141987467D01*
X176428536Y-141756244D01*
X176821343Y-141490753D01*
X177190209Y-141192914D01*
X177190211Y-141192913D01*
X177190215Y-141192908D01*
X177190220Y-141192905D01*
X177532510Y-140864847D01*
X177845744Y-140508944D01*
X178127668Y-140127758D01*
X178271775Y-139893713D01*
X197649500Y-139893713D01*
X197649500Y-140106287D01*
X197682754Y-140316243D01*
X197734342Y-140475015D01*
X197748444Y-140518414D01*
X197844951Y-140707820D01*
X197969890Y-140879786D01*
X198120213Y-141030109D01*
X198292179Y-141155048D01*
X198292181Y-141155049D01*
X198292184Y-141155051D01*
X198481588Y-141251557D01*
X198683757Y-141317246D01*
X198893713Y-141350500D01*
X198893714Y-141350500D01*
X199106286Y-141350500D01*
X199106287Y-141350500D01*
X199316243Y-141317246D01*
X199518412Y-141251557D01*
X199707816Y-141155051D01*
X199729789Y-141139086D01*
X199879786Y-141030109D01*
X199879788Y-141030106D01*
X199879792Y-141030104D01*
X200030104Y-140879792D01*
X200030106Y-140879788D01*
X200030109Y-140879786D01*
X200155048Y-140707820D01*
X200155047Y-140707820D01*
X200155051Y-140707816D01*
X200251557Y-140518412D01*
X200317246Y-140316243D01*
X200350500Y-140106287D01*
X200350500Y-139893713D01*
X200317246Y-139683757D01*
X200251557Y-139481588D01*
X200155051Y-139292184D01*
X200155049Y-139292181D01*
X200155048Y-139292179D01*
X200030109Y-139120213D01*
X199879786Y-138969890D01*
X199707820Y-138844951D01*
X199518414Y-138748444D01*
X199518413Y-138748443D01*
X199518412Y-138748443D01*
X199316243Y-138682754D01*
X199316241Y-138682753D01*
X199316240Y-138682753D01*
X199154957Y-138657208D01*
X199106287Y-138649500D01*
X198893713Y-138649500D01*
X198845042Y-138657208D01*
X198683760Y-138682753D01*
X198481585Y-138748444D01*
X198292179Y-138844951D01*
X198120213Y-138969890D01*
X197969890Y-139120213D01*
X197844951Y-139292179D01*
X197748444Y-139481585D01*
X197682753Y-139683760D01*
X197680736Y-139696496D01*
X197649500Y-139893713D01*
X178271775Y-139893713D01*
X178376249Y-139724036D01*
X178589697Y-139300688D01*
X178766473Y-138860763D01*
X178905304Y-138407432D01*
X179005190Y-137943960D01*
X179065411Y-137473686D01*
X179085533Y-137000000D01*
X179065411Y-136526314D01*
X179005190Y-136056040D01*
X178905304Y-135592568D01*
X178766473Y-135139237D01*
X178589697Y-134699312D01*
X178589697Y-134699311D01*
X178376258Y-134275981D01*
X178376247Y-134275961D01*
X178127668Y-133872242D01*
X177845744Y-133491056D01*
X177532510Y-133135153D01*
X177190220Y-132807095D01*
X177190211Y-132807086D01*
X177190209Y-132807085D01*
X176821345Y-132509248D01*
X176821344Y-132509247D01*
X176428546Y-132243763D01*
X176428536Y-132243756D01*
X176417662Y-132237681D01*
X176014637Y-132012537D01*
X176014615Y-132012526D01*
X175582608Y-131817247D01*
X175135566Y-131659297D01*
X174676754Y-131539832D01*
X174209472Y-131459708D01*
X174209446Y-131459705D01*
X173737075Y-131419500D01*
X173737057Y-131419500D01*
X173424500Y-131419500D01*
X173357461Y-131399815D01*
X173311706Y-131347011D01*
X173300500Y-131295500D01*
X173300500Y-130629500D01*
X173320185Y-130562461D01*
X173372989Y-130516706D01*
X173424500Y-130505500D01*
X182995591Y-130505500D01*
X183013573Y-130505179D01*
X183013583Y-130505178D01*
X183013618Y-130505178D01*
X183022464Y-130504862D01*
X183040481Y-130503896D01*
X183311848Y-130484487D01*
X183311849Y-130484486D01*
X183311861Y-130484486D01*
X183347707Y-130480632D01*
X183347724Y-130480629D01*
X183347729Y-130480629D01*
X183365241Y-130478111D01*
X183400748Y-130471705D01*
X183437287Y-130463756D01*
X183662237Y-130414822D01*
X183662245Y-130414820D01*
X183697194Y-130405900D01*
X183714170Y-130400916D01*
X183748425Y-130389516D01*
X183999179Y-130295989D01*
X184032530Y-130282174D01*
X184048623Y-130274824D01*
X184080876Y-130258678D01*
X184315755Y-130130425D01*
X184346783Y-130112016D01*
X184361667Y-130102451D01*
X184391316Y-130081866D01*
X184605560Y-129921484D01*
X184633670Y-129898831D01*
X184647040Y-129887245D01*
X184673436Y-129862667D01*
X184862667Y-129673436D01*
X184887245Y-129647040D01*
X184898831Y-129633670D01*
X184921484Y-129605560D01*
X185081866Y-129391316D01*
X185102451Y-129361667D01*
X185112016Y-129346783D01*
X185130425Y-129315755D01*
X185258678Y-129080876D01*
X185274824Y-129048623D01*
X185282174Y-129032530D01*
X185295989Y-128999179D01*
X185389516Y-128748425D01*
X185400916Y-128714170D01*
X185405900Y-128697194D01*
X185414820Y-128662245D01*
X185471705Y-128400748D01*
X185478111Y-128365241D01*
X185480629Y-128347729D01*
X185480629Y-128347724D01*
X185480632Y-128347707D01*
X185484486Y-128311861D01*
X185490663Y-128225500D01*
X185503896Y-128040481D01*
X185504862Y-128022464D01*
X185505178Y-128013618D01*
X185505500Y-127995572D01*
X185505500Y-124504427D01*
X185505178Y-124486381D01*
X185504862Y-124477535D01*
X185503896Y-124459518D01*
X185500000Y-124405046D01*
X185500000Y-121000000D01*
X188894592Y-121000000D01*
X188914201Y-121286680D01*
X188972666Y-121568034D01*
X188972667Y-121568037D01*
X189068894Y-121838793D01*
X189068893Y-121838793D01*
X189201098Y-122093935D01*
X189366812Y-122328700D01*
X189440351Y-122407440D01*
X189562947Y-122538708D01*
X189785853Y-122720055D01*
X190026389Y-122866329D01*
X190031382Y-122869365D01*
X190218237Y-122950526D01*
X190294942Y-122983844D01*
X190571642Y-123061371D01*
X190821920Y-123095771D01*
X190856321Y-123100500D01*
X190856322Y-123100500D01*
X191143679Y-123100500D01*
X191174370Y-123096281D01*
X191428358Y-123061371D01*
X191705058Y-122983844D01*
X191910890Y-122894439D01*
X191968617Y-122869365D01*
X191968620Y-122869363D01*
X191968625Y-122869361D01*
X192214147Y-122720055D01*
X192432714Y-122542237D01*
X192497140Y-122515200D01*
X192565957Y-122527285D01*
X192617315Y-122574657D01*
X192634909Y-122642275D01*
X192617881Y-122698950D01*
X192618240Y-122699118D01*
X192617091Y-122701581D01*
X192616509Y-122703520D01*
X192615191Y-122705656D01*
X192615186Y-122705666D01*
X192560001Y-122872203D01*
X192560001Y-122872204D01*
X192560000Y-122872204D01*
X192549500Y-122974983D01*
X192549500Y-124025001D01*
X192549501Y-124025019D01*
X192560000Y-124127796D01*
X192560001Y-124127799D01*
X192580000Y-124188151D01*
X192615186Y-124294334D01*
X192660798Y-124368284D01*
X192707289Y-124443657D01*
X192713181Y-124449549D01*
X192746666Y-124510872D01*
X192749500Y-124537230D01*
X192749500Y-124750500D01*
X192729815Y-124817539D01*
X192677011Y-124863294D01*
X192625500Y-124874500D01*
X192246155Y-124874500D01*
X192091510Y-124905261D01*
X192091498Y-124905264D01*
X191945827Y-124965602D01*
X191945814Y-124965609D01*
X191861367Y-125022036D01*
X191794690Y-125042914D01*
X191743076Y-125032669D01*
X191713183Y-125019685D01*
X191705058Y-125016156D01*
X191596520Y-124985745D01*
X191428364Y-124938630D01*
X191428359Y-124938629D01*
X191428358Y-124938629D01*
X191185614Y-124905264D01*
X191143679Y-124899500D01*
X191143678Y-124899500D01*
X190856322Y-124899500D01*
X190856321Y-124899500D01*
X190571642Y-124938629D01*
X190571635Y-124938630D01*
X190363861Y-124996845D01*
X190294942Y-125016156D01*
X190294939Y-125016156D01*
X190294936Y-125016158D01*
X190294935Y-125016158D01*
X190031382Y-125130634D01*
X189785853Y-125279944D01*
X189562950Y-125461289D01*
X189366812Y-125671299D01*
X189201098Y-125906064D01*
X189068894Y-126161206D01*
X188972667Y-126431962D01*
X188972666Y-126431965D01*
X188914201Y-126713319D01*
X188894592Y-127000000D01*
X188914201Y-127286680D01*
X188972666Y-127568034D01*
X188972667Y-127568037D01*
X189068894Y-127838793D01*
X189068893Y-127838793D01*
X189201098Y-128093935D01*
X189366812Y-128328700D01*
X189434112Y-128400760D01*
X189562947Y-128538708D01*
X189785853Y-128720055D01*
X190029592Y-128868277D01*
X190031382Y-128869365D01*
X190218237Y-128950526D01*
X190294942Y-128983844D01*
X190571642Y-129061371D01*
X190821920Y-129095771D01*
X190856321Y-129100500D01*
X190856322Y-129100500D01*
X191143679Y-129100500D01*
X191174370Y-129096281D01*
X191428358Y-129061371D01*
X191705058Y-128983844D01*
X191915126Y-128892599D01*
X191968617Y-128869365D01*
X191968620Y-128869363D01*
X191968625Y-128869361D01*
X192214147Y-128720055D01*
X192437053Y-128538708D01*
X192633189Y-128328698D01*
X192736237Y-128182711D01*
X192790978Y-128139294D01*
X192860503Y-128132365D01*
X192901690Y-128148103D01*
X192935394Y-128168478D01*
X193097804Y-128219086D01*
X193168384Y-128225500D01*
X193168387Y-128225500D01*
X193831613Y-128225500D01*
X193831616Y-128225500D01*
X193902196Y-128219086D01*
X194064606Y-128168478D01*
X194088422Y-128154080D01*
X194106119Y-128143383D01*
X194170268Y-128125500D01*
X195942060Y-128125500D01*
X196009099Y-128145185D01*
X196029741Y-128161819D01*
X196989707Y-129121786D01*
X196989711Y-129121789D01*
X197120814Y-129209390D01*
X197120827Y-129209397D01*
X197266498Y-129269735D01*
X197266503Y-129269737D01*
X197421153Y-129300499D01*
X197421156Y-129300500D01*
X197421158Y-129300500D01*
X197578842Y-129300500D01*
X198557633Y-129300500D01*
X198608069Y-129311221D01*
X198720192Y-129361142D01*
X198720197Y-129361144D01*
X198905354Y-129400500D01*
X198905355Y-129400500D01*
X199094644Y-129400500D01*
X199094646Y-129400500D01*
X199279803Y-129361144D01*
X199452730Y-129284151D01*
X199605871Y-129172888D01*
X199732533Y-129032216D01*
X199827179Y-128868284D01*
X199885674Y-128688256D01*
X199905460Y-128500000D01*
X199885674Y-128311744D01*
X199827179Y-128131716D01*
X199732533Y-127967784D01*
X199605871Y-127827112D01*
X199605870Y-127827111D01*
X199452734Y-127715851D01*
X199452729Y-127715848D01*
X199279807Y-127638857D01*
X199279802Y-127638855D01*
X199134001Y-127607865D01*
X199094646Y-127599500D01*
X198905354Y-127599500D01*
X198872897Y-127606398D01*
X198720197Y-127638855D01*
X198720192Y-127638857D01*
X198608069Y-127688779D01*
X198557633Y-127699500D01*
X197882940Y-127699500D01*
X197815901Y-127679815D01*
X197795259Y-127663181D01*
X196835292Y-126703213D01*
X196835288Y-126703210D01*
X196704185Y-126615609D01*
X196704172Y-126615602D01*
X196558501Y-126555264D01*
X196558489Y-126555261D01*
X196403845Y-126524500D01*
X196403842Y-126524500D01*
X194415520Y-126524500D01*
X194348481Y-126504815D01*
X194302726Y-126452011D01*
X194292782Y-126382853D01*
X194321807Y-126319297D01*
X194327839Y-126312819D01*
X194330468Y-126310189D01*
X194330469Y-126310188D01*
X194330472Y-126310185D01*
X194418478Y-126164606D01*
X194469086Y-126002196D01*
X194475500Y-125931616D01*
X194475500Y-125418384D01*
X194469086Y-125347804D01*
X194418478Y-125185394D01*
X194368383Y-125102527D01*
X194350500Y-125038377D01*
X194350500Y-124537230D01*
X194370185Y-124470191D01*
X194386819Y-124449549D01*
X194392712Y-124443656D01*
X194484814Y-124294334D01*
X194539999Y-124127797D01*
X194550500Y-124025009D01*
X194550499Y-122974992D01*
X194539999Y-122872203D01*
X194484814Y-122705666D01*
X194392712Y-122556344D01*
X194268656Y-122432288D01*
X194164888Y-122368284D01*
X194119336Y-122340187D01*
X194119331Y-122340185D01*
X194117862Y-122339698D01*
X193952797Y-122285001D01*
X193952795Y-122285000D01*
X193850010Y-122274500D01*
X193249998Y-122274500D01*
X193249980Y-122274501D01*
X193147203Y-122285000D01*
X193147200Y-122285001D01*
X192980668Y-122340185D01*
X192980659Y-122340189D01*
X192866938Y-122410333D01*
X192799546Y-122428773D01*
X192732882Y-122407850D01*
X192688113Y-122354208D01*
X192679452Y-122284877D01*
X192700538Y-122233286D01*
X192798550Y-122094433D01*
X192798901Y-122093936D01*
X192931104Y-121838797D01*
X193027334Y-121568032D01*
X193085798Y-121286686D01*
X193105408Y-121000000D01*
X193105408Y-120999993D01*
X201914467Y-120999993D01*
X201914467Y-121000006D01*
X201934587Y-121473673D01*
X201994810Y-121943961D01*
X202094696Y-122407432D01*
X202094698Y-122407440D01*
X202233527Y-122860765D01*
X202233529Y-122860770D01*
X202410298Y-123300677D01*
X202410302Y-123300688D01*
X202623741Y-123724018D01*
X202623752Y-123724038D01*
X202693770Y-123837754D01*
X202872332Y-124127758D01*
X203154256Y-124508944D01*
X203154261Y-124508949D01*
X203154262Y-124508951D01*
X203467489Y-124864846D01*
X203809788Y-125192913D01*
X203809790Y-125192914D01*
X204178654Y-125490751D01*
X204178655Y-125490752D01*
X204260500Y-125546069D01*
X204571464Y-125756244D01*
X204621420Y-125784151D01*
X204985362Y-125987462D01*
X204985384Y-125987473D01*
X205417391Y-126182752D01*
X205417398Y-126182755D01*
X205864429Y-126340701D01*
X206323244Y-126460167D01*
X206790538Y-126540293D01*
X206936774Y-126552739D01*
X207262924Y-126580499D01*
X207262941Y-126580499D01*
X207262943Y-126580500D01*
X207262944Y-126580500D01*
X207737056Y-126580500D01*
X207737057Y-126580500D01*
X207737058Y-126580499D01*
X207737075Y-126580499D01*
X208033563Y-126555264D01*
X208209462Y-126540293D01*
X208676756Y-126460167D01*
X209135571Y-126340701D01*
X209582602Y-126182755D01*
X210014628Y-125987467D01*
X210428536Y-125756244D01*
X210821343Y-125490753D01*
X211152208Y-125223598D01*
X211190209Y-125192914D01*
X211190211Y-125192913D01*
X211190215Y-125192908D01*
X211190220Y-125192905D01*
X211532510Y-124864847D01*
X211845744Y-124508944D01*
X212127668Y-124127758D01*
X212376249Y-123724036D01*
X212589697Y-123300688D01*
X212766473Y-122860763D01*
X212905304Y-122407432D01*
X213005190Y-121943960D01*
X213065411Y-121473686D01*
X213067643Y-121421158D01*
X213085533Y-121000006D01*
X213085533Y-120999993D01*
X213065412Y-120526326D01*
X213065411Y-120526320D01*
X213065411Y-120526314D01*
X213005190Y-120056040D01*
X212905304Y-119592568D01*
X212766473Y-119139237D01*
X212733673Y-119057612D01*
X212589701Y-118699322D01*
X212589697Y-118699311D01*
X212376258Y-118275981D01*
X212376247Y-118275961D01*
X212375541Y-118274814D01*
X212127668Y-117872242D01*
X211845744Y-117491056D01*
X211837305Y-117481468D01*
X211532510Y-117135153D01*
X211190211Y-116807086D01*
X211190209Y-116807085D01*
X210821345Y-116509248D01*
X210821344Y-116509247D01*
X210428546Y-116243763D01*
X210428536Y-116243756D01*
X210417662Y-116237681D01*
X210014637Y-116012537D01*
X210014615Y-116012526D01*
X209582608Y-115817247D01*
X209135566Y-115659297D01*
X208676754Y-115539832D01*
X208209472Y-115459708D01*
X208209446Y-115459705D01*
X207737075Y-115419500D01*
X207737057Y-115419500D01*
X207262943Y-115419500D01*
X207262924Y-115419500D01*
X206790553Y-115459705D01*
X206790527Y-115459708D01*
X206323245Y-115539832D01*
X205864433Y-115659297D01*
X205417391Y-115817247D01*
X204985384Y-116012526D01*
X204985362Y-116012537D01*
X204571472Y-116243751D01*
X204571453Y-116243763D01*
X204178655Y-116509247D01*
X204178654Y-116509248D01*
X203809790Y-116807085D01*
X203809788Y-116807086D01*
X203467489Y-117135153D01*
X203154262Y-117491048D01*
X203154256Y-117491055D01*
X203154256Y-117491056D01*
X203152694Y-117493168D01*
X202872331Y-117872243D01*
X202623752Y-118275961D01*
X202623741Y-118275981D01*
X202410302Y-118699311D01*
X202410298Y-118699322D01*
X202233529Y-119139229D01*
X202233527Y-119139234D01*
X202094698Y-119592559D01*
X202094696Y-119592567D01*
X201994810Y-120056038D01*
X201934587Y-120526326D01*
X201914467Y-120999993D01*
X193105408Y-120999993D01*
X193085798Y-120713314D01*
X193027334Y-120431968D01*
X192931105Y-120161206D01*
X192931106Y-120161206D01*
X192798901Y-119906064D01*
X192633187Y-119671299D01*
X192536250Y-119567506D01*
X192437053Y-119461292D01*
X192214147Y-119279945D01*
X192214146Y-119279944D01*
X192108746Y-119215849D01*
X191968625Y-119130639D01*
X191968621Y-119130637D01*
X191968619Y-119130636D01*
X191875098Y-119090014D01*
X191821451Y-119045251D01*
X191800522Y-118978589D01*
X191800500Y-118976280D01*
X191800500Y-112932454D01*
X191820185Y-112865415D01*
X191872989Y-112819660D01*
X191873936Y-112819232D01*
X191952730Y-112784151D01*
X192105871Y-112672888D01*
X192232533Y-112532216D01*
X192327179Y-112368284D01*
X192385674Y-112188256D01*
X192405460Y-112000000D01*
X192398887Y-111937460D01*
X192411457Y-111868731D01*
X192459189Y-111817708D01*
X192522208Y-111800500D01*
X199562115Y-111800500D01*
X199629154Y-111820185D01*
X199667161Y-111864047D01*
X199669571Y-111862656D01*
X199767465Y-112032214D01*
X199894129Y-112172888D01*
X200047265Y-112284148D01*
X200047270Y-112284151D01*
X200220192Y-112361142D01*
X200220197Y-112361144D01*
X200405354Y-112400500D01*
X200405355Y-112400500D01*
X200594644Y-112400500D01*
X200594646Y-112400500D01*
X200779803Y-112361144D01*
X200891931Y-112311221D01*
X200942367Y-112300500D01*
X203078844Y-112300500D01*
X203078845Y-112300499D01*
X203233497Y-112269737D01*
X203377866Y-112209938D01*
X203425318Y-112200499D01*
X203900002Y-112200499D01*
X203900008Y-112200499D01*
X204002797Y-112189999D01*
X204169334Y-112134814D01*
X204318656Y-112042712D01*
X204412319Y-111949049D01*
X204473642Y-111915564D01*
X204543334Y-111920548D01*
X204587681Y-111949049D01*
X204681344Y-112042712D01*
X204830666Y-112134814D01*
X204997203Y-112189999D01*
X205099991Y-112200500D01*
X205753663Y-112200499D01*
X205820702Y-112220183D01*
X205866457Y-112272987D01*
X205876401Y-112342146D01*
X205859781Y-112388648D01*
X205831520Y-112435397D01*
X205794892Y-112552942D01*
X205764188Y-112603732D01*
X205252433Y-113115487D01*
X205215189Y-113141085D01*
X205047267Y-113215850D01*
X205047265Y-113215851D01*
X204894129Y-113327111D01*
X204767466Y-113467785D01*
X204672821Y-113631715D01*
X204672818Y-113631722D01*
X204614327Y-113811740D01*
X204614326Y-113811744D01*
X204594540Y-114000000D01*
X204614326Y-114188256D01*
X204614327Y-114188259D01*
X204672818Y-114368277D01*
X204672821Y-114368284D01*
X204767467Y-114532216D01*
X204834652Y-114606832D01*
X204894129Y-114672888D01*
X205047265Y-114784148D01*
X205047270Y-114784151D01*
X205220192Y-114861142D01*
X205220197Y-114861144D01*
X205405354Y-114900500D01*
X205405355Y-114900500D01*
X205594644Y-114900500D01*
X205594646Y-114900500D01*
X205779803Y-114861144D01*
X205952730Y-114784151D01*
X206105871Y-114672888D01*
X206232533Y-114532216D01*
X206327179Y-114368284D01*
X206348488Y-114302700D01*
X206378732Y-114253344D01*
X206620260Y-114011816D01*
X206681582Y-113978334D01*
X206707940Y-113975500D01*
X206931613Y-113975500D01*
X206931616Y-113975500D01*
X207002196Y-113969086D01*
X207164606Y-113918478D01*
X207310185Y-113830472D01*
X207356506Y-113784151D01*
X207412319Y-113728339D01*
X207473642Y-113694854D01*
X207543334Y-113699838D01*
X207587681Y-113728339D01*
X207689811Y-113830469D01*
X207689813Y-113830470D01*
X207689815Y-113830472D01*
X207835394Y-113918478D01*
X207997804Y-113969086D01*
X208068384Y-113975500D01*
X208068387Y-113975500D01*
X208581613Y-113975500D01*
X208581616Y-113975500D01*
X208652196Y-113969086D01*
X208814606Y-113918478D01*
X208960185Y-113830472D01*
X209080472Y-113710185D01*
X209168478Y-113564606D01*
X209219086Y-113402196D01*
X209225500Y-113331616D01*
X209225500Y-112668384D01*
X209219086Y-112597804D01*
X209168478Y-112435394D01*
X209147384Y-112400500D01*
X209143383Y-112393881D01*
X209125500Y-112329732D01*
X209125500Y-112068645D01*
X209145185Y-112001606D01*
X209197989Y-111955851D01*
X209212592Y-111950266D01*
X209314606Y-111918478D01*
X209460185Y-111830472D01*
X209580472Y-111710185D01*
X209668478Y-111564606D01*
X209719086Y-111402196D01*
X209725500Y-111331616D01*
X209725500Y-110668384D01*
X209719086Y-110597804D01*
X209668478Y-110435394D01*
X209580472Y-110289815D01*
X209580470Y-110289813D01*
X209580469Y-110289811D01*
X209460188Y-110169530D01*
X209415627Y-110142592D01*
X209314606Y-110081522D01*
X209152196Y-110030914D01*
X209152194Y-110030913D01*
X209152192Y-110030913D01*
X209102778Y-110026423D01*
X209081616Y-110024500D01*
X208568384Y-110024500D01*
X208549145Y-110026248D01*
X208497807Y-110030913D01*
X208335393Y-110081522D01*
X208189811Y-110169530D01*
X208189810Y-110169531D01*
X208087681Y-110271661D01*
X208026358Y-110305146D01*
X207956666Y-110300162D01*
X207912319Y-110271661D01*
X207810188Y-110169530D01*
X207765627Y-110142592D01*
X207664606Y-110081522D01*
X207502196Y-110030914D01*
X207502194Y-110030913D01*
X207502192Y-110030913D01*
X207452778Y-110026423D01*
X207431616Y-110024500D01*
X206918384Y-110024500D01*
X206899145Y-110026248D01*
X206847807Y-110030913D01*
X206685391Y-110081523D01*
X206613875Y-110124756D01*
X206546321Y-110142592D01*
X206479847Y-110121074D01*
X206447262Y-110086956D01*
X206447193Y-110087011D01*
X206446606Y-110086269D01*
X206444188Y-110083737D01*
X206442712Y-110081344D01*
X206318657Y-109957289D01*
X206318656Y-109957288D01*
X206169334Y-109865186D01*
X206002797Y-109810001D01*
X206002795Y-109810000D01*
X205900010Y-109799500D01*
X205099998Y-109799500D01*
X205099980Y-109799501D01*
X204997203Y-109810000D01*
X204997200Y-109810001D01*
X204830668Y-109865185D01*
X204830663Y-109865187D01*
X204681342Y-109957289D01*
X204587681Y-110050951D01*
X204526358Y-110084436D01*
X204456666Y-110079452D01*
X204412319Y-110050951D01*
X204318657Y-109957289D01*
X204318656Y-109957288D01*
X204169334Y-109865186D01*
X204002797Y-109810001D01*
X204002795Y-109810000D01*
X203900010Y-109799500D01*
X203099998Y-109799500D01*
X203099980Y-109799501D01*
X202997203Y-109810000D01*
X202997200Y-109810001D01*
X202830668Y-109865185D01*
X202830663Y-109865187D01*
X202681342Y-109957289D01*
X202557289Y-110081342D01*
X202465187Y-110230663D01*
X202465185Y-110230668D01*
X202445587Y-110289811D01*
X202410001Y-110397203D01*
X202410001Y-110397204D01*
X202410000Y-110397204D01*
X202399500Y-110499983D01*
X202399500Y-110575500D01*
X202379815Y-110642539D01*
X202327011Y-110688294D01*
X202275500Y-110699500D01*
X200942367Y-110699500D01*
X200891931Y-110688779D01*
X200784809Y-110641084D01*
X200747564Y-110615486D01*
X200510292Y-110378213D01*
X200510288Y-110378210D01*
X200379185Y-110290609D01*
X200379172Y-110290602D01*
X200233501Y-110230264D01*
X200233489Y-110230261D01*
X200078845Y-110199500D01*
X200078842Y-110199500D01*
X190442367Y-110199500D01*
X190391931Y-110188779D01*
X190279807Y-110138857D01*
X190279802Y-110138855D01*
X190134001Y-110107865D01*
X190094646Y-110099500D01*
X189905354Y-110099500D01*
X189872897Y-110106398D01*
X189720197Y-110138855D01*
X189720192Y-110138857D01*
X189547270Y-110215848D01*
X189547265Y-110215851D01*
X189394129Y-110327111D01*
X189267466Y-110467785D01*
X189172821Y-110631715D01*
X189172818Y-110631722D01*
X189129459Y-110765169D01*
X189114326Y-110811744D01*
X189094540Y-111000000D01*
X189114326Y-111188256D01*
X189114327Y-111188259D01*
X189172818Y-111368277D01*
X189172821Y-111368284D01*
X189267467Y-111532216D01*
X189394129Y-111672888D01*
X189547265Y-111784148D01*
X189547270Y-111784151D01*
X189720192Y-111861142D01*
X189720197Y-111861144D01*
X189905354Y-111900500D01*
X189905355Y-111900500D01*
X190094644Y-111900500D01*
X190094646Y-111900500D01*
X190196299Y-111878893D01*
X190265965Y-111884209D01*
X190321699Y-111926346D01*
X190345804Y-111991926D01*
X190330627Y-112060127D01*
X190325182Y-112069073D01*
X190290608Y-112120816D01*
X190290602Y-112120827D01*
X190230264Y-112266498D01*
X190230261Y-112266510D01*
X190199500Y-112421153D01*
X190199500Y-118976280D01*
X190179815Y-119043319D01*
X190127011Y-119089074D01*
X190124902Y-119090014D01*
X190031380Y-119130636D01*
X189785853Y-119279944D01*
X189562950Y-119461289D01*
X189366812Y-119671299D01*
X189201098Y-119906064D01*
X189068894Y-120161206D01*
X188972667Y-120431962D01*
X188972666Y-120431965D01*
X188914201Y-120713319D01*
X188894592Y-121000000D01*
X185500000Y-121000000D01*
X185500000Y-110004427D01*
X185500316Y-109995581D01*
X185519724Y-109724214D01*
X185522240Y-109706710D01*
X185579130Y-109445192D01*
X185584107Y-109428241D01*
X185677640Y-109177470D01*
X185684985Y-109161388D01*
X185813248Y-108926491D01*
X185822798Y-108911630D01*
X185983195Y-108697366D01*
X185994767Y-108684012D01*
X186184012Y-108494767D01*
X186197366Y-108483195D01*
X186411630Y-108322798D01*
X186426491Y-108313248D01*
X186661388Y-108184985D01*
X186677470Y-108177640D01*
X186928241Y-108084107D01*
X186945192Y-108079130D01*
X187206710Y-108022240D01*
X187224207Y-108019724D01*
X187495582Y-108000316D01*
X187504428Y-108000000D01*
X214495572Y-108000000D01*
X214504418Y-108000316D01*
G37*
%TD.AperFunction*%
%TD*%
M02*
