M48
; DRILL file {KiCad 8.0.8} date 2025-03-09T18:25:28-0400
; FORMAT={-:-/ absolute / metric / decimal}
; #@! TF.CreationDate,2025-03-09T18:25:28-04:00
; #@! TF.GenerationSoftware,Kicad,Pcbnew,8.0.8
; #@! TF.FileFunction,Plated,1,2,PTH
FMAT,2
METRIC
; #@! TA.AperFunction,Plated,PTH,ViaDrill
T1C0.600
; #@! TA.AperFunction,Plated,PTH,ComponentDrill
T2C0.762
; #@! TA.AperFunction,Plated,PTH,ComponentDrill
T3C0.800
; #@! TA.AperFunction,Plated,PTH,ComponentDrill
T4C1.000
; #@! TA.AperFunction,Plated,PTH,ComponentDrill
T5C1.016
; #@! TA.AperFunction,Plated,PTH,ComponentDrill
T6C1.100
; #@! TA.AperFunction,Plated,PTH,ComponentDrill
T7C1.600
; #@! TA.AperFunction,Plated,PTH,ComponentDrill
T8C2.200
; #@! TA.AperFunction,Plated,PTH,ComponentDrill
T9C6.100
%
G90
G05
T1
X100.0Y-101.0
X100.0Y-103.0
X100.0Y-105.0
X101.0Y-102.0
X101.0Y-104.0
X101.0Y-106.0
X101.5Y-101.0
X101.5Y-103.0
X101.5Y-105.0
X102.5Y-102.0
X102.5Y-104.0
X102.5Y-106.0
X103.0Y-101.0
X103.0Y-103.0
X103.0Y-105.0
X104.0Y-102.0
X104.0Y-104.0
X104.0Y-106.0
X104.5Y-101.0
X104.5Y-103.0
X104.5Y-105.0
X105.5Y-102.0
X105.5Y-104.0
X105.5Y-106.0
X107.0Y-122.0
X107.0Y-124.0
X107.0Y-126.0
X107.5Y-121.0
X107.5Y-123.0
X107.5Y-125.0
X108.0Y-120.0
X108.0Y-122.0
X108.0Y-124.0
X108.0Y-126.0
X108.5Y-119.0
X108.5Y-121.0
X108.5Y-123.0
X108.5Y-125.0
X109.0Y-120.0
X109.0Y-122.0
X109.0Y-124.0
X109.0Y-126.0
X109.5Y-119.0
X109.5Y-121.0
X109.5Y-123.0
X109.5Y-125.0
X110.0Y-120.0
X110.0Y-122.0
X110.0Y-124.0
X110.0Y-126.0
X110.5Y-119.0
X110.5Y-121.0
X110.5Y-123.0
X110.5Y-125.0
X111.0Y-118.0
X111.0Y-120.0
X111.0Y-122.0
X111.0Y-124.0
X111.5Y-119.0
X111.5Y-121.0
X111.5Y-123.0
X111.5Y-125.0
X112.0Y-118.0
X112.0Y-120.0
X112.0Y-122.0
X112.0Y-124.0
X112.5Y-119.0
X112.5Y-121.0
X112.5Y-123.0
X112.5Y-125.0
X113.0Y-111.0
X113.0Y-113.0
X113.0Y-118.0
X113.0Y-120.0
X113.0Y-122.0
X113.0Y-124.0
X113.5Y-112.0
X113.5Y-119.0
X113.5Y-121.0
X113.5Y-123.0
X113.5Y-125.0
X114.0Y-111.0
X114.0Y-113.0
X114.0Y-118.0
X114.0Y-120.0
X114.0Y-122.0
X114.0Y-124.0
X114.0Y-126.0
X114.5Y-110.0
X114.5Y-112.0
X114.5Y-119.0
X114.5Y-121.0
X114.5Y-123.0
X114.5Y-125.0
X115.0Y-111.0
X115.0Y-113.0
X115.0Y-118.0
X115.0Y-120.0
X115.0Y-122.0
X115.0Y-124.0
X115.0Y-126.0
X115.5Y-110.0
X115.5Y-112.0
X115.5Y-119.0
X115.5Y-121.0
X115.5Y-123.0
X115.5Y-125.0
X116.0Y-111.0
X116.0Y-113.0
X116.0Y-118.0
X116.0Y-120.0
X116.0Y-122.0
X116.0Y-124.0
X116.0Y-126.0
X116.5Y-110.0
X116.5Y-112.0
X116.5Y-119.0
X116.5Y-121.0
X116.5Y-123.0
X116.5Y-125.0
X117.0Y-111.0
X117.0Y-113.0
X117.0Y-118.0
X117.0Y-120.0
X117.0Y-122.0
X117.0Y-124.0
X117.0Y-126.0
X117.5Y-110.0
X117.5Y-112.0
X117.5Y-119.0
X117.5Y-121.0
X117.5Y-123.0
X118.0Y-111.0
X118.0Y-113.0
X118.0Y-118.0
X118.0Y-120.0
X118.0Y-122.0
X118.5Y-110.0
X118.5Y-112.0
X118.5Y-119.0
X118.5Y-121.0
X118.5Y-123.0
X119.0Y-111.0
X119.0Y-113.0
X119.0Y-118.0
X119.0Y-120.0
X119.0Y-122.0
X119.5Y-110.0
X119.5Y-112.0
X119.5Y-119.0
X119.5Y-121.0
X119.5Y-123.0
X120.0Y-111.0
X120.0Y-113.0
X120.0Y-118.0
X120.0Y-120.0
X120.0Y-122.0
X120.5Y-110.0
X120.5Y-112.0
X120.5Y-119.0
X120.5Y-121.0
X120.5Y-123.0
X121.0Y-69.0
X121.0Y-111.0
X121.0Y-113.0
X121.0Y-118.0
X121.0Y-120.0
X121.0Y-122.0
X121.5Y-110.0
X121.5Y-112.0
X121.5Y-119.0
X121.5Y-121.0
X121.5Y-123.0
X122.0Y-60.5
X122.0Y-64.5
X122.0Y-71.0
X122.0Y-111.0
X122.0Y-113.0
X122.0Y-118.0
X122.0Y-120.0
X122.0Y-122.0
X122.5Y-110.0
X122.5Y-112.0
X122.5Y-119.0
X122.5Y-121.0
X122.5Y-123.0
X122.5Y-138.0
X123.0Y-56.0
X123.0Y-62.5
X123.0Y-66.5
X123.0Y-111.0
X123.0Y-113.0
X123.0Y-118.0
X123.0Y-120.0
X123.0Y-122.0
X123.5Y-69.0
X123.5Y-110.0
X123.5Y-112.0
X123.5Y-119.0
X123.5Y-121.0
X123.5Y-123.0
X123.5Y-133.5
X123.5Y-140.0
X124.0Y-58.0
X124.0Y-111.0
X124.0Y-113.0
X124.0Y-118.0
X124.0Y-120.0
X124.0Y-122.0
X124.5Y-60.5
X124.5Y-64.5
X124.5Y-71.0
X124.5Y-110.0
X124.5Y-112.0
X124.5Y-119.0
X124.5Y-121.0
X124.5Y-123.0
X124.5Y-135.5
X125.0Y-111.0
X125.0Y-113.0
X125.0Y-118.0
X125.0Y-120.0
X125.0Y-122.0
X125.0Y-138.0
X125.5Y-56.0
X125.5Y-62.5
X125.5Y-66.5
X125.5Y-110.0
X125.5Y-112.0
X125.5Y-119.0
X125.5Y-121.0
X125.5Y-123.0
X126.0Y-69.0
X126.0Y-111.0
X126.0Y-113.0
X126.0Y-118.0
X126.0Y-120.0
X126.0Y-122.0
X126.0Y-133.5
X126.0Y-140.0
X126.5Y-58.0
X126.5Y-110.0
X126.5Y-112.0
X126.5Y-119.0
X126.5Y-121.0
X126.5Y-123.0
X127.0Y-60.5
X127.0Y-64.5
X127.0Y-71.0
X127.0Y-111.0
X127.0Y-113.0
X127.0Y-118.0
X127.0Y-120.0
X127.0Y-122.0
X127.0Y-135.5
X127.5Y-110.0
X127.5Y-112.0
X127.5Y-119.0
X127.5Y-121.0
X127.5Y-123.0
X127.5Y-138.0
X128.0Y-56.0
X128.0Y-62.5
X128.0Y-66.5
X128.0Y-111.0
X128.0Y-113.0
X128.0Y-118.0
X128.0Y-120.0
X128.0Y-122.0
X128.5Y-69.0
X128.5Y-110.0
X128.5Y-112.0
X128.5Y-119.0
X128.5Y-121.0
X128.5Y-133.5
X128.5Y-140.0
X129.0Y-58.0
X129.0Y-111.0
X129.0Y-113.0
X129.0Y-118.0
X129.0Y-120.0
X129.0Y-122.0
X129.5Y-60.5
X129.5Y-64.5
X129.5Y-71.0
X129.5Y-110.0
X129.5Y-112.0
X129.5Y-119.0
X129.5Y-121.0
X129.5Y-135.5
X130.0Y-111.0
X130.0Y-113.0
X130.0Y-118.0
X130.0Y-120.0
X130.0Y-122.0
X130.0Y-138.0
X130.5Y-56.0
X130.5Y-62.5
X130.5Y-66.5
X130.5Y-110.0
X130.5Y-112.0
X130.5Y-119.0
X130.5Y-121.0
X131.0Y-69.0
X131.0Y-111.0
X131.0Y-113.0
X131.0Y-118.0
X131.0Y-120.0
X131.0Y-122.0
X131.0Y-133.5
X131.0Y-140.0
X131.5Y-58.0
X131.5Y-110.0
X131.5Y-112.0
X131.5Y-119.0
X131.5Y-121.0
X132.0Y-60.5
X132.0Y-64.5
X132.0Y-71.0
X132.0Y-111.0
X132.0Y-113.0
X132.0Y-118.0
X132.0Y-120.0
X132.0Y-122.0
X132.0Y-135.5
X132.5Y-110.0
X132.5Y-112.0
X132.5Y-119.0
X132.5Y-121.0
X132.5Y-138.0
X133.0Y-56.0
X133.0Y-62.5
X133.0Y-66.5
X133.0Y-111.0
X133.0Y-113.0
X133.0Y-118.0
X133.0Y-120.0
X133.0Y-122.0
X133.5Y-69.0
X133.5Y-110.0
X133.5Y-112.0
X133.5Y-119.0
X133.5Y-121.0
X133.5Y-133.5
X133.5Y-140.0
X134.0Y-58.0
X134.0Y-111.0
X134.0Y-113.0
X134.0Y-118.0
X134.0Y-120.0
X134.0Y-122.0
X134.5Y-60.5
X134.5Y-64.5
X134.5Y-71.0
X134.5Y-110.0
X134.5Y-112.0
X134.5Y-119.0
X134.5Y-121.0
X134.5Y-135.5
X135.0Y-111.0
X135.0Y-113.0
X135.0Y-118.0
X135.0Y-120.0
X135.0Y-122.0
X135.0Y-138.0
X135.5Y-56.0
X135.5Y-62.5
X135.5Y-66.5
X135.5Y-110.0
X135.5Y-112.0
X135.5Y-119.0
X135.5Y-121.0
X136.0Y-69.0
X136.0Y-111.0
X136.0Y-113.0
X136.0Y-118.0
X136.0Y-120.0
X136.0Y-122.0
X136.0Y-133.5
X136.0Y-140.0
X136.5Y-58.0
X136.5Y-110.0
X136.5Y-112.0
X136.5Y-119.0
X136.5Y-121.0
X137.0Y-60.5
X137.0Y-64.5
X137.0Y-71.0
X137.0Y-111.0
X137.0Y-113.0
X137.0Y-118.0
X137.0Y-120.0
X137.0Y-122.0
X137.0Y-135.5
X137.5Y-110.0
X137.5Y-112.0
X137.5Y-119.0
X137.5Y-121.0
X137.5Y-138.0
X138.0Y-56.0
X138.0Y-62.5
X138.0Y-66.5
X138.0Y-111.0
X138.0Y-113.0
X138.0Y-120.0
X138.0Y-122.0
X138.5Y-69.0
X138.5Y-110.0
X138.5Y-112.0
X138.5Y-133.5
X138.5Y-140.0
X139.0Y-58.0
X139.0Y-111.0
X139.0Y-113.0
X139.5Y-60.5
X139.5Y-64.5
X139.5Y-71.0
X139.5Y-110.0
X139.5Y-112.0
X139.5Y-135.5
X140.0Y-111.0
X140.0Y-113.0
X140.0Y-138.0
X140.5Y-56.0
X140.5Y-62.5
X140.5Y-66.5
X140.5Y-110.0
X140.5Y-112.0
X141.0Y-69.0
X141.0Y-111.0
X141.0Y-113.0
X141.0Y-133.5
X141.0Y-140.0
X141.5Y-58.0
X141.5Y-112.0
X142.0Y-60.5
X142.0Y-64.5
X142.0Y-71.0
X142.0Y-135.5
X142.5Y-138.0
X143.0Y-56.0
X143.0Y-62.5
X143.0Y-66.5
X143.5Y-69.0
X143.5Y-133.5
X143.5Y-140.0
X144.0Y-58.0
X144.5Y-60.5
X144.5Y-64.5
X144.5Y-71.0
X144.5Y-135.5
X145.0Y-138.0
X145.5Y-56.0
X145.5Y-62.5
X145.5Y-66.5
X146.0Y-133.5
X146.0Y-140.0
X146.5Y-58.0
X146.5Y-69.0
X147.0Y-135.5
X147.5Y-60.5
X147.5Y-64.5
X147.5Y-71.0
X148.5Y-56.0
X148.5Y-62.5
X148.5Y-66.5
X149.0Y-69.0
X149.5Y-58.0
X150.0Y-60.5
X150.0Y-64.5
X150.0Y-71.0
X151.0Y-56.0
X151.0Y-62.5
X151.0Y-66.5
X151.5Y-69.0
X152.0Y-58.0
X152.5Y-60.5
X152.5Y-64.5
X152.5Y-71.0
X153.5Y-56.0
X153.5Y-62.5
X153.5Y-66.5
X154.0Y-69.0
X154.5Y-58.0
X155.0Y-60.5
X155.0Y-64.5
X155.0Y-71.0
X156.0Y-56.0
X156.0Y-62.5
X156.0Y-66.5
X156.0Y-118.5
X156.0Y-121.5
X156.5Y-69.0
X157.0Y-58.0
X157.0Y-120.0
X157.0Y-123.0
X157.5Y-60.5
X157.5Y-64.5
X157.5Y-71.0
X158.0Y-118.5
X158.0Y-121.5
X158.5Y-56.0
X158.5Y-62.5
X158.5Y-66.5
X159.0Y-69.0
X159.0Y-120.0
X159.0Y-123.0
X159.5Y-58.0
X159.5Y-101.0
X159.5Y-108.5
X160.0Y-60.5
X160.0Y-64.5
X160.0Y-71.0
X160.0Y-118.5
X160.0Y-121.5
X161.0Y-56.0
X161.0Y-62.5
X161.0Y-66.5
X161.0Y-120.0
X161.0Y-123.0
X161.5Y-69.0
X162.0Y-58.0
X162.0Y-118.5
X162.0Y-121.5
X162.5Y-60.5
X162.5Y-64.5
X162.5Y-71.0
X162.5Y-124.5
X162.5Y-127.5
X163.0Y-120.0
X163.0Y-123.0
X163.5Y-56.0
X163.5Y-62.5
X163.5Y-66.5
X163.5Y-112.0
X163.5Y-126.0
X163.5Y-129.0
X164.0Y-69.0
X164.0Y-111.0
X164.5Y-58.0
X164.5Y-103.5
X164.5Y-110.0
X164.5Y-112.0
X164.5Y-124.5
X164.5Y-127.5
X165.0Y-60.5
X165.0Y-64.5
X165.0Y-71.0
X165.0Y-111.0
X165.5Y-110.0
X165.5Y-112.0
X165.5Y-126.0
X165.5Y-129.0
X166.0Y-56.0
X166.0Y-62.5
X166.0Y-66.5
X166.0Y-111.0
X166.0Y-113.0
X166.5Y-69.0
X166.5Y-112.0
X166.5Y-124.5
X166.5Y-127.5
X167.0Y-58.0
X167.0Y-113.0
X167.5Y-60.5
X167.5Y-64.5
X167.5Y-71.0
X167.5Y-126.0
X167.5Y-129.0
X168.5Y-56.0
X168.5Y-62.5
X168.5Y-66.5
X168.5Y-124.5
X168.5Y-127.5
X169.0Y-69.0
X169.0Y-100.5
X169.5Y-58.0
X169.5Y-126.0
X169.5Y-129.0
X170.0Y-60.5
X170.0Y-64.5
X170.0Y-71.0
X171.0Y-56.0
X171.0Y-62.5
X171.0Y-66.5
X172.0Y-58.0
X173.0Y-99.725
X173.5Y-112.5
X174.5Y-129.5
X175.5Y-128.5
X176.0Y-88.0
X176.0Y-97.0
X176.5Y-129.5
X177.5Y-89.5
X177.5Y-128.5
X178.5Y-129.5
X179.5Y-128.5
X179.5Y-138.5
X180.0Y-134.0
X180.0Y-140.5
X180.06Y-102.94
X180.5Y-127.5
X180.5Y-129.5
X181.0Y-136.0
X181.5Y-138.5
X182.5Y-127.5
X182.5Y-134.0
X182.5Y-140.5
X183.5Y-136.0
X184.0Y-127.5
X184.0Y-138.5
X185.0Y-134.0
X185.0Y-140.5
X185.5Y-82.0
X186.0Y-72.0
X186.0Y-136.0
X186.5Y-77.5
X186.5Y-84.0
X186.5Y-114.5
X186.5Y-138.5
X187.5Y-69.0
X187.5Y-79.5
X187.5Y-134.0
X187.5Y-140.5
X188.0Y-70.5
X188.0Y-75.5
X188.0Y-82.0
X188.5Y-136.0
X189.0Y-77.5
X189.0Y-84.0
X189.0Y-138.5
X189.5Y-68.5
X190.0Y-73.5
X190.0Y-75.5
X190.0Y-79.5
X190.0Y-101.0
X190.0Y-111.0
X190.0Y-134.0
X190.0Y-140.5
X190.5Y-82.0
X191.0Y-136.0
X191.5Y-71.5
X191.5Y-73.5
X191.5Y-77.5
X191.5Y-84.0
X191.5Y-112.0
X191.5Y-138.5
X192.5Y-75.5
X192.5Y-79.5
X192.5Y-134.0
X192.5Y-140.5
X193.0Y-82.0
X193.0Y-105.0
X193.5Y-69.0
X193.5Y-71.0
X193.5Y-136.0
X194.0Y-73.5
X194.0Y-77.5
X194.0Y-84.0
X194.0Y-138.5
X195.0Y-69.0
X195.0Y-75.5
X195.0Y-79.5
X195.0Y-118.0
X195.0Y-134.0
X195.0Y-140.5
X195.5Y-82.0
X195.5Y-117.0
X195.5Y-119.0
X196.0Y-71.0
X196.0Y-118.0
X196.0Y-120.0
X196.0Y-136.0
X196.5Y-73.5
X196.5Y-77.5
X196.5Y-84.0
X196.5Y-109.5
X196.5Y-117.0
X196.5Y-119.0
X196.5Y-138.5
X197.0Y-118.0
X197.0Y-120.0
X197.0Y-140.5
X197.5Y-69.0
X197.5Y-75.5
X197.5Y-79.5
X197.5Y-119.0
X197.5Y-134.0
X198.0Y-82.0
X198.5Y-71.0
X198.5Y-136.0
X199.0Y-73.5
X199.0Y-77.5
X199.0Y-84.0
X199.0Y-128.5
X199.0Y-138.0
X199.137Y-112.137
X200.0Y-69.0
X200.0Y-75.5
X200.0Y-79.5
X200.0Y-134.0
X200.5Y-82.0
X200.5Y-111.5
X201.0Y-71.0
X201.0Y-105.0
X201.0Y-136.0
X201.0Y-141.0
X201.5Y-73.5
X201.5Y-77.5
X201.5Y-84.0
X202.0Y-109.0
X202.5Y-69.0
X202.5Y-75.5
X202.5Y-79.5
X203.0Y-82.0
X203.0Y-100.5
X203.5Y-71.0
X204.0Y-73.5
X204.0Y-77.5
X204.0Y-84.0
X205.0Y-69.0
X205.0Y-75.5
X205.0Y-79.5
X205.5Y-82.0
X205.5Y-114.0
X206.0Y-71.0
X206.5Y-73.5
X206.5Y-77.5
X206.5Y-84.0
X207.5Y-69.0
X207.5Y-75.5
X207.5Y-79.5
X208.0Y-82.0
X208.0Y-100.0
X208.5Y-71.0
X209.0Y-73.5
X209.0Y-77.5
X209.0Y-84.0
X210.0Y-69.0
X210.0Y-75.5
X210.0Y-79.5
X211.0Y-71.0
T2
X183.575Y-103.35
X183.575Y-105.89
X183.575Y-113.51
X183.575Y-118.59
T3
X111.5Y-128.5
X158.5Y-128.5
T4
X91.0Y-114.632
X91.0Y-119.632
X144.094Y-87.916
X144.094Y-90.456
X146.634Y-87.916
X146.634Y-90.456
X149.174Y-87.916
X149.174Y-90.456
X151.714Y-87.916
X151.714Y-90.456
T5
X117.75Y-44.97
X117.75Y-47.51
X117.75Y-88.15
X117.75Y-90.69
X120.29Y-44.97
X120.29Y-47.51
X120.29Y-88.15
X120.29Y-90.69
X122.83Y-44.97
X122.83Y-47.51
X122.83Y-88.15
X122.83Y-90.69
X125.37Y-44.97
X125.37Y-47.51
X125.37Y-88.15
X125.37Y-90.69
X127.91Y-44.97
X127.91Y-47.51
X127.91Y-88.15
X127.91Y-90.69
X130.45Y-44.97
X130.45Y-47.51
X130.45Y-88.15
X130.45Y-90.69
X132.99Y-44.97
X132.99Y-47.51
X132.99Y-88.15
X132.99Y-90.69
X135.53Y-44.97
X135.53Y-47.51
X135.53Y-88.15
X135.53Y-90.69
X138.07Y-44.97
X138.07Y-47.51
X138.07Y-88.15
X138.07Y-90.69
X140.61Y-44.97
X140.61Y-47.51
X140.61Y-88.15
X140.61Y-90.69
X181.25Y-44.97
X181.25Y-47.51
X181.25Y-88.15
X181.25Y-90.69
X183.79Y-44.97
X183.79Y-47.51
X183.79Y-88.15
X183.79Y-90.69
X186.33Y-44.97
X186.33Y-47.51
X186.33Y-88.15
X186.33Y-90.69
X188.87Y-44.97
X188.87Y-47.51
X188.87Y-88.15
X188.87Y-90.69
X191.41Y-44.97
X191.41Y-47.51
X191.41Y-88.15
X191.41Y-90.69
X193.95Y-44.97
X193.95Y-47.51
X193.95Y-88.15
X193.95Y-90.69
X196.49Y-44.97
X196.49Y-47.51
X196.49Y-88.15
X196.49Y-90.69
X199.03Y-44.97
X199.03Y-47.51
X199.03Y-88.15
X199.03Y-90.69
X201.57Y-44.97
X201.57Y-47.51
X201.57Y-88.15
X201.57Y-90.69
X204.11Y-44.97
X204.11Y-47.51
X204.11Y-88.15
X204.11Y-90.69
X209.19Y-44.97
X209.19Y-90.69
X211.73Y-44.97
X211.73Y-90.69
X214.27Y-44.97
X214.27Y-50.05
X214.27Y-52.59
X214.27Y-55.13
X214.27Y-57.67
X214.27Y-60.21
X214.27Y-65.29
X214.27Y-67.83
X214.27Y-70.37
X214.27Y-72.91
X214.27Y-75.45
X214.27Y-80.53
X214.27Y-83.07
X214.27Y-85.61
X214.27Y-90.69
T6
X101.555Y-111.96
X101.555Y-114.5
X101.555Y-117.04
T7
X191.0Y-121.0
X191.0Y-127.0
T8
X88.54Y-41.16
X88.54Y-94.5
X213.0Y-41.16
X213.0Y-94.5
T9
X93.0Y-105.0
X93.0Y-136.0
X173.5Y-137.0
X207.5Y-121.0
X209.5Y-137.0
M30
